<?xml version="1.0" encoding="UTF-8"?>
<svg id="fortifiedpro" xmlns="http://www.w3.org/2000/svg" viewBox="0 0 460 160">
  <g>
    <path d="M25.035,66.633c-2.745-.194-4.91-1.377-8.48-.965l-.288,1.369c-.747,1.048-.127,2.039-.057,3.022l.499,7.022c-3.087.321-2.363-5.721-2.401-9.93-.031-3.46.027-6.966,1.1-10.031-.736-.194-1.376-.342-1.663-.608s-.127-1.496.246-1.559l2.934-.745,5.559-.788,2.45-.494c1.243-.251,3.063.295,3.611,1.395.104.209.091.988.057,1.223-.043.295-1.005.21-1.296-.045-.53-.464-1.739-.05-2.476.032l-6.841.765c-1.216,2.401-1.377,4.317-1.337,7.011,2.048-.009,3.598.246,5.333.839,1.274.436,2.676.452,3.048,2.486Z"/>
    <path d="M143.169,72.157l-3.767,3.193c-.569.482-1.407.96-2.114.775-.67-.175-1.104-1.336-.913-2.037l1.089-3.995.458-1.309.967-2.429,1.245-3.549-1.673-1.838-.012-1.626,3.719.47c2.55.322,4.914.006,6.768,1.719l.496,2.457-.564,1.688c-.487,1.458-1.941,2.501-2.841,3.663-.862,1.114-1.788,1.915-2.856,2.82ZM145.992,66.145l.988-1.404.709-.985c.512-.711-.94-1.686-3.586-1.629l-2.868.063c.741,1.999.161,3.393-.627,4.982.106,2.683-2.284,3.936-1.071,5.175l3.392-3.113c1.104-1.013,2.166-1.815,3.063-3.089Z"/>
    <path d="M186.155,71.353l.859,2.258-1.072,2.228-2.145,1.155c-1.39.749-3.428.263-4.815-.267-2.399-.918-3.605-3.011-3.146-5.698.3-1.757,1.273-3.758.869-5.607-.285-1.305-.48-2.378.865-3.174l.335-1.734c1.296-.207,1.603.776,2.045,1.698.487,1.015,2.266.859,3.095,1.319l1.808,1.004c.815.452.573,2.265.118,2.945l-2.153.507c.158,1.457,2.738,1.797,3.336,3.367ZM179.901,68.671c-.331-.203-.363-1.738-.026-1.851,1.581-.529,2.81.104,3.358-1.206l-2.101-.532c-.51-.13-1.493-1.055-2.087-.451-.631,1.378-.443,3.114-.738,4.657-.27,1.408-.682,2.759-.403,4.215l1.471,1.539c2.575.335,5.575-.258,5.658-1.957.033-.68-.23-1.409-.92-1.833l-4.21-2.58Z"/>
    <path d="M126.327,70.182l1.467.452c.967.298,2.655.023,3.638.25.567,2.883-3.187,2.191-6.49,1.522l-2.877-.583c-1.118-.226-2.152-.798-2.2-2.102-.05-1.361.532-2.584.995-3.872.355-.988.388-2.368.619-3.426.28-1.285,1.608-1.627,2.601-2.195l2.752-1.575c.738-.422,1.747-.648,2.962-.918.145.363.202,1.186.054,1.676-.112.37-.858.532-1.302.753l-1.983,1.25c-.365.099-1.09.205-1.257.472-.522.835.61,2.337.228,2.393l-.961.142-1.065.158c-.225.033-.229.653-.216,1.009l3.758-.042c.653-.007,1.433,1.124,1.177,1.791-2.664.927-5.373.148-5.972,1.078-.163.253.158,1.111.484,1.165l3.587.6Z"/>
    <path d="M436.576,75.534c.685-.825,2.771-1.136,3.242.166l.771,2.129-.743,3.005c-.273.502-.995,1.406-1.425,1.842-1.166,1.183-2.633,1.074-3.973.265-1.075-.649-2.544-1.597-2.665-3.04l.47-2.541c.211-1.144.446-2.046.865-3.028l1.068-2.501c.878-2.057,1.617-4.371,3.431-5.928.615-.528,2.001.395,2.129,1.308l-1.9,1.349-1.911,3.95-1.043,2.229-.637,2.778c-.118.516-.645,1.115-.592,1.478s.496.922.787,1.288l.254-2.494,1.872-2.255ZM436.61,81.369l1.46-1.691c.49-.567.989-1.79.441-2.326-.387-.379-2.855,2.082-1.901,4.017Z"/>
    <path d="M52.737,70.371l-2.821-.983c-.225-.078-.656-.597-.83-.765-.209-.203-1.096-.052-1.152.234-.128.655-.143,2.138-.402,2.799-.33.844-2.138.384-2.236-.461-.465-.822.093-1.884.927-2.455.032-1.763.459-3.236,1.061-4.757.337-.851.557-1.671,1.042-2.42l1.151-1.78c.356-.55.885-1.143,1.291-1.39.467-.284,1.608-.001,1.974.326,1.497,1.338,1.227,3.186.523,5.279-.239.712-.463,1.838-.853,2.289l-.86.997c-.22.254.499,1.145.875,1.15l4.464.054c.411.005,1.039.337,1.134.643.415,1.336-2.87,2.084-5.288,1.242ZM49.916,66.001l1.153-1.786c.652-1.01,1.057-2.159.521-3.454-1.256.952-1.659,2.136-2.292,3.337-.394.747-.621,1.517-.588,2.525.342.015,1.012-.321,1.207-.622Z"/>
    <path d="M376.575,82.985c1.006,2.256,2.457,2.208,2.254,3.639l-2.115-.946-1.587-1.499c-.684-2.623-.654-5.3.079-8.002l1.021-3.767.965-3.307,1.002-2.097,1.207-2.282.995-1.978,1.123-2.298,1.068-2.162.989-1.931c.742-1.449,2.24-1.994,3.938-1.411.101.191.243.918.051,1.021l-.818.441c-1.162.627-2.145,1.486-2.664,2.648l-1.108,2.48-1.018,2.14-1.045,2.153-1.063,2.37-1.009,2.274c-.37.833-.574,1.604-.884,2.537l-.511,1.537c-.689,2.075-.723,4.68-.855,6.881-.011.181-.428.628-.354.794l.341.764Z"/>
    <path d="M418.079,80.721l-1.22-.634c-.284-.148-.22-1.106.026-1.341.561-.537,1.443-1.601,1.891-2.269l1.118-1.664c.49-.73.862-1.419,1.148-2.318l.523-1.643c-1.897-.211-4.596,2.177-5.343,4.21l-1.808-.077c-.336-1.458.09-1.847.811-2.558,1.202-1.186,2.42-2.135,3.788-2.955,1.304-.781,2.553-1.244,3.75-.265,1.134.928,1.394,2.365.393,3.683-1.369,1.803-1.297,3.967-3.328,5.822l.538.379,3.829-1.088c1.087-.309,2.412-.99,3.733-.739.457.087.29,1.587-.153,1.718l-2.526.752-2.74.993c-1.585.574-2.695.895-4.428-.007Z"/>
    <path d="M392.515,78.578c-1.605-.625-4.536-1.122-4.036-2.989.065-.244.663-.343.91-.552,2.362-2.003,4.059-4.611,5.593-7.266-1.47-.77-2.375.082-3.482.568l-2.546,1.117c-.337.148-1.192.053-1.521-.047-.384-.117-.922-1.212-.609-1.445l2.064-1.038,2.484-1.115c1.424-.639,3.72-.922,5.102.001,1.14.762.542,2.794.041,3.688l-1.095,1.952c-1.973,3.517-4.854,3.985-2.949,4.92l4.991,2.45c.237.116.634.41.794.565s.026.745-.065,1.1c-1.068-.042-2.007-.48-3.003-.868l-2.674-1.041Z"/>
    <path d="M210.312,70.868c-1.317-.267-3.053-.156-3.766.467-2.22,1.938-.45,3.417-.383,4.438.017.261-.915.424-1.209.341-.571-.162-1.301-1.059-1.548-1.417-.056-1.197.047-1.988.534-2.834l.592-1.808,1.031-2.351c.707-1.611,2.421-4.135,4.109-4.906,1.877-.856,3.002,1.883,2.966,3.182-.052,1.903.103,3.187-.419,4.863l-.337,2.88c-.036.311-.358.926-.573,1.122-.251.228-1.134.238-1.352-.022-.941-1.124,1.124-2.648.356-3.955ZM210.496,68.886l-.042-3.895-2.591,2.473c-.208.198-.303.861-.295,1.213l2.928.209Z"/>
    <path d="M443.495,90.833c-.641-.966-.539-2.16.146-3.124l2.53-3.563.901-1.196.964-2.072.782-3.819c.28-1.367.674-2.527-.106-3.801.073-2.031-.167-4.185-.879-6.062-.227-.75-.184-2.387-.147-3.223.014-.309.832-.614,1.133-.561.374.065.643.643.736,1.152l.521,2.847.791,5.886c.641,1.171.546,2.488-.163,3.657.045,1.5-.259,2.851-.961,4.038-.106,1.281-.551,2.288-1.219,3.349-.401.874-.92,2.086-1.481,2.779l-2.269,2.801-1.279.912Z"/>
    <path d="M229.868,70.03l1.939-3.288c.578-.98,1.352-2.376,2.175-2.367.317.003.708.46,1.148,1.006l.856-.93c-.818-1.285-2.424-1.524-3.861-1.146-.444.923-1.211,1.321-2.205.879l.127-2.913c1.673-.999,2.605-.948,3.993-.22l1.916,1.005c.881.462,1.334,1.066,1.432,2.085.284,1.098.161,2.178-.723,2.892-.746,2.113-2.093,3.771-3.645,5.46-.457.497-1.261.823-1.969.829-.713.006-1.429-.553-1.889-1.308l.705-1.982Z"/>
    <path d="M257.548,71.889l-1.771-1.004c-.433-.245-.297-1.647.064-1.991.968-.92,3.918.67,4.169,4.653.088,1.402-.412,2.677-1.984,2.795-2.877.216-5.201-1.469-6.345-4.18-.551-1.307-.286-2.983.109-4.396l.697-2.494,2.225-3.536c1.757-.788,3.85-.583,3.855.321.002.325-.171,1.111-.279,1.213-1.191-.226-1.917.031-2.401.897l-2.175,3.888c-.496.887-.294,2.549-.263,3.647l1.418,1.944c.379.52,1.965.534,2.653.328.496-.238.543-1.794.027-2.086Z"/>
    <path d="M284.955,76.108c-1.557-.67-.972-5.029-.295-6.689l.953-2.34c.235-.578,1.143-1.463,1.616-2.007l.501-1.868c1.949-.318,3.86.229,5.391,1.478,1.504,1.226.781,3.133-.084,4.492-.42.661-.718,1.276-1.21,1.806l-3.88,4.177c-.679.73-1.811,1.459-2.991.951ZM286.219,73.937l2.379-2.381,3.053-3.464c.402-.457.322-1.698.02-2.142-.324-.476-1.497-.841-2.01-.612l-2.205,2.864c-.789,1.025-1.01,2-1.405,3.278-.192.622-1.369,2.002.168,2.457Z"/>
    <path d="M360.591,71.796c-1.069,2.16-4.925,4.515-6.157,4.018-.484-.195-1.072-1.325-.679-1.632l2.382-1.305,2.303-1.33c1.535-1.813.375-4.44-1.577-5.346-.292-.135-.905-.629-1.21-.692-.683-.14-1.322-1.628-.761-1.903l2.033-.996,2.362-1.126,2.487-.9,2.533-1.075c.994-.422,2.283-.434,3.32-.296-.148.53-.283.918-.444,1.019l-1.288.81-1.932,1-2.47,1.059-2.968,1.322c.029.637.51,1.235.993,1.547l1.001,2.196c.383.84.495,2.775.072,3.629Z"/>
    <path d="M191.452,71.412l2.07-1.889.89-1.039c.587-1.034.645-2.543.232-3.745-2.174,1.489-3.286,3.995-3.512,6.607-1.063,1.404-.952,3.329.727,4.215l.405,1.091c.09.244-.817.447-1.078.338-2.926-1.227-2.56-5.647-1.16-9.085.945-2.32,2.424-5.052,4.415-4.651,1.112.224,2.289,1.672,2.225,2.802l-.194,3.381c-.926.417-1.459,1.989-.56,2.385.89-.642,1.762-1.185,2.735-.911.11.527.033,1.461-.199,1.765l-2.257.986c-1.876.819-3.852-.457-4.74-2.249Z"/>
    <path d="M217.967,74.937c-.421.179-1.076.376-1.413.343-.385-.038-1.081-.676-1.266-1.075-.622-1.346-.067-2.808.392-4.087l1.146-3.19c.191-.531.728-1.128,1.144-1.156,1.141-.077,2.557,1.362,3.024,2.198l1.222,2.188c.122.219.462.606.614.742.924.823-.068-3.124,1.52-6.296l.822-1.641c.155-.309.835-.707,1.166-.805s1.279.349,1.2.689c-.207.888-1.196,1.859-1.48,2.597-.985,2.563-.778,5.371-.785,8.131-.383.591-2.03.749-2.502.189l-2.071-2.458-1.152-2.048-.962-1.5-.868,2.287c-.595,1.568-1.24,2.972.249,4.892Z"/>
    <path d="M343.96,71.072l-1.45,1.635c-.669.755-1.008,1.587-.947,2.708,2.04.063,3.98-.039,5.802-.794,1.276-.528,2.773-.634,4.168-.507-.151,1.785-1.546,1.844-2.667,2.234l-3.406,1.185c-1.341.467-2.793.986-4.115.21-.986-.579-1.733-1.371-1.922-2.263-.384-1.819,1.553-4.413,3.342-6.103.347-.328.234-1.329.28-1.983.058-.828,1.133-1.947,1.916-2.38l2.652-1.467c.423-.234,1.416.172,1.466.619.192,1.688-.938,1.047-3.118,2.585l-1.617,4.196.042.247,1.798-1.258c.406-.284,1.184-.807,1.787-1.071.329-.013.672.976.562,1.341-.336,1.108-2.368,1.185-2.584,3.866-.198.308-1.583.201-1.805-.228-.282-.545-.143-1.823.009-2.384l-.195-.389Z"/>
    <path d="M327.931,70.758c-2.662,2.005-1.275,5.305-3.383,4.302-.718-4.462,1.452-5.171,2.809-7.65.396-.724,1.9-1.177,2.346-.39l.211,6.882c.836.882,2.593-1.267,3.14-2.605l.933-2.281,1.412-3.056c.178-.385,1.209-.166,1.551.252.482.59.022.927-.309,1.674l-.971,2.192-1.019,2.417c-1.033,2.452-2.713,4.544-5.013,3.523l-1.581-1.541-.128-3.72Z"/>
    <path d="M304.696,72.934c0-.205.047-.467-.032-.661-.041-.099-.128-.151-.219-.199-.482.207-.894.572-1.404.695-.319.619-1.28,1.417-2.538,1.316-.544-.044-1.311-.534-1.352-.981-.101-1.097,1.412-2.699,1.932-2.544.244.073.518.231.771.41.077,0,.158.006.222-.009-.066.015-.142.011-.216.013.051.036.086.074.135.112.029,0,.06,0,.081.006.251.071.444.243.656.386.079.053.163.087.247.124.005-.002.011-.003.016-.005.219-.076.442-.173.628-.313.254-.192.323-.413.3-.637-.349-.362-.764-.662-1.267-.854-.464-.177-.641-1.528-.228-1.703.961-.408,1.836-.591,2.839-.739.889-.131,1.43-1.23.997-2.006l-4.653.348-2.191,1.394c-.219,2.92-2.777,3.259-2.366,6.258.207,1.505,2.825,3.241,5.401,2.58.838-.215,2.033-1.308,2.237-2.385.002-.202.005-.404.005-.606Z"/>
    <path d="M103.001,66.251l-4.287.283-.694,3.828c.211.546.488,1.393.196,1.929s-1.295.813-1.783.372c-.099-2.249.079-4.578.125-6.855.023-1.137-.343-2.233.904-2.94l.072-2.483c1.795-1.579,4.253-1.675,6.173-.315.365.258.465,1.308.165,1.499-1.209-.097-2.443-.225-3.495.012-1.011.228-1.25,2.483-.307,2.548l3.783.26c.42.426-.051,1.809-.851,1.862Z"/>
    <path d="M39.789,71.715c-.503.686-1.422,1.304-1.986,1.295-.772-.012-1.706-.408-2.372-1.044-1.036-.99-.942-2.754-.825-4.195.217-2.672,2.358-4.892,5.179-4.502.776.627.487,2.064.452,2.993-.07,1.863.732,3.844-.447,5.454ZM38.258,67.85l-.144-.995c-.025-.174-.831.046-.94.186-.568.729-.804,2.536-.207,3.604,1.233-.103,1.465-1.587,1.291-2.795Z"/>
    <path d="M407.178,80.316c-.823-.266-2.06-1.5-2.284-2.288-.504-1.773.069-3.317.876-4.829l1.897.057.39-1.432c1.321-.231,2.483.372,3.398,1.346,1.235,1.315.872,3.021-.01,4.474-.985,1.621-2.063,3.384-4.266,2.672ZM410.239,74.734l-.758-.473c-.728,1.034-1.319,1.522-2.563,1.912-.112.33-.161,1.601.134,1.98.729.935,2.931-.816,3.187-3.419Z"/>
    <path d="M71.904,70.687c-.108-2.605.85-4.607,2.175-6.853-2.211-1.29-4.198,1.273-7.25.89l-.042-1.082c-.008-.207.438-.384.664-.524l2.597-1.614c1.577-.339,3.538-.295,5.158-.047,1.191,1.145.903,2.349.447,3.651l-.557,1.591c-.605,1.729-1.312,3.284-.944,5.261-.818.275-2.199-.127-2.247-1.272Z"/>
    <path d="M315.681,71.522l.922-.382c.185-.077.55.494.437.662l-.5.745c-.468.697-1.032,1.232-1.73,1.763-1.412,1.076-3.714,1.107-4.673-.555-.702-1.216-.007-2.555.379-3.685.363-1.064.536-2.067,1.14-2.927l1.236-1.758.299-2.16,1.833.058c.394,1.277-.012,2.318-.569,3.443l-1.062,2.147-1.38,2.789c.028.209.648.837.92.999l2.748-1.139Z"/>
    <path d="M271.078,67.795c.205-.19,1.063-.225,1.293-.152.288.092.266,1.115.045,1.369l-3.464,3.959c-.644.736-1.558,1.898-2.559,1.901-1.602.005-2.794-4.368-2.73-7.143l1.171-.151c.287-.037.699.607.768.901l.886,3.781,2.196-2.244,2.394-2.221Z"/>
    <path d="M110.821,68.319c.368.744.696,1.751.208,2.368-1.872-.484-2.835-2.553-2.398-4.397l1.114-4.707,1.038-1.165c.793.418,1.154,1.256.963,2.076l-.589,2.526c-.215.923-.938,2.086-.337,3.3Z"/>
    <path d="M322.59,75.038c-2.121.992-2.617-3.661-1.585-6.241l1.005-2.511c.244-.611,1.195-1.42,1.745-.761.394.476.079,1.88-.167,2.5l-.783,1.969c-.584,1.469-.311,3.231-.215,5.044Z"/>
    <path d="M278.586,68.521c-.817,1.704-.945,3.614.207,5.415-.163.22-1.143.407-1.481.268-.725-.297-1.747-2.551-.963-4.973l1.184-3.656c.122-.376.41-.863.68-.947s.969.19,1.128.423l.623.916c.166.244-.526.777-.653,1.042l-.725,1.512Z"/>
    <path d="M85.685,70.638c-1.391.214-1.648-.99-1.715-2.172-.136-2.389-.334-5.079.978-7.154.374-.326,1.446-.07,1.714.353.317.5-.097,1.606-.246,2.199-.544,2.166-.617,4.444-.731,6.774Z"/>
  </g>
  <polyline points="405.77 73.199 408.057 71.825 408.233 74.08"/>
</svg>