<?xml version="1.0" encoding="UTF-8"?>
<svg id="Layer_1" xmlns="http://www.w3.org/2000/svg" version="1.1" viewBox="0 0 930.251 300">
  <!-- Generator: Adobe Illustrator 30.7.0, SVG Export Plug-In . SVG Version: 2.1.4 Build 114)  -->
  <defs>
    <style>
      .st0 {
        fill: #fff;
      }
    </style>
  </defs>
  <g>
    <path class="st0" d="M842.493,36.649c-5.977.552-4.79,5.436-6.415,5.787-.584.126-1.514-.825-2.062-1.367-1.206-1.193-3.86-.645-5.2.597l-4.023-1.833c-2.947-5.402,4.41-6.588,2.347-12.056-1.817.941-2.906,2.262-3.825,3.71l-1.768,2.784c-.652,1.026-1.666,2.131-1.311,3.516.408,1.592-.083,2.552-1.379,3.712l-1.607-1.291c-1.379-2.147.129-4.404,1.283-6.229l2.497-3.949c.866-1.369,2.517-2.917,3.807-4.046l2.687-1.269c1.276.733,2.492,2.014,3.087,2.977.378,2.039.073,3.382-.803,4.927l-1.251,3.228-.737,1.515c-.167.343.929.64,1.351.668l5.117.346,4.114-5.387c.464-.607,1.976-1.584,2.63-1.98,2.141-2.717,5.104-4.633,8.74-3.37l2.228,2.614c.263,2.07,1.211,2.61,3.809,2.821-1.377,1.151-2.507,1.711-4.189,2.077l-2.469,2.581-1.769,5.803-1.495-.351c-.391-.092-.767-1.328-.736-1.739l.392-5.078-3.047.281h-.003ZM847.999,31.985l.562-1.151c.105-.215-.316-1.031-.534-.932l-1.153.524-2.583.859c-.34.113-1.054.785-.913,1.095.377.824,3.315,1.295,4.619-.394h.002Z"/>
    <path class="st0" d="M164.548,132.475l-.146-.002c-2.193-2.99-6.82-6.55-8.942-5.166l.678,3.621c-.605,1.718-.893,4.546.425,5.941,1.548,1.638,3.828.319,5.218-.393l2.508-1.285.01.164c.233-.942.297-1.907.248-2.881h.001ZM161.154,133.305c-.003.021-.57.006-.617.006-.046,0-.617-.01-.617-.006.002-.018.002-.036.004-.053h-.037c-.145,0-.291,0-.436-.002,0,0-.161.011-.181-.004-.279-.215-.404-.637-.454-.969-.045-.297-.048-.696.199-.914.171-.15.404-.131.617-.133h.169c.783-.015,1.043-.014.793.005.037,0,.074,0,.11.007.067.013.128.043.18.086.262.218.294.659.311.972.018.334.002.672-.039,1.003l-.002.002Z"/>
    <path class="st0" d="M177.796,125.146l-2.17-1.132-1.726,1.529-3.301,3.698-1.288,3.301-.711-.01c-.094.29-.19.579-.302.865-1.211,3.066-2.647,6.042-3.583,9.21l.154,3.788c.308.374,1.694.562,2.208.39,1.793-.6.313-4.79,3.273-6.976,1.904.057,3.12-.004,4.064-1.4l1.499-2.216c.926-1.369,1.226-2.928,1.372-4.885,1.652-1.16,2.837-4.947.512-6.16v-.002ZM173.862,132.97c-.373.929-1.181,1.988-2.226,3.054-.691-2.115,1.619-5.911,3.353-5.86l-1.127,2.806Z"/>
    <path class="st0" d="M868.437,86.71l-.987.764c-.062.048-2.362-1.072-2.674-2.995-1.224.625-4.042.79-4.919-.897-1.344-2.584-.245-5.172.723-7.647.476-1.217.062-4.105,1.202-4.881l2.998-2.039c2.091-1.422,11.561-2.247,10.921,2.295-.396,2.81-3.016,3.599-2.363,5.613,1.025.851,1.925,1.683,2.077,2.474.258,1.348-.094,2.973-1.06,3.603l-3.295,2.148-2.622,1.562h-.001ZM871.254,79.26l-4.611-.131-2.037-2.141,2.578-2.013,2.201-1.548,2.383-2.342c-1.899-.98-2.898-.367-4.488.573-1.073.634-3.709,1.264-3.906,3.075-.451,4.163.025,8.988,1.635,8.412l1.43-.512c1.826-.654,3.346-1.723,4.813-3.373h.002Z"/>
    <path class="st0" d="M178.832,172.844l3.078-3.089c.252-.253.588-.996.631-1.342.054-.432-1.287-.809-1.724-.655-6.295,2.227-5.175,7.565-6.046,11.459l-.783,3.5-.25,1.223c-.054.267-1.192.222-1.37.029l-1.933-2.101.284-6.171c.059-1.282.964-2.51.821-3.989-.179-1.86-.129-4.027,1.133-5.495.523-.608,2.342-.155,3.382-.032,1.737.206,5.45-3.988,7.865-.324,1.688,2.561.547,5.29-.959,7.55l-1.664,2.497c-.745,1.118-.773,4.058-.351,5.265,1.027,1.272,3.375.291,3.805-.84l2.06-.753,2.686-1.296c.163.5.236,2.056-.139,2.549-.429.563-1.488,1.081-2.347,1.737-1.624,1.241-3.21,3.888-5.844,2.253-1.016-.63-2.553-2.314-3.532-3.442-.13-1.37-.277-3.936.102-5.116l1.095-3.415v-.002Z"/>
    <path class="st0" d="M673.316,40.21c-.209-.168-1.31.85-1.53,1.379l-1.279,3.075-1.337,6.112-2.948-4.076.683-8.246,1.248-3.238c1.349,1.662,4.176,1.376,5.777-.218l2.299-2.289c.873-.869,3.124-2.304,4.264-1.076,1.114,1.62-.132,4.498-1.698,5.521l-.159,2.789c2.234.247,3.53,1.782,3.696,3.485.201,2.067-1.353,3.007-3.029,4.196-.748.531-1.675,1.496-2.416,1.716-.962.285-2.906-.093-3.358-.833-.246-.404-.358-1.868-.227-2.319.339-1.168,3.279-.639,3.571-2.34.278-1.616-2.51-1.534-3.558-3.639h.001Z"/>
    <path class="st0" d="M234.767,215.001s.002-.005.003-.007c.379-1.11.619-3.136-.694-3.645-.163.032-.351.068-.474.11-.319.109-.629.239-.935.379-.722.331-1.416.718-2.104,1.112-1.149.659-2.294,1.322-3.519,1.82l-.066.215-3.718,3.721c.604.805,1.974,2.178,2.961,2.204,2.438.064,4.742-2.23,6.554-4.288.532-.604,1.241-1.116,1.993-1.621h-.001Z"/>
    <path class="st0" d="M510.448,126.796c-.002.021-.007.037-.009.059-.002.016-.581.006-.617.006-.352,0-.701.008-1.052.013-.218.009-.436.018-.654.029-.002.021-.003.041-.005.062,0,0-.852.026-1.137.013.002,0,0,.003.003.004h-.103c-.137.017-.282.006-.432.006-.068,0-.54.047-.71.002h-.014c-.031.013-.059.03-.09.042-.092.034-.25.022-.422,0h-.812c.036-.035.076-.062.113-.094h-.002c-.058.011-.116.029-.173.033-.331.023-.651-.006-.953-.08-.065-.003-.129-.002-.193-.005-.744-.041-1.716-.022-1.793-.955-.034-.413-.398-1.06-.208-1.442.147-.296.581-.407.867-.494,2.169-.66,4.443-1.152,6.695-1.466.345-.1.69-.2,1.032-.307.169-.053.366-.028.564,0h.126c.737-.159,1.463-.345,2.213-.578,1.019-.316,1.968-.373,2.485-1.44.033-.068.228-.056.452-.028.366-.757.561-1.546.371-2.073l-2.229-1.007c-1.701.755-3.921,1.229-6.143,1.409-2.26,1.576-4.479,2.046-7.604,1.699-1.05,5.409-1.062,12.009-.202,17.203l1.671,2.187,1.014-1.744c-.446-.852-.781-2.137-.741-3.339l.128-3.922,11.116-.41,2.32-2.063c-.401-1.775-2.749-.804-4.873-1.319h0Z"/>
    <path class="st0" d="M727.184,131.051l1.521-.816c.373-.2-.513-1.421-.934-1.474-1.565-.199-3.426-.342-5.067-1.03l-.973,2.29-.667,6.194c-.958-.143-1.998-.378-2.504-.704-1.336-.86-1.56-4.592.408-8.134l1.06-4.673,2.808-4.767c.884-1.5,3.756-2.629,4.936-.682,1.309,2.158.585,5.439-1.004,7.533l2.741,1.714c.841.526,3.893,1.563,3.863,3.793-.009.641-.708,1.762-1.271,2.206l-2.816,2.223c-1.209.954-2.678,1.405-4.372,1.392-.232-.954-.367-2.502-.115-3.319.213-.69,1.397-1.216,2.384-1.746h.002Z"/>
    <path class="st0" d="M31,143.21c-.65.731-1.242,1.27-2.052,1.814-2.628,2.412-1.883,5.511-3.877,4.996-.594-.688-.699-2.772-.643-4.076.023-.547-.625-1.725-.785-2.332-1.033-3.912.704-6.169.889-8.942l.348-5.205c.027-.405.61-1.229.978-1.295.371-.067,1.161.687,1.162,1.118l.016,5.125,3.611-2.608c1.97-1.422,4.799-2.697,6.737-.507.099,1.419.138,4.28-.676,5.291l-1.756,2.181-3.952,4.439h0ZM31.142,139.244l2.055-3.385.552-1.106c.118-.235-.976-.465-1.132-.254l-.685.92c-1.314.98-1.977,2.212-1.923,3.909.567-.043,1.277-.097,1.133-.085h0Z"/>
    <path class="st0" d="M496.962,89.5c-.003-.189-.013-.375-.031-.56-.107-.603-.516-1.136-.959-1.536-.231-.209-.482-.374-.781-.461l-.067.048c-2.701,1.918-5.172,6.528-8.234,3.179-1.517-1.66-3.782-.562-4.962.905l-2.61,3.245c-.8.994-1.826,2.845-1.184,3.881.244.394,1.565.78,1.741.442l.77-1.476c.414-.794,1.278-2.205,1.833-2.836l2.081-2.363c1.795-.5,2.258,2.151,3.102,2.721,2.954,1.996,5.191-.897,6.785-2.416l2.406-2.291c.053-.156.093-.316.109-.481h.001Z"/>
    <path class="st0" d="M509.812,84.451c-2.656-.678-5.753-.651-8.629-.154-.145.105-.29.212-.432.317-.116.16-.216.333-.285.525-.323.897-.236,1.99.132,2.89l2.347-.264c.625-.678,2.119-1.481,3.029-1.268.651.152,1.625.876,1.839,1.172l-1.878,5.769c-.772,2.371-1.157,4.599.263,5.505.429.273,1.571-.387,1.733-.906l1.188-3.809c.941-3.018,2.871-6.823.693-9.774v-.003Z"/>
    <path class="st0" d="M441.241,167.598c-.012-.071-.023-.142-.035-.213-.117-.65-.273-1.329-.513-1.97-1.971-1.058-3.201-3.909-6.2-3.264-2.419.52-3.605,1.922-4.918,3.677-1.195,1.598-2.764,2.819-2.884,4.932-.024.426.292,1.548.652,1.774.288.181,1.044.259,1.303.243.96-.814,1.943-1.157,3.147-1.744,1.79-.872,3.69-2.591,6.146-1.675.341,1.429-.201,3.356-.791,5.067.251.796,1.953.956,2.614.491.892-.628,1.206-1.541,1.173-2.727l-.125-4.453c.097-.045.253-.093.432-.14v.002ZM437.624,167.037c-.234.003-.469.003-.703.003-.575,0-1.159,0-1.735-.05-.024.053-.057.105-.079.158-.009.021-.256.007-.291.007-.234.003-.469.003-.703.003s-.469,0-.703-.003c.044,0-.29-.01-.291-.007.358-.864.995-1.686,1.744-2.246.046-.035.23-.006.291-.007.234-.003.469-.003.703-.003s.469,0,.703.003c.023,0,.245-.019.291.007.34.188.495.62.621.964.141.387.239.803.443,1.164-.008-.015-.257.007-.291.007h0Z"/>
    <path class="st0" d="M447.215,160.479c-1.475-.7-3.147-.046-3.949,1.172-.569.863-.43,2.459-.234,4.023-.085.023-.162.026-.244.043.18.55.308,1.12.407,1.669.042.232.078.468.117.703.133.257.245.539.326.765l1.337,3.728c.539.407,2.048-.196,2.834-.978-1.753-2.091-1.793-5.227.068-7.503.733-.896.443-3.097-.661-3.621h-.001Z"/>
    <path class="st0" d="M36.76,180.351c-1.37-.379-4.229.098-5.31-.602l-3.609-2.341,3.785-3.27c1.109-.958,1.813-1.857,1.728-3.417l-8.443.533-.011,9.746c-.003,2.296,3.343,5.529.193,4.704-2.288-.599-2.125-2.727-2.085-4.606l.19-8.991c.034-1.616.313-4.241,2.582-4.291l6.673-.146c1.451-.032,3.093,1.949,3.299,3.141.312,1.805,0,3.665-1.883,5.057l2.087,1.903c1.918.459,3.058,1.568,3.423,3.126.498,2.12-.376,3.424-1.943,4.816-2.046,1.818-2.854,1.198-5.696,2.721-1.02.547-2.758.85-3.546.201-.931-.766-1.844-2.01-1.649-3.052,1.735-.176,3.525-.209,4.826-.64l3.454-1.146,1.949-.854c.553-.242.579-2.384-.013-2.593h-.001Z"/>
    <path class="st0" d="M710.108,130.872c-5.871-.616-7.016,1.477-8.379,1.449-2.796-.058-2.611,2.115-4.146,2.04-.471-.023-1.385-1.131-1.347-1.612l.347-4.505c1.921-1.848.67-3.928,2.848-5.304l.626-1.006c.634-1.019,3.792.971,6.086-2.178.919-.366,3.319.137,3.802,1.035l1.625,3.022c.948,1.762.839,4.511.868,6.677l.063,4.559c.006.453-.875,1.359-1.32,1.327s-1.063-.862-1.064-1.375l-.009-4.128h0ZM707.265,123.327c-.328.122-1.123.508-1.423.756-1.08.893-1.19,2.588-.485,3.481.756.959,2.605,1.396,3.448.269.909-1.216-.453-4.91-1.54-4.506h0Z"/>
    <path class="st0" d="M866.838,193.743c-6.866,1.637-15.417,1.238-22.504.075l-2.738-1.699c-.837-.519-1.818-2.015-1.704-2.827.144-1.03.917-2.065,1.778-3.04.007-.105-.874-.611-1.1-.474-.302.183-.914.648-1.15.936l-3.008,3.676-.127,4.195-3.143-.343c-.591-.287-.959-2.367-.695-3.089s1.159-1.643,1.896-2.357l8.641-8.375c.511-.495,2.162.672,2.387,1.287,1.556,4.245-2.977,7.95-1.692,8.654,1.14.624,2.827.488,6.486,1.563,1.797.528,4.495.19,6.417.099,1.564-1.44,3.479-1.154,4.98.167,1.911-.118,3.892-.73,5.273,1.552h.003Z"/>
    <path class="st0" d="M634.7,51.392l-1.939.842c-.463.201-4.01-1.129-4.233-4.099-.141-1.871.417-3.417,1.962-4.458-.789-.616-1.752-1.369-1.892-2.042-.189-.912.383-2.705,1.136-2.821l4.225-.655c1.142-.177,1.927-.646,2.858-1.283,2.889-1.976,7.627.866,7.911,3.074.119.922-.429,2.268-.873,2.946l-1.774,2.707c-1.066,1.626-2.007,2.912-3.834,3.89l-3.548,1.899h.001ZM638.252,45.734l1.951-1.612c.848-.701,2.4-2.932,1.145-3.721-2.302-1.446-4.53.788-5.354,2.674l-2.306,2.133-1.079.998c-.199.184-.014,1.06.261,1.071l1.549.064c1.461.06,2.686-.66,3.832-1.607h.001Z"/>
    <path class="st0" d="M615.671,84.92l1.28-.304c.036-.573.103-1.149-.139-1.691-.253-.567-.709-1.015-.962-1.58-.034-.076-.08-.138-.037-.196.03-.04.122-.065.17-.087.107-.051.218-.09.329-.13-.791.076-1.535.23-2.166.547l-3.618,1.816-2.379,1.564c-.581.382-.976,2.233-.562,2.699l2.086,1.97c-2.466,2.433-5.185,2.122-5.831,3.723-.196.485.091,1.798.369,2.254,2.991.022,3.832-1.533,6.356-2.488.932-.353,2.105-1.183,2.407-2.028.821-2.3-2.082-3.497-.97-4.476l3.668-1.591v-.002Z"/>
    <path class="st0" d="M627.571,88.436c1.812-2.118,1.869-5.474-.844-7.299-1.437-.966-4.134-.444-6.161-.318-.188.238-.381.485-.466.771-.122.408.022.845.148,1.233.082.253.185.502.302.744,1.68-.888,3.75-.736,4.766,1.129.528.969-.508,2.882-1.013,3.871-.377.797-.361,2.931-.073,3.778.552,1.535,3.482,2.004,4.461.524.743-1.123-.156-3.311-1.12-4.433Z"/>
    <path class="st0" d="M357.186,140.067l-1.58,3.305c-.671,1.404-1.288,2.558-1.327,4.254-.032,1.388-.39,2.615-1.485,3.801-1.392-.512-1.663-2.066-1.651-3.628l.119-14.818c.649-.651,2.203-1.311,2.77-.968,2.11,1.274-1.884,4.85,1.672,5.663.829-4.528,7.29-8.345,8.638-6.542,1.676,2.243.446,5.098-.792,7.062l-1.407,2.232c-.631,1-1.069,2.281-1.863,2.938l-1.284,1.063c-.354.293-1.532-.764-1.442-1.259l.611-3.377c.664-.213,1.564-.393,1.574-.791l.071-2.739c-1.656.621-1.902,2.292-2.625,3.805h0Z"/>
    <path class="st0" d="M502.713,172.535c-1.022-.421-2.546-2.188-3.538-3.177-2.23.369-3.518,2.727-2.826,5.155-2.486.1-2.142-2.203-2.568-3.589l-1.088-3.538c-.322-1.046-.571-3.288-.519-4.429.02-.449,1.87-.731,1.979-.28l.781,3.222c1.661.282,2.3-.676,3.172-2.096,1.829-2.979,6.749-6.262,10.201-4.586,1.85.899-3.096,6.186-6.742,8.69-.212.736,1.041,1.49,1.812,1.861l4.26,2.051c3.405,1.639,5.836-.063,5.935,2.183-1.749,1.079-4.431,1.177-6.314.402l-4.543-1.87h-.002Z"/>
    <path class="st0" d="M29.377,212.698c-2.094-1.778-5.031,1.233-5.968,3.064l-.74,1.447c-.594,1.162-2.381-2.304-4.803-2.048-.417,2.439.424,4.623,1.258,6.58l-1.328,4.313c-.61,1.98.219,6.089,3.061,5.301,1.858-.516,1.739-3.788,2.364-4.895l3.601-3.596c.827-.825,1.077-1.653,1.765-2.952.902-1.704,3.009-5.33.791-7.214h-.001ZM27.343,217.185c-.094.245-.224.475-.358.699-.368.616-.661,1.301-.853,1.992-.005.016-.259.007-.291.007-.234.003-.468.003-.703.003s-.469,0-.703-.003c.046,0-.291-.007-.291-.007.03-.107.077-.21.112-.317-.117,0-.235,0-.352-.001.045,0-.291-.008-.291-.007.348-1.117,1.02-2.131,1.773-3.015.027-.031.243-.006.291-.007.234-.003.469-.003.703-.003s.469,0,.703.003c-.025,0,.277-.012.291.007.137.185.044.456-.03.648h0Z"/>
    <path class="st0" d="M848.75,154.531l-2.392,3.376c-1.552,2.192-.191,4.093-1.114,4.766-.373.271-1.532.174-1.896-.095l-1.245-.918c-.321-.237.589-1.288.703-1.682,1.219-4.228,1.758-5.828,5.481-8.747,1.17-.918,2.349-2.193,4.75-1.361.643.223,1.214,1.3,1.66,2.315,4.145-.882,4.691-4.344,7.131-5.352.442-.183,1.436,1.154,1.434,1.697l-.019,5.407c-.009,2.633-.118,4.319,1.287,6.928-.575.454-3.01.06-3.217-.791l-.895-3.674-.824-3.367-3.761,3.701-2.748,2.018-2.171-3.894c-.022-.405-.26-1.554-.591-1.465-.568.153-1.23.654-1.574,1.139h0Z"/>
    <path class="st0" d="M265.487,228.481l-2.915-.594c.796-1.946.973-2.381,1.16-3.843l.786-6.141c.909-1.156.885-2.604,1.01-4.086l.793-9.398,3.996.498c1.969-2.023,4.481-1.673,6.938-.422.926.472,2.24.892,2.543,1.769.8,2.315-2.878,5.678-6.172,6.411l-4.316,4.28c-1.396,1.384-3.113,1.087-3.298,3.817l-.523,7.709h-.002ZM272.2,210.766c1.817-.998,3.108-2.324,2.747-4.028-3.098-.402-5.344.569-7.084,2.498l1.578,3.046,2.759-1.515h0Z"/>
    <path class="st0" d="M181.399,106.307c-1.88,2.015-7.119-.74-7.505-1.725-.789-2.015.067-4.705,1.723-6.082.232,2.04.367,4.625,2.003,5.252,1.923.737,5.767-.799,7.226-2.547l-3.886-2.992-.256-3.055c1.598-.935,3.291-1.815,4.863-2.202l3.686-.907,5.844-.733c2.211-1.682,4.734-1.989,6.634.123-3.117,1.188-5.574,1.906-8.471,2.552l-2.36.991-4.004,1.331c-.373.124-1.051.582-1.267.842-.269.325.432,1.213.797,1.464l2.17,1.493c.429.295.961,1.346.989,1.848.116,2.102-2.491,1.313-3.861,3.108l-4.325,1.237v.002Z"/>
    <path class="st0" d="M813.32,78.815c-5.659-.465-8.988.958-11.171,5.964l-1.637.086c-.235-2.011.184-3.744,1.667-4.941.459-1.989,1.478-3.518,3.126-4.877,2.337-2.253,4.656-5.282,8.061-6.152,2.113-.54,3.773,2.53,3.519,4.454-.127.962,1.133,2.076,1.844,2.558.417.283.38,1.843-.075,2.078l-1.931.995c-.098,2.61-1.066,5.512-2.071,5.801-.41.118-1.454-.155-1.573-.335l.24-5.631h.001ZM811.908,75.626c.428.054,1.567-.106,1.642-.466l.317-1.513c-.178-.854-.13-1.197-1.717-1.306l-.726,1.259-1.19.475c-.262.105-.323,1.299-.043,1.334l1.717.217Z"/>
    <path class="st0" d="M806.532,33.629c-2.061,1.549-6.234.531-11.071,1.917-.752.216-2.066,1.243-2.887,1.792-.503.336.721,1.726.897,2.326.39,1.329.678,3.755.707,5.193s-1.601,2.372-2.741,2.074c-.82-.215-1.739-1.652-1.342-2.74.407-1.116.866-1.906,1.534-2.965-1.178-1.219-2.095-3.231-1.65-5.063s2.262-3.18,4.409-3.391c1.288-.127,2.221-.565,3.501-1.048,1.711-.646,4.072-.439,6.104-.596,1.778-.137,4.481-.708,5.5.5,4.061,4.814-.813,7.08,1.426,9.273l-.627.864c1.045.244,2.255,2.23,1.231,3.345-.712.775-2.723-.339-3.21-1.447-1.099-2.504-.754-5.451-.428-8.291l-1.355-1.742h.002Z"/>
    <path class="st0" d="M338.304,104.118c-.632-.198-1.75-.874-2.231-1.327l-2.049-1.926-2.194,1.845c-.6.504-1.483,1.473-2.132,1.635-1.402.349-3.11-1.787-3.181-1.952.007.016.463-.554.566-.713l2.35-3.63,2.358-3.547,3.116-3.463c.803-.893,2.94-2.476,3.795-.628,1.311,2.836-3.012,6.086-2.081,9.453,3.275,1.758,6.523,2.499,10.088,2.821l3.569,1.734c.258.125.244,1.321-.039,1.364l-1.497.23c-2.017.31-5.339-.299-7.414-.949l-3.022-.947h-.002Z"/>
    <path class="st0" d="M480.044,201.394c-1.205-.551-3.639-1.735-4.668-2.589-.347-1.926-1.109-2.846-3.064-2.993-1.216-.092-2.284,1.039-3.036,2.191l-2.979,4.568c-.483.74-1.114,2.04-1.815,2.485-1.844,1.169-2.173,3.266-1.212,4.882.556.3,2.144.117,2.451-.403,2.12-3.596,7.645-5.519,9.175-4.317,2.116,1.662,1.739,3.977.541,5.377.926.841,1.665,1.367,2.449,1.659l1.596-3.573c-.917-1.545-1.554-3.931-1.141-5.705l1.652-.263c.281-.045.294-1.184.051-1.319h0ZM474.494,200.328c-.064.372-.102.723-.084,1.1.009.192.02.386,0,.578-.006.06-.007.205-.048.251-.042.047-.198.04-.263.045-.071.004-.143,0-.214.004.046.021-.492.052-.977.06-.394.052-.787.113-1.183.147-.323.028-.654.011-.977.01-.051.041-.103.081-.153.123-.041.034-.233.006-.291.007-.234.003-.469.003-.703.003s-.469,0-.703-.003c.02,0-.273-.022-.291-.007.682-.564,1.392-1.094,2.061-1.673.655-.567,1.225-1.224,1.885-1.785.04-.034.234-.006.291-.007.234-.003.469-.003.703-.003.081,0,.985-.032.994.01.083.38.02.763-.045,1.141h-.002Z"/>
    <path class="st0" d="M610.216,43.89c-1.31-.03-3.393,3.349-3.837,5.399l-.289,1.336c-.07.322-1.007-.202-1.331-.416-1.051-1.756-.526-3.707.799-5.348l.151-4.51,1.96-.301,3.934-4.134c2.244-2.358,6.824-1.605,8.147,1.524,1.611,3.809-1.134,6.601-.984,6.894l.659,1.28c-1.263,2.576-1.011,5.613-3.536,5.341-.422-.045-1.429-1.055-1.186-1.319l1.061-1.154c1.131-1.231.611-3.803-1.115-4.489l-4.433-.101v-.002ZM616.531,41.392c.39-.765.32-2.468.081-3.429-1.908.119-3.513.627-4.815,2.035.512,1.398,2.86,2.711,4.734,1.394Z"/>
    <path class="st0" d="M166.452,52.311c.353.081.866,1.522.576,1.736l-1.209.895-2.436,1.588-2.943,1.918-2.878,1.61c-1.829,1.023-3.917,1.294-5.93,2.107l-1.747.705c-.634.256-3.623-1.265-3.365-3.162.281-2.072.34-4.282.917-5.938l1.848-5.297,1.746-5.497c.456-1.435,2.295-3.446,3.479-4.766.563-.628,2.624-.028,3.117.6.138.175-.044,1.212-.263,1.182l-1.196-.168-2.679,4.599-1.633,3.247c-.755,1.501-1.033,2.966-1.541,4.752-.578,2.033-1.956,4.315-1.742,6.638,1.344,1.147,3.613.404,4.393-1.084,1.691-.33,2.878-.93,4.139-2.015,1.484-1.389,2.934-2.042,4.99-2.141.875-1.015,2.85-1.855,4.354-1.51h.003Z"/>
    <path class="st0" d="M293.292,213.86l-4.946.031c.147-1.288.388-2.581.886-3.157l1.709-1.975c.663-.766,1.295-1.68,1.513-2.359.22-.689-.291-2.559-.96-2.856-1.618-.717-3.832.006-5.017,1.179l-4.936,4.889c-1.456,1.443-2.101,3.825-1.318,5.622l1.726,1.109c.056-.368.113-.735.163-1.104.051-.372.081-.771.21-1.127.026-.072.901-.01.994-.01.234,0,.469,0,.703.003.05,0,.226-.017.291.007.481.182.786.578,1.136.932.405.411.865.773,1.317,1.131.377.299.768.586,1.153.88,1.939.111,4.104.399,5.539-.304l4.271-2.094c-1.638-.913-2.851-.808-4.433-.798h0ZM286.767,209.303c-.081,0-.162,0-.243.001-.174.242-.338.491-.471.76-.011.023-.254.007-.291.007-.234.003-.469.003-.703.003s-.469,0-.703-.003c.043,0-.289-.011-.291-.007.394-.802,1.026-1.449,1.577-2.141.209-.262.384-.549.588-.815.182-.237.401-.509.702-.59.086-.023.201-.006.291-.007.234-.003.469-.003.703-.003.031,0,.198.005.385.01h.608c-.266,1.105-1.164,1.932-1.862,2.778-.025.031-.244.007-.291.007h0Z"/>
    <path class="st0" d="M308.839,164.04c-2.7-.623-3.454,1.05-4.641,2.693l-1.633,2.262-1.683,1.94c-2.556,2.947.193,6.099-2.021,6.14-2.417.045-1.596-5.189-.654-6.532l1.48-2.109,3.119-3.441c1.169-1.29,2.144-2.428,3.613-3.249.779-.436,2.737-1.761,3.46-.404,1.061,1.993,1.073,5.819-.155,7.618l-1.104,1.618c-.245.359,1.156,1.166,1.625,1.128l10.901-.883c.408-.033,1.364.392,1.463.749.124.446-.688,1.084-1.191,1.229l-5.197,1.495c-4.238,1.219-11.061,1.531-11.814-1.686-.66-2.819,3.021-3.363,4.429-8.567h.003Z"/>
    <path class="st0" d="M280.369,50.32c.609,4.102-1.712,3.582-4.06,6.379l-3.116,3.711c-2.729,3.249-5.571-.504-9.652,1.538-1.962.982-4.258,2.099-6.159.308l-2.159-2.033c-.109-1.918-.495-5.02.344-6.736l1.757-3.592c.215-.44,1.093-.871,1.512-.827.425.045,1.504.62,1.341,1.008l-.754,1.796c-.536,1.277-.939,3.232-1.733,4.514-.342.552-.41,1.999-.225,2.76,1.135.534,3.446.751,4.444.22,1.848-1.912,3.947-2.359,6.648-1.495,1.239.396,2.229-.502,3.025-1.223l4.232-3.834c1.365-1.237,1.994-2.539,4.555-2.494h0Z"/>
    <path class="st0" d="M650.805,168.883c-.909-1.748-2.953-2.045-2.079-5.984l1.776-.511c.343-.099.251-1.152.138-1.749-.156-.826-1.25-1.777-1.974-2.191-.054-1.622-.131-3.269-.871-4.963-1.515.827-3.12,1.663-3.777,2.512l-2.526,3.258-3.73,5.206c-1.282,1.789-1.899,3.841-1.898,6.025,0,.573,1.347,1.452,1.818,1.208.973-.503.071-4.673,3.458-5.831l3.936-1.346,1.294,2.372c-.156,1.841,1.426,4.395,3.472,4.446.637.016,1.25-1.9.964-2.452h-.001ZM645.528,162.411c-.009.045-.915.01-.994.01-.076,0-.974-.025-.991-.01-.048.096-.102.188-.143.288-.008.021-.256.007-.291.007-.234.002-.469.003-.703.003s-.469,0-.703-.003c.044,0-.29-.01-.291-.007.333-.825.938-1.479,1.342-2.261.158-.306.298-.622.468-.923.151-.267.33-.563.606-.717.06-.034.22-.006.291-.007.234-.003.469-.003.703-.003s.469,0,.703.003c-.036,0,.285-.007.291.007.505,1.149-.072,2.464-.288,3.613h0Z"/>
    <path class="st0" d="M43.906,64.241c-2.739-1.994-1.152-5.529-.268-8.373l1.375-4.421c.58-.84,1.899-3.251.037-3.724-1.286-.327-4.054-.09-5.479.108-.438.061-1.303.92-1.736.86-.76-.106-2.246-1.167-2.883-2.128-1.044-1.576,4.319-1.203,6.106-1.726l3.559-1.042c1.684-.493,4.582-.773,6.176-.115.51.211,1.027,1.949.702,2.389l-1.271,1.719-1.824,5.25-.93,3.537c-3.182,4.099,1.477,6.484-.124,7.775-1.081.872-2.673.452-3.44-.107v-.002Z"/>
    <path class="st0" d="M46.432,96.216c1.465-1.991,3.332-3.606,4.612-2.792.393.25.522,1.586.231,1.994l-3.048,4.281-1.734,2.554c-1.04,1.532-3.652,2.853-5.508,1.392-1.45-1.141-3.765-2.616-5.464-.997-1.868,1.779-4.209,1.569-6.213-.079-1.116-.917-2.999-2.598-2.283-4.336,1.446-3.51.474-4.501,2.626-8.01.873-1.424,2.06-2.934,3.945-2.136,2.56,1.084-2.388,3.57-3.246,6.035l-1.49,4.285,1.8,2.365,2.727-.654c1.621-1.794,4.491-2.631,6.454-1.046.637.514,1.474,1.259,2.056,1.363.665.119,1.986-.756,2.411-1.333l2.125-2.887h0Z"/>
    <path class="st0" d="M442.347,97.42c-1.231.952-2.48,1.404-4.041,1.376-.974-.017-2.176-1.3-2.97-2.254-4.438.084-4.791,6.792-7.129,5.46-.403-.23-.834-.75-1.145-1.397-.24-.5.561-1.269,1.076-1.832l5.661-6.191c.438-.479,1.702-.907,2.352-.881,1.683.066,1.428,2.807,2.775,3.23,3.718,1.17,6.176-7.716,11.267-5.174.375,1.132.123,2.707.066,4.146l-.263,6.617c-.011.276-.482,1.088-.602,1.318s-.76-.661-1.016-.786c-2.716-1.319-1.445-3.796-2.064-5.992-.101-.359-1.261.27-1.563.503l-2.403,1.858h-.001Z"/>
    <path class="st0" d="M62.188,61.301l-2.354-2.537c-1.453-1.566-1.421-3.418-.034-5.065l.191-5.579.057-1.759c.015-.473,1.664-.772,1.855-.347.425.946.568,2.992.675,4.175l4.464,2.15c.448.216,1.881.327,2.018-.095l.689-2.128c.39-1.204.953-1.997,1.255-3.155.155-.597.465-1.415.79-1.695.39-.336,1.613-.072,2.194.357.39.289-.374,1.409-.646,2.055-.988,2.348-1.012,6.68-1.116,8.964-.009.189-.7,1.182-.724.994s.794.75.795.94l.068,7.92c-2.882-.528-3.269-3.147-3.281-5.509l-.024-4.572-3.046-1.687c-.945-.523-3.08-.989-3.446-.122l-.381,6.697v-.002Z"/>
    <path class="st0" d="M726.507,161.076c1.995-1.129,5.051-1.305,6.954.055l1.12,2.863c-1.177,2.551.422,3.363-2.93,5.848-2.591,1.921-5.043,1.825-7.942.115-.998-.589-2.679-1.288-2.881-2.691-.676-4.688,1.003-8.586,3.248-12.539l.839-4.334,2.635-1.84,1.13,2.397-1.81,3.178-1.688,3.86-.83,3.25c-1.076,1.457-2.522,4.35-.835,5.868,1.376,1.238,4.577,1.161,6.08.775l1.752-1.761c-2.297-3.105-5.167-1.263-4.841-5.042v-.002Z"/>
    <path class="st0" d="M463.101,51.75c-.53,1.952-2.031,3.592-3.488,4.139-.348.131-1.011-.931-1.022-1.333l-.101-3.727c2.469-.046,3.434-1.332,4.36-3.333.837-1.811,3.962-4.012,5.549-3.573.634.175,1.113,1.263,1.479,2.013l1.635,3.347,2.038-2.678c4.97-6.53,7.79-4.867,6.77-3.652l-1.014,1.207-5.731,9.29-1.055,2.003c-.304.578-2.333.509-2.716-.028l-1.484-2.084-.981-5.852c-.89.616-1.865,1.29-2.277,1.806l-1.962,2.456h0Z"/>
    <path class="st0" d="M294.207,49.741c-.408-1.443-2.94-3.234-4.382-1.928l-6.744,6.109c-.899.815-1.927,2.512-1.039,3.592,1.043,1.267,2.899.563,4.207.056l4.299-1.668c.39-.151,1.354-.114,1.679.126.971.718-.204,2.601,1.525,4.304l.654,1.088c.145.241,1.645-.141,1.622-.421l-.377-4.537c-.049-.596.857-1.759,1.458-1.769.621-.01,1.744.457,2.354.816l1.974-1.197c-1.727-3.595-6.047-.385-7.23-4.572h0ZM292.511,52.204c-.601.018-1.217.038-1.816-.029-.301-.034-.598-.094-.895-.15-.047.064-.098.127-.13.2h1.064c.006,0,.617,0,.617.006,0,.007-.571.006-.617.006h-1.685c-.145,0-.291,0-.436-.002.027,0-.18-.006-.181-.004.16-.372.558-.616.877-.839.339-.238.634-.526.973-.762.188-.13.39-.245.607-.316.04-.013.083-.012.125-.019-.004-.004-.007-.01-.011-.015h.109c.115-.007.23-.006.344-.006h.475c.086,0,.214-.026.295.005h.011s-.004.002-.007.003c.113.048.181.258.21.364.047.171.06.35.066.527.011.341-.024.688.026,1.027-.007,0-.015,0-.022.002v.002Z"/>
    <path class="st0" d="M391.637,87.778l-1.107-.69c-.295-.184-.995-.574-1.28-.444l-1.46.665c-1.689.198-4.788.579-6.617,1.22l-3.247,1.137c-2.601.911-5.726,9.052-3.157,12.095.995,1.179,2.379,1.953,4.153,2.433l3.198.866,3.017-.988c.363-.119,1.412-.199,1.436-.561l.119-1.754-7.43-.011-2.222-1.697.057-4.703,1.133-.873c-.033-.435.124-.86.43-1.171.373-.38.88-.588,1.353-.811.612-.289,1.231-.576,1.905-.684.035-.006.073-.003.109-.005.035-.024.075-.059.106-.073l3.641-1.638,5.094-.83c.326-.053,1.051-1.306.766-1.484h.003Z"/>
    <path class="st0" d="M383.902,95.375c.273-.281.344-1.529-.025-1.617l-1.096-.262c-.088.071-.171.148-.26.217-.537.419-1.099.832-1.715,1.128-.132.063-.27.118-.411.161l.244.309c.205.26-.702,1.093-.942,1.232l1.519,1.603,2.685-2.771h.001Z"/>
    <path class="st0" d="M367.228,56.081l-3.199,3.065c-.648.621-2.969.648-3.838.607l-2.483-2.304c.375-2.132.796-3.918,1.571-5.675l1.625-3.683c2.169-4.916,5.593-8.332,7.446-6.068l3.052,3.729c1.135,1.387.132,3.249-.538,4.52l-1.864,3.539c-.423.803-1.134,1.658-1.772,2.27ZM364.059,55.061l3.178-3.924c1.553-1.918,2.048-4.342.809-5.006-1.154-.619-2.364-.274-3.077.625-.941,1.185-1.282,2.068-1.939,3.525-.704,1.56-2.708,3.353-1.565,5.603.331.652,2.056-.158,2.595-.823h-.001Z"/>
    <path class="st0" d="M392.673,60.16c-1.817-.217-4.259-.232-5.47-.909l-3.702-2.069c-2.237-1.25-3.234-3.981-2.308-6.163,2.591-1.451,3.104-4.16,6.869-3.879l.619-1.904,3.139-3.309,4.93.008c.475,0,.884,1.812.511,1.979l-2.393.979c-1.126.461-3.566.973-3.57,2.813-.003,1.277.524,3.404,1.002,4.441,1.93,2.163,2.127,5.397.374,8.013h0ZM391.103,55.708c.443-.374-1.41-4.19-2.75-6.21l-3.081,1.435c-1.016.473-1.63,2.985-.483,4.017,1.477,1.329,4.463,2.321,6.314.759h0Z"/>
    <path class="st0" d="M163.715,100.897l-.878,4.903c-.086.479-.737,1.342-1.101,1.619-.402.306-1.125-.63-1.576-1.422.819-1.441,1.271-3.159,1.012-5.186-1.264-.383-2.734.347-4.035.971-.634.304-2.039-.655-2.671-1.367-1.633,1.062-1.774,3.348-1.98,5.234l-.163,1.483c-.042.382-1.564.374-1.605-.069-.217-2.359-.217-6.641.161-9.285l3.247-4.472c.358-.494,1.026-2.019,1.621-1.281,1.4,1.738-.305,6.91.9,6.224l1.362-.775,4.49-.696,1.877-3.059c.204-.333.776-.87,1.122-.933,1.178-.218.687,1.515,2.309,4.088l.703,1.115c.198.314-.98.708-1.322.905l-3.47,2.003h-.003Z"/>
    <path class="st0" d="M287.362,132.077c.567-.43,2.452.492,3.155,1.104-2.294,2.094-3.304,4.23-3.874,7.072l-2.259,2.102c-3.052,2.84-9.473-2.004-10.112,1.819l-2.127,2.157c-1.106,1.122-5.042.805-5.856-.775-1.368-3.211-.254-6.783-.223-10.174.013-1.417-.478-3.051.364-4.267.492-.711,2.369-.234,2.832.511,1.231,1.982-.859,2.633-1.447,6.401-.428,2.747-.94,5.848,1.078,6.55.483.168,1.707-.058,2.073-.531l3.511-4.531c1.086-1.402,3.103-.39,4.035,1.051.403.623,2.046-.413,2.722-.745,2.205-1.081,4.326-2.58,3.995-5.346l2.133-2.398h0Z"/>
    <path class="st0" d="M169.176,258.951c-2.006,1.13-5.351-1.425-6.022-3.14-.962-2.459.435-4.502,1.672-6.608-1.419-.338-3.359,2.129-4.203,4.377l-.603,1.605c-.136.363.817,1.195.942,1.68.126.488-1.121,1.201-1.642,1.198-.605-.004-1.941-.778-1.976-1.402-.102-1.816.358-3.853,1.175-5.221,2.078-3.48,6.28-9.018,8.857-9.693.809-.212,2.593.514,3.144,1.072l-.676,3.747-1.708,2.94c-.948,1.632-1.905,3.307-1.879,5.314.029,2.199,3.394.872,3.961,2.174.225.516-.442,1.617-1.043,1.956h0Z"/>
    <path class="st0" d="M696.537,48.6c-1.522,1.652-4.917.857-6.602-.338-1.344-.953-1.326-3.799-.861-4.936l1.85-.332c.355-.064.736-1.345.597-1.678l-1.636-3.94,1.65-1.958c1.719-2.041,4.024-2.396,6.358-3.107s5.069-.993,7.453-.933c.177.333.577,1.317.341,1.443l-1.328.711-3.774,1.678c-1.55.69-2.675,1.169-4.602,1.645-.841.208-1.902,1.73-1.821,2.599.269,2.894,3.711,3.947,2.375,9.147h0Z"/>
    <path class="st0" d="M511.256,202.836c-1.186-.203-1.936-.454-2.544-.887l-3.214,3.586c-.508.567-.926,1.753-1.837,1.549-.739-.166-1.91-1.07-1.335-1.711l-.408-4.083c-.141-.617-.394-1.4-.612-1.823-.174-.338-1.707.426-1.688.806l.28,5.528.238,5.358c2.852,4.342-1.473,6.939.408,8.618.425.379,1.493.739,2.209.788l.824-6.042c.153-1.125,1.354-2.148,2.507-2.363,2.577.127,4.415-1.711,4.532-4.444,1.923-1.105,1.843-3.745.639-4.88h0ZM508.907,208.187c-.202.313-.466.58-.729.842-.045.004-.09.006-.136.005-.029,0-.057,0-.086.001-.024.1-.04.201-.045.304-.002.043-1.987-.014-1.988,0,.017-.405.209-.788.413-1.131.208-.349.452-.673.695-.998.022-.029.247-.007.291-.007.234-.003.469-.003.703-.003s.469,0,.703.003c-.024,0,.276-.012.291.007.235.306.071.69-.114.975l.002.002Z"/>
    <path class="st0" d="M820.332,165.2c-2.436,1.462-7.143,1.549-9.251-.443-1.895-1.791-2.965-3.551-2.981-6.234-.003-.585.468-1.152,1.005-1.753,3.217-3.604,2.426-5.415,5.562-7.634,2.844-2.012,5.931-4.981,8.924-4.305.341.077.683,1.186.379,1.361l-1.33.766-5.735,3.343c-.347,2.011-.902,3.495-1.511,5.215-.859,2.427-1.158,4.757-4.291,5.936l3.488,2.44c1.883-1.368,3.785-1.805,6.08-1.814.246.669.272,2.755-.34,3.122h0Z"/>
    <path class="st0" d="M829.594,83.318l-1.938.805c-.771.32-3.472-1.635-3.584-2.66-.188-1.718-.291-5.045.167-6.652,1.079-3.792,4.189-2.383,6.809-3.893l2.988,1.264,3.284,2.156c1.291.847-.697,5.907-2.885,6.863,0,0-4.841,2.117-4.841,2.117ZM832.318,78.869l2.112-2.196c.218-.325-.082-1.193-.478-1.2l-1.583-.027c-1.82-.031-2.761.358-3.741,1.659l-1.11,1.018c-.261.239.115,1.431.301,1.551l4.498-.805h.001Z"/>
    <path class="st0" d="M590.086,133.861c-2.88-2.211-1.089-3.25-2.074-4.864-2.775-.825-6.041.376-7.661,2.903-.993.759-1.791,1.026-3.058.21l-.875-2.527,1.79-2.349c1.589-1.063,2.204-2.459,3.496-3.815l4.738-4.975c.611-.641,3.084-.616,3.517.153.773,1.647.075,3.969.759,5.575l1.11,2.606c.25.586-1.023,1.849-1.121,2.56l-.622,4.523h.001ZM585.861,126.43c1.161-.488,2.18-1.426,2.27-2.103.079-.598-.669-1.467-1.247-2.155l-2.275,1.742c-.648.496.498,2.832,1.252,2.515h0Z"/>
    <path class="st0" d="M490.07,55.462c-1.274,1.202-4.546,1.374-5.858.228l-1.995-1.743c-.631-2.47-.975-5.667.118-8.108l1.566-3.497,2.401-.63,3.891-2.267c.703-.41,1.884-.817,2.486-.609.781.269,1.706,1.955,1.241,2.471-2.292.729-4.865,1.841-5.309,3.075-.137.381,1.006.835,1.335,1.129l2.565,2.294c.281,1.678.25,3.989-.285,5.622l-2.158,2.036h.002ZM490.452,51.558c.304-.35.52-1.852.163-2.102l-1.269-.889c-.915-.641-2.675-1.443-3.469-1.378l-1.415,2.557c-.305.551-.361,1.959-.222,2.568,2.048.946,4.671,1.017,6.211-.756h.001Z"/>
    <path class="st0" d="M756.874,84.574c-.973.392-2.89.218-3.42-.55-.747-1.082-.114-2.961.496-3.879l3.444-5.179c.385-.579,1.852-1.258,2.53-1.211.914.064,1.751,1.14,2.247,1.941l2.475,4.002,3.061-3.66c.975-1.166,2.328-2.541,3.638-3.51l5.182-.963c.36-.067,1.283.438,1.446.765.939,1.885-6.328,1.936-8.854,8.129-.539,1.322-1.296,3.034-2.643,3.692-4.48-1.683-5.342-6.865-7.015-6.87-.66-.002-4.3,3.557-2.586,7.292h0Z"/>
    <path class="st0" d="M142.53,255.734c-1.133-.556-3.182-1.364-3.618-.39l-1.624,3.632c-.204.456-1.11.991-1.589,1.079s-1.13-1.681-.845-2.112l3.799-5.75,3.507-3.976,2.037-1.835c1.673-1.507,4.082-1.458,5.947-.116l.4,4.126.023,1.77c.009.727,2.808.876,2.375,1.748-.712,1.438-3.151.857-4.768,4.811l-1.908-1.783c-.666-.623-2.582-.638-3.735-1.204h0ZM147.263,252.803c.16-1.498.153-2.947-.106-3.995-2.5.165-4.322,1.208-5.325,3.858l5.43.137h.001Z"/>
    <path class="st0" d="M379.957,141.719l-1.515.803c-.361.191-1.224-.681-1.648-.737-2.325-.309-4.32-1.841-5.645-3.725-1.385-.385-.705,3.031-1.902,2.869-.384-.052-1.152-.462-1.483-.817-1.023-1.098-.524-2.376.15-3.579l1.743-3.111c1.702-3.039,4.535-5.198,6.998-4.691.96.198,2.847,2.092,2.307,2.937l-2.249,3.514c-.606.948-2.193,2.873-.639,3.791,1.128.666,4.144.592,5.301-.048,1.697-.939,3.28-1.847,4.572-.381-1.877,2.046-3.675,2.798-5.989,3.176h0Z"/>
    <path class="st0" d="M456.16,47.593l-1.968,3.802c-.332,1.967.138,4.655-1.079,6.213-1.019,1.303-3.079,2.696-4.271,1.545l-3.701-3.576c-.856-5.025-.861-8.287,1.72-12.419l1.758-2.814,3.119-3.255c.969.162,2.518,1.827,1.983,2.433l-3.21,3.633-1.43,2.664-1.331,3.664c-.36.991-.963,2.483-.876,3.67.065.882,1.364,2.05,2.11,2.641l2.385-1.895.575-6.528c1.499-.245,2.175-.281,4.216.223h0Z"/>
    <path class="st0" d="M886.407,77.013s-.002.002-.004.002c.508.056,1.014.262,1.516.418.157-.049.309-.102.461-.189.293-.168.535-.397.661-.715.055-.138.087-.283.107-.431-.088-.077-.175-.153-.258-.228-.566-.514-2.68-1.348-1.797-2.297.924-.993,2.58-1.441,3.83-1.827,1.295-.399,2.592-.879,3.928-1.127.11-.187.189-.391.18-.635-.027-.734-.683-1.318-1.447-1.762-2.671.223-4.915,1.755-6.812,3.903-.935,1.058-1.34,3.939-.374,4.89h.009v-.002Z"/>
    <path class="st0" d="M893.985,79.636l-.09-.057c-1.007,1.316-2.426,2.283-4.126,2.519-.127.018-.256.019-.385.02-.083.057-.161.107-.228.148-.131.08-.565-.005-1.123-.181-.084.004-.169,0-.252.013.057-.008.109-.03.165-.039-1.338-.435-3.326-1.358-3.757-1.872-1.121-1.336.788-4.264-.446-4.78-.475-.199-1.928-.199-2.305.195-2.234,2.335,1.063,7.864,4.308,8.711,3.011.786,5.749.95,8.224-.355,1.268-.668,1.091-3.641.014-4.321h.001Z"/>
    <path class="st0" d="M563.076,209.872l-2.395,1.19-2.413.956c-.628.249-1.787-.705-2.282-1.334-1.288-1.635-1.61-3.43-.073-5.004.159-2.933,1.539-5.51,4.17-7.591,1.588-.713,4.619-.385,6.65-.07l2.265,1.954c.369,1.074.478,3.848-.39,4.698l-3.959,3.88-1.574,1.322h0ZM558.773,208.291c3.537-1.45,6.37-3.35,8.172-6.541-1.235-.584-3.924-1.231-4.778-.455l-2.88,3.062c-.924.982-1.902,2.747-.513,3.934h0Z"/>
    <path class="st0" d="M660.549,162.808c-.911,1.949-1.268,4.079-1.558,6.226-.915.514-2.163-.228-2.726-1.371-1.181-2.396,2.411-3.452,2.914-7.938.211-1.877,2.051-4.807,4.579-4.837,1.892-.023,2.852,1.211,2.885,3.176.288.336,2.014.798,2.297.362l1.189-1.836,3.785-4.238,1.739-1.947,2.224-1.927c.301.468.94,1.649.833,2.154s-.731,1.228-1.196,1.741l-3.777,4.179c-.848,1.999-2.292,3.528-3.983,4.901.145,1.914-1.596,3.576-3.255,2.968l-1.495-4.806c-.127-.409-.814-1.231-1.239-1.264-.51-.039-1.456.689-1.683,1.175l-1.533,3.281h0Z"/>
    <path class="st0" d="M679.453,165.824c-3.357-7.236,2.869-13.816,2.914-12.166l.038,1.407c.119,4.451-1.984,4.16-1.618,6.813l.244,1.77c.411,2.98,11.145-6.673,9.512-7.622-1.163-.677-2.621-.738-4.05-.681l-2.514-2.834c3.493-1.955,10.36.763,10.675,2.65.19,1.136-.423,2.088-1.138,2.961l-2.289,2.794-2.465,1.859-5.272,4.874c-1.239,1.146-3.391-.43-4.037-1.824h0Z"/>
    <path class="st0" d="M584.606,155.167c-3.364-1.05-5.134.41-7.277,3.376l-2.265,3.136c-.674.933-2.378,1.948-2.423,3.532-.023.798,2.09,1.467,2.942,1.221.8-.231,1.757-1.016,2.649-1.598l3.045-1.986,1.303,1.547-1.388,3.305c1.275.458,3.057.366,3.175-.374l.928-5.819,2.634-2.573-3.322-3.768h0ZM584.398,160.126c-.071.128-.149.224-.298.247-.09.014-.184.016-.277.018.036.039-2.037.03-1.823-.005-.034-.001-.069,0-.103,0-.467-.017-.935-.107-1.388-.219-.096-.024-.191-.049-.285-.077-.033-.01-.155-.031-.173-.061,0,0,.277-.073.437-.114h-.063c.016,0-.271-.023-.291-.007.501-.385.943-.839,1.351-1.321.18-.213.344-.428.492-.664.119-.191.249-.403.463-.498.07-.031.212-.006.291-.007.234-.003.469-.003.703-.003s.469,0,.703.003c-.031,0,.281-.01.291.007.098.163.136.364.166.549.043.268.059.541.057.813-.004.441-.035.946-.252,1.341v-.002Z"/>
    <path class="st0" d="M525.113,158.398l-3.308,1.754c-1.493.792-3.945.641-4.053,3.164-.061,1.425-.816,2.292-1.944,3.377-1.571,1.512,1.219,5.75,3.164,6.095.738.131,2.498-.422,3.065-.869l1.293-1.018h-.417c.276-.278.596-.506.908-.742.32-.444.476-.99.527-1.562-.537.218-1.053.501-1.617.625-.18.04-.367.052-.555.054.082.054-.295.056-1.131.006-.076.001-.15-.008-.225-.008-.323.232-1.396.245-1.714.075-.33-.176-.355-1.126-.077-1.379l2.281-2.078c.229-.208,1.015-.219,1.268-.033.103.076.202.236.282.422.173-.053.342-.113.518-.16.02-.018.033-.042.054-.059.302-.245.62-.368.958-.436.417-.476.055-1.154-.614-1.346-.444-.128-.958-.09-1.377-.301-.208-.105-.373-.208-.205-.42.157-.199.369-.352.582-.485.502-.312,1.078-.56,1.674-.751.259-.246.575-.468.773-.562l3.279-1.566,1.972-1.053,1.176-.575c.94-.459-1.499-2.842-6.537-.171v.002Z"/>
    <path class="st0" d="M499.17,53.776l.959-7.4,1.375-1.971c.549-.787,2.696-.76,3.136.035-2.007,3.382-1.664,6.538-.805,6.042l1.457-.839c1.275-.734,2.473-2.141,3.068-3.794-1.901-2.54-3.977-3.986-6.682-5.751l2.154-1.638c2.568.818,3.798,2.035,5.18,3.934,1.23,1.691,2.271,2.939,1.358,5.28-1.011,2.593-2.954,4.598-4.885,6.765-.67.752-1.764,3.011-5.093,1.712-.57-.222-1.306-1.739-1.223-2.377v.002Z"/>
    <path class="st0" d="M777.215,127.921l-.747-1.228c-.177-.291.433-.866.93-1.369-1.197-.418-3.537-.791-4.72-.163-.424,1.395-1.464,3.475-2.672,3.718-1.932-.853-1.003-3.33-.073-4.447l2.668-3.203,2.22-2.591,4.671-3.569,3.154,1.715.483,3.774c.092.718.469,2.511-.31,2.723l-2.791.762-.466,4.827c.133.107-1.089.488-1.383.281s-.636-.69-.965-1.231h.001Z"/>
    <path class="st0" d="M544.518,161.458c.161-.549.325-1.04.144-1.609-.101-.316-.275-.603-.387-.915-.874.861-1.672,1.75-2.401,2.759-1.69,2.34-1.802,4.161-3.09,4.13-.905-.022-3.491-2.392-3.478-2.184l-.133-2.234c-.027-.446-.693-1.311-1.143-1.311s-1.164.865-1.185,1.345c-.089,2.07.601,3.606,2.031,4.748l2.994,2.391c.357.285,1.443.748,1.884.633s.939-.832,1.252-1.345l1.877-3.071,1.708-3.366c-.032.007-.067.014-.071.029h-.002Z"/>
    <path class="st0" d="M548.465,170.716c.047-.096.094-.191.141-.289.448-.927.606-1.936.713-2.956-.095-.037-.189-.074-.279-.109-.211-.97-.044-2.067.328-3.125.02-.639.069-1.278.113-1.915.069-1.004.276-2.088.199-3.092-.044-.573-.268-1.082-.593-1.53-.18-.196-.376-.372-.591-.527-.294.291-.548.628-.75.933-.119.18-.21.37-.289.563-.056.25-.109.501-.161.752l.241-.172c-.207,2.798-3.044,4.591-1.436,9.832l2.363,1.634h.001Z"/>
    <path class="st0" d="M552.326,130.397c-1.958-.012-4.043.537-5.555,1.209l-4.021-1.406c-.789-.276-1.242-2.37-.656-3.081l1.896-2.302c1.247-1.513-.563-4.048-2.034-4.249-.184.117-.74.469-.724.462.008-.003-.412-.583-.486-.688l-1.787,1.702-2.481,2.749c-2.121.937-3.502,3.606-3.619,5.416-.024.371-1.133,1.237-.874,1.404l1.031.666c.392.253,1.411.426,1.874.406.613-.026-.141-2.664.957-3.896.354-.398,1.644-.451,2.249-.392.562,2.383,2.222,3.501,4.296,4.675,4.352,2.464,10.293.049,10.15-1.049l-.213-1.627h-.003ZM540.632,125.591c-.197.035-.418.006-.617.006-.145,0-.291,0-.436-.002.025,0-.178.003-.181-.004-.009-.029-.006-.059-.012-.089h-.01s.006-.008.008-.013c-.086-.42.099-.863.288-1.228.223-.431.51-.828.723-1.264.007-.014.158-.004.181-.004h.106v-.017c0-.008.572-.006.617-.006.053,0,.609-.024.617.006.089.325.353.608.366.951.011.274-.204.487-.356.692-.163.22-.326.445-.535.624-.219.188-.478.299-.761.349h.002Z"/>
    <path class="st0" d="M562.101,51.034c-.59.848-1.218,1.659-2.26,1.992-.449.144-1.722-.305-1.769-.769s.321-1.359.63-1.734l1.851-2.252,3.533-4.782c.339-.459,1.349-1.516,1.813-1.29l1.993.97c1.4.682,2.224,1.106,2.8,2.675.207.562,1.213,1.442,1.764,1.311.56-.133,1.271-1.143,1.557-1.755l1.992-2.542,3.616-3.98c.608-.669,1.727-.65,3.097.169l-3.417,4.279c-.8,1.002-1.1,2.16-1.943,3.426l-2.343,3.518-2.77,1.891c-1.649-1.412-2.803-3.13-3.569-5.339-.27-.778-1.942-1.563-2.422-1.035l-2.153,2.37-2,2.875v.002Z"/>
    <path class="st0" d="M699.841,202.181l-3.82,2.511c-1.359.632-4.581.314-6.059.082l-2.424-2.079.185-9.398,3.098-.987c.926-.998,1.842-1.524,3.44-1.519,2.272.008,2.294-2.145,4.534-1.632.529.121,1.027,1.362.954,1.9-.293,2.139-6.436.671-6.925,6.372,1.137.503,2.136,1.24,2.282,2.592l-3.144-.362c-.337-.039-1.132.371-1.39.589s.575,1.425.912,1.412l5.773-.217c.653-.025,1.479.234,2.584.735h0Z"/>
    <path class="st0" d="M655.106,204.24l-3.429,1.212-5.792,1.962c-2.888.978-6.101,1.31-8.316-.335-.567-.421-1.58-.966-1.549-1.491s.581-1.53.912-2.014l3.447-5.024,1.285-1.872c2.509-3.657,1.346-5.989,2.434-7.433.322-.427,1.777-.156,2.079.298.748,1.122-.211,2.631-.444,3.558-.515,2.046-.594,3.614-2.253,5.06l-.773,2.321c-1.182.948-1.906,2.702-1.536,4.183,2.248.561,4.138.038,6.074-1.125l4.618-.839c.219-.04.802-.94.991-.823l1.162.718c.453.28,1.577,1.473,1.091,1.645h0Z"/>
    <path class="st0" d="M765.23,159.231c.019-.639.869-1.868,1.412-1.851.565.017,1.744.377,2.192.684l1.965,1.345c.639,1.744.466,4.019-.581,5.673-.981,1.55-2.742,2.644-4.613,2.821-3.378.319-5.21-1.231-6.111-4.169-1.112-3.626-1.551-7.573-.466-11.338l2.167-2.106c.471-.303,1.424,1.714,1.232,2.327l-1.176,3.761-.714,1.376c-.189.365.805,1.254.871,1.739l.689,5.041,2.991-.518.141-4.784h0Z"/>
    <path class="st0" d="M199.614,50.665c.537,2.182,1.034,3.101,2.651,4.745-.384.5-1.585,1.916-2.23,2.25-3.404,1.765-6.934-.107-9.194-2.852-.742-.901-1.247-1.382-1.412-2.634-.383-2.892-.576-5.993,1.132-8.399.623-.877.95-1.591,1.274-2.868,1.266-2.32,3.261-3.672,4.692-2.481.404.336.114,1.808-.179,2.252l-1.798,2.73-1.881,2.94c-.9,1.406-1.349,3.093-1.058,4.735.287,1.625,2.66,4.258,4.714,3.509,1.214-.442-1.592-3.962,1.985-5.587l1.304,1.66h0Z"/>
    <path class="st0" d="M257.798,108.056c.021-.196.02-.404.008-.615-.013-.019-.024-.04-.036-.058-.282-.407-.652-.883-1.072-1.157-.105-.068-.217-.104-.33-.138-1.381,1.259-3.767,1.861-5.712.91-.708-.346-1.059-2.356-.601-2.998.501-.702,1.892-1.627,2.628-1.307l.672.292s.006,0,.008,0c.21-.215.419-.43.628-.647.316-.328.62-.668.978-.948-.032-.134-.092-.266-.21-.389-.044-.046-.108-.068-.159-.107-.152.016-.303.035-.455.04-.638.023-1.293.042-1.93-.016-.106-.01-.321.002-.405-.058-.053-.038-.035-.1-.015-.173.04-.145.137-.269.243-.372.477-.461,1.188-.663,1.797-.881.555-.198,1.124-.358,1.678-.559.257-.093.513-.194.761-.308.202-.093.349-.216.398-.441.006-.027.403-.013.552-.008.176-.634.2-1.189-.316-1.518l-5.23.814-3.259,1.987c-1.076,2.748-1.253,7.142-.121,8.844,1.275,1.917,6.849,1.873,9.041.746.214-.281.418-.565.458-.935h.001Z"/>
    <path class="st0" d="M563.247,93.775c-2.998,4.236-7.722,5.961-12.921,4.655-1.883-.473-3.537-2.285-3.957-4.522l2.002-5.127,1.05-2.89c1.315-3.62,4.174-8.046,6.763-6.475.25.616.035,1.988-.294,2.624-3.053,2.017-4.4,5.009-4.937,8.368-1.056,1.352-1.636,2.884-1.638,4.578,4.441,1.216,8.753.037,12.171-2.992l1.762,1.782h-.001Z"/>
    <path class="st0" d="M422.827,91.769c-.069-.128-.166-.249-.273-.36h0v-.002c-.087-.091-.181-.176-.277-.245-.067-.047-.141-.073-.215-.103-.045.006-.09.01-.135.016-.322.047-.67.01-.994.01h-.212c-.006.006-.014.013-.02.018-2.974-.284-4.802,1.356-6.898,3.115l-3.167,2.657c-1.762,1.479-2.391,4.755-.978,6.611,1.992,2.619,5.952,3.101,8.367,1.092.51-.424.905-.853,1.226-1.296.022-.056.048-.108.068-.165-.029-.464-.113-.921-.202-1.378-.123-.108-.272-.174-.426-.227-.167.112-.335.223-.512.313-.604.306-1.265.545-1.922.709-.255.064-.508.096-.77.101-.039,0-.079,0-.118.002.305.194-1.788.094-1.609,0-.056-.002-.113,0-.169-.003-.124-.006-.254-.022-.373-.063-1.075-.179-2.03-.702-2.303-1.656l4.043-3.988,1.488,1.108c.082-.034.167-.058.249-.096.451-.213.926-.49,1.213-.912.236-.347.25-.716.124-1.071-.197-.106-.396-.208-.585-.328-.392-.247-1.287-.765-1.157-1.347.08-.356.515-.582.813-.723.408-.193.846-.319,1.28-.438,1.187-.327,2.315-.64,3.557-.655.223-.003.446,0,.669,0,.031-.03.065-.05.095-.082.181-.196.261-.369.129-.614h-.006Z"/>
    <path class="st0" d="M440.083,133.318c-.647,3.283-1.854,3.751-5.052,4.901-1.587.57-3.528,1.573-5.323.703-1.672-.81-2.262-5.945.232-9.434l2.043-2.859,1.121-1.439c.32-.411,1.862.234,2.157.712.563.913,1.527,1.465,3.011,1.496.97.02,1.369,1.972,1.847,2.919l.692,1.37c.189.374-.646,1.213-.728,1.63h0ZM437.715,132.89c.189-.505-.185-2.035-.545-2.35-1.076-.218-3.361-.038-4.108.663-1.066,1-1.204,3.062-1.004,4.237,2.705.668,5.041-.901,5.656-2.549h.001Z"/>
    <path class="st0" d="M904.189,37.294c-2.725-.879-4.389-2.452-4.454-5.857-2.516.951-3.138,2.847-3.382,5.353-.087.741-1.05,1.924-1.686,1.874-1.07-.083-1.914-1.361-1.833-2.428.128-1.689.316-2.596,1.218-3.542l3.623-3.803,2.479-2.801c.226-.903.682-1.969,1.225-2.222.609-.284,2.239.477,2.331,1.149.578,4.228-2.737,5.766-.969,7.506l1.831,1.803,6.059.532c.483.302.664,1.787.433,2.299-.776,1.718-3.846,1.114-6.876.137h0Z"/>
    <path class="st0" d="M764.658,127.117c-3.409,2.333-7.895,2.065-10.07-1.544l-.994,1.339,1.052,1.656c.255.401-.596,1.884-1.097,1.697-1.393-.521-2.361-1.991-2.359-3.087.003-1.425.39-2.793,1.258-3.871l3.555-4.414c1.552-1.926,3.393-3.448,6.285-2.124l-.599,3.658c-1.353,1.449-2.197,2.476-3.153,4.257,3.445,1.104,7.123-.84,7.393.786.106.639-.618,1.2-1.272,1.647h.001Z"/>
    <path class="st0" d="M168.165,214.26l-4.19-.626c-1.121-.168-2.994-.25-3.798.301-.231.377-.399,1.741-.828,1.786l-1.819.191c-.784-3.023.983-4.109,2.756-5.803l5.399-5.158,2.457-1.159,2.123,1.285,1.223,3.007c1.883,4.63-1.035,7.139-.974,9.045l.043,1.32c.01.309-1.113.343-1.646.28l-.746-4.47h0ZM168.647,209.543c.135-.939-.039-2.352-.425-2.596l-2.698,1.441c-.525.281-1.245,1.034-1.148,1.578.188,1.051,4.053,1.093,4.271-.423Z"/>
    <path class="st0" d="M311.296,59.215l-3.341,1.933c-.708.409-2.692.154-3.119-.533-.251-.404-.379-2.197.076-2.337l2.301-.707c1.531-.471,2.822-1.348,4.585-2.385-1.394-2.576-3.063-4.452-5.141-6.331-.195-.963-.185-2.653.12-3.387,2.391-1.285,4.398-4.082,6.61-4.905l5.149-1.915c.762-.283,2.093.426,2.2,1.289.08.644-.793,1.491-1.521,1.756l-4.624,1.685c-2.002.73-4.366,2.906-4.53,4.145-.097.733.704,1.743,1.187,2.475l2.343,3.55c.793,1.201.395,4.112-2.294,5.667h0Z"/>
    <path class="st0" d="M303.219,137.131l-.759-6.39c-1.655-1.53-4.198-.161-5.435,1.277l-3.115,3.621-2.411,3.324c-.721.994-1.119,1.754-.691,3.005.269.787,2.241,1.246,2.622.495l1.377-2.716,4.336-.391,1.721,2.904c.325.548,1.448,1.156,2.071,1.096l.232-3.977,1.378-1.086c.271-.214-1.285-.819-1.326-1.162h0ZM299.947,135.362c-.051.356-.132.745-.362,1.033-.081.101-.176.137-.303.146-.158.011-.318.008-.478.007-.2.009-.615.019-.725.009-.093.005-.395.004-.612.001h-.079c-.2,0-.4.001-.6-.013-.04-.003-.288-.008-.303-.048-.006-.014.108-.145.119-.158.004-.005.008-.01.012-.015-.011-.001-.168-.011-.175-.004.74-.782,1.544-1.502,2.261-2.305.018-.02.15-.004.181-.004.145-.002.291-.002.436-.002.051,0,.61-.022.617.006.104.432.072.911.01,1.347h.001Z"/>
    <path class="st0" d="M314.54,146.529l-2.681-2.763c2.241-.715,2.462-2.056,2.125-4.18l-4.07-2.831c-.857-3.678,5.048-9.037,8.667-10.617l3.451-1.506c1.842-.804,3.64-2.366,5.87-.14l-3.096,2.068-2.924,1.574c-1.605.865-3.657,1.705-4.918,2.949l-3.995,3.942c3.232,2.212,4.73,5.449,3.746,9.236l-2.175,2.267h0Z"/>
    <path class="st0" d="M533.642,206.658c-.032-.402-5.41-.106-7.55-2.667-1.096-1.312,4.897-3.695,3.053-7.668l-1.987-1.584-2.825,2.13c-3.935,2.968-7.584,9.225-6.513,10.833.605.908,2.028,1.183,3.309.757-.232-1.706-.19-3.268.562-5.283l4.92,4.57c1.777,1.651,5.175,1.197,7.162.57l-.132-1.659h.001ZM525.762,200.702c-.234.003-.469.003-.703.003s-.469,0-.703-.003c.019,0-.273-.022-.291-.007.089-.073.189-.159.292-.253-.266,0-.469-.003-.469-.013-.02-.855.6-1.573,1.153-2.158.031-.032.241-.006.291-.007.234-.003.469-.003.703-.003s.469,0,.703.003c-.016,0,.271-.014.291.007.772.825-.35,1.915-.975,2.424-.042.034-.232.006-.291.007h-.001Z"/>
    <path class="st0" d="M402.1,55.49c-.07-.644,1.184-1.509,2.157-1.381.767.101,1.221.795,1.895,1.78.584.645,2.62-.329,3.417-.76l2.691-1.453,2.656-1.476c-.492-2.636-4.005-2.886-5.589-6.405l2.226-1.615,2.08-1.666,3.198-.686c1.802-.387,3.362-.361,4.972.203-.688,2.097-2.522,1.157-5.819,3.052-.618.355-1.591,1.294-1.432,1.86.179.64.898,1.396,1.598,2.067.529,1.156.488,3.853-.186,5.175-1.243,2.44-3.913,3.119-5.976,4.305-1.677.964-2.74,1.052-4.496.016-1.15-.679-3.098-.312-3.391-3.016h-.001Z"/>
    <path class="st0" d="M839.626,122.265c-.237,1.029-2.753,1.728-3.281.916-1.33-2.048-.038-4.138,1.593-5.214l1.693-2.39c.345-.487,1.233-1.26,1.751-1.158s1.585.733,1.905,1.166l2.706,3.658c1.323,1.787,4.64,1.089,5.749-.899l2.349-4.211,1.371.086c1.166,4.4-.785,9.469-5.375,9.725-5.426.302-5.432-2.993-8.154-5.958-1.386,1.555-1.832,2.212-2.308,4.28h0Z"/>
    <path class="st0" d="M467.395,128.147l1.088-1.213c.233-.26,1.337.325,1.462.752.479,1.632-.835,3.963-2.29,5.166-.702.58-.406,2.699.617,2.774.892.065,1.378-.28,2.303-.997,1.287-.997,2.249-1.771,2.956-3.229l.959-1.979c.846-1.745-4.687-2.611-5.376-5.85l2.02-1.368,3.041,2.353c1.437,1.112,3.241,1.698,2.401,4.26.833,2.51-.885,4.716-3.091,6.02.216,1.976-.91,3.002-2.668,3.139-.59.415-1.442,1.026-1.962,1.123-.607.113-1.698-.654-2.366-1.018-1.489-.812-2.295-1.76-2.343-3.634-.039-1.509.489-3.18,1.438-4.251l1.814-2.049h-.003Z"/>
    <path class="st0" d="M665.833,80.953c-1.66-1.584-3.941.316-5.065,1.436l-4.332,4.315c-1.084,1.079-1.629,3.458-.834,4.694.301.468,1.889.794,2.165.369l1-1.54c.496-.764,1.141-1.717,1.753-2.001.756-.35,2.388-.218,2.464.435l.322,2.786c.067.579,2.345.844,2.384.261l.2-3c1.664-3.04,5.752-1.499,5.78-3.631.022-1.649-4.299.601-5.836-4.124h-.001ZM664.686,85.128c-.055.244-.105.493-.102.745,0,.048-.008.067-.027.076,0,.002,0,.004.002.006-.01,0-.02-.002-.031-.002-.015.002-.024.006-.048.006-.391.009-.782.007-1.172.006-.146,0-.292,0-.439-.003-.07,0-.186.008-.263-.005-.002,0-.002-.002-.004-.003h-.024s0-.01.003-.013c-.021-.015-.03-.036-.042-.076,0,.002.026.002.059,0,0-.007.004-.011.004-.019-.071,0-.15-.005-.17-.005-.234.003-.468.003-.703.003s-.469,0-.703-.003c.043,0-.289-.012-.291-.007.453-.919,1.467-1.384,2.069-2.187.022-.029.247-.006.291-.007.234-.003.469-.003.703-.003s.469,0,.703.003c-.04,0,.287-.005.291.007.154.488.002.997-.106,1.478v.002Z"/>
    <path class="st0" d="M376.1,214.162c-.506.485-1.526,1.089-2.074,1.195-1.216.236-3.957-1.529-3.833-3.122.076-.98.78-2.093,1.235-2.973.736-4.959,3.37-4.479,1.103-7.199-.438-.525,1.11-2.199,1.782-2.07l3.433,1.624,2.871,1.824c1.5,2.465.826,5.597-1.142,7.483l-3.376,3.237h.001ZM376.694,210.027l2.093-3.877c.201-.885-2.526-2.07-2.835-1.243l-1.654,4.214c-.276.702,2.025,1.594,2.396.906h0Z"/>
    <path class="st0" d="M612.574,200.679c.739-1.231,1.208-2.561,2.548-2.96.46-.137,1.035-.867,1.511-1.609-1.748-.111-3.076.735-5,1.23l-3.496.9-2.382,1.183c-.718.357-2.635-.421-3.506-2.652-.813-2.082,4.489.519,8.458-2.17l5.13-1.052c.41-.084,1.458-.878,1.78-.61,2.077,1.725.99,6.494.08,7.572l-3.552,4.211c-.311.369-1.059,1.34-.915,1.795.179.563.607,1.161,1.329,2.285l-2.493.047c-.946.018-2.381-3.186-2.144-3.618l.904-1.644,1.748-2.911v.003Z"/>
    <path class="st0" d="M750.139,195.977l-8.026.338.191,4.578c.016.378-.608,1.144-.923,1.035-3.094-1.068-2.75-4.305-2.203-8.569l-.224-3.868,2.689-1.76,2.797-.678c2.444-1.772,6.065-2.486,8.394-1.559l-2.095,1.958c-3.447.35-7.619,2.367-6.763,4.798l3.052,1.498,3.362.152c.374.017,1.053.719,1.068,1.087s-.896.972-1.32.99h0Z"/>
    <path class="st0" d="M711.119,81.289c1.988.698,1.103,3.081-.118,4.185-.695.629-.516,2.802.21,3.776.383.514,1.98.161,2.542-.16l3.236-1.847c1.107-1.688-.151-4.115-.589-5.929l-.409-1.696c-.27-1.121-3.8.74-5.126-.938-.3-.38.647-1.476,1.058-1.777,1.738-1.272,3.804-1.472,5.44.322,1,1.097,1.764,2.283,1.981,3.829.367,2.624.673,5.325-.452,7.792-1.876,2.118-3.682,3.841-6.381,4.206-.997.135-2.634-.785-3.426-2.037-1.242-1.963-.818-5.528-.339-7.802.141-.669,1.744-2.145,2.373-1.924h0Z"/>
    <path class="st0" d="M645.387,85.682c1.241-1.498,2.143-3.633,1.406-5.696-.2-.561-1.483-1.518-1.961-1.213l-1.76,1.122c-1.727,1.1-3.018,2.619-4.024,4.432l-1.927,3.47c-.59,1.062-.976,2.639-.551,3.741.331.858,1.956,2.177,2.819,1.826l1.73-.705c.269-.11-.062-1.261-.242-1.388-.414-.172-1.529-.618-1.469-1.022l.26-1.78c.239-1.635,1.915-3.262,3.212-2.338-.087,2.6,1.132,3.793,2.79,4.193.372.09,1.033.93,1.341.796l1.388-.603,5.288-1.541c-2.872-3.133-7.246.602-8.301-3.292v-.002ZM645.236,82.897c-.202.395-.622.645-1.016.813-.045.004-.09.006-.136.005-.052,0-.104,0-.155.002-.234.003-.469.003-.703.003s-.469,0-.703-.003c-.068,0-.137,0-.206-.003-.029,0-.057,0-.086-.004.032-.014.063-.036.095-.051h-.218c-.069,0-.137,0-.206-.003-.029,0-.057,0-.086-.004-.051-.1-.067-.21-.032-.318.063-.198.248-.341.419-.443.136-.081.287-.141.442-.182.114-.328.243-.65.354-.979.006-.019.258-.007.291-.007.234-.003.469-.003.703-.003s.469,0,.703.003c-.019,0,.273-.013.291.007.289.328.459.752.247,1.167h.002Z"/>
    <path class="st0" d="M211.547,48.687c3.36,2.655,8.314,4.121,8.389,7.148.035,1.4-.631,2.631-2.071,3.429-3.479,1.93-8.829.748-10.457-3.209l-.186-8.016c1.416-1.395,3.119-.307,4.325.647h0ZM213.253,53.371c-.441-.339-1.291-.798-1.699-.932-.326-.107-1.017.652-1.076,1.011-.274,1.682.263,3.063,1.77,3.69,1.474.613,2.469.32,4.057-1.422l-3.053-2.347h0Z"/>
    <path class="st0" d="M102.395,102.084c-.216.196-1.163.289-1.197.55l-.174,1.35-.296,1.567c-.067.357-1.405.387-1.527.044l-.632-1.789-6.324-.292-.671,2.718c-.705.007-2.226-.228-2.509-.838-.378-.815.262-2.245.537-3.122.654-2.081.82-4.519,1.366-6.708l1.041-4.171.315-1.264c.088-.354,1.437-.504,1.582-.171,1.071,4.39-3.037,7.38-.628,9.537.608.545,2.048.734,2.794.196.715-.516,1.027-1.793,1.041-2.744l.022-1.506c.005-.357.954-.361,1.19-.098s.524,1.023.585,1.389l.282,1.712c.151.918,3.128-.354,5.186,1.848l-1.981,1.791h-.002Z"/>
    <path class="st0" d="M680.524,201.771c-.898,1.135-2.167,1.764-3.427,1.935-1.168.159-2.894-1.126-2.863-2.521.283-1.187.498-2.588-.248-3.956-.192-.353-1.064-1.02-1.346-.817s-.628.66-.913,1.123l-2.037,3.313c-.166.63-.238,1.71-.691,1.939s-1.652.184-2.1-.056-.494-1.837-.243-2.277l1.907-3.335,3.203-3.535c.522-.576,1.861-1.352,2.569-1.2.676.145,1.723,1.29,2.062,1.937l.645,5.327,6.624-5.228c.284-.224,1.062-.637,1.354-.52.365.146.94.779,1.11,1.134s-.657.972-.985,1.325l-2.304,2.483-2.316,2.929h-.001Z"/>
    <path class="st0" d="M137.886,107.041c-2.033-2.467-1.861-5.08.116-7.25l1.408-3.104c-1.589-2.444-4.501-.022-8.016-2.264l.184-1.495c2.534-.002,5.063.121,7.503-.131,1.89-.548,4.003-2.282,6.124-.535.891.734.664,3.354-.198,4.138-.815.742-1.209,1.222-1.764,1.969l-2.069,2.781c-.998,1.341-1.86,2.536-.948,4.361.248.495.269,1.942-.178,2.206-.522.308-1.758-.185-2.163-.676h0Z"/>
    <path class="st0" d="M218.957,213.159c1.039-.554,2.485-1.318,3.297-1.358.283-.014.933,1.112.748,1.324l-1.1,1.26c-.44.504-1.618,1.166-2.246,1.549-2.791,1.703-5.095,1.494-7.895.063-1.709-.874-2.994-1.503-2.67-4.106l.53-4.258c.38-.564,1.151-1.874,1.675-2.236l2.331-1.609c1.11-.766,2.078-1.143,3.159-1.972.621-.186,2.039-.246,2.845-.187l1.174.086c.295.022.577,1.003.325,1.163l-1.103.7-2.814,1.885-2.374,2.036c.827.857,1.569,2.018,1.854,2.977-1.975-.455-3.612-.706-5.447-.184-.392.737-.122,2.422.422,2.999,1.287,1.365,5.748.688,7.29-.133h0Z"/>
    <path class="st0" d="M113.658,219.319c-.205-3.033.3-6.25-2.101-8.805-.966-1.028-4.065-.843-5.056.201l-3.784,3.991c-1.809,1.908-2.643,5.06-2.908,4.632l.563.911c.243.393.938,1.012,1.37,1.124s.801-.972.955-1.925c.515-.411,2.027-1.472,2.721-1.632,1.034-.138,2.969-.125,4.095.049.949.147,1.889,2.25,2.389,3.076.237.391,1.906.613,1.876.159l-.12-1.781h0ZM110.477,215.829c-.005.026-.005.075-.021.097-.018.025-.07.029-.122.032.255.026-.204.026-1.366,0-.114,0-.228.002-.341,0-.147-.002-.295,0-.442-.015-.057-.005-.111-.023-.167-.031-.27.001-.863.003-.864-.01-.002-.051-.008-.101-.014-.151-.071-.012-.141-.032-.214-.038h-.014c-.225,0-.45,0-.675-.001-.085,0-.171-.001-.256-.003-.045,0-.091-.001-.136-.005.091-.111.202-.204.319-.289-.096,0-.163,0-.164.001.045-.351.37-.631.619-.851.203-.18.41-.35.601-.544.185-.188.373-.388.593-.535.08-.053.152-.072.232-.081-.005,0-.008-.005-.014-.005.008,0,.015.001.023.002h.026c.025-.002.045-.007.073-.008.546-.011,1.093-.008,1.639-.001.046,0,.096.008.145.009h.028c.009,0,.017-.001.026-.002-.004,0-.008.004-.013.004.029.002.059-.003.086.005.15.047.228.222.278.356.082.223.119.463.144.698.048.445.068.924-.01,1.368v-.002Z"/>
    <path class="st0" d="M406.049,172.972c-2.814,2.131-3.787-2.909-8.769-1.518l-1.058,3.226c-2.566-.353-2.8-2.59-3.367-4.352-1.007-3.133-1.759-7.351.343-9.346,3.372,1.788-.179,5.649,3.764,5.417l9.441-.557c.351-.021,1.166.627,1.276.877.498,1.139-4.538.09-4.974,3.876,1.215.581,2.616,1.446,3.343,2.378h.001Z"/>
    <path class="st0" d="M364.518,210.979c-.684.432-1.504.658-2.309.696-.224.01-.453.021-.683.029-.169.015-.442.02-.653.013-.347,0-.69-.02-1.029-.055-.604.061-1.254.03-1.975-.134l-.467-4.606c-.823.164-2.016.644-3.089,1.563-.962.824-.074,3.334.846,3.984,3.243,2.291,7.031,2.626,8.83.432.643-.784.897-1.512.916-2.221-.126.107-.253.214-.389.3h.002Z"/>
    <path class="st0" d="M370.291,198.198c-.22-.385-1.146-.866-1.584-.792l-4.217.709-3.497,3.274c-1.484,1.389-2.757,3.635-.948,5.368l2.168,2.076c.108-.038.215-.079.312-.142.246-.161.429-.406.565-.664.326-.621.377-1.35.153-2.011-.219-.646-.694-1.168-.913-1.809-.446-1.307.844-2.297,1.897-2.781.55-.253,1.131-.42,1.722-.545,2.427-1.67,5.332-.952,4.344-2.683h-.002Z"/>
    <path class="st0" d="M866.889,41.231c-1.227-.203-3.119-2-3.12-3.121l.862-4.648,2.267-2.72c.61-.732,1.041-1.989.976-2.948-5.447-.51-7.149,1.941-8.625,1.775-.832-.094-1.61-1.221-1.462-2.104.298-1.779,7.388-5.08,12.298-1.658l1.289.899c-.052-.037-1.713,7.614-4.265,10.208l-.048.67,1.346,1.481c.36.396-.662,1.727-1.518,2.166h0Z"/>
    <path class="st0" d="M662.83,42.558c-.055,2.916-1.926,4.021-4.136,5.246-1.317.729-2.176,1.47-3.74,1.331-1.253-.112-2.331-.798-3.422-1.846-1.177-1.131-1.857-3.419-.685-4.809,1.481-1.756,2.527-3.377,3.308-5.758,3.105-.344,8.716,3.645,8.675,5.837h0ZM658.857,44.563c.531-.319,1.085-2.127.537-2.484l-2.838-1.851-2.221,3.563c-.212.34-.451,1.065-.513,1.433-.056.329,2.868.64,5.036-.661h0Z"/>
    <path class="st0" d="M342.563,205.144c-2.105-.909-3.626.297-5.451,1.076l-4.1,1.751-1.758-1.549c2.045-2.588,4.813-2.888,7.688-3.772l5.326-1.637,2.336-1.222c.556-.291,1.8,1.43,2.023,2.172l-1.72,3.414-1.921,2.968c-1.098,1.696-1.572,3.232.577,5.086-1.904.889-3.469.607-4.444-.772-.964-1.363-.852-3.251.596-4.485l.848-3.033v.003Z"/>
    <path class="st0" d="M299.305,109.614c-2.939-.692-4.268-3.658-3.186-5.011l1.819-2.275c.71-.887,1.966-1.774,1.526-3.269l-6.703-.432-1.929-1.8,1.658-1.405c2.422.055,5.42-.369,7.807.27l3.903,1.044c2.139.572.594,3.625-.616,4.612-1.576,1.286-3.647,4.299-3.812,5.049-.115.522.6,1.399,1.162,2.226.018.302-1.138,1.107-1.63.992h.001Z"/>
    <path class="st0" d="M145.276,131.664c-.089-1.015-.208-2.046-.54-3.015-.026-.077-.062-.168-.097-.259-.502.01-.996.089-1.458.236-.107.528-.148,1.078-.233,1.487-.007.035-.289.025-.582.01-.484.414-1.249.319-1.842.403-.364.052-.745-.03-1.111-.006l-1.199.279c.16-1.127.285-2.716-.152-3.252-.412-.506-2.191-.331-2.964-.069l-.682,6.444c-.235,2.218-.023,4.323,1.711,5.708.456.365,1.349,1.493,1.761,1.205l1.622-1.136-1.504-2.456c-.49-.8-1.388-2.078-1.29-2.961.078-.703.875-1.977,1.302-2.581.426,1.214,1.05,2.155,1.716,2.129l3.47-.133,2.231,3.628.467-.599c-.412-1.646-.476-3.385-.624-5.064l-.002.002Z"/>
    <path class="st0" d="M136.632,172.67c-1.549.094-2.955,2.138-3.849,4.299-.403.973-1.558,1.42-2.565,1.361-.928-.055-1.698-2.323-1.07-2.807.863-.666,2.036-1.424,2.617-2.194l3.15-4.181c1.242-.484,2.759.951,3.391,2.083,1.255,2.248,3.353,3.625,5.432,4.965,2.429-2.596.297-5.46,3.175-9.079.285-.358.91-.811,1.286-.95.372-.138,1.033,1.199.876,1.634l-1.313,3.645c-1.134,3.147-.585,5.124-1.739,7.493l-.567,1.164c-.125.257-1.49.18-1.694-.026l-5.753-5.827c-.41-.415-.892-1.608-1.375-1.579h-.002Z"/>
    <path class="st0" d="M375.018,163.878c-1.163-2.083-4.737-4.105-7.294-2.178-1.062.8-1.759,2.133-1.096,4.058.384-.573,1.133-.888,1.771-1.042.433-.105.871-.129,1.312-.138-.174-.015.546-.023,1.102-.021.036,0,.073,0,.109-.001.128-.05.258-.064.384-.001.403.004.806.033,1.186.14-.077-.022-.208.006-.291.007-.088,0-.175,0-.263.001-.06.026-.118.058-.178.086l1.635.85-1.12,1.404c-.002.083-.002.166-.024.244-.11.395-.35.763-.661,1.054-.013.031-.013.068-.029.098-.052.096-.127.179-.229.223-.056.024-.114.031-.174.036-.022.002-.045,0-.067,0-.248.133-.515.223-.791.24-.069.004-.14.002-.209.005.105.024-.128.037-.457.043-1.381.796-2.811,1.076-4.491.809l-.134-3.904c-1.709-.262-2.872,1.03-3.241,2.52-.295,1.191.514,2.675,1.911,3.709.932.69,3.587,1.208,4.73.828,2.883-.958,4.276-3.318,6.181-5.399.767-.837,1.041-2.573.428-3.671h0Z"/>
    <path class="st0" d="M271.384,177.966l-1.343-2.929,1.524-2.916,1.889-3.599c-1.624-1.579-3.195,1.888-5.367.352-.663-.469-1.247-2.315-.513-2.669l4.568-1.323,5.94-1.221,1.468,2.421c.226.372-.49,1.388-.75,1.765l-1.976,2.862-2.015,2.644-.224,4.541c-.223.736-2.869.796-3.201.073h0Z"/>
    <path class="st0" d="M234.504,178.668l-1.677-.345c-.266-.055-.241-.992-.335-1.264l-.818-2.376-6.385.712,1.936,2.399c.107.133.844.384,1.01.399.054.005-.719,1.751-2.981,2.138-.749.128-2.319-.738-2.325-1.593l-.078-11.365,2.149.352.232,3.524,4.971-.052c1.218-.013-.537-3.326.857-3.609,1.262-.256,3.032,3.193,3.131,5.091l.313,5.989h0Z"/>
    <path class="st0" d="M49.302,255.183l-.632-1.398-1.189-2.629-6.368-.219-1.647,2.298-1.93,2.457-1.837,2.575c-1.205,1.69.607,3.167,1.919,3.823l2.051,1.025c.469.234,1.599-.463,2.142-.769l2.912-1.644c1.588-.896,2.829-2.74,3.563-4.303.163-.347,1.162-.894,1.017-1.216h0ZM42.414,259.46c-.826.578-2.5.805-3.735.829-.64-3.078,2.222-5.398,3.266-5.406.048-.014.096-.032.143-.044.171-.043.346-.062.523-.074-.128-.002-.089-.003.007,0,.333-.022.671-.009.998-.009.324,0,.656-.008.982.01h.021c.117-.004.173-.002,0,0h-.015c.062.004.124.001.185.008.104.011.208.033.306.07.356.135.633.511.488.895-.131.349-.484.592-.8.778l1.009.577-3.379,2.366h.001Z"/>
    <path class="st0" d="M881.938,159.67c-.038-.052-1.104,5.544-5.578,4.748-1.428-.254-3.699-1.176-4.397-2.507-1.134-2.163-.204-4.373-.284-6.562-.082-2.248.542-4.722,2.697-5.395.634-.198,2.054.315,2.287.833.297.662.011,1.78-.902,2.864l3.087,2.169c1.007.708,1.675,1.899,2.406,2.906l.685.944h-.001ZM878.677,159.218l-1.812-1.5c-.275-.228-.995-.604-1.335-.694-.435-.115-1.8,2.851-1.475,3.199l1.389,1.489c.443.475,1.846-.029,2.379-.581.397-.412.883-1.717.854-1.913h0Z"/>
    <path class="st0" d="M50.119,214.561c-2.152-1.248-3.185-2.116-4.885-3.646-1.143-1.029-4.282-1.007-5.436-.073-4.777,3.865-5.772,10.01-3.255,10.203,1.833.141.101-3.136,2.566-4.763,1.112-.734,2.806-.244,3.948.464l2.499.317.411,3.13c.05.383,1.443,1.127,1.667.831,1.253-1.653.079-2.793,1.078-4.069.538-.687,1.376-2.018,1.405-2.396l.002.002ZM44.722,214.793c-.079.002-.211.007-.231.007-.234.003-.469.003-.703.003s-.469,0-.703-.003c-.077,0-.208.012-.291-.007-.603-.14-1.173-.38-1.756-.582-.135,0-.271,0-.406-.002.045,0-.291-.008-.291-.007.097-.303.24-.593.399-.868.157-.272.337-.55.576-.757.039-.034.234-.006.291-.007.234-.003.469-.003.703-.003s.469,0,.703.003c.031,0,.239-.019.291.007.398.196.687.61.916.975.239.38.458.801.562,1.241h-.06Z"/>
    <path class="st0" d="M281.483,105.706c-2.118.55-3.336.146-4.61-1.613-.754-1.042-.91-3.347-1.029-5.212-2.825.521-4.303,3.25-5.358,5.861l-1.698,2.602c-.581-.325-1.617-1.686-1.697-2.351-.096-.804.999-1.884,1.592-2.57l3.578-4.14c.895-1.036,2.31-2.604,3.809-1.561,2.482,1.727,1.612,4.06,2.54,5.258.27.348,1.737.205,2.055-.128l3.579-3.745c1.329-1.39,2.686-2.314,4.878-1.116l-3.351,3.985-1.807,2.43c-.748,1.005-1.19,1.965-2.484,2.301h.003Z"/>
    <path class="st0" d="M123.025,142.413c-1.25.822-4.403.894-5.642.217l-1.779-1.749,1.751-1.539,4.583-.038-2.8-2.242c-1.554-1.244-1.043-4.545.126-5.844,1.717-1.906,3.702-2.709,5.91-3.08.452-.076,1.362-1.006,1.75-.833l1.643.733.857.454c.236.125-.309,1.124-.52,1.306-.754.651-3.099.599-3.923,1.185l-4.589,3.261c.732.772,1.421,1.337,2.403,1.964l2.663,1.701c.656.419.637,2.483.034,2.879l-2.468,1.623v.002Z"/>
    <path class="st0" d="M679.947,90.266c-2.815-4.157,1.821-5.416.717-9.074-1.492.226-2.247.547-3.364,1.008l-2.944,1.03-.953.714c-.164.123-1.76-1-1.969-2.385-.066-.44.877-1.097,1.34-1.258l4.98-1.736c1.654-.577,3.3-1.624,5.033.051l2.418.44c1.5,2.204.686,4.105-.747,5.908l-1.818,2.287-.946,4.12c-.062.272-1.27.315-1.359.05l-.388-1.155h0Z"/>
    <path class="st0" d="M650.436,136.211c-1.667,2.1-4.509,1.558-6.497.192l-1.893-1.3c-.868-1.22-.913-4.009-.135-5.312l1.513-2.533c2.518-2.131,7.605,1.203,9.272,3.925l.596.973c.154.251-.332.875-.561,1.164l-2.295,2.891h0ZM649.547,132.055c-.418-1.076-2.16-1.952-2.775-1.837-.797,1.241-1.496,2.732-1.417,3.608,1.65,1.159,4.455-.228,4.192-1.771Z"/>
    <path class="st0" d="M838.404,162.181l-2.766.732c-2.332,2.36-7.054-.48-8.645-3.681-.809-1.628-1.727-2.374.087-4.844.005-2.651,1.59-5.259,3.63-6.791l1.083-1.216c.295-.331,1.638.529,1.524.98l-.906,3.571c-2.29,1.588-3.947,5.021-2.848,7.625,1.325,3.139,6.159,1.637,9.844-1.131.304-.05,1.065,1.765.97,2.471-.103.773-1.172,2.072-1.973,2.284h0Z"/>
    <path class="st0" d="M823.44,195.649c-1.612.27-4.169.593-5.506-.117l-2.985-1.584c-.473-.251-.225-1.669.086-2.104,1.78-2.482,3.111,2.583,6.611.381l-2.458-1.603c-2.774-1.81,2.002-7.489,6.813-7.395.496.01,1.386-.959,1.735-.792l1.493.711,1.166.557c.346.165.44,1.63.07,1.683l-4.273.608-3.704,1.667c-1.006.453.238,2.628,1.076,2.954l2.125,2.903-2.25,2.132h0Z"/>
    <path class="st0" d="M103.112,140.332c-2.133,1.986-4.907.39-6.93-1.211-1.006-.796-1.411-3.57-.457-4.63,1.104-1.228,1.63-2.07,1.9-3.931l2.621-1.325,3.699,1.519,2.366,2.115.107,4.385-3.305,3.078h0ZM103.94,134.418l-2.096-1.74-2.804,4.145c.528.814,2.7,1.08,3.697.573.809-.412,1.894-2.393,1.204-2.977h0Z"/>
    <path class="st0" d="M108.451,169.624l-3.027.179-6.176,3.717-.62,4.624c-.077.574-1.004,1.673-.942,2.209.063.535.762,1.35,1.265,1.758l2.939,2.381c.378.306,1.429.63,1.843.517.958-.262,1.349-1.775,1.346-3.677-.051.055-.098.112-.162.164-.291.235-.634.429-1.014.452-.392.023-.787.019-1.181.012-.646.034-.891.03-.724-.012-.136-.003-.272-.015-.386-.091-.234-.158-.25-.41-.166-.682-.221-.803-.417-1.702-.437-2.17-.022-.537,1.656-.83,2.023-.539.022.044.029.098.047.145.218-.142.396-.334.518-.564.208-.391.26-.839.246-1.281-.322.021-1.958.014-1.821-.012-.101-.004-.202-.005-.302-.018-.099-.013-.405-.039-.434-.126-.024-.072.022-.206.043-.274.062-.199.183-.376.319-.532.326-.372.746-.654,1.148-.937.36-.253.765-.505,1.032-.863.022-.029.247-.006.291-.007.234-.003.469-.003.703-.003h.066c.174-.169.371-.311.583-.419l3.289-1.682c.327-.167.828-.921.865-1.29.037-.368-.808-1.001-1.175-.98h0Z"/>
    <path class="st0" d="M294.238,162.613c-1.683-.591-5.126-.498-6.667.536-2.116,1.935-3.175,3.504-2.566,6.388-2.085,1.144-2.584,3.864-1.453,5.428,1.968,1.84,3.645,2.062,6.141,1.664.319-.051.632-.133.934-.236.243-.417.403-.917.161-1.204-.169-.028-.322-.117-.462-.226-.647-.08-1.309.01-1.933-.238-.241-.096-.395-.234-.497-.397-.111.056-.215.077-.291.003l-1.916-1.863c-.371-.36,1.078-1.28,1.558-1.146.408.114.998.376,1.36.69.413-.266.862-.505,1.026-1.002.143-.433.017-.79-.206-1.11l-2.152-1.27c.657-2.725,4.152-4.463,6.253-4.73.366-.046,1.005-1.185.71-1.289v.002Z"/>
    <path class="st0" d="M148.431,221.404c-3.999,2.199-7.28,1.416-7.201.072.087-1.496,1.687-.424,4.503-1.861l1.325-.676c.27-.138-.779-1.226-1.082-1.228-1.299-.013-3.978-.912-3.854-3.055l1.061-2.087c2.21-4.346,8.069-5.362,7.991-3.45-.019.467-.53,1.335-.937,1.567l-2.04,1.165c-.446.255-1.127,1.09-1.329,1.522-.231.496.251,1.843.798,1.94,1.645.292,4.25,1.341,4.916,2.702-.502,2.239-2.738,2.612-4.152,3.389h0Z"/>
    <path class="st0" d="M96.455,62.957l-3.414-1.584c-.274-.127-.778-.49-.977-.656-.265-.222.633-1.191.995-1.213l2.909-.179c.154-1.246.124-3.58-.575-4.597l-2.085-3.034c-.529-.77-1.726-1.554-1.695-2.455.035-1.034.664-2.168,1.466-2.711l2.215-1.499c2.22-1.503,5.041-2.46,7.289-.542l-2.331,2.161-2.479.518-1.839,2.059c-1.087,1.218.907,2.638,1.235,3.519l1.485,3.994c.454,1.221.595,3.125.718,4.535l-2.918,1.683h0Z"/>
    <path class="st0" d="M77.637,103.98c-.063.475-.52,1.387-.774,1.751-.306.439-1.964.537-2.17.035-1.007-2.462-.942-6.363.986-8.901l-1.505-1.576-6.509-.599c-.923-.085-2.276-1.626-2.765-2.769,3.163-1.059,6.347-.194,9.198.795,1.23.427,4.216-.003,5.253.819,1.639,1.991.584,4.769-1.156,6.217l-.558,4.229h0Z"/>
    <path class="st0" d="M469.504,99.05c.556,1.75-2.074,3.297-3.337,2.63l-3.058-1.615-2.311-1.88-.063-4.426,5.882-5.244c1.436-1.28,4.556-.806,6.101-.363.029.672.039,1.561-.238,1.619l-1.424.297c-3.55.74-6.467,4.943-4.658,6.317.898.682,2.809,1.734,3.105,2.665h.001Z"/>
    <path class="st0" d="M411.596,215.275c-1.062.771-5.508.979-7.331-1.806-.506-.846-.33-3.172.221-3.975l1.67-2.434,1.845-2.464c2.909-.549,6.178.418,6.703,3.352.294,1.639.779,4.507-.431,5.385l-2.676,1.943h-.001ZM412.638,211.078c.551-1.732.134-2.483-1.207-2.828-2.063-.53-4.207,2.311-3.88,3.523.268.992,4.541,1.02,5.087-.695h0Z"/>
    <path class="st0" d="M607.185,160.371l.623,2.131-4.869,2.249-5.169,1.921c-1.253.465-2.433,1.194-3.863,1.058-1.904-.18-3.585-3.956-3.49-4.189l.701-1.726c.553-1.362,1.18-6.48,4.523-6.707,1.346-.091,1.758,1.926.978,2.823l-2.075,2.391c-.813.937-1.99,2.801-.362,3.809.77.477,2.629-.922,3.539-1.125l5.812-1.298,3.654-1.339-.002.002Z"/>
    <path class="st0" d="M85.677,181.174c1.66-1.264,3.995.009,6.215-2.755.928-1.156,2.175-2.196,3.71-1.874.639,2.92-1.576,4.597-3.627,6.089-2.264,1.647-4.975,1.531-7.885,1.478-.999.646-2.337,1.408-3.398,1.286-1.502-.173-2.611-.923-3.718-2.287-1.08-1.332-1.887-7.324,1.173-7.007,3.13.324-.849,3.901.521,5.467.979,1.118,3.276.814,4.11,0l1.184-1.156c.324-.316,1.448.501,1.713.759h.002Z"/>
    <path class="st0" d="M65.076,186.012c-1.391-1.379-1.333-3.216-.041-4.394l-1.7-1.505c-1.215.045-3.424.057-4.236-.643-1.154-.994.812-2.49,1.971-2.563,4.623-.289,6.625-3.438,10.267-2.128-.065,1.194-.295,2.877-.813,3.534l-2.044,2.59c-.486.616-1.005,2.15-.627,2.827.384.687,1.421,1.119,2.723,1.558-.356.552-1.461,1.806-2.214,1.974-.993.222-2.578-.548-3.287-1.251h0Z"/>
    <path class="st0" d="M187.65,256.083c-1.729,2.8-6.752,2.906-7.945.556.372-2.552,5.24-1.637,4.222-2.726l-1.019-1.09-1.858-2.459,1.756-2.666c1.203-1.826,3.385-3.441,5.658-3.985.977-.234,2.687.189,4.039.492.862.193,1.323,2.343.981,2.748-.844-.522-1.515-.798-1.907-.662l-3.082,1.072c-1.118.389-2.351,1.128-2.641,1.933-.38,1.055-.262,2.951.515,3.429,1.042.641,1.782,2.545,1.28,3.358h.001Z"/>
    <path class="st0" d="M233.467,141.405c-1.72-.403-4.38-6.843-1.574-10.81l-5.163-.354c-1.234-.085-3.598-.977-3.458-2.192.237-2.052,2.526-1.237,3.576-1.215l6.933.142c.569.012,2.111.656,2.187,1.168l-.598,5.031c-1.772,2.477-2.381,5.224.251,7.525-.732.447-1.67.818-2.154.704h0Z"/>
    <path class="st0" d="M84.629,217.621l.052-5.247-4.312-.442c-2.387-.245-4.307-.253-5.905-2.821,3.959-1.699,6.736.698,12.031-1.348l2.288-.884c.58-.224,1.505,1.014,1.598,1.851.069.621-.623,1.287-1.108,2.144l-1.878,3.475-.131,6.595c-1.778-.179-2.654-1.453-2.635-3.323Z"/>
    <path class="st0" d="M787.747,162.16c.601,1.248-1.727,2.355-2.789,2.856-2.353,1.11-4.413,2.284-6.862.6l-.747-2.214c-1.473-1.423-.674-3.086-.27-4.742.701-2.872.261-6.274,1.714-8.92l.785-1.43c.169-.308,1.497-.017,1.653.333.681,1.527-.192,4.261-.835,5.971-.91,2.419-1.341,6.623-.334,7.625,1.369,1.362,4.361-3.382,7.685-.079h0Z"/>
    <path class="st0" d="M829.059,126.585l-2.752,1.759c-1.606,1.027-3.521-.282-4.596-1.129-1.602-1.262-1.878-3.004-1.809-5.157.099-3.111,2.158-5.74,5.314-6.218l3.423,5.686c.729,1.211.916,3.275.419,5.059h.001ZM825.59,122.028l-1.435-1.783-1.319,3.26-.287,1.456c-.064.322,2.765.733,3.327-.633.199-.484.119-1.796-.286-2.3h0Z"/>
    <path class="st0" d="M527.545,128.47c-1.679-1.78-3.821-3.284-5.89-3.326l-1.095,1.841c-1.326.016-2.764.515-3.241,1.473-.491.986-.335,2.678.369,3.366l1.929,1.886c1.677.829,4.445,1.113,6.408.423l1.701-1.875c.66-.728.519-3.046-.18-3.787h-.001ZM523.785,132.212c-.009.016-.156.004-.181.004-.145.002-.291.002-.436.002-.031,0-.218.008-.379.01.021.015.044.026.065.038.085,0,.17,0,.255-.001.145,0,.291,0,.436.002.023,0,.146.016.181.004-.192.065-.376.094-.575.101.082.014-.023.015-.319.005-.154.001-.308,0-.462,0-.25.008-.356.007-.319-.001-.085-.002-.17-.004-.252-.025-.391-.101-.611-.539-.774-.872-.299-.61-.533-1.41-.062-1.996.149-.186.355-.327.585-.391.164-.045.334-.041.502-.042.31-.002.62-.004.93.002.068.001.135.003.202.012.616.089.871.744.886,1.296.006.215-.029.429-.085.638.075.4.029.818-.198,1.215h0Z"/>
    <path class="st0" d="M548.2,205.082c-1.64,3.006-4.048,4.496-6.527,3.293-1.793-.87-2.892-2.711-2.763-4.794.144-2.311,3.033-5.532,4.411-5.875,2.076-.516,4.015.625,5.446,2.1,1.449,1.493.311,3.665-.568,5.276h0ZM545.866,201.706c-.681-1.275-4.676,1.641-3.504,3.141.473.605,2.347.288,2.963-.171.575-.428,1.064-1.99.541-2.97Z"/>
    <path class="st0" d="M49.195,189.114c-2.42-.145-5.226-2.25-4.933-4.993.172-1.606.106-2.26-1.723-3.317l3.095-1.991,2.744-1.655,4.895-1.337c.685-.316,1.625-.69,2.074-.383.655.448,1.272,1.781.941,2.344-3.378.7-6.382,1.373-8.367,4.742l2.641,2.98c.421.476.883,1.627.745,2.215s-1.473,1.433-2.114,1.395h.002Z"/>
    <path class="st0" d="M797.414,126.972l-1.278-2.833,1.179-3.061c.282-.731.719-1.309,1.555-2.568l-8.272-.347c.772-.807,1.337-1.682,1.889-3.098l9.333-.6c.917-.059,2.602,1.868,2.157,2.58l-1.598,2.557-2.047,3.277c-.378.606-.964,1.553-1.029,2.112-.074.64.707,1.764,1.248,2.648.153.345-1.093,1.022-1.641.913-.566-.112-1.184-.89-1.495-1.581h0Z"/>
    <path class="st0" d="M769.476,44.656c-1.88,1.364-4.729,2.605-6.362,3.124l-1.09.667c-.245.15-.86-.602-1.14-.65-2.498-.431-4.713-2.044-4.534-4.931.187-3.007,2.152-3.444,2.145-7.514l2.214-1.834c.691-.573,2.711.84,3.083,1.527l-3.254,4.796-.993,1.908-.838,1.24c-.193.285.865,1.066,1.256,1.045l5.156-.279c1.477-.08,2.917-1.331,4.355.9h.002Z"/>
    <path class="st0" d="M598.515,90.507l-1.648,2.069-3.557,4.08-2.578,2.24c-.602.523-1.618,1.328-2.244,1.274s-1.604-.759-2.3-1.169c-1.348-.793-1.852-1.768-1.912-3.474-.097-2.782-.079-5.397,2.244-7.224,3.829,2.858-1.865,4.777.701,8.01.443.559,2.031.033,2.634-.596l5.046-5.264.566-1.813c.103-.331,1.173-.469,1.607-.384l1.866.362c.394.077-.132,1.521-.425,1.889Z"/>
    <path class="st0" d="M469.483,169.444l-4.029,1.384c-1.528.525-4.702.775-6.084.088l-3.396-1.689-2.012-1.982.002-4.711,3.373-3.865,2.982-.133c1.576,2.395-5.075,3.039-2.949,9.008l8.025.327,6.426-.323c-.624,1.497-1.17,1.494-2.338,1.896h0Z"/>
    <path class="st0" d="M790.635,193.901c.649.528,1.15,1.746,1.178,2.371.032.714-.705,2.125-1.449,2.714-2.287,1.813-6.005,1.027-8.365-1.029-1.849-1.611-1.095-5.212.995-6.483.494-1.989,1.65-2.714,3.863-2.513l1.814,3.341,1.965,1.598h-.001ZM786.07,197.654l2.2-2.242c-.319-.585-1.807-1.605-2.534-1.468-1.002.189-2.221,1.084-2.294,2.018l2.629,1.692h-.001Z"/>
    <path class="st0" d="M850.436,83.452c-1.977,1.436-5.185,2.233-6.783-.197-1.407-2.14-.784-5.64.62-7.598,1.006-1.762,3.132-2.183,4.33-.998.724,1.883,1.976,3.505,3.053,4.947,1.246,1.669-.042,2.99-1.22,3.846Z"/>
    <path class="st0" d="M172.31,58.326c-3.096-2.018-3.29-3.953-1.838-8.258l3.062,1.398-1.491,1.52c-.333.339.299,1.35.64,1.81.941,1.267,1.82,1.381,3.117,1.017,1.283-.359,2.076-2.254.942-3.272-.628-.563-1.513-1.975-.988-2.616,1.084-1.323,2.722-.527,3.701.301,1.488,1.258,1.959,2.384,1.623,4.432-.312,1.905-1.237,3.835-2.801,4.591-2.094,1.012-4.163.253-5.969-.924h.002Z"/>
    <path class="st0" d="M64.706,261.699c-.787.968-1.845,1.548-3.207,1.512-1.436-.038-2.353-.584-3.151-1.38-1.687-1.682-1.19-3.189-.355-5.031,1.002-2.211,2.071-3.876,4.36-5.913l5.274,5.224c.11,1.104-.711,2.87-1.28,3.569l-1.641,2.019ZM62.816,259.33c.482-.305,1.102-1.31,1.19-1.886.086-.557-.993-1.625-1.656-1.515-1.73.287-2.53,2.304-1.722,4.788l2.187-1.386h0Z"/>
    <path class="st0" d="M79.839,261.345c-.787.968-1.845,1.548-3.207,1.512-1.436-.038-2.353-.584-3.151-1.38-1.687-1.682-1.19-3.189-.355-5.031,1.002-2.211,2.071-3.876,4.36-5.913l5.274,5.224c.11,1.104-.711,2.87-1.28,3.569l-1.641,2.019ZM77.949,258.975c.482-.305,1.102-1.31,1.19-1.886.086-.557-.993-1.625-1.656-1.515-1.73.287-2.53,2.304-1.722,4.788l2.187-1.386h0Z"/>
    <path class="st0" d="M203.383,173.593l-3.899-1.945-4.265,3.234c-1.023,1.468-.077,4.253,1.058,5.37,1.492,1.47,2.941,2.096,5.358,1.686l2.298-2.126-.55-6.218h0ZM201.371,177.436c-.062.399-.279.8-.456,1.158-.012.024-.254.007-.291.007-.142.002-.285.001-.427.002.23.105.471.188.721.21h.006c.096.006-.082.007-.1.008-.198.004-.396.004-.594.005-.406.001-.817.017-1.223-.007-.397-.023-.783-.162-1.118-.372-.256-.16-.492-.365-.59-.659-.155-.464-.089-1.033.104-1.475.088-.202.218-.405.413-.518.095-.055.195-.077.304-.084.626-.042,1.268-.016,1.895-.005.313.005.591.054.838.26.211.176.358.422.444.681.084.252.114.527.073.79h.001Z"/>
    <path class="st0" d="M245.968,181.818c.25-.05.534-.267.803-.555.334-.743.221-1.599-.507-2.199-.029-.024-.062-.045-.093-.067-.044,0-.088-.001-.131-.001-.081,0-.165-.012-.247-.014-.081.001-.162.003-.242.004.019-.002.028-.012.046-.015-.697-.028-1.405-.101-2.076-.27-.644-.162-1.545-.594-.717-1.236.641-.497,1.559-.487,2.22-.938.042-.092.096-.176.174-.244.016-.014.063-.017.114-.016.816-.916-.224-2.092-.941-2.703.031.026.241-.006.291-.007h.021l-.198-.274c.936-.944,2.122-1.523,3.527-1.854.126-.092.177-1.281-.18-1.425l-1.25-.502c-1.997-.802-4.142.102-5.265,1.688-.539.762-.131,2.537.018,3.422-.798.425-1.894,1.171-2.073,1.89-.183.735.293,2.094.858,2.535l2.162,1.691c.834.653,2.58,1.314,3.684,1.092l.002-.002Z"/>
    <path class="st0" d="M581.503,92.734l-6.795,4.421c-1.47.956-3.564,2.009-5.355,1.259l-2.28-2.204c-.622-2.165-.544-5.559.47-7.574l1.696-3.368c.269-.534,1.574-1.333,1.615-1.097,1.539.217,1.581,1.539.689,2.201l-1.141,2.911c-.98,1.371-2.355,3.63-1.229,5.524,1.59.899,4.237-.149,5.778-1.01l2.582-1.442,1.81-1.129c.492-.307,1.715.617,2.159,1.509h.001Z"/>
    <path class="st0" d="M419.628,172.358v-5.687c-2.934-1.559-5.222,2.508-7.667-.372l-.921-1.085c-.271-.32.841-1.257,1.293-1.23,5.977.36,6.661-1.373,9.468-1.476,1.023-.038,2.72,1.508,3.147,2.428l-2.054,3.965-.91,1.756,1.467,1.441c.401.394.228,2.308-.327,2.397s-1.861.078-2.301-.091c-.529-.204-1.196-1.415-1.196-2.044v-.002Z"/>
    <path class="st0" d="M315.951,210.546l-.388,3.287c-.031.265-.972.531-1.226.436s-.739-.721-.741-1.024l-.024-3.921c-.009-1.508,1.134-2.922,2.465-2.958,3.913-.106,1.806,5.68,5.886,3.478.513-1.634.86-2.829,1.722-3.589,1.404-1.238,2.728-1.3,4.678-.823-.16,3.44-3.931,2.278-3.903,5.458.015,1.638-.393,4.047-2.441,4.238-1.778.166-3.284-1.92-3.425-3.645-.09-1.104-2.508-1.739-2.602-.937h0Z"/>
    <path class="st0" d="M312.339,101.534l2.766,1.393c.13,0,.261,0,.391.002-.02,0,.274-.013.291.007.008.01.021.013.03.023.286-.227.498-.541.579-.923.094-.44.041-.901-.083-1.345l-.868-.611c-.355-.25.047-1.811.348-2.116l3.12-3.165c-.167-.63-1.315-1.745-1.806-1.443l-1.82,1.12c-4.224,2.6-4.716,6.166-2.947,7.057h0Z"/>
    <path class="st0" d="M317.224,106.857c-.009-.231-.1-.426-.204-.617-.098,0-.197,0-.295,0-.188-.004-.363-.023-.541-.091-.364-.138-.715-.425-.965-.72-.134-.158-.209-.325-.23-.5-1.371-1.118-3.305-1.453-4.755-.166,1.402,2.382,4.135,3.57,6.679,3.041.191-.282.326-.605.312-.948h0Z"/>
    <path class="st0" d="M673.212,130.487c1.994,1.655-4.846,3.4-9.464,4.303-.793.155-2.274.851-2.82.393l-3.074-2.58c.295-.423.708-1.159.763-1.597.243-1.933,1.184-3.26,1.886-4.837l1.93-4.338,1.876.365c.527.103.211,1.992-.067,2.507l-1.83,3.382c-.566.631-1.233,1.26-1.495,1.788s.571,2.132,1.145,2.23c1.056.18,2.426-.606,3.451-.966,2.33-.82,7.199-1.067,7.701-.65h-.002Z"/>
    <path class="st0" d="M698.077,82.751c.791-.881,2.001-1.229,2.811-2.093.115-.123.831-.01.994-.01.052,0,.193.014.353.027l3.093-1.802c-1.427-2.047-3.721-1.883-5.287-1.241-1.088.446-2.294,2.273-2.305,3.631l-.016,2.056c.087-.195.196-.386.357-.566v-.002Z"/>
    <path class="st0" d="M699.536,89.99c-.058-.549-.165-1.128-.513-1.573-.263-.337-.638-.537-1.008-.733-.702-.373-1.524-.71-2.069-1.31-.448-.494-.336-.959-.013-1.354.076-1.064.368-2.558-.159-2.602l-2.988-.25.005,3.514c1.751,1.99,4.217,4.799,6.67,5.47.104-.335.12-.728.075-1.162h0Z"/>
    <path class="st0" d="M749.882,44.923c.525-.042,1.725.768,1.583,1.196s-.887,1.01-1.328,1.155l-3.179,1.042c-1.776.582-4.648.905-6.212-.119-1.327-.869-3.001-2.054-3.42-3.21-1.402-3.863,2.878-10.207,4.835-10.239.755-.012,2.123.673,2.281,1.262l-3.354,3.569-1.657,2.962c-.295.527.362,1.887.829,2.293s1.811.716,2.524.658l7.098-.57h0Z"/>
    <path class="st0" d="M119.656,174.094c.031-.032.24-.006.291-.007h.038c.021-.087.045-.175.074-.263.148-.449.501-.712.864-.969-.009-.015-.016-.031-.025-.047h.09c.344-.243.687-.488.863-.887.022-.05.334-.043.605-.03.049-.063.104-.127.17-.19l1.147-1.108c.204-.197-.427-1.219-.709-1.248-1.86-.193-5.108,2.336-5.991,4.557l1.767,1.104c.274-.302.532-.619.815-.913h0Z"/>
    <path class="st0" d="M123.792,178.846c-.542.383-1.232.621-1.889.694-.154.017-1.41.094-2.385.002l-.145.074c-.131.068-.344-.044-.565-.194-.258-.073-.427-.178-.448-.323-.083-.059-.16-.11-.222-.138l-1.408-.639c-.519-.236.625-2.462-1.012-3.481-.414-.258-2.096.014-2.063.521.189,2.878,1.544,5.411,3.933,6.364,1.57.626,4.346.387,5.844-.412.382-.759.642-1.764.744-2.787-.121.114-.246.223-.383.32h0Z"/>
    <path class="st0" d="M403.627,103.847c.203.029.673,1.22.475,1.275l-.989.273c-2.626.724-5.381.833-8.024-.097l-3.295-3.365c-.709-.724-.103-3.196.334-4.089l1.647-3.364,1.891-4.373c.226-.532,2.261-.606,2.739-.057,1.003,1.151-.634,2.639-1.065,3.485l-1.86,3.644c-.557,1.091-.722,3.451-.622,4.692l4.741,1.409s4.028.567,4.028.567Z"/>
    <path class="st0" d="M746.63,132.637c-.442.517-1.579,1.242-2.231,1.265-1.553.055-3.931-1.822-4.158-4.119-.131-1.334.605-2.412,1.729-3.317l.962-3.534c2.267.176,3.871,1.45,5.36,3.027,1.399,1.481,1.316,3.196.017,4.714l-1.68,1.964h.001Z"/>
    <path class="st0" d="M886.927,40.256c-.955.764-1.576,1.359-2.12,1.534-1.924.621-7.067-3.906-5.284-8.254l2.983-4.331,4.825,5.049c1.592,1.666,1.148,4.76-.405,6.003h.001ZM885.445,35.749c-.175-.679-2.146-1.203-2.474-.866l-.7,2.936c1.798.96,3.452-.995,3.175-2.07h0Z"/>
    <path class="st0" d="M71.343,135.779c-1.957-2.299-5.531-2.253-7.4-1.349-.662.32.634,3.546-.179,4.198l-1.788,1.435c.009,1.356,1.88,2.666,3.091,2.818,3.062.386,5.939-1.648,6.547-3.289l.816-2.204c.161-.435-.724-1.182-1.087-1.609ZM67.932,138.892c-.047.018-.13.004-.181.004-.145.002-.291.002-.436.002h-.127c.114.096.255.17.389.216-.028.002-.056.003-.084.003h-.096c-.145.003-.291.003-.436.003s-.291,0-.436-.002c-.035,0-.138.01-.181-.004-.285-.097-.618-.3-.605-.643.011-.266.224-.477.441-.602.139-.08.293-.119.438-.184.043-.02.085-.042.129-.062.029-.013.061-.008.09-.011-.005-.002-.007-.01-.013-.01.025,0,.05.002.075.003.018,0,.034-.006.053-.007.323-.004.646-.004.969,0,.035,0,.077,0,.116.005h.011s-.002.001-.003.001c.009.001.02-.002.028.001.03.011.047.038.061.065.067.124.113.277.134.416.047.306-.013.681-.335.808v-.002Z"/>
    <path class="st0" d="M568.982,155.776l-1.487,1.774-2.12,2.441c-.035.066-.07.13-.104.196-.656,1.266-1.202,2.591-2.006,3.776-.062.092-1.984.014-1.988,0-.2-.843-.136-1.727.022-2.571,0-.007.032-.012.074-.016l.036-4.127-1.751-1.589c-2.929,2.403-.43,10.765,1.296,11.736,2.466,1.386,5.883-2.254,6.524-6.019l3.203-4.246-1.699-1.354h0Z"/>
    <path class="st0" d="M740.807,167.083l-.816-6c-.016-.12-.495-.713-.49-.722l.395-.556c.307-.556.811-1.51,1.243-1.313,2.574,1.175.353,4.047,2.021,7.02.184.328,1.508-.439,1.696-.774l1.706-3.048c1.053-1.88,2.589-3.499,3.362-5.521l1.054-.703c1.58,2.341.271,4.363-1.064,6.425l-1.847,2.85-1.749,3.281-1.004,1.503c-.716,1.071-4.249-.548-4.507-2.443h0Z"/>
    <path class="st0" d="M234.815,106.875c.537.245,1.341.802,1.382,1.252s-.841,1.177-1.41,1.239c-2.222.243-3.904-.57-5.408-2.414-1.737-2.13-.95-5.328.899-7.493l4.261-4.989c.254-.297,1.111-.782,1.465-.842.954-.16,3.132,1.161,2.938,2.151-.089.452-1,.718-1.759.954-1.871.582-2.817,2.88-3.877,4.367-1.021,1.432-1.639,2.526-1.552,4.375l3.06,1.4h.001Z"/>
    <path class="st0" d="M728.67,194.785c-.703-1.048-1.594-2.55-2.846-2.636-.899-.061-2.694,1.099-2.973,1.964-1.542,4.776,3.062,9.882,6.318,8.861,1.381-.433,2.42-3.837-.499-8.189h0ZM727.462,198.416c.016.372.012.946-.336,1.185-.076.052-.158.076-.248.083,0,0,.002.001.003.001h-.006s-.006.003-.009.003c-.607.039-1.228.014-1.836.002-.029,0-.051-.005-.076-.007h-.003c-.005,0-.01,0-.016.001.003,0,.004-.002.007-.002-.141-.018-.219-.076-.258-.248-.08-.356.004-.758.074-1.11.084-.426.237-.835.444-1.215-.03-.066-.055-.136-.092-.197.006.011.12.004.205-.002.115-.186.241-.366.387-.53.028-.032.242-.006.291-.007.234-.003.468-.003.703-.003s.469,0,.703.003c-.032,0,.281.018.291.007-.201.227-.358.477-.496.736.179.402.251.878.27,1.301h-.002Z"/>
    <path class="st0" d="M120.469,260.309c-2.96.17-4.88-1.643-5.356-4.315,1.941-.445,3.232.075,4.014,1.855,1.072.378,3.041.689,4.35.526,1.382-.172,2.132-1.578,2.667-2.623,2.125-4.158,1.015-6.44,2.13-8.248.334-.542,2.2-.655,2.601-.159.915,1.132-.368,3.03-.804,4.249-.636,1.781-.086,4.765-1.499,5.959l-3.707,3.136c-1.24,1.049-3.085,1.263-4.397-.381h0Z"/>
    <path class="st0" d="M84.701,142.63l-.084-7.224c-2.086.123-4.208.274-6.057-.027-1.425-.232-2.556-2.038-1.906-2.948l5.273-.641c2.166-1.199,4.422-1.575,6.383.634.847.954-.517,2.452-.819,3.503-.765,2.662-.558,5.523-.722,8.355-.537.399-2.058-.82-2.068-1.654v.002Z"/>
    <path class="st0" d="M689.595,128.427c.38-.061,1.149.092,1.389.243.319.202-.073,1.266-.456,1.436l-3.66,1.615c-1.621.715-4.522,1.075-5.936.193-1.549-.966-3.612-2.537-3.836-3.853-.76-4.463,3.447-8.87,6.086-7.782.71.293,1.088,2.3.432,2.743-2.046.305-3.858,1.636-3.56,3.999.045.356-.077,1.412.242,1.557l1.444.658,1.223.558c.248.113.791-.343,1.062-.467l5.569-.901h0Z"/>
    <path class="st0" d="M395.349,140.01c-1.679,1.974-4.231,1.235-5.791-.374-2.803-2.89-1.477-7.116-.148-7.22,1.789-.14,3.637-.086,5.138.371,1.402.427,2.208,2.247,2.205,3.262-.004,1.431-.444,2.832-1.404,3.96h0Z"/>
    <path class="st0" d="M811.374,188.852l-1.308,2.527-1.662,3.21c-1.451,2.803-3.693,4.588-7.164,3.301-4.385-1.625-4.841-7.179-4.948-6.924l.516-1.23,2.435-2.389.3,6.38,2.259,1.844,3.553-1.345,2.199-3.838c.795-1.388,2.172-2.159,3.819-1.536h.001Z"/>
    <path class="st0" d="M64.127,213.707c-.475-.416-.978-.796-1.488-1.168-.231-.168-.463-.335-.693-.506-.104-.078-.301-.146-.22-.238.063-.071.239-.071.331-.086.618-.103,1.231-.252,1.826-.455.034-.115.067-.233.101-.356.13-.461.131-.794-.2-1.022l-3.234.037c-.835.206-1.574.574-2.071,1.391-.243.399-.381.839-.481,1.291,1.063.841,2.441,1.266,3.432,1.672.563.23,1.084,1.773.871,2.294-.531,1.298-5.407.712-5.399,3.093.006,1.779,3.152,2.269,4.234,1.172l4.033-4.092c.643-.653.279-1.952-.232-3.003-.272.023-.711.066-.812-.022l.002-.002Z"/>
    <path class="st0" d="M550.565,44.876c-3.738,4.331-2.545,11.29-4.107,10.979-.449-.089-1.401-.645-1.711-1.075-1.486-2.063-.876-5.004.633-7.059l.801-3.167c4.1-2.687,2.303-7.254,6.214-6.086.291.452-.401,1.777-.81,2.235,0,0-1.02,4.173-1.02,4.173Z"/>
    <path class="st0" d="M781.74,41.466l2.721-3.149c1.402,2.557.348,3.971-.842,5.768-1.03,1.554-2.741,3.697-4.34,4.673-.522.319-2.175-.625-2.346-1.024-3.553-1.073-5.092-3.966-4.834-7.664l.394-1.585c.113-.456,1.911-.145,1.96.331l.489,4.752c.08.777,1.596,1.924,2.339,1.907.848-.02,1.985-.792,2.547-1.523l1.912-2.487h0Z"/>
    <path class="st0" d="M451.378,128.709l1.757,2.395c.244-.745.487-1.461.293-2.264-.13-.085-.258-.171-.392-.251-.224-.134-.462-.243-.683-.381-.13-.082-.417-.228-.378-.42.027-.135.214-.216.322-.266.807-.367,1.812-.438,2.687-.512.376-.032.759.018,1.135,0,.792-.302,1.715-.45,2.607-.471-.681-1.726-2.476-1.856-4.125-1.648l-3.107.393c-.574.073-1.679,1.296-1.341,1.756l1.224,1.669h.001Z"/>
    <path class="st0" d="M455.592,133.133c-.169.241-.352.432-.653.482-.109.018-.222.017-.335.02-.013.003-.043.005-.093.006-.21.001-.422-.005-.625-.006-.555-.002-1.149-.033-1.679-.227l-.111.142c-.091-.126-.193-.243-.304-.349-.057-.037-.12-.064-.172-.107-.046-.038-.109-.082-.143-.13-.007-.01-.002-.011-.008-.019-.784-.536-1.871-.653-2.867-.167-.84.409-.38,2.782.44,3.094l2.805,1.069,3.564-1.431c.532-.871.585-1.804.391-2.72-.066.117-.133.233-.21.343h0Z"/>
    <path class="st0" d="M728.298,49.86c-.166.572-.691,1.495-1.137,1.469s-1.176-.736-1.355-1.143l-.478-1.079c-.112-.253.397-.843.498-1.244l1.734-6.928,1.013-4.87c.147-.709-.019-2.445.588-2.758.669-.344,2.15-.337,2.766-.049-.082,2.525-.453,4.464-.962,6.506l-1.595,6.392-1.071,3.704h-.001Z"/>
    <path class="st0" d="M572.75,202.826l1.514-.089,1.814,3.962,4.492-2.013,2.259-2.15.236-4.983c.018-.378.646-1.101.989-1.188,1.454-.368,1.298,4.376.532,8.354l-3.728,3.683c-1.339,1.323-5.262.479-6.554-.738-1.623-1.528-1.933-3.055-1.554-4.839h0Z"/>
    <path class="st0" d="M896.399,160.659l.148-1.61c.069-.752,2.567.799,4.028-1.453l1.175-1.812c.598-.922-3.469-2.046-5.317-4.484l2.518-2.782,2.774-1.443,1.424,1.372c-2.044,1.861-1.709,2.776-1.094,4.8l.689,2.268.809,1.814c.084.188-2.838,6.252-6.078,5.258-.493-.151-1.125-1.39-1.075-1.929h-.001Z"/>
    <path class="st0" d="M385.568,171.01l1.977-1.466c.406-.301,1.909.425,2.003.936-.196,1.157-1.835,2.711-2.849,3.332-2.921,1.787-5.765,1.109-7.865-1.311-1.279-1.474-1.701-3.025-.303-4.724.838-1.019,2.252-3.096,3.654-3.331,3.194,2.715-2.935,5.941-.933,6.883,1.17.55,3.439.331,4.316-.319h0Z"/>
    <path class="st0" d="M178.343,216.326l-2.312-1.36c-.567-.334-.614-2.31-.41-2.939l.478-1.473c.134-.412,1.524.153,1.518.596-.011.862.386,2.353,1.01,2.693.928.505,2.138.239,2.941-.443l2.006-1.703,3.817-3.169,2.171-1.402c.228.626.716,1.946.404,2.336l-1.271,1.591-2.442,3.042c-.594.74-1.943,1.453-2.793,1.966-1.842,1.111-3.002,1.511-5.119.266h.002Z"/>
    <path class="st0" d="M253.579,179.35c-1.507-.524-2.46-1.359-2.009-2.821l4.568.165c.54.019,1.664-.511,2.062-.859s.687-1.821.296-2.188l-2.26-2.121c-.557-.523-1.176-1.283-1.359-1.976-.321-1.219,2.324-3.278,5.72-3.547l1.466-.116c.39-.031.183,1.492-.199,1.578-1.077.242-3.325,1.859-2.677,3.242,1.125,2.399,1.782,5.081.776,6.891-.951,1.71-4.277.706-6.385,1.752h.001Z"/>
    <path class="st0" d="M53.486,140.04c-.024-.016-.042-.036-.066-.052l.038-.061c-.169-.765-.256-1.55-.333-2.265-.234-2.181-.26-4.349-.235-6.531-.266-.19-.655-.349-.934-.378-.021.572-.078,1.176-.206,1.773-.004.317,0,.636.021.966.038.622.151,1.58-.294,2.094-.389.449-1.29.3-1.822.298-.379-.002-.73-.009-1.079-.016-.336.03-.675.033-1.007.029-.6.392-1.197.871-1.734,1.571,1.787,1.717,3.368,1.714,5.484,1.516.526,1.527,1.519,3.502,2.554,4.582.451-.259.697-.616.807-1.006-.626-.685-.976-1.582-1.194-2.52h0Z"/>
    <path class="st0" d="M404.308,132.905c.055-.619,1.582-1.23,2.004-.95,1.553,1.03,1.048,3.37,2.352,3.546,3.282.441,3.991-4.553,7.904-7.132.992,3.569-1.543,6.043-3.594,8.394-.695.797-1.429,2.071-2.217,2.324-1.047.336-2.738-.355-3.502-1.07l-1.972-1.845c-.59-.552-1.066-2.253-.976-3.266h.001Z"/>
    <path class="st0" d="M591.846,203.133c4.171,4.106,6.648-1.058,8.423.105.306.2.694,1.139.415,1.376l-1.173.992c-2.626,2.221-7.034,2.365-9.723-.455-.976-1.024-2.08-2.378-1.124-3.713,1.296-1.81,2.72-3.22,5.113-3.925.328.932.426,2.834-.139,3.502l-1.791,2.119h0Z"/>
    <path class="st0" d="M428.661,53.938l-.8-3.476c-.003.008.27-.543.262-.502-.011.056-.26-.566-.289-.635l1.4-4.521c.571-1.843,2.237-3.685,1.692-6.054-.13-.564.337-1.837.761-2.181s1.634-.411,2.304-.205c.573,2.455-.323,5.028-1.139,7.22l-1.608,4.321c-.832,2.236-.267,4.705-1.002,6.741-.151.418-1.48-.267-1.581-.706v-.002Z"/>
    <path class="st0" d="M214.533,179.038l4.202-1.198c.234-.067,1.089.266,1.283.413,1.063.804-5.009,6.562-10.504,2.826-.895-.609-1.952-1.371-1.998-2.095-.12-1.905,1.259-4.796,3.823-4.71.368.012,1.337.448,1.417.806.33,1.483-1.697,1.325-1.958,2.632-.083.418.835,1.026,1.295,1.186,1.195.414,1.421.43,2.44.14h0Z"/>
    <path class="st0" d="M634.995,135.823c-.773,2.888-5.827,1.16-8.295-1.278-.906-.895-1.774-3.011-.907-4.04,1.724-2.047,3.918-2.997,5.98-4.441,1.286-.901,2.586-2.26,4.488-.759l-3.377,2.346-3.594,3.134-.137,2.955c2.338.624,3.826,1.113,5.842,2.084h0Z"/>
    <path class="st0" d="M744.217,84.49c.949,1.268,2.055,2.21,2.153,3.367-1.621,1.241-3.644.627-4.738-.881-1.373-1.892-.896-4.973.269-6.918l1.746-2.916c.468-.782,1.638-1.532,2.644-1.697.888-.147,2.189.885,2.806,1.718-.952,1.09-1.751,1.486-2.908,1.956-1.189.738-2.661,4.078-1.972,5.371Z"/>
    <path class="st0" d="M39.032,255.829c-.755,1.399-.496,6.073-1.33,5.681l-1.463-.688c-.401-.189-1.303-1.071-1.137-1.481l.85-2.109,1.991-3.845,1.962-4.124,1.715-4.11c.541-1.296,1.424-3.202,2.875-3.324.424.074,1.305,1.267,1.063,1.606l-1.074,1.508c-1.957,2.747-2.101,4.678-3.527,7.32l-1.925,3.567h0Z"/>
    <path class="st0" d="M430.697,211.831c-2.643-1.958-2.704-5.643-3.15-5.067l.99-1.279c.577,2.011,2.733,4.706,3.992,4.732.494.01,1.169-1.006,1.337-1.5l1.349-3.972,1.985-3.796c.207-.396,1.043-1.013,1.47-1.011s.69,1.301.535,1.725l-1.917,5.25-2.109,4.952c-.526,1.033-3.564.644-4.482-.036v.002Z"/>
    <path class="st0" d="M537.542,94.267c.798.807,1.47,1.36,1.623,1.956.172.669-.266,2.09-.741,2.552l-3.533-2.731c-.467-3.834-.362-7.748,1.628-11.087l.602-1.009c.181-.303,1.513.358,1.55.71.666,6.367-2.389,8.337-1.129,9.609h0Z"/>
    <path class="st0" d="M813.515,127.104l-1.226,1.529-1.874-4.567c-.695-1.693-.627-5.276.049-6.879.757-1.794,2.456-3.528,4.258-4.223.509-.196,1.228,1.801.887,2.216l-1.652,2.008c-1.068,1.298-1.029,4.299-.841,6.099,0,0,.399,3.817.399,3.817Z"/>
    <path class="st0" d="M796.753,156.445c-2.231,4.021,1.6,5.958-.018,7.819-.4.461-2.178-.123-2.354-.726-.844-2.888-.793-6.063-.725-9.082.046-2.043.499-3.884,2.867-4.129,1.674,1.256,1.247,4.285.23,6.118Z"/>
    <path class="st0" d="M215.065,139.165l-.449,1.542c-.106.365-1.206.677-1.363.342l-1.038-2.213c.302-2.407.427-5.041,1.09-7.248l1.132-3.773c.141-.47.424-1.138.732-1.353.386-.27,1.34.737,1.328,1.217l-.133,5.118c-.057,2.191-.671,4.21-1.299,6.368Z"/>
    <path class="st0" d="M912.669,49.93c-.184.49-.72,1.371-1.133,1.318-1.794-.23-1.179-5.86-.242-7.944.799-1.777,1.584-3.277,1.42-5.202-.03-.355.641-1.452.923-1.23s.812.767,1.03,1.093l1.031,1.538c.23.343-.695,1.27-.78,1.702l-1.143,5.78-1.107,2.945h.001Z"/>
    <path class="st0" d="M208.912,215.08c.444,1.832-1.235,1.984-2.138,2.558-3.323,2.113-6.246,1.518-9.115-1.276-1.473-1.435-3.1-4.437-2.918-6.494l2.311-.03c-.004,1.911.12,3.052,1.145,4.435.691.932,2.695,1.886,4.181,1.686l6.534-.879Z"/>
    <path class="st0" d="M82.018,53.461c-.798,4.907,1.238,7.32.938,10.125-2.576.24-3.348-1.919-3.36-3.936l-.04-6.286c-.012-1.917,1.209-4.964,3.765-4.269.955.946-.268,3.489-1.303,4.366Z"/>
    <path class="st0" d="M661.359,203.426c-.532-.582-1.63-1.804-1.917-2.37-.513-1.013-.619-3.698.023-4.626l1.98-2.864,2.216-2.668c3.607,4.163-2.462,5.447-1.139,10.082l.503,1.763c.111.388-1.403.971-1.666.684h0Z"/>
    <path class="st0" d="M353.551,173.473c.199.046.692,1.164.49,1.196l-1.47.235c-1.695.271-3.137-.367-4.178-1.612-.374-.189-1.231-.392-1.3-.744l-.405-2.049-.774-1.333c-.204-.352.516-1.084.805-1.585.969-1.681,1.677-2.959,4.358-3.255.66-.073,1.731.77,1.985,1.353l-3.487,2.666c-.876.669-.606,3.603.255,4.261l3.721.868h0Z"/>
    <path class="st0" d="M44.112,146.114c-.23.496-1.958.506-2.381.153-1.493-1.244-1.124-4.886-.375-7.556l.887-3.164c.363-1.296.703-1.986,1.8-1.989,1.118-.003,2.225,1.214,1.602,2.095l-1.748,2.474c-2.724,3.855,1.47,5.274.214,7.987h0Z"/>
    <path class="st0" d="M427.138,204.641c-1.813-.534-4.114,2.385-3.901,5.218.07.93-.584,1.942-1.294,2.058-.634.103-1.757-.274-2.155-.83-.838-1.17.955-2.444,2.017-5.11.588-1.476,1.609-2.507,2.984-3.291l.821-.873c.189-.201.973,0,1.195.191l1.606,1.379-1.271,1.258h-.002Z"/>
    <path class="st0" d="M609.661,174.829c-2.121,2.211-3.108-4.275-1.558-7.074.831-1.5,2.646-1.839,4.164-1.37.72.222,1.226,2.436.543,2.75-2.193.964-3.876,3.292-3.148,5.694h-.001Z"/>
    <path class="st0" d="M885.866,150.007c-.218.793-2.299.221-2.789-.546-.477-.747-.306-2.633.237-3.283l1.92-2.296,1.537-2.798,2.084.06c.516.015.254,1.541-.019,1.973l-1.754,2.776c-.633,1.003-.987,2.307-1.217,4.114h.001Z"/>
    <path class="st0" d="M59.881,100.793c-.028.45-.777,1.384-1.203,1.379-.511-.005-1.576-.627-1.804-1.092-1.442-2.947-.385-7.071,2.33-7.508.534-.086,1.047,1.323,1.012,1.887l-.336,5.335h0Z"/>
    <path class="st0" d="M422.867,137.972l-.919.915-1.701-1.313c-1.465-3.368-.679-7.953,2.565-8.931,1.666,1.327.796,2.88-.211,4.19-1.014,1.318-.486,4.007.267,5.138h-.001Z"/>
    <path class="st0" d="M306.78,213.956c-.687.321-1.877.311-2.651-.135-1.438-.83-2.041-6.374-.775-8.423.356-.577,2.747-.253,2.949.365.758,2.316-3.363,4.091.477,8.193Z"/>
    <path class="st0" d="M203.189,257.53c-.561.565-2.124.31-2.67-.311-.483-.55-.918-1.869-.298-2.735.411-.574,2.257-.393,2.833.08.624.513.918,2.179.136,2.967h0Z"/>
    <path class="st0" d="M182.513,137.404c-2.004.98-3.948-1.898-2.995-3.747.842.008,2.241.358,2.824.77s.882,2.629.17,2.977h0Z"/>
    <path class="st0" d="M31.142,139.244c.145-.012-.565.042-1.133.085-.054-1.698.609-2.929,1.923-3.909l.685-.92c.157-.211,1.25.018,1.132.254l-.552,1.106-2.055,3.385h0Z"/>
  </g>
  <path class="st0" d="M451.016,125.511s-1.888,2.853-2.361,5.146-1.33,3.239-.296,3.624,3.34-7.33,3.34-7.33"/>
  <path class="st0" d="M426.384,204.286s2.113,6.443,3.429,6.281-1.403-7.256-1.403-7.256"/>
  <polyline class="st0" points="382.974 93.542 382.781 93.496 376.241 97.542 377.283 100.234 381.216 98.146"/>
  <path class="st0" d="M692.786,82.168s4.599-4.993,7.091-4.46-4.889,5.898-4.889,5.898"/>
  <path class="st0" d="M696.007,81.167s7.537.909,6.318,1.862-6.539,1.46-6.539,1.46"/>
  <path class="st0" d="M881.08,76.083c-.041.097,8.003-7.779,9.434-6.978s-7.923,9.203-7.923,9.203"/>
  <path class="st0" d="M813.118,158.887s11.261-4.478,7.626-4.7-6.517,1.318-6.517,1.318l-1.906,2.406"/>
  <path class="st0" d="M353.9,208.833s8.74-12.44,10.59-10.718-8.111,11.594-8.111,11.594"/>
  <path class="st0" d="M310.234,104.764s-.134-7.63,1.802-7.157-.192,7.833-.192,7.833"/>
  <path class="st0" d="M464.889,92.983s7.759-1.286,5.076.333-5.276,2.571-5.276,2.571"/>
  <path class="st0" d="M113.654,175.362s8.349-6.794,8.704-5.738-6.273,7.086-6.273,7.086"/>
  <path class="st0" d="M116.882,174.742s7.581-.575,7.094.264-7.781,2.457-7.781,2.457"/>
</svg>