<?xml version="1.0" encoding="UTF-8"?>
<svg id="Layer_1" data-name="Layer 1" xmlns="http://www.w3.org/2000/svg" viewBox="0 0 160 160">
  <defs>
    <style>
      .cls-1 {
        fill: #fff;
      }
    </style>
  </defs>
  <path d="M84.362,154.923l-8.087-.043-2.612.064-2.572-.107-2.851-.03-3.225-.088c-1.736.589-3.601.542-5.3-.219l-1.551.004-3.094.008-3.078-.427-3.146-.253c-1.786-.143-3.669.248-5.47.332-.516-.3-1.089-.511-1.646-.538-.327-.039-.88-.143-1.202-.062-.68.172-1.452.098-2.279.044l-2.204-.145c-.952-.062-2.043.415-2.947.746l-2.678-1.104c-.921-.38-2.336-.325-3.355-.306-1.507.028-2.521-.474-3.768-1.22l-3.153-.708-3.326-2.084-1.691-.819c-.404-.196-1.151-.759-1.505-1.12l-2.829-2.889c-1.057-1.079-1.784-2.099-2.954-3.098l-1.062-1.771c-.176-.293-.351-1.015-.599-1.265-.577-.581-.771-1.437-.328-2.268-1.609-.475-2.024-1.68-1.904-3.146l-.649-2.376c.489-.756.217-1.331-.257-1.8.059-2.243-1.167-4.045-.941-4.29l.87-.942-.402-2.931c-.035-.256-.565-.77-.466-.977l.504-1.058c.37-.777-.249-1.999-.64-2.808-.124-.257.166-.937.234-1.247.219-.998-.687-1.953-1.506-2.418-.932-.791-1.192-1.901-.579-2.262.217-.128.67-.102.979-.028l1.154.274-.326-2.498.337-1.614.132-5.288.044-2.223c.02-.997,1.317-3.952-.554-7.079l-.347-.579c-.126-.211,1.327-.458,1.343-1.264.006-.298-.318-.775-.515-1.088l-1.006-1.601c-.22-.35.2-1.091.629-1.516l-1.242-.608c-.283-.139-.403-1.129-.126-1.282.418-.219,1.146-.171,1.752-.119.554-.804.236-1.774.203-2.727s.415-2.008-.246-2.818l.363-.74c.175-.357-.968-.817-1.049-1.867-.025-.322.558-.771.713-1.075.637-1.243-.037-2.695.409-3.468.79-1.37-1.025-2.234-.727-2.489l.521-.446c.071-.06.416-.127.385-.199l-.225-.53c-.404-.951.419-1.273.206-1.837-.232-.615-1.356-.469-1.752-.995-.173-.229-.037-.91.12-1.15.422-.646,1.745.271,1.914-.614l.86-4.485c.066-.344-.534-1.142-.858-1.206-.417-.083-.846-.615-.669-1.063.119-.301.681-.493,1.212-.613-.06-.786-.178-2.238.314-2.897.606-.809,1.091-1.299.444-2.428-.25-.437-.169-1.067-.102-1.628.088-.741-.309-1.313.655-2.011-.509-.58-1.272-.983-2.08-1.384-.386-.191-.336-1.336.008-1.638.16-.141.877-.231.986-.045l.436.744c.074.126.426.557.493.428l.341-.661c.188-.363-.106-1.095-.348-1.463.43-2.182-.526-3.008-.067-4.401.243-.738.127-1.436.133-2.171l.021-2.609c.017-2.173.171-4.164,1.126-6.127.373-.767.463-1.784.633-2.688.719-.833,1.65-2.11,1.638-3.248l-.319-1.025c-.08-.256.502-.595.724-.853.834-.968,1.536-2.018,2.431-2.932.448-.458.998-.939,1.484-1.377l1.527-1.376c.585-.527,1.327-.679,1.697-1.592l-2.065,1.049-1.396,1.535c-.337.371-1.486.441-1.967.207-.513-.249-.872-.779-.88-1.264-.02-1.211,1.942-1.388,3.448-1.939l1.964-.718,3.608-1.132,1.875-1.798c.831-.043,1.686.314,2.489.723.362-.128.813-.651,1.121-1.107l3.301-.327c.539-.841,1.052-1.283,2.104-1.288,1.751-.009,3.713-1.513,8.842-1.66,1.199-.034,2.389-.134,3.544-.01l4.401.474c1.296.14,2.484.19,3.786.176,1.08-.012,1.924.102,3.02-.238.58-.18,1.713.086,2.15.421l.722.552c.318.243,1.164-1.343,2.243-.996.793.614,1.663,1.187,2.488,1.516.312-.683.488-1.1.765-1.263.361-.213.963-.077,1.334.137.903.521,3.418.56,4.251.238,1.208-.468,2.078-.237,3.296-.204l6.309.17,5.006.117,9.22.206,1.048,1.365,3.199-.559c1.797-.314,3.595-.265,5.426-.078,1.023-.407,2.025-.439,2.981.017l1.703.718c1.885.795,4.399-.664,8.315.193,1.403.307,2.647.7,3.37-.766.141-.286.97-.289,1.285-.106.274.16.532.55.837,1.052l9.134-.771c2.304-.194,4.549-.771,6.735.013,1.264.904,2.693,1.539,4.065,2.08,1.445.907,2.497,1.941,3.41,3.276l2.707,1.797c1.619,1.075,3.417,2.133,4.307,3.905l2.067,4.117c.469.199,1.332.553,1.457.98.371,1.264.341,2.829,1.246,3.713,1.112,1.087,1.54,2.034,1.868,3.611l.688,3.304-.348,1.321c-.113.428.274.858.654,1.137.447.637-.64,1.45-.95,1.904.206,1.939-1.163,2.434-.055,3.65.248.272.162,1.087-.052,1.433-.442.711-.436,1.342-.401,2.117l.093,2.074c.032.712.034,1.511-.12,2.257-.163.789-.822,2.119-.179,2.821.327.359,1.321,1.142.815,1.625-.531.507-.931.917-1.102,1.664-.164.713-.284,1.36-.188,2.071l.49,3.641.597,4.005c.127.855-.038,1.618.082,2.506l.615,4.536c.334.2.812.497.869.75.176.776-1.008,1.594-.776,1.95.393.603,1.43.455,1.614,1.3.068.314-.347.914-.644.872l-.778-.111c-.152-.022-.142.578-.019.733.469.591.321,1.616.251,2.47l-.399,4.885.736.32c.745.324-.738,2.19-.822,2.912-.412,3.522.501,4.961.573,6.945.059,1.627,1.863.67,1.637,2.369-.095.714-.628.998-1.497.953-.512,2.533-1.019,5.145-.943,7.668l.124,4.078c.013.418-.145,1.057-.265,1.498l-.81,2.966c-.402,1.471,1.394,2.401.204,3.564l.395,1.995c-.461.708-.886,1.632-.723,2.441.244,1.215.12,2.036-.181,3.249-.162.65.292,1.865.239,2.533-.072.911-.073,1.658.038,2.541.235,1.861-.938,3.357-1.827,4.894l-2.011,3.475-1.295,2.694-.65,1.452-.956,2.082c-.984.631-2.006,1.29-2.74,2.27-.509.679-1.485,1.139-2.209,1.649l-1.823,1.284-2.257,1.419c-.605.381-.911.696-1.596.96-.571.22-1.283.579-1.921.499-1.826-.228-3.538.581-4.537,1.995-.591.836-1.325.284-1.945.108l-3.611.325c-.45.041-1.415-.391-1.848-.235-.871.313-1.674.238-2.58-.1-.775-.288-1.926.029-2.777.103l-3.997.345-4.059.884c-1.08.235-1.854.075-2.871-.177l-2.329-.576-1.994.315-4.301-.266c-1.025-.063-1.87-.132-2.73.455-.744-.296-1.776-.494-2.65-.547l-4.227-.259-3.587-.249-1.829-.042ZM39.478,5.414l-3.368-.036c.583,1.062,1.366,1.418,2.202,1.816.038-.973.354-1.112,1.166-1.78ZM36.48,10.52c.866-1.399-.981-1.875-2.428-2.744-.586-.352-1.077-.835-1.694-1.28l-.62.756c2.068.188,2.828,2.053,4.742,3.267ZM66.233,18.998l.165-.41-8.093-4.807-7.447-4.889c-1.241-.815-2.717-1.911-4.194-2.218l2.609,1.777,7.129,4.573,3.131,1.997,1.467.829,5.234,3.148ZM76.676,8.037c-.023-.673-.214-1.259-.495-1.304l-1.125-.18c-.711-.114-1.305-.062-1.958.269l3.578,1.216ZM44.851,12.5l-8.434-5.217c-.104-.009-.583-.07-.536.021.036.07.081.249.138.283l.296.178,2.97,1.804,2.236,1.457c1.019.664,1.986,1.45,3.33,1.473ZM64.912,9.07l-3.704-1.972c.65.879,1.44,1.17,2.34,1.711.365.219.795.964,1.363.261ZM66.252,8.494l-2.801-1.385,1.015.983c.461.447,1.171.666,1.785.401ZM74.175,10.55c-1.207-.44-1.7-1.183-1.72-2.267-1.095-.476-2.255-.845-3.536-.804l2.487,2.133,1.768,1.248c.131.092.529.151.667.128s.334-.341.334-.438ZM30.77,7.787l-2.616.004,1.613,1.476,1.003-1.48ZM60.873,9.646l1.716,1.419c.629.52,1.046-.7-1.716-1.419ZM61.674,13.066c-.35-.758-.822-.907-1.403-1.23l-3.259-1.811c.775,1.08,1.985,1.582,3.102,2.191l1.56.851ZM31.188,17.554c-.717-.589-1.464-.998-2.178-1.464l-3.583-2.333c-.337-.219-1.268-.299-1.559-.528l-2.065-1.621c-.556-.437-.926-.746-1.621-.409l2.037,1.637c.654.525,1.403.902,2.152,1.352,3.325,1.995,6.5,4.13,10.149,5.883-.609-1.432-2.235-1.589-3.332-2.517ZM67.08,13.181l-1.961-1.141c.118.781,1.678,1.811,2.388,1.959.119.025.205-.45.1-.512l-.526-.306ZM22.098,14.993c-1.226-.841-2.288-1.794-3.591-2.919-.209.877.665,1.632,1.362,2.059l4.342,2.663.157-.244-2.27-1.559ZM140.672,15.691l-3.629-2.562c-.484-.342-.799-.718-1.566-.578.896.772,1.746,1.147,2.664,1.799l2.267,1.608c.675.479,1.287.953,2.084,1.026-.585-.662-1.257-.894-1.821-1.292ZM48.855,20.705c-1.053-1.301-2.488-1.992-3.524-2.611-2.416-1.444-4.708-2.912-7.253-4.073,1.394,1.491,3.085,2.162,4.648,3.228l2.943,1.601,3.186,1.856ZM15.975,15.407c-.51-.766-1.626-.643-2.052.064-.09.149-.121.657.032.723l.585.25c.186-.668.618-.924,1.436-1.037ZM24.986,21.08l-1.442-.915-3.121-2.044c-1.054-.691-2.117-1.313-3.313-1.972.429,1.214,1.633,1.359,2.485,1.949.919.636,1.789,1.246,2.721,1.807l4.588,2.764.159-.192-2.078-1.396ZM135.37,50.563l-2.381-1.863-2.259-1.654-4.729-3.726-1.799-1.263-2.339-1.792-4.849-3.39-3.946-2.848-7.099-4.833-3.112-2.088-3.951-2.623-4.58-3.014-2.545-1.572-1.684-1.23c-1.36-.88-2.544-2.032-4.242-2.413l8.223,5.653,4.936,3.321,6.69,4.596,2.887,1.891,5.084,3.555,7.106,5.032,2.555,1.798,5.35,3.9,3.699,2.907,2.708,2.039,1.592,1.263c1.297,1.029,2.676,1.782,3.596,3.126-.076-1.065-.891-1.675-1.721-2.314l-3.19-2.456ZM127.592,33.822l-1.657-1.139-3.174-2.174-2.334-1.562-3.915-2.703-2.082-1.43-1.94-1.345-4.202-3.011-6.651-4.317c.235.693.816.846,1.335,1.205l8.76,6.056,2.178,1.518,2.54,1.792,1.478.993,2.539,1.806,8.345,5.68c1.043.71,1.844,1.665,3.107,2.042-1.317-1.337-2.754-2.33-4.328-3.413ZM62.63,20.761c-2.051-1.412-4.372-2.796-6.704-3.985.33.759,1.125,1.072,1.855,1.468l2.968,1.611c.569.309.87,1.316,1.881.907ZM63.763,18.62l-1.817-1.074-.406.102c-.08.02-.169.265-.094.299l.381.176c.678.314,1.319.638,1.936.497ZM12.125,19.303l-.141-1.765-1.054,1.939c-.112.206.242.775.436.832s.653.005.705-.191c.042-.157.069-.607.052-.814ZM64.912,25.698c-.428-.453-1.009-.995-1.544-1.256-1.847-.9-3.435-1.857-5.187-2.857l-5.628-3.211-.195.259,6.166,3.647c1.34.793,2.609,1.627,4.033,2.302l2.354,1.116ZM89.827,26.347l-3.293-2.248-3.13-2.024-5.711-3.57c.027.77.529.845.957,1.115l4.799,3.028c2.058,1.298,3.902,2.775,6.377,3.699ZM91.377,24.511l-2.324-1.66-4.372-2.81-.203.257,5.041,3.315,1.801,1.153.056-.255ZM33.39,29.761l-1.338-.841c-1.149-.722-2.235-1.44-3.409-2.152l-8.583-5.205c3.901,3.377,8.559,5.825,13.027,8.601,1.433.89,2.529,2.005,4.318,2.344-.578-.553-1.165-.933-1.822-1.351l-2.193-1.396ZM12.5,24.282l-2.599-2.22c-.336.699-.452,1.529-.355,2.055.744.181.961.381,1.273.937l.269.48c.189.337.257-.921,1.412-1.252ZM48.758,27.531l-1.599-1.393-1.208-.827c-1.827-1.251-3.571-2.449-5.777-3.106,1.369,1.194,2.869,1.972,4.437,2.826,2.098,1.143,3.129,2.634,4.148,2.501ZM22.558,29.39l-1.658-1.066-7.997-5.556-.082.449c1.414,1.112,2.901,2.283,4.469,3.351l3.206,2.185c.657.448,1.354,1.06,2.063.637ZM38.745,30.924l-.756-.7-4.26-2.541-3.049-1.887c-1.167-.722-2.369-1.302-3.653-1.982.412.705,1.096.966,1.78,1.358,1.234.708,2.313,1.504,3.509,2.249l2.665,1.658,1.85,1.033c.609.34,1.242.572,1.914.813ZM140.155,26.593c-.325-.478-.832-1.078-1.22-1.278l-1.958-1.011c.449.59.927,1.018,1.399,1.284l1.779,1.004ZM91.666,24.613l-.141.287,2.585,1.72,1.747,1.144,1.909,1.277.212-.236-4.237-2.869-2.076-1.323ZM116.821,28.393l-1.625-1.255-1.888-1.458-.478.071,2.085,1.693,1.795,1.139.111-.191ZM66.56,28.176c-.658-.936-1.602-1.36-2.536-1.767l-1.196-.521c.42.461.734.657,1.215.919l2.517,1.369ZM152.915,34.025l-6.547-4.657-1.446-1.014-3.299-2.256c.616.911,1.542,1.545,2.526,2.202l2.433,1.622,6.904,5.315c.072-.429-.178-.933-.571-1.213ZM10.101,27.438l-1.445-1.137c-.105.514-.07,1.358.063,1.654l1.382-.517ZM136.498,28.602l-2.331-1.679c1.337,1.691,3.012,2.878,4.911,3.67-.78-.825-1.657-1.326-2.58-1.991ZM15.371,31.293c-.773-.963-2.436-2.141-3.699-2.721.863,1.004,2.605,2.519,3.699,2.721ZM116.998,28.529l-.112.25,4.462,3.144,5.204,3.659c1.138.8,2.094,1.952,3.31,2.626.641.355,1.264.619,1.808,1.1l1.739,1.538,3.135,2.248,2.969,2.18,3.695,2.703c.977.715,1.688,1.7,2.896,1.972l-2.159-1.878-2.389-1.958-1.737-1.335-2.208-1.709-2.09-1.62-2.206-1.725-3.003-1.924-2.358-1.775-3.693-2.691-1.611-1.066-4.41-3.011-1.24-.728ZM76.451,29.051c1.068.975,2.043,1.589,3.364,2.037-.898-.905-2.467-1.992-3.364-2.037ZM111.062,34.751l-2.914-2.001-3.87-2.717c-.606-.425-1.129-.757-1.886-1.03.546.62,1.093.934,1.755,1.385l1.944,1.325,1.467,1.027,3.39,2.272.115-.261ZM147.731,31.83l-1.834-1.375-1.925-1.324c.475,1.068,1.414,1.393,2.303,1.983.425.282.74,1.139,1.456.715ZM23.058,35.273c-.331-.83-1.108-1.245-1.826-1.692l-4.71-2.846c.569.971,1.476,1.366,2.342,1.909l4.194,2.63ZM58.502,34.916l-2.654-1.781-1.917-1.145-1.312-.72-.544-.22c-.112-.045-.143.388-.071.484.048.064.212.231.297.279l5.006,2.776c.867.481,1.369,1.324,2.559,1.366l-1.363-1.039ZM147.721,36.479l-1.658-1.251-3.625-2.529-2.489-1.436c.618.922,1.615,1.25,2.451,1.852l4.551,3.278c1.601.805,2.319,2.458,3.107,2.034l-2.336-1.948ZM33.504,34.306c-1.031-1.021-2.117-1.617-3.401-2.007,1.051.89,2.076,1.713,3.401,2.007ZM25.201,34.146c-.726-.764-1.454-1.415-2.605-1.656.723.835,1.586,1.345,2.605,1.656ZM8.343,35.165c.138-2.026-.798-2.552-.841-1.955l-.151,2.119c-.057.805.178,1.509.875,1.773l.117-1.937ZM138.497,39.034l1.875,1.356-.675-1.476c1.641.444,1.966,2.139,3.041,1.966l-1.288-1.266-2.242-1.669-1.601-1.056-2.548-1.789-2.372-1.599c.775,1.212,1.882,1.888,3.011,2.631l2.383,1.57c.346.228.763.737,1.054,1.123l-.531.052-.107.157ZM47.927,54.106l3.627-1.541c.09-1.189.833-1.2,1.603-1.587.63-.317,1.133-.54,1.868-.41l-.069-1.887c-.421-.396-.928-.832-.986-1.231-.073-.5.231-1.277.617-1.293.434-.018,1.156.085,1.221-.171l.236-.933c.54-1.693-.003-3.259-1.493-4.223-.625-1.804-1.661-3.328-3.244-4.381-1.139.134-1.929-.454-2.529-1.414-1.963-.849-4.22-1.358-6.323-.962-.625.677-1.281,1.276-2.192,1.6-3.406,1.211-2.015,1.787-3.361,3.032-2.134,1.974-1.681,3.418-1.987,5.456-.317,2.115.635,4.346,2.03,6.044,1.055,1.284,1.921,2.749,3.404,3.591,2.783,1.58,4.176,1.757,7.577.311ZM81.562,39.431l-1.508-1.039-4.553-2.867c-.555-.35-.763-1.321-1.845-.908.314.803,1.015,1.003,1.758,1.448l1.921,1.152c1.433.859,2.687,1.856,4.227,2.214ZM89.303,36.84c-.583-.668-1.144-1.142-1.872-1.49l-1.717-.823c.552.763,1.18,1.015,1.897,1.487.553.365.915.799,1.692.826ZM111.256,34.889l-.097.262,1.339,1.064,2.911,1.914c-.739-1.073-1.712-1.606-2.725-2.284l-1.428-.956ZM80.358,37.26l-.049-.439-2.644-1.74-.195.276,2.889,1.904ZM138.475,38.744l-2.517-1.868c-.482-.358-.836-.655-1.392-.904.693,1.067,1.552,1.608,2.573,2.227l1.193.723.143-.178ZM148.916,44.343l-4.589-3.856-2.491-1.853-1.22-.824c-.56-.378-.912-.724-1.495-.991.366.515.812,1.058,1.257,1.373l2.435,1.722,2.049,1.654,2.392,1.981c.328.272,1.133.574,1.661.795ZM32.021,38.175c.199.17.656.619.87.532.591-.241,1.051-.737,1.209-1.387.04-.164-.499-.335-.687-.255-.891.379-1.792.321-2.929.199l1.537.911ZM88.028,51.838l-1.855-1.227-4.592-2.979-2.531-1.624-3.046-1.942-3.245-2.062-4.765-3.04c-.805-.513-1.468-1.136-2.496-1.356.854,1.261,2.079,1.867,3.241,2.639,1.104.734,2.193,1.398,3.43,1.931,1.03.444,1.861,1.355,2.795,1.891,1.104.634,1.977,1.182,2.972,2.035,1.058.907,2.499,1.509,3.699,2.249l1.676,1.033,2.043,1.065c.878.458,1.464,1.609,2.676,1.388ZM13.415,39.463l-2.133-1.426c-.273-.293-.388.001-.247.319l3.818,2.585.046-.325-1.483-1.153ZM139.321,42.256c-.529-.616-1.097-.782-1.612-1.144l-4.579-3.215c.618,1.172,1.649,1.626,2.617,2.297l2.319,1.608c.253.176.969.372,1.255.454ZM134.744,43.432c-1.015-1.326-2.355-2.066-3.778-2.594,1.278,1.066,2.477,1.866,3.778,2.594ZM29.978,48.763l-2.54-1.853-1.554-.887c-1.965-1.121-3.847-2.135-5.769-3.313l-1.897-1.163c.313.683,1.008,1.01,1.658,1.432l2.866,1.858,5.469,3.177c.524.304,1.09.527,1.767.748ZM121.338,47.362c-.495-.526-1.001-1.103-1.438-1.381l-2.702-1.716c-.677-.43-1.604-1.376-2.007-1.995-.076-.116-.663.077-.595.206.051.098.224.378.312.457l1.472,1.313,1.67,1.049,1.271.802c.744.47,1.247.971,2.017,1.265ZM101.417,57.912c.568.331,1.049.566,1.694.484l-2.816-1.729-5.7-3.335-7.736-4.637-4.196-2.599c-2.038-1.262-3.987-2.49-6.196-3.565.798.707,1.626,1.361,2.504,1.852l2.016,1.126,3.856,2.542,2.223,1.269,5.864,3.595,4.003,2.388,4.483,2.609ZM97.314,44.284c-.636-.939-1.532-1.469-2.529-1.633.746.811,1.554,1.277,2.529,1.633ZM148.043,53.622l-5.232-4.435-2.78-2.177-2.28-1.632c-.664-.475-1.091-1.153-2.117-1.342l3.267,2.665,3.5,2.691,3.105,2.465c.83.659,1.516,1.472,2.537,1.766ZM90.473,47.118l-2.267-1.446c-.619-.394-1.186-.804-1.833-.989,1.127,1.28,3.071,2.452,4.1,2.435ZM19.931,44.939c1.185,1.269,2.512,1.894,4.053,2.385-1.082-.921-2.791-1.871-4.053-2.385ZM153.204,48.372l-.002-1.591-1.245-.494c-.241-.368-.528-.622-.762-.587-.323.048-.708.514-.529.673l1.478,1.308c.357.316.733.568,1.059.693ZM106.409,49.924l-3.929-2.666c-.853-.579-1.646-1.244-2.787-1.32l5.446,3.646c.406.272.692.495,1.271.34ZM104.914,52.181l-3.394-2.086-5.045-2.991c.071,1.3,1.143,1.57,1.923,1.995l4.139,2.253c.729.397,1.521.653,2.377.829ZM140.01,60.016l-3.72-2.862-1.717-1.156-2.582-1.974-2.255-1.66c-1.7-1.251-3.316-2.478-5.142-3.539-.941-.547-1.783-1.103-2.817-1.237l2.235,1.852,5.442,3.829,8.662,6.357,1.472,1.013,2.212,1.518c.565.388,1.061.918,1.751.951-.96-1.476-2.33-2.158-3.542-3.09ZM64.562,50.707l-2.26-1.763-1.949-1.021c1.193,1.378,2.661,2.2,4.209,2.784ZM81.554,59.459c1.087.609,1.973,1.337,3.296,1.361l-5.471-3.205-6.697-3.983-5.86-3.429-1.334-.756c-.759-.43-1.276-1.383-2.402-1.05l3.921,2.452,6.393,3.908,1.895,1.198,2.923,1.635,3.336,1.868ZM31.616,54.1c-2.45-1.977-4.95-3.43-7.722-4.759,2.306,2.129,4.94,3.616,7.722,4.759ZM36.193,53.614c-.396-.575-1.062-1.089-1.885-.478.843.58,1.481.917,2.451,1.299l-.565-.822ZM62.905,56.464l-3.865-2.197-1.863-.842c1.701,1.529,3.372,2.641,5.195,3.716.627.369,1.18.553,2.006.473-.415-.57-.827-.783-1.474-1.15ZM126.614,64.285l.186-.267-3.926-1.889-4.478-1.859-2.316-1.013-11.406-5.829c1.323,1.708,3.256,2.377,5.101,3.267l7.088,3.419,5.199,2.209,4.552,1.963ZM65.64,61.221c-2.333-1.2-4.538-2.162-6.759-3.262l-2.635-1.305c-.617-.306-1.293-.616-2.068-.889.393.593.918.903,1.555,1.198l6.47,3.003c1.108.514,2.08,1.454,3.436,1.255ZM100.257,58.577l-2.543-1.596c-.689-.432-1.327-.867-2.108-.928l2.835,1.689c.556.331.945,1.056,1.816.836ZM70.073,58.169c-1.236-.822-2.29-1.299-3.53-1.758,1.016.955,2.297,1.555,3.53,1.758ZM50.738,57.839c-.924-.509-1.743-1.51-3.072-1.055l5.353,2.489c-.485-1.04-1.502-1.006-2.28-1.435ZM92.894,58.422l-2.382-1.601c-.039.827.421.882.867,1.155.509.312.859.739,1.515.446ZM49.672,61.197l-4.028-2.215c-.766-.421-1.546-.832-2.457-.839l2.654,1.484c.711.398,1.602.436,1.907,1.392.679.117,1.097.216,1.924.178ZM73.403,62.187l-3.396-1.984c-1.449-.846-2.894-1.815-4.597-2.075,2.564,1.81,5.113,3.286,7.993,4.059ZM17.18,61.386l-1.854-1.325c-.684-.489-1.24-.971-2.129-1.185.617.69,1.248,1.107,1.996,1.585l1.81,1.156.177-.23ZM60.265,61.239l-1.145-.464c-1.331-.539-2.409-1.45-4.033-1.642l3.886,2.043c.277.146.804.155,1.291.063ZM41.66,62.786c-.561-.873-1.339-1.356-2.241-1.875l-.695-.4c-.123-.071-.364.406-.299.531s.292.327.433.395l2.801,1.349ZM100.316,62.058c.21.121.745.653.964.651l2.018-.024-1.037-.548-3.387-1.648c-.052.798-1.154,1.302-1.273,1.248l-.752-.34-.497-.225c-.095-.043-.102.362-.051.456.034.063.29.251.364.255l3.652.176ZM17.295,61.491l-.162.198,2.209,1.771,1.926,1.233c-.706-1.095-1.649-1.65-2.669-2.332l-1.304-.871ZM121.045,64.561c-.229-.533-.721-.902-1.296-1.169l-4.015-1.866-.15.175,3.034,1.748,2.427,1.113ZM37.725,124.833l2.187.517c.792.187,2.03-.516,2.801-.733,1.723.324,3.214.237,4.915.295l2.712.093c1.248.043,3.048.026,3.757-1.116.378-.608.565-.947,1.124-1.598l-.897-1.696c-.084-.16-.59-.444-.488-.591.082-.118.393-.46.433-.59l.712-2.313-.251-1.72c-.141-.967-.256-1.64-.253-2.637.003-.977-.371-2.149-.487-3.181l-.352-3.142c-.108-.962.336-2.133.475-3.086l.451-3.105.406-2.241-.848-2.215c-.094-.246.432-.839.63-1.014l-.621-2.846-.011-2.784.43-2.437-.003-2.081.04-3.284c.045-3.695-.937-6.089-.841-7.349l.276-3.645.197-2.881c.157-1.196.718-2.429-.51-3.404l-2.019-.12-2.903.198-4.499.589c-1.498.196-3.159.383-4.664.292l-2.738-.165c.137.548.311,1.043.145,1.2l-.705.667.284,1.707c.649.598,1.244,1.543,1.361,2.281-.749.468-.968.792-1.101,1.526l-.578,3.182c-.182,1.003-.516,1.958-.416,3.036l.353,3.815c.084.913.156,1.537-.556,2.147-.321.312-.592,1.337-.483,1.764.206.741.266,1.435.239,2.176.057.43.427,1.304.353,1.74-.168.986-.136,1.803.16,2.753.287.922.018,1.998-.14,2.948l-.422,2.535c-.131.788-.277,1.978-.105,2.74.274,1.218.267,2.084.174,3.308l-.14,1.842c-.055.727-.061,1.569.21,2.235.838,2.057-.431,3.052.07,6.384.171,1.137-.041,1.898-.161,3.016-.13,1.214.844,2.826.022,4.083-.254.389-.367.779-.27,1.26l.292,1.452c.909-.575,1.454.004,2.255.193ZM107.954,98.22c.291.375.646.95.536,1.276-.914,1.214-1.136,4.011-.893,5.724.111.784-.211,1.475-.801,1.919,1.643,1.457-.243,3.549-.216,6.381.319.3.841.756.762,1.042-.084.303-.444.834-.649,1.122l.009,2.094c.735.584.723,1.24.47,2.009.488,1.135.971,2.36,1.172,3.459l-.42,1.373c1.143.304,2.105.209,3.182-.022.367-.079,1.076.147,1.436.185,2.608.275,5.158.234,7.796.082.691.214,1.341.042,1.872-.501.931.153,1.576-.249,1.68-1.161.899-1.04.76-2.467-.274-3.366l.248-1.506.262-2.135c.124-1.01.24-2.394-.021-3.317-.066-.235-.631-.772-.455-.915l.706-.573c.277-.225.031-1.092.028-1.456l-.025-3.884-.6-6.458v-3.056c-.388-.311-.822-.662-.946-.956-.411-.977,1.032-1.399,1.023-1.632l-.028-.757-.118-3.24.145-2.239-.024-1.836-1.29-3.782c.226-1.584.051-3.103-.218-4.748-.101-.621-.136-1.589-.395-2.041l-.858-1.5-1.976-1.464c-.502-.372-1.802-.39-1.764-1.07.015-.267.174-.658.359-1.187-.949-.904-2.933-1.27-4.101-2.331-.765-.694-1.228-1.064-2.137-1.452l-2.461-1.052c-.945-.404-2.028-.482-3.058-.223l-1.434-.199-3.53.716c-1.705.346-3.63-.113-5.279.389l-2.664.811c-2.201.67-3.677,2.354-5.226,3.826-1.029.517-2.144.896-2.924,1.841-.67.811-2.06.884-2.912.391l-.223-1.686c-.023-.206-.542-.614-.438-.79l.495-.838.847-2.818c.135-.451-.32-1.439-.656-1.774-.465-.462-1.265-.051-1.77.131-1.76.635-3.563.315-5.382.044l-2.6.095c-.831.03-1.716-.528-2.507-.462-.918.077-1.805.314-2.713.302-.937-.013-2.111-.351-2.828.566-.369.472-.367,1.618-.319,2.265-.5.902-.807,1.744-.134,2.605-.036,1.365.199,2.942-.053,4.263-.282,1.477-.323,2.706-.324,4.224v3.44s.083,3.864.083,3.864c.018.834,1.135,1.751.706,2.122l-.77.665c-.528,1.049-.148,2.294-.091,3.448l.163,3.294c.66.854.785,1.794.512,2.811.712,2.589.83,5.244.147,7.776.549.412.714.928.668,1.525l-.228,2.925c-.269,1.333-.124,2.656.393,3.905l-.102,3.902c.002.798.197,1.701.404,2.415-.275.337-.648,1.101-.441,1.557l.803,1.768c.098.215.199.714.407.764l.96.233c.824.2,1.483.204,2.302.236l4.539.173,2.445-.02c-.624-.636-1.007-.663-1.622-.981-.529-.273-.192-1.493.407-1.707,1.348-.482,1.825,1.644,4.041,2.548.797-.59,1.567-.99,2.449-1.092l2.169-.251-.258-2.353c-.101-.921.281-1.996.107-2.925l-.794-4.237c-.173-.925-.58-2.032-.586-3.043-.016-2.866,1.584-3.974-.438-5.343-.566-.383-.418-1.627.163-1.838l.895-.325c.16-.058.093-.638.106-.837l.161-2.641-.609-.977c-.146-.235.274-.887.276-1.179l.013-2.222.14-2.245-.129-3.509.736-2.707,1.611-3.552c.383-.844,1.973-1.267,2.732-1.49l2.191-.645c1.031-.304,1.985-1.361,2.999-1.822,1.433-.652,3.142-.236,4.709-.267.464-.016,1.479-.705,1.842-.268,1.364,1.642,2.322.033,3.185,1.613.377.691.865,1.113,1.5,1.647.833.7,2.2,3.459,2.302,4.096l.561,3.501c.18,1.127.366,2.208.197,3.342-.133.896.236,3.656.657,4.197ZM18.213,67.979c-.405-.631-.913-.913-1.547-1.215-1.365-.65-2.412-1.955-4.145-1.856l1.811.878c1.251.918,2.332,1.758,3.881,2.193ZM23.145,72.17c-1.759-1.899-3.953-2.709-5.953-3.857l-2.33-1.356-3.49-1.983c.623.98,1.437,1.564,2.371,2.066l3.479,1.867,5.922,3.262ZM126.194,71.147l.058-.317-6.031-3.582-3.935-2.055c.841,1.139,2,1.955,3.352,2.639l6.555,3.315ZM153.567,65.424c-.253-.186-1.042-.169-1.285-.117l1.307,1.469c.111-.271.232-1.165-.022-1.352ZM143.516,71.082l-1.63-1.421-1.935-1.527-2.312-1.557-.28.344,3.007,2.198,2.005,1.524c.368.28.71.502,1.145.438ZM24.378,71.106c-.756-.635-1.307-1.405-2.394-1.482l3.24,2.523.163-.193-1.009-.848ZM9.137,73.687c-.408-.766-1.048-1.275-1.956-1.767-.219.908,1.445,2.298,1.956,1.767ZM16.085,75.569c-.572-.958-1.473-1.283-2.242-1.854-.697-.517-1.216-1.16-2.118-1.484.472.802,1.14,1.502,1.862,1.914l2.499,1.424ZM138.47,76.151c-.806-.733-1.611-1.334-2.459-1.812l-3.281-1.851-.017.334c.542.445,1.309,1.167,1.992,1.5l3.764,1.829ZM132.26,77.098c-.398-1.544-1.714-1.731-2.727-2.272l-2.603-1.392c.428.728,1.009.942,1.641,1.352l1.997,1.294,1.692,1.019ZM13.928,78.729l.057-.271-1.098-.704-3.175-2.007c-.589-.372-1.119-1.15-2.022-.812l3.039,1.896,3.198,1.899ZM147.067,79.977l-2.864-1.909c-1.282-.855-2.481-1.784-3.984-2.204l5.005,3.465c.476.329,1.144.588,1.842.648ZM61.377,78.642c.026-1.12-.478-1.737-1.498-1.886l-1.572-.834c.42.621.77.896,1.237,1.327.599.553.876.949,1.833,1.393ZM131.75,81.756l-4.213-2.877c-1.319-.455-2.016-1.408-2.645-2.944-.567,1.541.532,2.447,1.482,3.103l4.381,3.024.617.266c.139.06.374-.474.378-.572ZM155.083,79.785l-.403-1.508c-.127-.475-.998-1.307-1.535-1.002-.744.422-.021,1.382.448,1.652l1.49.858ZM138.604,83.394c.685.386,1.269,1.07,2.021.898-2.706-1.89-5.372-3.407-8.159-4.798.865,1.178,2.075,1.609,3.155,2.218l2.984,1.682ZM25.931,87.786c-.329-.721-.837-.975-1.399-1.297l-9.532-5.471c-.575-.33-1.164-.587-1.941-.886,1.192.988,2.557,1.74,3.973,2.558l2.877,1.662,6.022,3.435ZM147.676,84.65l.077-.326-2.645-1.628c.067.221.331.753.5.844l2.068,1.11ZM92.236,85.353l.986-1.195c-.859-.123-1.379-.136-2.244.199l1.258.995ZM139.217,88.623l-6.531-4.313c.48,1.053,1.506,1.335,2.311,1.949,1.32,1.007,2.571,1.975,4.22,2.364ZM154.348,91.125l-.304-3.967c-.446-.083-1.491-.176-1.758.136l-1.439,1.679,1.977.857c.66.286.79.464,1.524,1.295ZM100.041,93.223c-1.252-1.265-2.486-1.931-3.837-2.804-.447-.289-1.027-.98-1.601-.206l3.484,2.052c.649.382,1.204.732,1.953.958ZM131.044,93.817l-2.107-1.749-1.882-1.506c-.122-.098-.563-.301-.597-.178l-.143.511c-.071.253.86.292,2.178,1.445.784.686,1.645,1.252,2.55,1.477ZM96.306,93.758c-.622-.603-1.054-.867-1.586-1.214l-2.762-1.806c.379.816,1.175,1.305,2.011,1.761.799.436,1.387,1.388,2.337,1.259ZM148.744,100.431c-.665-1.434-2.01-1.519-2.826-2.444l-3.163-1.982-3.376-2.167-2.78-1.631c.701.858,1.558,1.361,2.462,1.942l2.245,1.442,2.51,1.614,4.929,3.227ZM89.883,96.201c-.573-.895-1.32-1.344-2.181-1.81l-.91-.824c.061,1.015.916,1.393,1.599,1.782l1.493.852ZM86.47,96.578l-1.503-.765-.152,1.699,1.656-.934ZM92.379,99.569l.102-.314-3.268-2.166-.192.236,3.359,2.244ZM61.273,100.566l-1.593-1.224-2.33-1.994c-.381.612-.092,1.082.323,1.552,1.145,1.298,2.332,2.634,3.966,3.398.467-.573.16-1.329-.366-1.732ZM133.452,100.163c-1.105-.845-2.1-1.666-3.443-2.129l4.513,3.236c.054-.787-.685-.813-1.071-1.107ZM16.106,101.309l-2.037-1.668-2.305-1.283c1.179,1.174,2.952,2.53,4.343,2.951ZM154.413,100.773l.104-1.698c-.139-.127-.685-.28-.897-.258s-.533.387-.677.618l1.47,1.338ZM105.52,100.529c-.358-.93-1.077-1.407-2.022-1.482.503.635,1.196,1.237,2.022,1.482ZM145.88,105.237c-.582-.94-1.433-1.4-2.316-2.011l-1.837-1.27-4.548-2.7c.941.897,1.927,1.432,2.901,2.086l3.699,2.484,2.1,1.41ZM90.769,102.371c-.501-.79-1.393-1.154-2.294-1.768l-1.096-.747c-.099-.067-.362-.215-.407-.126l-.165.329,3.961,2.311ZM131.304,104.891l-3.079-2.388-1.786-.985c1.366,1.598,3.071,2.656,4.865,3.372ZM142.973,106.495l-.157-.375-4.899-3.031-1.911-1.171c.618.87,1.437,1.281,2.306,1.835l2.388,1.523c.739.471,1.507.888,2.273,1.219ZM153.387,103.611l-2.309-.907c-.222.67,1.743,1.428,2.309.907ZM90.03,105.684l-2.653-1.94c.468,1.115,1.597,1.741,2.561,2.12l.092-.18ZM20.054,110.41c-.93-.973-2.042-1.561-3.184-2.235l-5.55-3.276-1.57-.932c.224.368.647.705,1.066.994l1.825,1.26,7.414,4.189ZM90.199,105.792l-.179.224,3.564,2.089,1.669.857c-.627-.8-1.397-1.095-2.222-1.563l-2.831-1.608ZM58.494,106.068l3.016,2.566.283.289c.064.066.368,0,.354-.091-.138-.873-2.395-2.65-3.653-2.764ZM105.307,106.151c-.956.525-1.105,1.479-.319,2.148l.319-2.148ZM96.239,114.544c-.213-.53-.518-.688-.939-.95l-3.941-2.451-4.247-2.73-2.27-1.403c.701,1.272,1.934,1.681,2.933,2.59,1.017.282,1.864.926,2.676,1.63l2.184,1.307,3.604,2.006ZM131.06,109.527l-2-1.932-1.557-.525,1.61,1.359c.634.474,1.163.844,1.947,1.099ZM145.327,109.993l-5.274-2.956c1.38,1.57,3.501,2.356,5.094,3.634.135.108.708-.014.625-.161-.062-.11-.29-.43-.446-.517ZM137.086,113.423l-5.254-3.591-.217.326,2.374,1.611c.978.663,1.88,1.423,3.097,1.653ZM103.892,111.375l-1.947-1.258-.224.321,3.102,1.925c.315-.945-.607-.779-.931-.988ZM19.358,116.802l-.116-.407c-2.493-1.703-4.931-3.454-7.672-5.061,1.58,1.601,3.433,2.68,5.283,3.864l2.505,1.604ZM89.979,113.792l-2.248-1.404c.664,1.162,1.675,1.858,2.989,2.31-.117-.41-.401-.694-.742-.906ZM131.089,115.333c-.887-.806-1.754-1.597-3.081-1.853.87.787,1.893,1.384,3.081,1.853ZM90.088,118.151l-3.325-2.485c.693,1.393,2.048,2.016,3.325,2.485ZM62.338,119.914l-2.106-2.011-2.313-1.694c-.123-.09-.769-.043-.719.094l.204.561c2.014.839,3.132,2.953,4.933,3.051ZM132.782,118.848c-1.306-.679-2.12-1.927-3.694-2.08,1.837,1.483,3.691,2.719,5.931,3.482-.648-.569-1.393-.964-2.236-1.402ZM131.531,121.052c.07.04.378-.123.321-.16l-.355-.227-3.129-2.006c.4.564.931,1.102,1.454,1.404l1.709.989ZM95.777,120.021l-2.241-1.332-.235.294,5.59,3.197c-.704-1.285-2.003-1.499-3.114-2.159ZM21.576,121.968c-1.029-.86-2.021-1.524-3.349-2.132.8,1.019,1.952,1.749,3.349,2.132ZM90.184,122.317l-2.186-1.375-2.201-1.083c.472.526,1.079,1.149,1.724,1.501l7.527,4.101c-1.374-1.448-3.162-2.073-4.864-3.144ZM92.136,121.299c-.857-.778-1.755-1.416-2.986-1.465.97.636,1.848,1.127,2.986,1.465ZM59.232,123.81c-.532-.615-1.197-.942-1.921-.936.274.956,1.152,1.256,1.921.936ZM137.651,126.335l-1.93-1.226-3.996-2.258c.432.594,1.142,1.138,1.803,1.513l5.332,3.025c-.169-.652-.688-.723-1.209-1.054ZM151.955,130.21c1.021.132.675-3.342-.418-4.817-.447.548-.29,1.227-.116,1.817l-.674.681c1.151.954.669,2.25,1.207,2.32ZM33.216,128.508l.347.154c.075.033.183-.219.113-.262l-.399-.244c-.983-.602-2.029-1.778-3.385-1.855l1.219.809,2.106,1.398ZM119.195,129.995c-.171-.62-.7-.707-1.185-1.049l-2.678-1.891c-.09-.063-.354-.169-.43-.188s-.153.208-.122.28.205.314.296.369l4.118,2.479ZM124.081,128.519c-.575-1.346-1.792-1.719-2.965-1.565l1.798,1.293c.36.259.977.69,1.167.272ZM54.984,128.74c-.721-.428-1.171-.899-1.503-1.614l-3.836-.063c.48.528.989.64,1.569.979l2.857,1.673.914-.975ZM136.752,130.753l-4.889-3.065c-.544-.341-1.106-.663-1.66-.601l3.081,2.039,5.427,3.248c-.328-.985-1.208-1.149-1.959-1.62ZM126.598,135.527l-6.206-3.573-3.002-1.932c-1.137-.401-1.871-1.393-3.095-1.686,3.619,2.908,7.393,5.445,11.554,7.399l1.974.927c-.179-.538-.616-.785-1.225-1.136ZM121.389,137.906l-8.245-4.857-4.705-2.775c-.709-.418-1.167-1.204-2.195-1.19l1.986,1.481,7.186,4.719c1.835,1.205,3.95,1.822,5.973,2.622ZM93.402,133.093l-3.341-2.114c-.788-.499-1.557-.922-2.49-1.259l2.166,1.579,6.316,3.735c-.482-1.145-1.686-1.331-2.651-1.942ZM98.929,132.722l-4.936-3.036c.318.554.773.942,1.29,1.222,1.261.683,2.31,1.684,3.646,1.814ZM106.824,131.844l.073-.248-1.995-1.476c-.087-.064-.361-.181-.418-.105l-.171.226c-.038.051.177.255.236.289l2.274,1.313ZM75.868,133.208c-.357-.385-.85-.844-1.293-1.14l-1.977-1.321c.82,1.159,1.996,1.966,3.113,2.751l.156-.29ZM70.323,135.464l-2.305-1.611-2.66-1.862c-.588-.412-1.115-.758-1.913-.829l2.989,2.263,2.102,1.133c.661.357,1.039.769,1.787.906ZM88.066,136.789l.383-.166-6.762-4.469c-.43-.284-.722-.858-1.447-.622l5.639,3.829,2.186,1.427ZM108.664,146.949l-3.054-1.875-8.16-4.785-3.076-1.865-5.04-3.018-4.064-2.528-2.133-1.264,1.356,1.201,4.229,2.787,5.158,3.115,1.517.952,7.465,4.466,4.189,2.619c.519.324.954.7,1.613.194ZM111.466,137.162l-.049-.467-1.807-1.135-2.358-1.841-3.429-2.069c-.167-.101-.736.111-.746.236l4.894,3.232,3.495,2.045ZM128.39,134.787c-.046-.742-.68-1.074-1.217-1.371l-2.689-1.492c.835,1.453,2.739,1.597,3.906,2.863ZM37.907,140.379l-5.369-3.179-2.059-1.232-3.436-2.118-2.721-1.46c.845.77,1.682,1.416,2.629,1.983l4.244,2.542,5.235,2.991,7.359,4.707.398-.185-6.278-4.05ZM90.308,134.54c-1.009-.873-1.864-1.452-2.932-1.974.813.998,1.858,1.58,2.932,1.974ZM76.027,133.38l-.105.208,1.527,1.366,1.78,1.274,2.807,1.772c1.909,1.205,3.544,2.804,5.868,3.437l-7.441-5.03-4.437-3.026ZM108.487,136.67l-2.604-1.979c-.28-.212-.96-.449-1.473-.58l2.678,2.114c.404.319.783.533,1.399.444ZM70.853,140.367l-3.423-2.004-2.966-2.185-1.912-1.187-1.04-.628c.088,1.21,1.012,1.38,1.73,1.836l2.644,1.676c2.368,1.501,4.652,2.897,7.194,4.137.534.26.944.847,1.617.565l-3.845-2.208ZM107.602,138.438c-.185-1.044-1.11-.901-1.663-1.273-.659-.444-1.283-.832-1.989-1.118-1.212-.492-2.112-1.406-3.49-1.456l3.253,1.901,1.99,1.032,1.899.914ZM101.399,138.101c.722.392,1.23,1.171,2.19.983l-5.023-3.014c-.7-.42-1.154-1.06-2.22-.896l1.574.96,1.672.985,1.807.982ZM123.464,142.29l-2.598-1.542-1.674-.995-6.954-3.745-1.768-.944c.285.595.812.927,1.42,1.289l4.775,2.845,1.504.959,2.41,1.117c.955.443,1.825.923,2.884,1.017ZM104.509,138.439l2.316,1.238.326-.114-4.883-2.827c-.16.188-.303.376-.2.418l.422.173,2.019,1.112ZM120.255,143.351l-2.817-1.625-3.422-1.955-4.324-2.229,2.252,1.62,2.172,1.332,4.518,2.51c.517.287,1.104.523,1.621.347ZM49.997,142.712c-.935-.808-1.894-1.392-2.914-1.921-1.735-.899-3.03-2.477-5.153-2.785l6.488,4.135c.934.595,1.585,1.338,2.783,1.612l-1.204-1.041ZM101.467,146.027l-3.491-2.177-1.851-1.032-4.188-2.607c-1.299-.809-2.365-1.857-3.986-2.202l2.935,2.039,9.682,5.952,3.625,2.166c.928.555,1.648,1.43,2.864,1.464l-5.59-3.604ZM137.03,148.364c.186.637.613,1.369,1.315,1.105-.405-.506-.92-1.368-1.388-1.718-3.584-2.679-7.265-4.968-11.109-7.225l-1.428-.458c-1.555-.499-2.923-1.489-4.571-1.779l3.099,1.825,1.833,1.054,2.032,1.285c1.387.877,2.747,1.692,4.287,2.279.935,1.004,2.05,1.713,3.293,2.281.812.569,1.622.953,2.636,1.353ZM99.133,143.226l-4.494-2.735c.113.81.885.752,1.348,1.035,1.073.658,1.997,1.567,3.146,1.7ZM135.788,141.491l-1.888-.815c.963.938,2.079,1.481,3.508,2.011-.301-.572-.946-.904-1.62-1.196ZM141.616,147.168l3.103-3.173c.445-.455,1.24-.614,1.637-1.287.15-.254.113-.858-.121-1.048-.365-.296-2.197.54-2.654,1.811-.794,2.209-2.738,1.684-1.965,3.697ZM55.964,144.296c-.523-.577-1.08-.772-1.614-1.111-.901-.572-1.668-1.111-2.853-1.261l1.171.713c1.104.673,2.062,1.287,3.296,1.659ZM128.194,145.708l-3.949-1.984c-.73-.367-1.391-.694-2.323-.732l3.792,2.193,3.357,1.854c-.165-.555-.497-1.139-.878-1.33ZM124.845,146.449c-.389-.459-.805-.817-1.184-1.03l-2.425-1.369c.191.835,1.11.992,1.766,1.361l1.843,1.037ZM34.907,146.055c-.755-.445-1.295-.984-2.141-1.083,1.101.93,2.121,1.774,3.592,2.084-.396-.426-.885-.668-1.451-1.001ZM96.946,147.672c-1.096-1.094-2.307-1.794-3.641-2.417,1.126,1.098,2.204,1.932,3.641,2.417ZM69.426,149.669c-.274-.594-.68-.894-1.155-1.22l-2.345-1.607-1.529-1.1c-.092-.066-.387-.134-.487-.095s-.19.278-.104.344l.339.26c.403.309.876.959,1.158,1.436l4.124,1.983ZM101.367,148.063c-.869-1.136-2.074-1.614-3.265-2.324-.284-.192-.452-.142-.202.166l3.467,2.158ZM75.876,151.057c-.941-.924-1.884-1.539-2.975-2.098l-5.704-2.923c.503,1.195,1.652,1.403,2.573,1.921l5.169,2.908c.212.119.699.21.937.192ZM131.414,147.375c-.519-.389-1.1-.532-1.756-.103,1.123.717,1.962,1.303,3.425,1.355l-1.67-1.252ZM125.753,151.797l-2.954-2.408.699-.277-1.195-.376c-1.01-.778-2.435-1.516-3.467-1.447-.174.012-.291.528-.197.674s.344.358.516.443l1.683.822,1.833,1.017,3.082,1.552ZM71.039,153.282l-3.285-1.823-3.911-1.429c.865,1.442,4.521,1.404,4.374,2.313l-.183,1.133,3.005-.195ZM102.472,152.792c-.522-.495-.833-.697-1.301-.99l-2.91-1.822c.458,1.358,1.813,1.509,2.747,2.182.497.358.806.581,1.464.63ZM121.251,150.44c-.289-.133-.686-.135-1.111.18,1.219.612,2.247.946,3.61.975l-2.499-1.155ZM97.38,152.464l-2.182-1.598c-.21.124-.522.422-.42.544l.402.478c.646.233,1.44.49,2.2.576ZM37.139,151.911c-.193-.218-.722-.562-1.014-.57l-2.057-.058c.96.81,1.974.622,3.071.628ZM81.478,153.333l-3.696-1.797c-.237-.115-.942-.064-1.057-.004l.722,1.641,1.499.122,2.533.037ZM132.009,151.923l-1.069-.503-1.122,1.321,2.191-.818ZM120.597,153.301c-.448-.531-1.155-.639-1.8-.762l-2.667-.511c-1.255,1.919-4.232,1.379-4.028,1.715l.288.473c2.668-.585,5.243-.808,8.207-.914ZM64.987,152.92c-1.084-.552-2.225-.79-3.613-.469,1.112.582,2.246.681,3.613.469ZM87.686,153.356c-1.763-1.142-3.946-1.233-3.728-.241.041.185.478.258.731.257l2.997-.016ZM109.497,153.573c-.769-.653-1.065-.305-1.655-.028-1.007.473-1.823-1.108-2.432-1.044l-1.211,1.543,3.063-.051c.833-.014,1.569-.021,2.236-.421Z"/>
  <path class="cls-1" d="M135.37,50.563l3.19,2.456c.829.639,1.644,1.249,1.721,2.314-.92-1.344-2.299-2.097-3.596-3.126l-1.592-1.263-2.708-2.039-3.699-2.907-5.35-3.9-2.555-1.798-7.106-5.032-5.084-3.555-2.887-1.891-6.69-4.596-4.936-3.321-8.223-5.653c1.698.381,2.882,1.534,4.242,2.413l1.684,1.23,2.545,1.572,4.58,3.014,3.951,2.623,3.112,2.088,7.099,4.833,3.946,2.848,4.849,3.39,2.339,1.792,1.799,1.263,4.729,3.726,2.259,1.654,2.381,1.863Z"/>
  <path class="cls-1" d="M140.01,60.016c1.212.933,2.582,1.615,3.542,3.09-.69-.032-1.186-.563-1.751-.951l-2.212-1.518-1.472-1.013-8.662-6.357-5.442-3.829-2.235-1.852c1.033.135,1.876.691,2.817,1.237,1.826,1.061,3.441,2.288,5.142,3.539l2.255,1.66,2.582,1.974,1.717,1.156,3.72,2.862Z"/>
  <path class="cls-1" d="M116.71,28.584l-1.795-1.139-2.085-1.693.478-.071,1.888,1.458,1.625,1.255.177.136,1.24.728,4.41,3.011,1.611,1.066,3.693,2.691,2.358,1.775,3.003,1.924,2.206,1.725,2.09,1.62,2.208,1.709,1.737,1.335,2.389,1.958,2.159,1.878c-1.208-.272-1.919-1.257-2.896-1.972l-3.695-2.703-2.969-2.18-3.135-2.248-1.739-1.538c-.544-.481-1.167-.745-1.808-1.1-1.215-.674-2.171-1.825-3.31-2.626l-5.204-3.659-4.462-3.144-.176-.195Z"/>
  <path class="cls-1" d="M137.03,148.364c-1.014-.4-1.824-.784-2.636-1.353-1.244-.568-2.358-1.277-3.293-2.281-1.54-.586-2.9-1.402-4.287-2.279l-2.032-1.285-1.833-1.054-3.099-1.825c1.648.29,3.016,1.28,4.571,1.779l1.428.458c3.843,2.256,7.525,4.546,11.109,7.225.468.35.983,1.212,1.388,1.718-.702.264-1.129-.467-1.315-1.105Z"/>
  <path class="cls-1" d="M127.592,33.822c1.574,1.082,3.011,2.076,4.328,3.413-1.263-.376-2.065-1.332-3.107-2.042l-8.345-5.68-2.539-1.806-1.478-.993-2.54-1.792-2.178-1.518-8.76-6.056c-.519-.359-1.1-.511-1.335-1.205l6.651,4.317,4.202,3.011,1.94,1.345,2.082,1.43,3.915,2.703,2.334,1.562,3.174,2.174,1.657,1.139Z"/>
  <path class="cls-1" d="M108.664,146.949c-.659.506-1.094.13-1.613-.194l-4.189-2.619-7.465-4.466-1.517-.952-5.158-3.115-4.229-2.787-1.356-1.201,2.133,1.264,4.064,2.528,5.04,3.018,3.076,1.865,8.16,4.785,3.054,1.875Z"/>
  <path class="cls-1" d="M88.028,51.838c-1.213.221-1.798-.93-2.676-1.388l-2.043-1.065-1.676-1.033c-1.2-.74-2.641-1.342-3.699-2.249-.995-.853-1.867-1.401-2.972-2.035-.934-.536-1.765-1.447-2.795-1.891-1.237-.533-2.326-1.197-3.43-1.931-1.161-.771-2.386-1.378-3.241-2.639,1.028.22,1.691.843,2.496,1.356l4.765,3.04,3.245,2.062,3.046,1.942,2.531,1.624,4.592,2.979,1.855,1.227Z"/>
  <path class="cls-1" d="M101.417,57.912l-4.483-2.609-4.003-2.388-5.864-3.595-2.223-1.269-3.856-2.542-2.016-1.126c-.878-.49-1.706-1.145-2.504-1.852,2.209,1.075,4.158,2.302,6.196,3.565l4.196,2.599,7.736,4.637,5.7,3.335,2.816,1.729c-.645.082-1.126-.153-1.694-.484Z"/>
  <path class="cls-1" d="M81.554,59.459l-3.336-1.868-2.923-1.635-1.895-1.198-6.393-3.908-3.921-2.452c1.127-.332,1.643.62,2.402,1.05l1.334.756,5.86,3.429,6.697,3.983,5.471,3.205c-1.323-.024-2.209-.753-3.296-1.361Z"/>
  <path class="cls-1" d="M126.614,64.285l-4.552-1.963-5.199-2.209-7.088-3.419c-1.845-.89-3.778-1.559-5.101-3.267l11.406,5.829,2.316,1.013,4.478,1.859,3.926,1.889-.186.267Z"/>
  <path class="cls-1" d="M31.188,17.554c1.097.928,2.724,1.085,3.332,2.517-3.649-1.752-6.824-3.888-10.149-5.883-.749-.449-1.498-.826-2.152-1.352l-2.037-1.637c.695-.338,1.064-.028,1.621.409l2.065,1.621c.291.228,1.222.308,1.559.528l3.583,2.333c.714.465,1.461.874,2.178,1.464Z"/>
  <path class="cls-1" d="M33.39,29.761l2.193,1.396c.657.418,1.244.798,1.822,1.351-1.788-.339-2.885-1.454-4.318-2.344-4.468-2.776-9.126-5.225-13.027-8.601l8.583,5.205c1.174.712,2.26,1.43,3.409,2.152l1.338.841Z"/>
  <path class="cls-1" d="M66.233,18.998l-5.234-3.148-1.467-.829-3.131-1.997-7.129-4.573-2.609-1.777c1.477.307,2.953,1.403,4.194,2.218l7.447,4.889,8.093,4.807-.165.41Z"/>
  <path class="cls-1" d="M121.389,137.906c-2.023-.8-4.138-1.417-5.973-2.622l-7.186-4.719-1.986-1.481c1.028-.014,1.486.772,2.195,1.19l4.705,2.775,8.245,4.857Z"/>
  <path class="cls-1" d="M101.467,146.027l5.59,3.604c-1.217-.034-1.936-.909-2.864-1.464l-3.625-2.166-9.682-5.952-2.935-2.039c1.622.344,2.687,1.393,3.986,2.202l4.188,2.607,1.851,1.032,3.491,2.177Z"/>
  <path class="cls-1" d="M37.907,140.379l6.278,4.05-.398.185-7.359-4.707-5.235-2.991-4.244-2.542c-.946-.567-1.784-1.213-2.629-1.983l2.721,1.46,3.436,2.118,2.059,1.232,5.369,3.179Z"/>
  <path class="cls-1" d="M126.598,135.527c.609.35,1.046.597,1.225,1.136l-1.974-.927c-4.161-1.954-7.935-4.492-11.554-7.399,1.224.294,1.957,1.285,3.095,1.686l3.002,1.932,6.206,3.573Z"/>
  <path class="cls-1" d="M123.464,142.29c-1.059-.094-1.929-.574-2.884-1.017l-2.41-1.117-1.504-.959-4.775-2.845c-.608-.362-1.136-.694-1.42-1.289l1.768.944,6.954,3.745,1.674.995,2.598,1.542Z"/>
  <path class="cls-1" d="M141.616,147.168c-.773-2.013,1.171-1.488,1.965-3.697.457-1.272,2.289-2.108,2.654-1.811.234.19.271.794.121,1.048-.397.673-1.192.832-1.637,1.287l-3.103,3.173Z"/>
  <path class="cls-1" d="M154.348,91.125c-.734-.831-.864-1.009-1.524-1.295l-1.977-.857,1.439-1.679c.267-.311,1.312-.219,1.758-.136l.304,3.967Z"/>
  <path class="cls-1" d="M70.853,140.367l3.845,2.208c-.673.282-1.083-.305-1.617-.565-2.542-1.241-4.825-2.636-7.194-4.137l-2.644-1.676c-.718-.455-1.642-.625-1.73-1.836l1.04.628,1.912,1.187,2.966,2.185,3.423,2.004Z"/>
  <path class="cls-1" d="M125.753,151.797l-3.082-1.552-1.833-1.017-1.683-.822c-.173-.084-.422-.296-.516-.443s.023-.663.197-.674c1.032-.07,2.457.669,3.467,1.447l1.195.376-.699.277,2.954,2.408Z"/>
  <path class="cls-1" d="M23.145,72.17l-5.922-3.262-3.479-1.867c-.935-.502-1.748-1.086-2.371-2.066l3.49,1.983,2.33,1.356c2,1.147,4.194,1.958,5.953,3.857Z"/>
  <path class="cls-1" d="M61.273,100.566c.525.404.833,1.16.366,1.732-1.633-.764-2.82-2.099-3.966-3.398-.415-.471-.704-.94-.323-1.552l2.33,1.994,1.593,1.224Z"/>
  <path class="cls-1" d="M126.194,71.147l-6.555-3.315c-1.352-.684-2.511-1.499-3.352-2.639l3.935,2.055,6.031,3.582-.058.317Z"/>
  <path class="cls-1" d="M120.597,153.301c-2.964.107-5.539.329-8.207.914l-.288-.473c-.204-.336,2.773.204,4.028-1.715l2.667.511c.644.123,1.352.231,1.8.762Z"/>
  <path class="cls-1" d="M131.75,81.756c-.004.099-.238.633-.378.572l-.617-.266-4.381-3.024c-.95-.656-2.049-1.561-1.482-3.103.629,1.536,1.326,2.489,2.645,2.944l4.213,2.877Z"/>
  <path class="cls-1" d="M75.711,133.499c-1.117-.785-2.293-1.592-3.113-2.751l1.977,1.321c.443.296.936.754,1.293,1.14l.159.172,4.437,3.026,7.441,5.03c-2.324-.633-3.959-2.232-5.868-3.437l-2.807-1.772-1.78-1.274-1.527-1.366-.211-.09Z"/>
  <path class="cls-1" d="M22.558,29.39c-.708.423-1.406-.189-2.063-.637l-3.206-2.185c-1.568-1.069-3.056-2.239-4.469-3.351l.082-.449,7.997,5.556,1.658,1.066Z"/>
  <path class="cls-1" d="M152.915,34.025c.393.28.643.783.571,1.213l-6.904-5.315-2.433-1.622c-.984-.656-1.91-1.291-2.526-2.202l3.299,2.256,1.446,1.014,6.547,4.657Z"/>
  <path class="cls-1" d="M29.978,48.763c-.676-.222-1.243-.444-1.767-.748l-5.469-3.177-2.866-1.858c-.651-.422-1.345-.748-1.658-1.432l1.897,1.163c1.922,1.178,3.803,2.192,5.769,3.313l1.554.887,2.54,1.853Z"/>
  <path class="cls-1" d="M138.605,38.876l.531-.052c-.291-.386-.708-.896-1.054-1.123l-2.383-1.57c-1.129-.744-2.235-1.419-3.011-2.631l2.372,1.599,2.548,1.789,1.601,1.056,2.242,1.669,1.288,1.266c-1.075.174-1.4-1.521-3.041-1.966l.675,1.476-1.875-1.356-.165-.111-1.193-.723c-1.021-.619-1.88-1.16-2.573-2.227.556.249.91.546,1.392.904l2.517,1.868.129.132Z"/>
  <path class="cls-1" d="M54.984,128.74l-.914.975-2.857-1.673c-.579-.339-1.088-.451-1.569-.979l3.836.063c.332.715.783,1.186,1.503,1.614Z"/>
  <path class="cls-1" d="M25.931,87.786l-6.022-3.435-2.877-1.662c-1.416-.818-2.78-1.57-3.973-2.558.777.3,1.366.556,1.941.886l9.532,5.471c.562.322,1.069.576,1.399,1.297Z"/>
  <path class="cls-1" d="M96.239,114.544l-3.604-2.006-2.184-1.307c-.813-.704-1.659-1.348-2.676-1.63-.999-.909-2.232-1.319-2.933-2.59l2.27,1.403,4.247,2.73,3.941,2.451c.422.262.726.42.939.95Z"/>
  <path class="cls-1" d="M89.827,26.347c-2.475-.924-4.319-2.401-6.377-3.699l-4.799-3.028c-.428-.27-.931-.346-.957-1.115l5.711,3.57,3.13,2.024,3.293,2.248Z"/>
  <path class="cls-1" d="M111.466,137.162l-3.495-2.045-4.894-3.232c.01-.125.579-.337.746-.236l3.429,2.069,2.358,1.841,1.807,1.135.049.467Z"/>
  <path class="cls-1" d="M38.745,30.924c-.672-.241-1.305-.473-1.914-.813l-1.85-1.033-2.665-1.658c-1.197-.745-2.275-1.541-3.509-2.249-.683-.392-1.368-.653-1.78-1.358,1.284.68,2.487,1.259,3.653,1.982l3.049,1.887,4.26,2.541.756.7Z"/>
  <path class="cls-1" d="M148.744,100.431l-4.929-3.227-2.51-1.614-2.245-1.442c-.903-.58-1.761-1.083-2.462-1.942l2.78,1.631,3.376,2.167,3.163,1.982c.816.925,2.162,1.01,2.826,2.444Z"/>
  <path class="cls-1" d="M148.043,53.622c-1.021-.294-1.707-1.107-2.537-1.766l-3.105-2.465-3.5-2.691-3.267-2.665c1.027.189,1.454.867,2.117,1.342l2.28,1.632,2.78,2.177,5.232,4.435Z"/>
  <path class="cls-1" d="M48.855,20.705l-3.186-1.856-2.943-1.601c-1.563-1.066-3.254-1.737-4.648-3.228,2.545,1.161,4.837,2.63,7.253,4.073,1.036.619,2.471,1.31,3.524,2.611Z"/>
  <path class="cls-1" d="M148.916,44.343c-.529-.221-1.333-.524-1.661-.795l-2.392-1.981-2.049-1.654-2.435-1.722c-.445-.315-.891-.858-1.257-1.373.583.267.935.613,1.495.991l1.22.824,2.491,1.853,4.589,3.856Z"/>
  <path class="cls-1" d="M104.914,52.181c-.856-.176-1.648-.432-2.377-.829l-4.139-2.253c-.78-.424-1.852-.695-1.923-1.995l5.045,2.991,3.394,2.086Z"/>
  <path class="cls-1" d="M64.912,25.698l-2.354-1.116c-1.424-.675-2.693-1.509-4.033-2.302l-6.166-3.647.195-.259,5.628,3.211c1.751.999,3.339,1.957,5.187,2.857.535.26,1.115.803,1.544,1.256Z"/>
  <path class="cls-1" d="M120.255,143.351c-.516.176-1.104-.06-1.621-.347l-4.518-2.51-2.172-1.332-2.252-1.62,4.324,2.229,3.422,1.955,2.817,1.625Z"/>
  <path class="cls-1" d="M74.175,10.55c0,.097-.196.416-.334.438s-.536-.036-.667-.128l-1.768-1.248-2.487-2.133c1.281-.041,2.441.328,3.536.804.02,1.085.513,1.827,1.72,2.267Z"/>
  <path class="cls-1" d="M65.64,61.221c-1.356.199-2.329-.741-3.436-1.255l-6.47-3.003c-.637-.296-1.162-.605-1.555-1.198.775.273,1.45.584,2.068.889l2.635,1.305c2.221,1.1,4.426,2.062,6.759,3.262Z"/>
  <path class="cls-1" d="M75.876,151.057c-.238.019-.725-.072-.937-.192l-5.169-2.908c-.921-.518-2.07-.726-2.573-1.921l5.704,2.923c1.091.559,2.034,1.174,2.975,2.098Z"/>
  <path class="cls-1" d="M62.905,56.464c.646.367,1.058.581,1.474,1.15-.826.081-1.379-.103-2.006-.473-1.824-1.075-3.494-2.187-5.195-3.716l1.863.842,3.865,2.197Z"/>
  <path class="cls-1" d="M100.316,62.058l-3.652-.176c-.074-.004-.33-.192-.364-.255-.051-.094-.044-.499.051-.456l.497.225.752.34c.119.054,1.221-.451,1.273-1.248l3.387,1.648,1.037.548-2.018.024c-.219.003-.755-.53-.964-.651Z"/>
  <path class="cls-1" d="M147.721,36.479l2.336,1.948c-.787.424-1.505-1.229-3.107-2.034l-4.551-3.278c-.835-.602-1.832-.93-2.451-1.852l2.489,1.436,3.625,2.529,1.658,1.251Z"/>
  <path class="cls-1" d="M24.986,21.08l2.078,1.396-.159.192-4.588-2.764c-.932-.561-1.802-1.171-2.721-1.807-.852-.59-2.057-.735-2.485-1.949,1.196.659,2.258,1.282,3.313,1.972l3.121,2.044,1.442.915Z"/>
  <path class="cls-1" d="M128.194,145.708c.381.191.713.775.878,1.33l-3.357-1.854-3.792-2.193c.932.039,1.594.366,2.323.732l3.949,1.984Z"/>
  <path class="cls-1" d="M20.054,110.41l-7.414-4.189-1.825-1.26c-.418-.289-.842-.626-1.066-.994l1.57.932,5.55,3.276c1.142.674,2.254,1.262,3.184,2.235Z"/>
  <path class="cls-1" d="M90.184,122.317c1.703,1.071,3.491,1.696,4.864,3.144l-7.527-4.101c-.645-.351-1.252-.975-1.724-1.501l2.201,1.083,2.186,1.375Z"/>
  <path class="cls-1" d="M12.5,24.282c-1.155.331-1.223,1.589-1.412,1.252l-.269-.48c-.312-.556-.529-.756-1.273-.937-.097-.526.019-1.356.355-2.055l2.599,2.22Z"/>
  <path class="cls-1" d="M44.851,12.5c-1.344-.023-2.311-.809-3.33-1.473l-2.236-1.457-2.97-1.804-.296-.178c-.057-.034-.102-.213-.138-.283-.047-.091.432-.031.536-.021l8.434,5.217Z"/>
  <path class="cls-1" d="M69.426,149.669l-4.124-1.983c-.282-.476-.756-1.127-1.158-1.436l-.339-.26c-.086-.066.004-.305.104-.344s.396.029.487.095l1.529,1.1,2.345,1.607c.475.326.881.626,1.155,1.22Z"/>
  <path class="cls-1" d="M58.502,34.916l1.363,1.039c-1.19-.042-1.692-.885-2.559-1.366l-5.006-2.776c-.085-.047-.248-.214-.297-.279-.073-.096-.041-.53.071-.484l.544.22,1.312.72,1.917,1.145,2.654,1.781Z"/>
  <path class="cls-1" d="M151.955,130.21c-.538-.069-.056-1.366-1.207-2.32l.674-.681c-.175-.59-.331-1.269.116-1.817,1.093,1.475,1.439,4.949.418,4.817Z"/>
  <path class="cls-1" d="M73.403,62.187c-2.88-.773-5.429-2.249-7.993-4.059,1.703.261,3.148,1.229,4.597,2.075l3.396,1.984Z"/>
  <path class="cls-1" d="M81.562,39.431c-1.54-.358-2.794-1.355-4.227-2.214l-1.921-1.152c-.742-.445-1.444-.645-1.758-1.448,1.082-.413,1.289.558,1.845.908l4.553,2.867,1.508,1.039Z"/>
  <path class="cls-1" d="M81.478,153.333l-2.533-.037-1.499-.122-.722-1.641c.115-.06.82-.112,1.057.004l3.696,1.797Z"/>
  <path class="cls-1" d="M71.039,153.282l-3.005.195.183-1.133c.147-.91-3.51-.871-4.374-2.313l3.911,1.429,3.285,1.823Z"/>
  <path class="cls-1" d="M49.997,142.712l1.204,1.041c-1.199-.274-1.849-1.017-2.783-1.612l-6.488-4.135c2.123.308,3.418,1.885,5.153,2.785,1.02.529,1.979,1.113,2.914,1.921Z"/>
  <path class="cls-1" d="M48.758,27.531c-1.019.134-2.051-1.358-4.148-2.501-1.567-.854-3.068-1.632-4.437-2.826,2.206.657,3.95,1.855,5.777,3.106l1.208.827,1.599,1.393Z"/>
  <path class="cls-1" d="M31.616,54.1c-2.782-1.143-5.416-2.631-7.722-4.759,2.772,1.33,5.272,2.782,7.722,4.759Z"/>
  <path class="cls-1" d="M136.752,130.753c.752.471,1.631.635,1.959,1.62l-5.427-3.248-3.081-2.039c.553-.063,1.116.26,1.66.601l4.889,3.065Z"/>
  <path class="cls-1" d="M36.48,10.52c-1.913-1.214-2.673-3.079-4.742-3.267l.62-.756c.617.444,1.108.928,1.694,1.28,1.447.868,3.294,1.344,2.428,2.744Z"/>
  <path class="cls-1" d="M62.338,119.914c-1.801-.097-2.919-2.212-4.933-3.051l-.204-.561c-.05-.137.596-.184.719-.094l2.313,1.694,2.106,2.011Z"/>
  <path class="cls-1" d="M138.604,83.394l-2.984-1.682c-1.079-.609-2.29-1.039-3.155-2.218,2.788,1.391,5.454,2.907,8.159,4.798-.752.172-1.337-.512-2.021-.898Z"/>
  <path class="cls-1" d="M145.88,105.237l-2.1-1.41-3.699-2.484c-.974-.654-1.96-1.189-2.901-2.086l4.548,2.7,1.837,1.27c.883.611,1.734,1.071,2.316,2.011Z"/>
  <path class="cls-1" d="M109.497,153.573c-.667.4-1.403.407-2.236.421l-3.063.051,1.211-1.543c.609-.065,1.425,1.517,2.432,1.044.59-.277.886-.625,1.655.028Z"/>
  <path class="cls-1" d="M93.402,133.093c.965.61,2.169.797,2.651,1.942l-6.316-3.735-2.166-1.579c.933.336,1.702.76,2.49,1.259l3.341,2.114Z"/>
  <path class="cls-1" d="M107.602,138.438l-1.899-.914-1.99-1.032-3.253-1.901c1.378.05,2.278.964,3.49,1.456.706.286,1.329.674,1.989,1.118.553.372,1.478.229,1.663,1.273Z"/>
  <path class="cls-1" d="M143.516,71.082c-.435.064-.777-.158-1.145-.438l-2.005-1.524-3.007-2.198.28-.344,2.312,1.557,1.935,1.527,1.63,1.421Z"/>
  <path class="cls-1" d="M22.098,14.993l2.27,1.559-.157.244-4.342-2.663c-.697-.428-1.571-1.183-1.362-2.059,1.303,1.126,2.365,2.078,3.591,2.919Z"/>
  <path class="cls-1" d="M110.948,35.012l-3.39-2.272-1.467-1.027-1.944-1.325c-.662-.451-1.209-.766-1.755-1.385.757.273,1.28.605,1.886,1.03l3.87,2.717,2.914,2.001.193.138,1.428.956c1.013.678,1.986,1.211,2.725,2.284l-2.911-1.914-1.339-1.064-.211-.138Z"/>
  <path class="cls-1" d="M19.358,116.802l-2.505-1.604c-1.85-1.184-3.703-2.263-5.283-3.864,2.741,1.608,5.179,3.359,7.672,5.061l.116.407Z"/>
  <path class="cls-1" d="M88.066,136.789l-2.186-1.427-5.639-3.829c.725-.236,1.017.337,1.447.622l6.762,4.469-.383.166Z"/>
  <path class="cls-1" d="M100.041,93.223c-.749-.227-1.304-.576-1.953-.958l-3.484-2.052c.573-.774,1.153-.083,1.601.206,1.351.873,2.585,1.539,3.837,2.804Z"/>
  <path class="cls-1" d="M153.204,48.372c-.326-.125-.702-.377-1.059-.693l-1.478-1.308c-.179-.158.206-.624.529-.673.234-.035.522.219.762.587l1.245.494.002,1.591Z"/>
  <path class="cls-1" d="M121.338,47.362c-.77-.294-1.273-.795-2.017-1.265l-1.271-.802-1.67-1.049-1.472-1.313c-.088-.079-.26-.359-.312-.457-.068-.129.52-.322.595-.206.403.619,1.33,1.565,2.007,1.995l2.702,1.716c.437.278.943.855,1.438,1.381Z"/>
  <path class="cls-1" d="M23.058,35.273l-4.194-2.63c-.866-.543-1.773-.938-2.342-1.909l4.71,2.846c.719.448,1.496.863,1.826,1.692Z"/>
  <path class="cls-1" d="M39.478,5.414c-.812.667-1.128.806-1.166,1.78-.836-.397-1.619-.753-2.202-1.816l3.368.036Z"/>
  <path class="cls-1" d="M147.067,79.977c-.698-.059-1.367-.318-1.842-.648l-5.005-3.465c1.502.42,2.701,1.349,3.984,2.204l2.864,1.909Z"/>
  <path class="cls-1" d="M139.217,88.623c-1.649-.389-2.9-1.357-4.22-2.364-.805-.613-1.831-.895-2.311-1.949l6.531,4.313Z"/>
  <path class="cls-1" d="M49.672,61.197c-.827.038-1.244-.061-1.924-.178-.305-.955-1.196-.994-1.907-1.392l-2.654-1.484c.911.008,1.691.418,2.457.839l4.028,2.215Z"/>
  <path class="cls-1" d="M70.323,135.464c-.748-.137-1.125-.549-1.787-.906l-2.102-1.133-2.989-2.263c.798.07,1.325.417,1.913.829l2.66,1.862,2.305,1.611Z"/>
  <path class="cls-1" d="M138.47,76.151l-3.764-1.829c-.684-.332-1.451-1.055-1.992-1.5l.017-.334,3.281,1.851c.848.479,1.653,1.08,2.459,1.812Z"/>
  <path class="cls-1" d="M145.327,109.993c.156.087.384.408.446.517.083.147-.49.269-.625.161-1.593-1.278-3.714-2.064-5.094-3.634l5.274,2.956Z"/>
  <path class="cls-1" d="M132.26,77.098l-1.692-1.019-1.997-1.294c-.632-.409-1.213-.624-1.641-1.352l2.603,1.392c1.013.541,2.329.729,2.727,2.272Z"/>
  <path class="cls-1" d="M137.651,126.335c.521.331,1.041.402,1.209,1.054l-5.332-3.025c-.661-.375-1.371-.919-1.803-1.513l3.996,2.258,1.93,1.226Z"/>
  <path class="cls-1" d="M8.343,35.165l-.117,1.937c-.697-.264-.933-.968-.875-1.773l.151-2.119c.043-.597.979-.071.841,1.955Z"/>
  <path class="cls-1" d="M32.021,38.175l-1.537-.911c1.137.122,2.038.18,2.929-.199.187-.08.727.091.687.255-.159.651-.618,1.147-1.209,1.387-.213.087-.67-.362-.87-.532Z"/>
  <path class="cls-1" d="M155.083,79.785l-1.49-.858c-.469-.27-1.192-1.23-.448-1.652.538-.305,1.408.527,1.535,1.002l.403,1.508Z"/>
  <path class="cls-1" d="M131.044,93.817c-.906-.224-1.766-.791-2.55-1.477-1.318-1.153-2.249-1.192-2.178-1.445l.143-.511c.034-.124.475.08.597.178l1.882,1.506,2.107,1.749Z"/>
  <path class="cls-1" d="M142.973,106.495c-.766-.331-1.534-.748-2.273-1.219l-2.388-1.523c-.869-.554-1.688-.966-2.306-1.835l1.911,1.171,4.899,3.031.157.375Z"/>
  <path class="cls-1" d="M62.63,20.761c-1.011.409-1.313-.599-1.881-.907l-2.968-1.611c-.73-.396-1.525-.708-1.855-1.468,2.332,1.189,4.653,2.574,6.704,3.985Z"/>
  <path class="cls-1" d="M91.321,24.766l-1.801-1.153-5.041-3.315.203-.257,4.372,2.81,2.324,1.66c.045.032.294.104.29.103l2.076,1.323,4.237,2.869-.212.236-1.909-1.277-1.747-1.144-2.585-1.72-.205-.135Z"/>
  <path class="cls-1" d="M76.676,8.037l-3.578-1.216c.653-.33,1.247-.383,1.958-.269l1.125.18c.281.045.472.631.495,1.304Z"/>
  <path class="cls-1" d="M106.409,49.924c-.579.155-.865-.069-1.271-.34l-5.446-3.646c1.141.075,1.935.741,2.787,1.32l3.929,2.666Z"/>
  <path class="cls-1" d="M140.672,15.691c.564.398,1.236.631,1.821,1.292-.796-.074-1.409-.548-2.084-1.026l-2.267-1.608c-.919-.651-1.768-1.027-2.664-1.799.766-.14,1.082.237,1.566.578l3.629,2.562Z"/>
  <path class="cls-1" d="M101.399,138.101l-1.807-.982-1.672-.985-1.574-.96c1.066-.165,1.519.476,2.22.896l5.023,3.014c-.96.188-1.468-.591-2.19-.983Z"/>
  <path class="cls-1" d="M139.321,42.256c-.286-.082-1.002-.279-1.255-.454l-2.319-1.608c-.968-.671-1.999-1.125-2.617-2.297l4.579,3.215c.515.361,1.083.527,1.612,1.144Z"/>
  <path class="cls-1" d="M18.213,67.979c-1.549-.435-2.63-1.275-3.881-2.193l-1.811-.878c1.733-.099,2.781,1.205,4.145,1.856.633.302,1.141.584,1.547,1.215Z"/>
  <path class="cls-1" d="M132.782,118.848c.843.438,1.588.833,2.236,1.402-2.239-.763-4.094-1.999-5.931-3.482,1.574.153,2.388,1.401,3.694,2.08Z"/>
  <path class="cls-1" d="M121.045,64.561l-2.427-1.113-3.034-1.748.15-.175,4.015,1.866c.575.267,1.068.636,1.296,1.169Z"/>
  <path class="cls-1" d="M13.928,78.729l-3.198-1.899-3.039-1.896c.903-.338,1.433.439,2.022.812l3.175,2.007,1.098.704-.057.271Z"/>
  <path class="cls-1" d="M131.304,104.891c-1.794-.716-3.499-1.774-4.865-3.372l1.786.985,3.079,2.388Z"/>
  <path class="cls-1" d="M95.777,120.021c1.111.66,2.41.875,3.114,2.159l-5.59-3.197.235-.294,2.241,1.332Z"/>
  <path class="cls-1" d="M50.738,57.839c.779.429,1.796.395,2.28,1.435l-5.353-2.489c1.33-.455,2.149.546,3.072,1.055Z"/>
  <path class="cls-1" d="M61.377,78.642c-.957-.443-1.233-.84-1.833-1.393-.467-.431-.817-.706-1.237-1.327l1.572.834c1.02.149,1.524.765,1.498,1.886Z"/>
  <path class="cls-1" d="M87.686,153.356l-2.997.016c-.254.001-.69-.071-.731-.257-.218-.993,1.966-.902,3.728.241Z"/>
  <path class="cls-1" d="M16.085,75.569l-2.499-1.424c-.722-.412-1.39-1.112-1.862-1.914.903.325,1.422.967,2.118,1.484.769.571,1.67.896,2.242,1.854Z"/>
  <path class="cls-1" d="M58.494,106.068c1.258.114,3.515,1.892,3.653,2.764.014.091-.29.157-.354.091l-.283-.289-3.016-2.566Z"/>
  <path class="cls-1" d="M137.086,113.423c-1.217-.231-2.119-.99-3.097-1.653l-2.374-1.611.217-.326,5.254,3.591Z"/>
  <path class="cls-1" d="M136.498,28.602c.923.665,1.8,1.166,2.58,1.991-1.899-.791-3.574-1.979-4.911-3.67l2.331,1.679Z"/>
  <path class="cls-1" d="M98.929,132.722c-1.336-.13-2.385-1.131-3.646-1.814-.518-.281-.972-.669-1.29-1.222l4.936,3.036Z"/>
  <path class="cls-1" d="M124.081,128.519c-.19.418-.807-.013-1.167-.272l-1.798-1.293c1.172-.155,2.39.219,2.965,1.565Z"/>
  <path class="cls-1" d="M12.125,19.303c.017.208-.011.658-.052.814-.052.196-.512.249-.705.191s-.548-.627-.436-.832l1.054-1.939.141,1.765Z"/>
  <path class="cls-1" d="M131.414,147.375l1.67,1.252c-1.464-.052-2.303-.638-3.425-1.355.656-.429,1.237-.286,1.756.103Z"/>
  <path class="cls-1" d="M119.195,129.995l-4.118-2.479c-.091-.055-.265-.297-.296-.369s.046-.299.122-.28.34.125.43.188l2.678,1.891c.485.342,1.014.429,1.185,1.049Z"/>
  <path class="cls-1" d="M41.66,62.786l-2.801-1.349c-.141-.068-.367-.269-.433-.395s.176-.602.299-.531l.695.4c.902.52,1.68,1.002,2.241,1.875Z"/>
  <path class="cls-1" d="M133.452,100.163c.385.295,1.125.32,1.071,1.107l-4.513-3.236c1.342.463,2.338,1.284,3.443,2.129Z"/>
  <path class="cls-1" d="M102.472,152.792c-.659-.049-.968-.272-1.464-.63-.934-.673-2.289-.824-2.747-2.182l2.91,1.822c.468.293.78.495,1.301.99Z"/>
  <path class="cls-1" d="M89.938,105.864c-.965-.379-2.094-1.005-2.561-2.12l2.653,1.94.17.107,2.831,1.608c.825.468,1.595.763,2.222,1.563l-1.669-.857-3.564-2.089-.082-.152Z"/>
  <path class="cls-1" d="M108.487,136.67c-.616.088-.996-.126-1.399-.444l-2.678-2.114c.513.131,1.193.368,1.473.58l2.604,1.979Z"/>
  <path class="cls-1" d="M17.003,61.617l-1.81-1.156c-.748-.478-1.379-.895-1.996-1.585.889.214,1.445.696,2.129,1.185l1.854,1.325.115.104,1.304.871c1.02.681,1.963,1.237,2.669,2.332l-1.926-1.233-2.209-1.771-.129-.072Z"/>
  <path class="cls-1" d="M64.562,50.707c-1.548-.585-3.016-1.406-4.209-2.784l1.949,1.021,2.26,1.763Z"/>
  <polygon class="cls-1" points="30.77 7.787 29.767 9.267 28.154 7.791 30.77 7.787"/>
  <path class="cls-1" d="M61.674,13.066l-1.56-.851c-1.117-.609-2.327-1.111-3.102-2.191l3.259,1.811c.582.323,1.054.473,1.403,1.23Z"/>
  <path class="cls-1" d="M104.509,138.439l-2.019-1.112-.422-.173c-.103-.042.04-.231.2-.418l4.883,2.827-.326.114-2.316-1.238Z"/>
  <path class="cls-1" d="M60.265,61.239c-.488.092-1.014.083-1.291-.063l-3.886-2.043c1.623.192,2.702,1.103,4.033,1.642l1.145.464Z"/>
  <path class="cls-1" d="M90.769,102.371l-3.961-2.311.165-.329c.045-.089.308.059.407.126l1.096.747c.901.614,1.793.978,2.294,1.768Z"/>
  <path class="cls-1" d="M154.413,100.773l-1.47-1.338c.144-.231.465-.597.677-.618s.758.131.897.258l-.104,1.698Z"/>
  <path class="cls-1" d="M96.306,93.758c-.95.128-1.538-.823-2.337-1.259-.835-.456-1.632-.944-2.011-1.761l2.762,1.806c.532.348.964.611,1.586,1.214Z"/>
  <path class="cls-1" d="M16.106,101.309c-1.391-.421-3.164-1.777-4.343-2.951l2.305,1.283,2.037,1.668Z"/>
  <path class="cls-1" d="M15.975,15.407c-.818.114-1.25.369-1.436,1.037l-.585-.25c-.153-.066-.122-.574-.032-.723.426-.707,1.542-.83,2.052-.064Z"/>
  <path class="cls-1" d="M131.06,109.527c-.784-.254-1.313-.624-1.947-1.099l-1.61-1.359,1.557.525,2,1.932Z"/>
  <path class="cls-1" d="M90.473,47.118c-1.029.017-2.973-1.155-4.1-2.435.647.185,1.214.595,1.833.989l2.267,1.446Z"/>
  <path class="cls-1" d="M128.39,134.787c-1.167-1.265-3.071-1.41-3.906-2.863l2.689,1.492c.536.297,1.17.629,1.217,1.371Z"/>
  <path class="cls-1" d="M15.371,31.293c-1.094-.202-2.836-1.718-3.699-2.721,1.263.58,2.926,1.759,3.699,2.721Z"/>
  <path class="cls-1" d="M13.415,39.463l1.483,1.153-.046.325-3.818-2.585c-.141-.318-.026-.613.247-.319l2.133,1.426Z"/>
  <path class="cls-1" d="M92.236,85.353l-1.258-.995c.865-.335,1.385-.322,2.244-.199l-.986,1.195Z"/>
  <path class="cls-1" d="M89.979,113.792c.34.212.625.497.742.906-1.315-.452-2.326-1.148-2.989-2.31l2.248,1.404Z"/>
  <path class="cls-1" d="M89.303,36.84c-.777-.028-1.139-.462-1.692-.826-.716-.472-1.345-.724-1.897-1.487l1.717.823c.728.349,1.289.823,1.872,1.49Z"/>
  <path class="cls-1" d="M100.257,58.577c-.872.22-1.261-.505-1.816-.836l-2.835-1.689c.781.061,1.419.496,2.108.928l2.543,1.596Z"/>
  <path class="cls-1" d="M99.133,143.226c-1.149-.133-2.073-1.042-3.146-1.7-.463-.283-1.235-.225-1.348-1.035l4.494,2.735Z"/>
  <path class="cls-1" d="M147.731,31.83c-.715.424-1.03-.433-1.456-.715-.889-.59-1.828-.916-2.303-1.983l1.925,1.324,1.834,1.375Z"/>
  <path class="cls-1" d="M33.216,128.508l-2.106-1.398-1.219-.809c1.356.077,2.402,1.253,3.385,1.855l.399.244c.07.043-.038.295-.113.262l-.347-.154Z"/>
  <path class="cls-1" d="M9.137,73.687c-.511.531-2.175-.859-1.956-1.767.907.492,1.548,1.001,1.956,1.767Z"/>
  <path class="cls-1" d="M19.931,44.939c1.262.515,2.971,1.465,4.053,2.385-1.541-.491-2.868-1.117-4.053-2.385Z"/>
  <path class="cls-1" d="M121.251,150.44l2.499,1.155c-1.363-.028-2.391-.362-3.61-.975.425-.315.822-.314,1.111-.18Z"/>
  <path class="cls-1" d="M97.38,152.464c-.76-.087-1.555-.343-2.2-.576l-.402-.478c-.102-.121.21-.42.42-.544l2.182,1.598Z"/>
  <path class="cls-1" d="M90.088,118.151c-1.277-.469-2.631-1.093-3.325-2.485l3.325,2.485Z"/>
  <path class="cls-1" d="M89.883,96.201l-1.493-.852c-.682-.389-1.538-.767-1.599-1.782l.91.824c.861.466,1.609.915,2.181,1.81Z"/>
  <path class="cls-1" d="M55.964,144.296c-1.234-.373-2.192-.987-3.296-1.659l-1.171-.713c1.186.151,1.952.689,2.853,1.261.534.339,1.091.535,1.614,1.111Z"/>
  <path class="cls-1" d="M64.987,152.92c-1.367.213-2.502.113-3.613-.469,1.389-.321,2.529-.083,3.613.469Z"/>
  <path class="cls-1" d="M67.08,13.181l.526.306c.106.061.02.537-.1.512-.709-.148-2.27-1.178-2.388-1.959l1.961,1.141Z"/>
  <path class="cls-1" d="M134.744,43.432c-1.3-.728-2.499-1.528-3.778-2.594,1.422.527,2.763,1.267,3.778,2.594Z"/>
  <path class="cls-1" d="M96.946,147.672c-1.437-.484-2.515-1.319-3.641-2.417,1.334.622,2.546,1.323,3.641,2.417Z"/>
  <path class="cls-1" d="M64.912,9.07c-.568.702-.998-.042-1.363-.261-.9-.54-1.69-.832-2.34-1.711l3.704,1.972Z"/>
  <path class="cls-1" d="M103.892,111.375c.324.209,1.246.044.931.988l-3.102-1.925.224-.321,1.947,1.258Z"/>
  <path class="cls-1" d="M34.907,146.055c.565.333,1.055.575,1.451,1.001-1.471-.31-2.491-1.154-3.592-2.084.846.099,1.386.638,2.141,1.083Z"/>
  <path class="cls-1" d="M36.193,53.614l.565.822c-.97-.382-1.608-.719-2.451-1.299.823-.612,1.489-.097,1.885.478Z"/>
  <path class="cls-1" d="M76.451,29.051c.897.045,2.466,1.132,3.364,2.037-1.321-.448-2.296-1.062-3.364-2.037Z"/>
  <path class="cls-1" d="M24.378,71.106l1.009.848-.163.193-3.24-2.523c1.087.077,1.638.847,2.394,1.482Z"/>
  <path class="cls-1" d="M135.788,141.491c.675.291,1.319.624,1.62,1.196-1.429-.53-2.545-1.073-3.508-2.011l1.888.815Z"/>
  <path class="cls-1" d="M33.504,34.306c-1.325-.294-2.35-1.117-3.401-2.007,1.284.39,2.371.986,3.401,2.007Z"/>
  <path class="cls-1" d="M10.101,27.438l-1.382.517c-.133-.296-.168-1.14-.063-1.654l1.445,1.137Z"/>
  <path class="cls-1" d="M131.531,121.052l-1.709-.989c-.523-.302-1.054-.84-1.454-1.404l3.129,2.006.355.227c.058.037-.251.2-.321.16Z"/>
  <path class="cls-1" d="M140.155,26.593l-1.779-1.004c-.473-.267-.95-.694-1.399-1.284l1.958,1.011c.388.2.895.8,1.22,1.278Z"/>
  <path class="cls-1" d="M66.56,28.176l-2.517-1.369c-.481-.262-.795-.458-1.215-.919l1.196.521c.934.407,1.878.831,2.536,1.767Z"/>
  <polygon class="cls-1" points="86.47 96.578 84.815 97.511 84.967 95.812 86.47 96.578"/>
  <path class="cls-1" d="M124.845,146.449l-1.843-1.037c-.657-.37-1.575-.527-1.766-1.361l2.425,1.369c.378.214.794.571,1.184,1.03Z"/>
  <path class="cls-1" d="M37.139,151.911c-1.098-.006-2.112.182-3.071-.628l2.057.058c.293.008.821.352,1.014.57Z"/>
  <path class="cls-1" d="M92.894,58.422c-.656.294-1.006-.134-1.515-.446-.447-.273-.906-.328-.867-1.155l2.382,1.601Z"/>
  <path class="cls-1" d="M21.576,121.968c-1.397-.383-2.549-1.113-3.349-2.132,1.328.608,2.32,1.272,3.349,2.132Z"/>
  <path class="cls-1" d="M70.073,58.169c-1.233-.204-2.513-.804-3.53-1.758,1.239.46,2.294.937,3.53,1.758Z"/>
  <path class="cls-1" d="M106.824,131.844l-2.274-1.313c-.059-.034-.275-.238-.236-.289l.171-.226c.058-.076.331.04.418.105l1.995,1.476-.073.248Z"/>
  <polygon class="cls-1" points="92.379 99.569 89.02 97.325 89.212 97.089 92.48 99.255 92.379 99.569"/>
  <path class="cls-1" d="M147.676,84.65l-2.068-1.11c-.169-.091-.433-.623-.5-.844l2.645,1.628-.077.326Z"/>
  <polygon class="cls-1" points="80.358 37.26 77.469 35.356 77.665 35.081 80.309 36.821 80.358 37.26"/>
  <path class="cls-1" d="M59.232,123.81c-.769.321-1.647.021-1.921-.936.724-.006,1.389.32,1.921.936Z"/>
  <path class="cls-1" d="M101.367,148.063l-3.467-2.158c-.25-.308-.082-.358.202-.166,1.191.71,2.396,1.188,3.265,2.324Z"/>
  <path class="cls-1" d="M66.252,8.494c-.615.265-1.324.045-1.785-.401l-1.015-.983,2.801,1.385Z"/>
  <path class="cls-1" d="M131.089,115.333c-1.189-.469-2.211-1.065-3.081-1.853,1.328.256,2.195,1.046,3.081,1.853Z"/>
  <path class="cls-1" d="M153.567,65.424c.254.187.133,1.081.022,1.352l-1.307-1.469c.243-.052,1.032-.069,1.285.117Z"/>
  <path class="cls-1" d="M105.307,106.151l-.319,2.148c-.786-.669-.637-1.623.319-2.148Z"/>
  <path class="cls-1" d="M105.52,100.529c-.826-.245-1.519-.848-2.022-1.482.945.075,1.664.552,2.022,1.482Z"/>
  <path class="cls-1" d="M92.136,121.299c-1.139-.338-2.016-.829-2.986-1.465,1.232.049,2.129.687,2.986,1.465Z"/>
  <path class="cls-1" d="M63.763,18.62c-.617.141-1.258-.183-1.936-.497l-.381-.176c-.075-.035.015-.279.094-.299l.406-.102,1.817,1.074Z"/>
  <path class="cls-1" d="M97.314,44.284c-.975-.356-1.783-.822-2.529-1.633.997.164,1.894.694,2.529,1.633Z"/>
  <path class="cls-1" d="M153.387,103.611c-.566.52-2.53-.237-2.309-.907l2.309.907Z"/>
  <path class="cls-1" d="M25.201,34.146c-1.019-.311-1.882-.821-2.605-1.656,1.152.241,1.879.892,2.605,1.656Z"/>
  <path class="cls-1" d="M90.308,134.54c-1.074-.394-2.119-.976-2.932-1.974,1.068.522,1.923,1.101,2.932,1.974Z"/>
  <polygon class="cls-1" points="132.009 151.923 129.818 152.742 130.94 151.42 132.009 151.923"/>
  <path class="cls-1" d="M60.873,9.646c2.762.719,2.344,1.938,1.716,1.419l-1.716-1.419Z"/>
</svg>