<?xml version="1.0" encoding="UTF-8"?>
<svg id="Layer_1" data-name="Layer 1" xmlns="http://www.w3.org/2000/svg" viewBox="0 0 930.251 300">
  <defs>
    <style>
      .cls-1 {
        fill: #fff;
      }
    </style>
  </defs>
  <g>
    <path class="cls-1" d="M128.921,153.255c-.004-.067-.019-.135-.026-.203-.156-.064-.308-.127-.45-.188l-4.601.822c-.54.096-1.921-.169-2.396-.404-.476-.236-.761-1.588-.575-2.151l1.469-4.44c.321-.971,2.109-2.859,1.706-3.768-.747-1.682-3.684-.653-4.103.74l-1.514,5.039c-.026.001-.061.003-.089.004-.394.851-.796,1.698-1.062,2.586-.032.207-.07.411-.105.618-.001.019,0,.034-.002.053-.142,2.118,1.232,2.958,2.839,3.896,2.301,1.342,4.405,1.972,6.645.21l1.765-.566c.418-.655.548-1.488.498-2.247Z"/>
    <path class="cls-1" d="M111.903,154.268c-.068-.195-.151-.386-.26-.569-.286-.485-.697-.919-1.184-1.219l-2.032,1.783c-1.053.924-3.228,1.524-3.837-.202-.417-1.181-.28-3.983.324-5.061l2.279-4.065,1.893-1.625c.448-.384.055-2.096-.383-2.491-.685-.619-3.278-.513-3.632.304l-1.25,2.88-2.241,3.675c-1.117,1.832-1.083,3.268-.164,5.277.404.883.475,3.297,1.357,3.684l4.767,2.092c1.465-.688,2.824-1.755,4.033-2.892.116-.522.233-1.044.329-1.57Z"/>
    <path class="cls-1" d="M502.602,47.154c-.826-1.852-.985-3.305-3.778-3.429-2.994-.133-6.02,2.186-8.102,5.014l-1.954,2.654-.354.386c-.126.726-.164,1.473.044,2.161.172.571.502,1.023.902,1.417.905-1.087,2.071-2.312,2.794-2.806,2.905,1.96,6.755,1.516,6.861,2.508l.26,2.455.173,2.146c.036.441,1.074.713,2.187.831l.857-5.356c1.803-2.842,1.398-5.097.111-7.982ZM497.85,51.633l-2.272-1.464c-.347-.224-.518-1.491-.203-1.742l1.354-1.077,1.025-.815c.261-.207,2.2,1.763,2.15,2.884-.03.67-1.155,1.503-2.055,2.215Z"/>
    <path class="cls-1" d="M483.085,49.759c-.085-.242-.281-.892-.553-1.387-.613.028-1.232.014-1.844.012-.192.448-.375.932-.578,1.446-.467,1.187-2.112,2.541-3.132,3.573-1.615,1.635-3.343,3.601-6.043,2.318l-3.777-6.031c-5.107.703-5.239,6.074-10.139,5.798-.977-5.736,2.327-6.946,2.864-10.866.081-.591-1.561-1.764-1.941-1.391l-1.367,1.342c-.455.447-.871,1.805-1.046,2.463l-1.412,4.945-.622,2.181c-.151.529,2.544,4.925,6.68,3.702,1.598-.472,3.136-2.294,4.608-3.988l4.266,4.008c2.024,1.206,6.01.997,8.237.365l2.56-2.755,2.693-3.356.596-2.213c-.018-.056-.031-.113-.05-.168Z"/>
    <path class="cls-1" d="M396.578,45.663c-1.001-.042-1.955-.114-2.529-.139l-1.508,3.526-2.182,4.227c-.975,1.889-1.754,3.488-4.269,3.629l-2.285-3.345c-.811-3.619-2.099-7.58-4.198-7.93-1.105-.184-2.171,1.055-2.757,2.21l-2.54,5.01-2.905,2.884,1.287,1.956c.259.394,1.67.936,1.886.54l.853-1.566,2.451-4.894c.65-.747,2.522.568,2.985,1.665l1.716,4.072c1.043,2.477,2.836,3.464,5.794,3.228,1.984-.158,3.433-2.543,4.19-4.684l1.852-5.243c.225-.636,1.297-1.678,2.095-1.957.098-1.053.094-2.12.064-3.19Z"/>
    <path class="cls-1" d="M413.031,44.426c-.409-.859-2.287-2.128-3.139-1.718-3.109,1.497-5.461.824-8.672,2.163.032,1.126.069,2.251.009,3.363l2.846-.35c.65-.08,2.124-1.847,2.557-1.373l1.817,1.983c.435.475-1.126,1.87-1.393,2.461-.841,4.244-1.202,8.141,1.414,8.562.485.078,1.707-.636,1.876-1.126.079-2.826.134-7.185,1.764-9.707.868-1.342,1.503-3.038.921-4.259Z"/>
    <path class="cls-1" d="M177.134,263.494c.23-.562-.646-2.427-1.341-2.967-.695-.54-2.759-.768-3.668-.504l-4.632,1.343c-.557.161-1.405.203-2.31.198-.131.087-.258.178-.378.28-.774.656-.823,1.459-.544,2.237,1.651.031,3.149.013,4.346.888,0,1.833-.385,4.403.583,5.276l2.167,1.954,1.232-1.69c-.61-.742-1.362-2.202-1.027-2.749.868-1.417,3.221-3.287,5.572-4.265Z"/>
    <path class="cls-1" d="M150.012,268.578l-3.402-2.353c-.392-.271-1.079-1.522-.785-1.822,1.494-1.523,3.853-.179,7.054-2.21l5.016.053c.186-.138.366-.282.558-.412.184-.192.356-.394.495-.627.275-.461.285-.902.131-1.303-2.13-.812-4.436-.894-6.916-.59-1.372.168-3.829.134-4.853.73-1.603.932-2.749,1.437-4.463,2.04l-2.72,2.132c-.306,2.456,2.39,3.085,4.049,4.141l6.101,3.884c.094.409.012,1.597-.35,1.764l-1.635.755c-1.585.732-2.934,1.219-4.717,1.517-2.65.442-4.794,1.794-4.798,1.833l-.225,2.172c2.156.345,4.303-.363,6.506-1.165l6.229-2.27c1.312-.478,3.767-2.077,3.04-3.925-.937-1.293-2.943-3.394-4.317-4.345Z"/>
    <path class="cls-1" d="M154.675,101.582c-6.225-1.477-12.48,1.113-13.43-2.204-.647-2.259,4.078-2.336,4.588-3.453.307-.673.514-2.26.502-3.207l-4.688-.104c-1.071,2.077-1.416,3.584-2.205,5.526l-1.508,3.715c-1.01,2.489-.967,5.017-1.389,7.947l-3.22-.778.266-5.483c1.406-1.947,1.685-3.778,2.544-5.739l1.991-4.545,2.052-3.374,7.027.056c.927.007,2.629,1.318,2.961,2.158.405,1.024.146,2.733.055,4.343.594,1.088,3.177,2.263,4.68,2.523,1.617.28,3.666,2.32,3.048,3.743l-1.747,4.017c-2.183,1.595-5.091,3.389-7.544,4.737l-3.529,1.94c-1.309.719-2.462-.138-3.338-2.046,3.657-3.965,10.3-4.124,12.883-9.77Z"/>
    <path class="cls-1" d="M161.891,156.822c3.435.124,6.158-1.04,8.247-3.98-2.048-2.046-4.05-2.369-6.585-2.536l-6.097-.402c-.708,2.64.011,4.13,1.937,6.43-2.505.913-4.475-.951-4.731-3.576-.08-.826-.609-2.325-.902-3.036l1.768-3.374c.834-1.591,1.479-2.743,1.707-4.751.245-2.161,2.678-3.871,4.521-4.18,2.351-.394,5.275.163,6.219,2.812.715,2.005.19,4.847-.049,7.164,2.713,1.443,4.805,3.53,5.892,6.511l-2.981,4.177-4.46,2.118c-1.911.908-5.743.344-7.848-.039l1.072-3.584,1.202.963c.233.187.728-.364,1.087-.718ZM164.607,142.722c-.254-.44-.762-1.709-1.272-1.629l-2.629.416c-1.028.163-1.079,2.927-.161,3.782,1.052.98,2.492,1.178,3.937.301.398-.242,1.1-1.186.887-1.554l-.762-1.317Z"/>
    <path class="cls-1" d="M72.513,237.328l-5.386-2.931c-.574-.312-1.944-.709-2.548-.659l-1.212,6.444-1.166,3.903-1.86-1.962c-1.835-1.935.926-4.747,1.053-6.425l.644-8.516c.143-1.895.49-4.256-.481-5.981-.51-.905-1.228-3.787.185-3.798l9.258-.073c1.896-.015,4.365,2.17,3.374,3.67-3.314,5.019-6.798,6.476-6.167,9.083.188.776,1.115,1.793,1.899,2.644,2.264,2.457,5.552,2.485,9.055,1.499.558-.157,1.983.613,1.746,1.088-1.353,2.72-4.635,4.058-8.394,2.012ZM66.108,225.216l2.807-3.641c.154-.409-.419-2.023-.74-1.756l-1.466,1.221c-.601.501-1.926,1.515-1.717,2.189.186.599,1.066,2.096,1.115,1.987Z"/>
    <path class="cls-1" d="M136.863,61.355l-.502,6.159c-.89-.023-2.408-1.265-2.379-2.244l.27-9.309-8.38.403-1.394,2.059c.293.655.681,1.762.703,2.331l.229,5.907c-5.708,1.969-4.471-8.529-2.318-15.972.858-2.964-.432-6.062,2.994-9.354,5.183,2.225-.256,6.032-.183,10.956l5.668.395,1.523.939c.542.334,2.597-.946,3.144-3.731.39-1.986,1.005-3.336,1.855-5.172.648-1.401.298-3.639,3.07-3.082l-.678,7.639c-.095,1.067-.902,2.372-1.599,3.447l-.997,6.691-1.024,1.939Z"/>
    <path class="cls-1" d="M485.856,176.603l-1.26-1.19c-.18-.17-3.576,6.234-3.616,11.096l-1.435,2.764c-3.847-2.208-2.243-5.523-.887-8.391l2.723-5.761.894-2.029c.195-.442,1.517-.638,1.589-.555.457,1.245,1.162,2.392,1.843,2.391,2.257-.005,3.304-3.479,2.806-3.63l-2.238-.681c-.669-.204-1.713-.592-1.972-1.071s-.137-1.55.125-2.028c.314-.573,2.19-.692,2.81-.384,3.59,1.78,5.688.891,6.871,2.647,1.288,1.912-.795,4.978.069,5.325l1.805.724,2.082,2.573-1.951,2.907-8.808,8.41c-1.316-.625-2.26-2.599-1.879-3.571.598-1.527,1.759-2.152,3.099-3.171l3.491-2.655c-2.299-1.218-4.45-2.101-6.16-3.716Z"/>
    <path class="cls-1" d="M300.358,91.276c-.112-.501-.28-.991-.44-1.483-2.142.498-4.216.958-6.063,2.486-.532,1.007.553,3.19,1.302,4.077,1.316,1.558.169,3.536-1.015,4.624l-2.986,2.745c.108,1.134,3.17,1.935,3.952,1.213l2.589-2.391.349-7.955c.208-.234,1.806-1.433,2.647-1.659-.09-.559-.214-1.114-.335-1.657Z"/>
    <path class="cls-1" d="M326.858,88.219c-5.697.644-12.074.638-18.036.29-.284.523-.488,1.085-.545,1.702-.064.684.073,1.346.34,1.957,2.483-.201,4.559.043,6.866.887l-1.606,7.426c-.133.617-1.069,2.058-.783,2.529l2.593,4.267c.805-1.476.753-2.543.913-3.98l.672-6.055c.129-1.163.83-2.69,1.45-3.757.47-.81,2.705-.722,3.611-1.077l4.694-1.838c.416-.163,1.084-.729,1.331-1.067.246-.336-1.031-1.335-1.499-1.282Z"/>
    <path class="cls-1" d="M214.817,232.358c-.45-.038-1.904-.016-2.269-.275l-3.417-2.427,2.265-3.142c.409-1.029.528-2.115-.11-3.101-.195-.302-.462-.522-.762-.689-.141.047-.286.079-.424.135-.684.278-1.327.658-1.91,1.11-.264.205-.521.429-.763.669-.48.876-.86,1.812-1.513,2.569-.024.027-.14.026-.251.021l.695,2.604c1.11,4.158,6.386,6.07,8.664,4.474.396-.277.251-1.908-.205-1.946Z"/>
    <path class="cls-1" d="M200.884,228.351c.008-.072.005-.142.01-.213-.086-.759-.33-1.449-.857-1.82-.033-.002-.062-.002-.096-.005l-3.49,3.195c-4.303-2.163-7.054-8.257-10.062-5.498l-2.459,2.254c-.444,2.363-1.527,3.359-3.899,4.302-.764.304-.482,2.427.172,2.9.646.467,2.533.792,2.727.15.5-1.523,1.571-3.056,2.422-4.045l1.652-1.919c.393-.457,2.219-.405,2.627.078l2.188,2.589c.544,1.447,1.647,4.477,4.086,3.432.742-.318,2.657-1.297,3.272-1.873l1.255-1.176c.029-.798.362-1.558.451-2.351Z"/>
    <path class="cls-1" d="M338.627,61.014l-2.262-2.684c.389-2.815.155-4.944-1.27-7.212l-5.104,4.907c-1.469,1.412-3.925,1.342-6.018.704-3.589-1.095-1.344-7.353-3.104-6.603l-1.764.752-4.959,7.427c-.41.615-1.473,1.1-2.324.946-.746-.135-1.018-2.142-.502-2.81l6.089-7.885,3.557-4.155c.361-.421,2.181-.374,2.705-.191.629.22,1.302,1.424,1.312,2.094l.095,6.859,4.766-1.08c.454-.905.866-1.233,1.491-1.803l3.726-3.398c.76-.693,2.672-.886,4.002-.337l.48,8.634c.083,1.491.077,3.018.748,3.994l-1.664,1.843Z"/>
    <path class="cls-1" d="M110.235,270.76l-6.475-.442-4.137-1.931c-.744-.404-2.018-1.909-2.564-2.721,2.27-1.85,4.089-3.466,5.085-5.951.39-.973-.958-3.286-1.943-3.452-1.458-.246-5.739,1.48-7.045,2.729-4.549,4.348-11.106,10.912-8.024,15.065.365.491,1.469,1.013,2.028,1.114,3.095.559-.007-4.67,1.848-7.248l2.288-3.182c5.854,9.925,20.107,10.605,20.373,7.836.056-.579-.832-1.775-1.435-1.816ZM94.974,262.006c.056,0-.434.01-.443-.011-.243-.559-.102-1.248.355-1.655.069-.006.138-.009.207-.008.079,0,.158-.002.237-.003.357-.004.714-.004,1.071-.004.357,0,.714,0,1.071.004.104,0,.209.002.313.005.044,0,.087.002.13.006-.015.014-.023.033-.038.047.101,0,.203,0,.304.001-.065,0,.44-.004.443.011.165.751-.459,1.291-1.064,1.596-.069.006-.138.009-.207.008-.079.001-.158.002-.237.003-.357.004-.714.004-1.071.004-.357,0-.714,0-1.071-.004Z"/>
    <path class="cls-1" d="M300.233,224.061l-5.978,1.815c-2.67.811-5.007,1.828-8.034,1.142-.32,2.737.068,4.945,1.525,7.601-.232.522-2.912.781-3.106.056l-1.419-5.314c-.68-2.546-1.002-3.873.357-6.18,1.26-2.138,1.137-5.386,1.003-8.025l3.425-2.34,4.146-1.861c2.445-1.098,6.285-.505,9.036-.446l2.115,2.47-4.669.224-7.778,2.046-3.823,2.076-.209,5.514c3.066.27,6.04.156,8.78-.592l3.904-1.066c2.138-.583,3.884-.742,5.936-.452-1.885,1.987-3.134,2.702-5.209,3.332Z"/>
    <path class="cls-1" d="M724.724,162.738l-3.17,1.749c-1.517.837-2.322,3.006-3.619,4.358l-4,4.168-4.091,5.037c2.874,1.804,6.048,1.131,7.699-1.705,1.126-1.934,4.521-3.441,6.407-1.194.794.946-.552,3.384-.827,4.386l-1.104,4.018c6.6.357,2.43-3.988,6.016-11.348,1.604-3.292-.063-7.736-3.311-9.47ZM724.108,170.739c-.002.01-.006.02-.007.03-.003.019-.398.01-.443.011-.357.004-.714.004-1.071.004-.357,0-.714,0-1.071-.004.07,0-.444-.008-.443-.011.081-.496.248-.979.443-1.441.193-.456.418-.906.709-1.308.069-.006.138-.009.207-.008.079,0,.158-.002.237-.003.357-.004.714-.004,1.071-.004.116,0,1.51-.025,1.514.015.091.901.219,1.799.266,2.704,0,.003-1.064.012-1.411.015Z"/>
    <path class="cls-1" d="M90.019,91.245c-.509-.937-.789-1.565-1.268-1.894-.48-.33-2.414-.089-2.899.313l-5.022,4.162c-1.422,1.179-1.938,3.643-4.605,2.811-1.639,5.024-5.726,8.07-4.839,11.184.65.094,2.323.174,2.321.101l1.747-3.837c1.177-2.585,2.896-2.811,5.537-3.48,1.746-.442,3.944-1.102,5.139-.452-.064,3.661.033,5.946.548,9.011l2.369.944.368-13.587c1.583-1.482,1.501-3.557.604-5.277ZM86.297,95.576c-.041.047-.371.01-.444.011-.027,0-.054,0-.08,0-.167.128-.326.264-.496.388-.069.006-.138.009-.207.008-.079.001-.158.002-.237.003-.357.004-.714.004-1.071.004-.357,0-.714,0-1.071-.004.021,0-.41-.035-.443-.011,1.146-.839,2.217-1.773,3.325-2.66.069-.006.138-.009.207-.008.079-.001.158-.002.237-.003.357-.004.714-.004,1.071-.004.357,0,.714,0,1.071.004-.037,0,.13.007.27.011h.173c-.57.946-1.601,1.437-2.305,2.261Z"/>
    <path class="cls-1" d="M811.436,86.583c-.914-.861-7.111-.555-10.347,1.345l-2.394,3.098c-.582.753-1.057,1.362-1.491,1.675s-1.642-1.266-1.378-1.763l2.54-4.77c1.207-2.268,1.895-3.209,3.793-5.004,3.548-3.354,5.558-8.202,11.367-5.179l.83,3.355,3.155,4.109c-2.913,2.75-.47,6.801-2.389,7.478-2.065.728-1.854-2.621-3.684-4.343ZM808.711,82.103l2.512-.196c.416-.032.544-1.6.195-1.828l-1.538-1.005c-.25-.322-.77-1.094-.997-.832l-.903,1.041-1.342,1.691c-.317.4,1.5,1.173,2.073,1.129Z"/>
    <path class="cls-1" d="M264.547,58.52c-2.007,3.582-8.051,4.164-10.914,2.341l-3.1-1.974-.726-3.637c-1.802-1.929-.762-3.673.118-5.514,1.2-2.51,2.08-4.491,4.384-6.377,1.746-1.429,5.176-1.933,6.522-.016,1.702,2.425,3.748,4.537,5.859,6.618.304,1.072.553,3.749-.012,4.758l-2.13,3.801ZM263.697,53.002c.069-.796-.932-2.205-1.656-2.673l-2.776-1.795c-.665-.43-1.853-1.339-2.611-1.433-1.834-.229-6.851,8.24-1.728,11.73,3.136,2.136,8.556-3.356,8.771-5.829Z"/>
    <path class="cls-1" d="M226.557,150.853l-1.522-2.98c-2.75,2.379-5.647.513-7.211,2.607-1.787,2.392-.616,5.632-2.441,5.233-1.479-.323-2.662-1.652-2.917-2.687-.123-.5.717-1.333,1.088-1.835l2.235-3.033,2.716-3.669c1.475-1.993,3.046-2.247,5.386-5.396.87-1.171,4.495-.873,5.309.306,1.214,1.758,2.203,3.343,4.007,3.559l2.113.253c.449.054.578,1.927.135,2.018l-2.085.428c-1.235.254-3.359,1.992-3.645,3.24l-1.442,6.291-2.788.259c-.755-1.238-.971-3.03,1.062-4.592ZM225.607,144.918c.635.144,1.843-.947,1.902-1.577s-.593-2.184-1.185-1.972l-2.21.792c-.53.19-1.363,2.109-.801,2.237l2.294.52Z"/>
    <path class="cls-1" d="M239.578,56.054c-1.661,2.879-4.652,4.977-6.989,7.354-1.567.378-3.698-.034-5.43-.863l1.533-3.321c.742-6.366-.387-17.217,4-16.725,1.077,1.123,3.188,1.785,4.651,2.35l4.43,1.713c.608,1.229.676,4.517-.057,5.788l-2.137,3.704ZM236.281,55.122l2.09-3.565c.55-.938.826-1.32.558-1.767-.273-.455-.912-1.671-1.245-1.412l-1.751,1.36c-2.867,2.226-4.232,2.238-5.188,8.621,2.586.873,4.287-1.107,5.536-3.237Z"/>
    <path class="cls-1" d="M522.267,237.203c-1.188.417-2.94-.988-3.367-2.17-.566-1.567.008-3.224,1.124-4.595-1.147-2.301-2.356-5.946-.432-8.299,1.39.605,4.068,1.041,4.629-.195.83-1.827,1.375-2.896,2.695-3.925l2.869-2.238c.708-.552,3.346.301,3.529,1.196.295,1.449.397,4.608-.199,5.888l-5.357,7.821-4.668,2.076-.822,4.439ZM528.297,224.632c.488-.919.497-2.447-.139-2.522-1.924-.227-4.194,2.612-2.735,4.202.519.566,2.397-.782,2.873-1.68Z"/>
    <path class="cls-1" d="M266.485,187.095c-2.239,1.849-6.428,3.341-7.988,3.148-1.065-.132-2.843-1.588-3.213-2.826-1.634-5.467,4.14-12.015,9.738-15.346,1.584-.942,9.523,3.287,9.807,6.343.075.801-.859,2.499-1.518,3.043l-6.826,5.637ZM264.477,184.526l6.56-5.206-1.376-3.075-5.026.163c-1.372,1.84-2.489,2.893-4.03,4.285l-2.082,3.061c-.317.466-1.312,1.854-.813,2.091,2.233,1.06,4.519.467,6.769-1.318Z"/>
    <path class="cls-1" d="M425.884,148.31c3.827-3.463,1.928-10.089.415-10.5-2.897-.788-4.22,3.411-10.509.949-.647,2.966-1.229,6.286-1.171,9.361l.036,1.903c.008.421-1.461.795-1.668.429l-.845-1.494c-1.561-2.758-1.296-5.475.223-8.101l1.032-5.25,2.286-3.804,2.094-2.433c.672.935,1.689,2.041,1.399,2.539l-1.641,2.814c2.324.57,4.984.74,7.623.73l.911-3.781c2.643,2.155,3.446,4.1,4.46,6.648,1.524,3.83,1.81,6.14-.703,10.055-.303.472-1.033,1.758-1.534,1.64-.601-.143-1.484-.888-2.409-1.705Z"/>
    <path class="cls-1" d="M332.642,222.859c-.425-4.096-.083-8.787-1.452-6.938l-.903,1.22c-2.84,3.834-1.547,5.212-3.056,7.814.665.843,1.679,3.295.998,4.493-.477.761-3.205.362-3.711-.401-1.666-2.512-.007-6.129,1.53-9.23l1.638-3.305c1.337-2.698,2.96-5.303,5.45-6.779l3.304,2.061c.686,2.414.936,5.669-.754,8.003l1.851,3.331c4.468,2.459,8.764-.086,10.012,4.673-5.508,2.07-11.34-.6-14.907-4.941Z"/>
    <path class="cls-1" d="M52.474,277.542l3.98,1.381-.876,1.905c-.468,1.018-1.765,1.771-2.773,1.709-1.508-.093-2.224-.803-3.068-2.209-1.826-3.044.155-4.959-1.508-6.537l-1.425-1.353c-1.338-1.27,4.67-1.266,4.353-5.971l-.319-4.745c1.097-2.194,3.767-2.949,5.98-2.81,1.933-1.804,4.134-1.942,6.038-.251l1.35,1.177c.384.335-.756,1.28-1.261,1.447l-4.689,1.553c-3.378,1.118-5.115,2.769-4.879,6.948l3.273.398c1.014.123,2.295.509,2.756,1.881-1.846,3.336-7.351.347-6.933,5.476Z"/>
    <path class="cls-1" d="M105.606,72.259c-2.118,1.203-2.425-5.9-.317-11.664l2.131-5.826c.66-1.803,2.647-5.65-.333-6.642-5.826-1.941-14.347,1.47-14.458-3.503,4.402-.879,8.158.606,11.304-.762.851.257,2.471.654,3.56.741l6.494.52c-.08,3.301-.814,5.097-2.168,7.783-.519,1.028-.934,3.188-1.437,4.337-.891,2.035-1.602,3.613-1.633,6.055-1.661,1.922-2.46,4.312-1.82,7.2-.359.738-.846,1.491-1.322,1.761Z"/>
    <path class="cls-1" d="M657.703,179.743l3.68-2.778-2.331-2.296c-3.189-3.141.722-5.784-4.032-6.564-1.371-.225-2.271.669-3.046,1.591l-4.112,4.897c-2.447,1.037-4.019,3.072-3.941,5.953-1.991.892-2.73,2.625-1.746,4.806.44.032,1.621-.079,1.75-.487l.48-1.522c1.265-4.013,6.596-5.59,9.76-3.096l1.819,7.089,2.689-2.35c-1.246-.961-2.038-4.252-.971-5.243ZM653.601,175.764c-.113,0-1.514-.013-1.514-.015.002-.035-.004-.071-.003-.106-.243.001-.486.003-.729.003-.357,0-.714,0-1.071-.004.057,0-.434-.023-.444-.011.585-.818,1.17-1.637,1.714-2.483.069-.006.138-.009.207-.008.079-.001.158-.002.237-.003.357-.004.714-.004,1.071-.004s.714,0,1.071.004c-.057,0,.435-.01.444.011.17.413.302.842.399,1.278.096.432.164.879.133,1.323-.003.037-1.402.015-1.514.015Z"/>
    <path class="cls-1" d="M492.083,86.432c-.299-.709-1.838-1.858-2.574-1.842-3.006.064-6.875,4.864-9.901,5.605-.767,1.927-2.351,3.685-3.602,5.6l-2.574,3.938c-.313.479,1.423,1.906,1.85,1.515l1.563-1.431c1.693-1.549,2.665-3.015,3.725-5.435l7.301-.029.375,6.493,1.935,1.961,1.973-2.091-.28-5.813c-.137-2.84,1.306-5.875.21-8.471ZM487.381,91.069c-.069.006-.138.009-.207.008-.079.001-.158.002-.237.003-.357.004-.714.004-1.071.004-.357,0-.714,0-1.071-.004.053,0-.432-.025-.443-.011.018-.024.032-.05.051-.074-.302,0-.605,0-.908-.004-.104,0-.209-.002-.313-.005-.044,0-.087-.002-.13-.006.794-.586,1.659-1.069,2.453-1.655.069-.006.138-.009.207-.008.079,0,.158-.002.237-.003.357-.004.714-.004,1.071-.004.357,0,.714,0,1.071.004-.032,0,.105.006.236.011h.207c-.398.572-.722,1.194-1.153,1.744Z"/>
    <path class="cls-1" d="M356.844,103.662c-4.892,2.49-12.195-.868-12.651-4.34-.256-1.951,2.211-2.652,4.748-5.617l1.441-1.684c.428-.5-.049-2.398-.421-2.935-5.536,3.36-8.6,8.372-9.804,14.504-.587.177-2.134-.85-2.22-1.529-.354-2.784.823-4.692,2.163-6.751l2.433-3.739c.817-1.255,3.128-3.312,4.419-4.131l3.342-2.121,3.36,1.987c-.122,2.393.054,5.347-1.407,7.182l-2.077,2.609-1.21,1.438c-.524.623,2.84,3.223,4.013,3.051.726-.106,1.811-.684,3.175-1.275.368.407.828,2.425.695,3.351Z"/>
    <path class="cls-1" d="M430.814,89.348c-1.818.663-1.761,2.221-2.658,3.299l-2.326,2.794c-.362.435-.891,1.755-.875,2.293.019.646.856,1.376,1.631,2.238.666.741-.759,2.523-1.974,3.183l-3.345-1.729c-1.676-.866-.162-3.899.608-5.034l2.183-3.22,4.498-5.606c.756-.942,1.46-2.111,2.24-2.442,1.01-.43,3.348-.219,3.931.564.886,1.189-.139,2.828-.486,3.895l-1.498,4.606c3.406,6.807,10.063,1.747,12.528,5.987-4.9,4.856-15.087.192-14.845-4.039l.388-6.787Z"/>
    <path class="cls-1" d="M168.896,188.179l-6.295.412-3.565,2.253c-.404.922-2.385,2.504-3.122,1.49-1.035-1.426.681-3.594,1.903-4.374,1.9-3.034,4.077-5.497,6.905-7.41,1.674-2.999,4.881-4.544,8.248-2.678.054,3.252.652,7.366-.322,10.393l-1.716,5.336c-.191.593-.828,1.491-1.355,1.565s-1.437-1.158-1.361-1.739l.681-5.246ZM170.619,182.6c.332-.68-1.971-1.527-2.766-1.202-.963.394-1.38,1.568-1.389,2.667-.008,1.015,1.649,1.899,2.095,1.3l2.059-2.765Z"/>
    <path class="cls-1" d="M724.883,49.989c-1.3.78-3.822-.429-4.745-1.573-2.857-3.541.414-13.062,5.378-13.728,1.98-3.122,6.063-4.703,9.311-2.68,1.836,1.144,2.525,3.289,1.033,5.053l-6.737,7.964-4.239,4.963ZM725.854,44.284l2.425-2.425c.963-.963,1.875-2.729,2.636-3.949l1.561-1.64c.285-.3-.765-1.207-1.188-1.187l-3.475.169-.6,1.355-4.173,4.876c-.717.837-1.585,2.951-1.199,3.853,1.304,1.278,3.076-.117,4.013-1.054Z"/>
    <path class="cls-1" d="M417.324,230.999l-.315,9.509c-.016.478.399,1.734.019,1.881l-1.544.599c-.474.184-1.299-1.429-1.285-1.991l.365-14.445c-.96-.035-2.159.432-2.91.888l-4.063-1.65c-3.584-1.455-3.419-6.758-1.14-9.139.74-.773,1.638-1.697,2.365-1.767.78-.075,2.271,1.662,1.677,2.179-.485.423-1.32,1.192-1.474,1.557l-1.814,4.289c1.779.847,5.271,1.483,7.217.325,2.516-1.497,2.725-4.579,3.501-7.303.249-.876,2.909-.337,3.168.542.366,1.243-.218,2.299-1.102,3.573-1.222,1.761-.74,5.34-1.518,7.393-.411,1.086-1.106,2.303-1.147,3.558Z"/>
    <path class="cls-1" d="M470.117,140.4c-1.412-.455-5.491,6.33-4.733,12.685.067.56-.521,1.749-.856,2.026-1.822,1.509-2.435-3.776.1-11.156l1.94-5.648c.345-1.003,2.693-1.622,3.747-1.48.963.13,2.464,1.105,3.15,2.148l2.137,3.254c.332.505.948,1.285,1.425,1.31,1.252.065.803-1.715,2.962-4.721,3.254-4.532,7.047-8.109,7.329-4.901.04.454-.209,1.297-.595,1.657-2.721,2.537-6.071,7.723-6.644,11.122l-1.743,3.312c-2.189-1.075-4.339-3.246-4.8-5.437l-1.372-2.34c-.39-.664-1.265-1.579-2.049-1.832Z"/>
    <path class="cls-1" d="M654.055,44.425l-4.072.129-2.788,5.197c-1.513.307-2.546-2.265-2.027-3.984l.887-2.941c2.508-1.982,4.457-4.064,5.952-6.868l2.305-.94c.304-1.076,3.411-1.689,3.654-.536l1.29,6.099c.758.514,1.813,1.659,1.707,2.344-.139.899-.971,1.435-2.636,1.929l.159,5.598c-.16.382-1.618.468-1.825.044l-1.07-2.194-1.536-3.875Z"/>
    <path class="cls-1" d="M803.592,38.81c-.971.475-2.206-.139-2.776-1.301-.383-.781-.185-1.822.484-2.964l2.39-4.082c.863-1.474,1.232-2.273,3.048-2.203,1.613.062,1.826,1.277,2.137,2.999l2.101,4.245,3.525.191,2.19-3.473,1.934-3.372,2.188-3.193,2.648-3.207c.448-.542,1.394-1.105,1.913-1.37s2.355.923,2.041,1.43c-1.359,2.196-2.99,4.578-4.594,6.249-1.053,1.097-1.558,1.854-2.262,3.17l-2.249,4.2-1.871,3.274c-3.687,1.388-7.093-.784-8.577-4.153l-1.744-1.533c-.449-.395-2.147-.777-2.186-.163l-.337,5.257Z"/>
    <path class="cls-1" d="M753.689,92.695c-6.326-.806-1.003-6.864-6.8-6.233l-5.812.633c-2.354.256-3.789,3.278-3.822,5.469-1.47-.154-2.667-1.087-2.624-2.459.074-2.355,5.699-8.931,9.002-11.273l2.569-1.821c.491-.348,1.735-.758,2.292-.724,1.33.083,4.272,2.796,4.17,7.319-.064,2.819,1.891,4.218,1.025,9.089ZM749.515,84.556c.75-2.128-.827-4.438-2.926-4.382-.674.018-1.955.675-2.405,1.073s-.198,2.283.381,2.39l4.951.918Z"/>
    <path class="cls-1" d="M351.082,148.21c-1.62-.925-4.438-5.147-2.11-9.33.856-1.538,2.562-4.834,4.818-3.288,1.788,1.225-.645,3.543-1.681,4.582-.965.967-.96,3.337-.582,4.313.403,1.042,2.432,2.338,3.683,1.891l4.306-3.924c1.26,1.24,3.313,1.943,4.748,1.367,1.052-.422,2.587-1.66,3.328-2.806l4.426-6.851c.72.494,1.691,2.221,1.378,2.84l-1.541,3.046c-1.209,2.391-2.003,5.944-5.27,6.867-1.995.564-5.206-.064-7.286-.085-1.243,1.255-3.434,3.035-4.797,3.329l-3.419-1.952Z"/>
    <path class="cls-1" d="M604.945,97.922c-3.447-1.758-3.29-5.244-1.678-7.459,1.922-2.642,3.891-4.534,6.563-6.241,2.985-1.908,5.753-1.496,8.491,1.115,1.836,2.022,1.018,5.543-1.472,6.744-1.032,2.265-2.332,3.455-4.52,4.675-1.77,1.117-5.492,2.131-7.384,1.166ZM609.702,94.245c3.451-1.398,6.036-3.483,5.555-6.727-1.527-.335-5.013-.345-6.002.895l-2.614,3.281-1.755,2.202c1.083.591,2.065,1.465,2.607,1.245l2.21-.895Z"/>
    <path class="cls-1" d="M576.981,181.417c3.442,2.458,5.347-2.004,7.933-1.814.527.039.181,1.865-.249,2.228l-5.705,4.814c-.688.581-1.986,1.148-2.677,1.14-.789-.009-1.922-1.511-2.109-2.426-1.169-5.725,3.278-8.769,2.674-13.901,1.358-1.339,3.404-3.68,4.871-4.341l3.857-1.618,2.386,1.632c-1.093.97-2.045,1.69-3.151,2.366l-4.055,2.478,3.072,2.752c.383.235,1.535.616,1.463,1.044l-.383,2.271c-2.187-.759-4.157-1.298-5.764-1.05l-2.161,4.425Z"/>
    <path class="cls-1" d="M520.347,98.846c-2.028-1.643-.742-10.268,2.004-13.678,4.045.225,4.962-4.184,7.411-3.797.723.114,2.019,1.178,2.362,1.828,1.66,3.141-.451,5.969-1.392,8.619-.767,2.159-1.235,3.478-2.44,5.201-1.701,2.433-4.572,4.56-7.946,1.826ZM528.828,87.014c-1.495-.141-2.708-.008-3.594.651-.671.5-1.068,1.974-1.553,3.224-.498,1.282-2.972,3.136-1.359,4.944,1.882,2.109,6.153-2.562,6.506-8.819Z"/>
    <path class="cls-1" d="M99.699,109.926l-4.197-1.989c-.182-1.074-.41-3.897.089-4.998l2.019-4.455,1.959-3.976c1.484-3.011,9.314.478,9.866,5.036l-1.956,4.166c-.599,1.276-2.881,3.211-4.138,3.982l-3.642,2.234ZM104.327,102.023c.578-.403,1.658-1.212,1.43-1.683-.771-1.59-2.812-.18-4.565-1.741-1.508,2.42-3.346,4.879-1.529,7.45l4.664-4.025Z"/>
    <path class="cls-1" d="M600.646,186.174c-2.428-1.153-4.966-4.391-4.715-4.993l1.038-2.491c.935-2.243,1.115-4.258,2.688-5.943l1.926-2.062c.464-.497,1.384-.231,2.111.169l1.933-3.553,3.709,5.382c.93,1.35,1.866,2.995,1.742,4.606-.106,1.369-1.309,3.133-2.679,3.997l-7.752,4.888ZM599.898,178.723c-.448.632-.339,2.821.376,2.946,1.624.284,6.126-2.315,6.509-4.464.313-1.756-.778-3.483-2.148-5.076l-2.085,2.853-2.651,3.74Z"/>
    <path class="cls-1" d="M840.551,131.354c-1.49,3.103,2.47,4.273.864,8.145l-3.653-2.642-.11-9.362,1.583-1.737c.533-3.942,2.113-5.984,5.449-7.5,3.641-1.654,7.982-2.961,8.651-.751.449,1.482-2.564,2.853-5.935,3.283l-2.687,2.365,2.132,1.225,1.59.913c.457.262-.641,1.711-1.139,2l-3.907,2.267-2.838,1.795Z"/>
    <path class="cls-1" d="M212.508,182.939l2.674,2.305c1.311,1.13,6.327-4.741,4.184-7.918-1.134-.474-3.782-.635-4.637-.407l-1.324,1.601c-.338.409-1.981.118-2.174-.229-.009-1.48.358-3.329,1.239-3.939,2.724-1.887,6.315-2.638,8.64.397l2.642,3.45c-1.829,1.415-1.134,3.762-2.18,5.153l-4.771,6.348c-2.093,2.475-5.215,2.795-7.789,1.05-.552-3.404.192-5.754,3.495-7.81Z"/>
    <path class="cls-1" d="M299.989,140.485c-1.167.827-2.995,3.73-3.216,6.482l-.111,1.388c-.03.373-1.227.411-1.828.385-1.576-2.263-.46-5.133,1.234-7.179l3.153-3.808c.765-.924,2.625-1.927,3.752-1.685,1.243.267,2.005,2.02,2.178,3.409.424,3.405,2.347,5.804,4.36,5.589,2.208-.236,1.16-2.115,3.302-4.353l5.229-5.462,1.357,1.251c.258.238-.447.845-.666,1.133-.746,1.846-1.181,2.793-2.236,4.369-1.473,2.2-2.665,6.88-6.177,7.02-4.095.163-7.203-4.654-7.461-8.294-.605-.289-2.363-.603-2.869-.244Z"/>
    <path class="cls-1" d="M668.344,221.964c-.796-1.368.671-3.871,1.459-5.103l2.767-4.322c.695-1.086,2.302-2.74,3.601-3,2.769,2.807-.028,6.758,4.116,8.983.509-.366,1.275-1.479,1.576-2.088l2.157-4.354,2.488-3.751c.228-.344,1.314-.712,1.727-.7.516.015,1.764.866,1.474,1.289l-1.278,1.862-3.242,5.872c-2.507,4.54-1.445,6.747-3.537,7.401-2.231.698-6.112-3.975-6.934-7.997l-1.479-.499c.138.047-2.646,3.534-2.787,6.505.595.286-1.864.323-2.11-.098Z"/>
    <path class="cls-1" d="M208.485,150.876l-3.951,1.826c-1.711.791-5.552.569-7.529.058-3.757-.971-2.287-8.197,2.046-13.016,1.741-1.936,4.368-2.531,6.871-1.01.202,1.351.37,4.051-.29,5.147l-1.814,3.012c-.199.33-.017,1.713.332,1.864,1.873.81,2.96-.074,3.273.425l1.061,1.693ZM197.874,146.861c.693.536,3.167-.02,3.73-.953.475-.786.324-2.555,0-3.296-2.078.602-3.9,2.007-3.731,4.249Z"/>
    <path class="cls-1" d="M505.06,96.597l-1.515-5.057c-.132-.442-1.109-1.317-1.491-1.184-.479.168-1.015.863-1.429,1.524-3.644,5.821-1.409,11.615-4.821,7.972l-1.471-1.571c-.351-.375.061-2.05.34-2.487l3.672-5.768c1.222-1.919,4.28-5.013,6.328-2.829.553,1.54,1.38,4.68,2.268,5.947,1.355,1.932,3.707-5.022,8.823-6.884,1.191,2.326-.561,3.766-2.098,5.263-2.837,2.763-2.413,6.651-5.234,8.142-1.223-.138-3.028-1.93-3.369-3.07Z"/>
    <path class="cls-1" d="M374.765,94.455c-.358-1.066-.722-2.928-1.262-3.768-.461-.717-2.624-1.083-3.328-.687l-3.749,2.529c-1.231,2.247-2.499,4.538-4.991,5.74l-.976,3.804c2.584,1.035,4.329.378,6.072-1.475l5.222-.866c.017,2.78.052,4.114,2.044,4.965l.747-3.154c1.302-2.508,1.117-4.423.222-7.089ZM371.883,94.788c-.054.143-.14.268-.235.387-.141.423-.308.838-.499,1.244-.016.035-.388.01-.443.011-.092.001-.185,0-.277.001-.237.257-.476.513-.742.742-.069.006-.138.009-.207.008-.079.001-.158.002-.237.003-.357.004-.714.004-1.071.004-.357,0-.714,0-1.071-.004.038,0-.135-.007-.277-.011h-.166c.51-.876,1.147-1.697,1.374-2.704.005-.022.396-.01.443-.011.112-.001.224,0,.336-.001.049-.189.112-.372.151-.564.004-.021.397-.01.443-.011.357-.004.714-.004,1.071-.004.113,0,1.514-.002,1.514.015,0,.298-.002.613-.109.897Z"/>
    <path class="cls-1" d="M401.288,100.453l-.111-4.597c-.041-1.684-.348-4.016,1.943-4.782l5.927-1.982c1.07-.358,3.451.661,4.18,1.931,1.469,2.559,1.41,7.221-.227,9.558-1.656,2.364-3.603,3.069-5.805,3.219-2.468.169-4.656-.872-5.907-3.347ZM409.853,98.851c1.54-2.192,1.959-3.767,1.56-5.881-3.28-.916-4.121,1.604-7.133,2.106.649.647.959,2.252,1.043,3.987.672.813,3.838.774,4.53-.212Z"/>
    <path class="cls-1" d="M533.609,136.392c-1.544-.23-2.04-1.108-2.748-2.503-.797-1.572-2.755-3.995-4.566-3.789-2.342.266-3.087,3.412-4.268,4.662-1.336,1.414-1.517,2.079-2.224,3.955-.498,1.322-1.7,3.829-.391,4.965.475.412,2.49.319,2.661-.246l.648-2.132c.669-2.201,5.542-2.305,6.212-.061l.79,2.647c.113.378,1.427.424,1.452.335-.067-1.965.374-3.951,1.681-4.145,1.369-.203,2.429-.676,2.65-1.638.182-.794-.946-1.909-1.897-2.05ZM528.731,137.099c-.357.004-.714.004-1.071.004-.357,0-.714,0-1.071-.004.062,0-.439.006-.444-.011-.001-.005-.002-.011-.003-.016-.105,0-.21.001-.315.001-.357,0-.714,0-1.071-.004.068,0-.442-.014-.444-.011.225-.629.713-1.119,1.094-1.655.069-.006.138-.009.207-.008l.237-.003c.057,0,.113,0,.17,0,.022-.294.054-.588.096-.875.003-.018.398-.01.443-.011.357-.004.714-.004,1.071-.004.357,0,.714,0,1.071.004-.07,0,.444.007.444.011-.124.844-.21,1.739.03,2.571-.003-.009-.398.01-.443.011Z"/>
    <path class="cls-1" d="M543.54,226.335l.309,5.992c.029.564-.336,1.749-.759,2.093-.51.415-2.218-.833-2.185-1.564l.368-8.134c.096-2.125.854-3.964,1.771-5.778l.682-1.35c.148-.293,1.363-.177,1.583-.032l.825,4.977c.177,1.069,3.287,1.735,3.778,1.062l.3-8.425c.016-.462.838-1.567,1.296-1.507s1.191,1.021,1.195,1.51l.041,5.036c.605,1.534,1.154,2.682,1.119,4.373l-.117,5.655c-.007.315-1.37.858-1.526.584l-.94-1.651c-.41-.72-5.263-3.206-7.739-2.841Z"/>
    <path class="cls-1" d="M190.106,184.776c-.857-1.295-4.246-.711-5.361.267-3.105,2.724.242,7.969-1.846,8.109-.903.06-2.509-.74-2.989-1.426-1.919-2.743.794-5.882,4.003-8.58,1.92-1.614,5.536-1.655,7.682-.778l1.704,4.427c3.614-3.306,4.426-8.053,8.946-10.38,2.4,1.938.413,3.648-.557,4.974l-3.659,5.004c-2.88,3.939-1.197,6.466-4.213,6.722-3.036.258-.739-3.847-3.71-8.338Z"/>
    <path class="cls-1" d="M417.683,181.076l-.802-1.337c-.177-.295.438-1.004.68-1.313l2.626-3.358,2.064-2.12-6.15-.028c.639-3.329,3.177-3.707,5.591-4.494,3.691-1.203,8.076-2.371,9.281-.06.968,1.855-2.834,5.598-5.441,7.307-2.855,1.872-4.432,3.711-2.823,7.602-.495.122-2.286.294-3.046.223-.793-.074-1.372-1.405-1.982-2.422Z"/>
    <path class="cls-1" d="M145.371,228.792c1.353-1.775,2.32-2.643,1.87-4.697l-4.095,1.739-1.23,3.235c-2.733,2.707,1.436,4.023.22,6.849-.472.705-2.553-.617-3.07-1.334-1.966-2.724-.615-5.599.809-8.111,2.389-4.214,7.069-6.728,10.587-3.985,2.665,6.394-2.323,7.144-3.531,10.691,3.006.886,4.506,1.752,6.149,3.397l-3.354.956-4.476-2.044-2.101-3.784,2.221-2.914Z"/>
    <path class="cls-1" d="M250.056,151.722c-.765-6.167,2.113-7.46,2.481-10.39-6.484-.964-9.841,3.942-12.068,4.46-.722.168-2.615-1.027-2.503-1.757.441-2.112,3.064-2.578,4.414-3.224l4.719-2.259c2.529-1.211,6.586-2.787,9.245-.474,2.105,1.832.015,5.177-1.102,6.939-1.544,2.434-1.266,4.832-1.464,7.929l-3.721-1.224Z"/>
    <path class="cls-1" d="M773.39,135.345c.308-.804.222-1.782.041-2.609-.34-1.553-1.426-2.895-2.762-3.725-.185-.115-.378-.216-.576-.308-.354.2-.672.461-.94.794-.533.66-.589,1.399-.374,2.199.098.366.24.69.472.993.029.038.06.072.09.109.286-.268.856-.806,1.026-.628l1.045,1.096c.284.298-.295.849-.894,1.449-.951.952-3.055,1.521-3.991.045-.384-.606-.541-1.585-.567-2.514-.095-.199-.172-.406-.228-.628-.194-.773-.121-1.484.393-2.121.066-.082.14-.139.21-.21h-.721c.249-.827.642-1.62,1.329-2.17.58-.464,1.17-.604,1.818-.65-.024-.05-.051-.099-.054-.157l-.115-3.055c-.124-.252-1.931-.264-2.19.287l-.973,2.071c-1.405,2.99-2.302,5.932-1.915,9.46l3.368,3.604c.404.433,1.603,1.04,2.168.975.452-.052,1.358-.572,1.709-.928l1.977-2.003c.201-.463.47-.897.654-1.376Z"/>
    <path class="cls-1" d="M305.58,272.537c-3.162,1.296-5.992,1.538-7.8-1.215l.603-1.497c.487-1.21,4.563,1.283,7.443-2.085l-1.971-2.862-3.842-4.49,5.827-3.683c2.722-1.721,6.417-2.922,9.413-.026-1.663,1.566-3.798,2.528-6.152,2.544-1.403.01-4.001,2.011-2.819,3.309,2.286,2.512,3.5,5.801,1.66,9.036l-2.363.968Z"/>
    <path class="cls-1" d="M605.374,45.653c1.957-1.961,2.853-4.109,2.112-6.539-1.548,1.747-3.089,3.291-3.892,4.793l-1.627,3.042c-.792,1.482-.893,4.185-1.082,6.426l-2.677.404c.219-2.95.491-5.648,1.69-8.068l1.681-3.392c.938-1.585,3.456-3.326,4.906-4.858l2.406-2.544,3.007,1.596c.799,3.309-.48,4.957-1.836,7.253l-1.854,3.139,4.973,5.037-1.963,1.202c-.352.216-1.303-.518-1.638-.804l-5.809-4.961,1.603-1.726Z"/>
    <path class="cls-1" d="M395.074,232.862c-3.155-3.549-1.327-7.672-.949-11.437l.49-4.884-5.081.61c-.73.088-1.912-.063-2.468-.355s-1.097-2.053-.927-2.129l4.196-1.256,5.607-.953c.612-.104,1.688-1.395,2.263-1.249l2.48.628,1.972,1.555-1.684,2.806-2.385,3.691-2.023,4.601-1.492,8.371Z"/>
    <path class="cls-1" d="M217.381,269.055l-4.373,4.195c-2.822,1.36-5.923.034-7.823-2.413-1.332-1.714-1.139-5.555.355-7.275l2.017-2.321c.719-.828,1.765-2.087,2.629-2.069,1.092.023,2.67.684,3.597,1.126.918.438,3.396.658,3.756,1.532l1.374,3.337-1.534,3.889ZM213.216,269.069l2.112-2.385c.443-.5.083-2.442-.499-2.72-1.09-.519-3.688-.672-4.613-.023l-3.104,2.175.517,3.583c1.81.088,4.584.263,5.587-.63Z"/>
    <path class="cls-1" d="M698.54,88.043c-4.7-.497-2.754,7.073-6.89,7.302-2.066-1.916.326-3.549.841-4.628l2.468-5.16c.405-.847,1.218-1.931,1.842-2.304.695-.415,2.519.145,2.673.866.723,3.385,2.172,5.815,4.311,5.28.639-.16,1.605-.862,2.121-1.492l2.702-3.298c.539-.657,1.549-2.119,1.615-2.988.124-1.634,1.954-3.215,3.529-1.948,1.191.958-.276,3.048-.865,3.965l-2.093,3.26-2.121,3.379c-.991,1.579-3.461,3.869-5.806,3.031-1.909-.682-3.333-3.427-4.329-5.266Z"/>
    <path class="cls-1" d="M252.507,261.564l-2.538,3.267-1.025,3.762c-.967.922-3.708-.693-3.461-1.934l4.067-5.79c.6-.855,1.972-1.951,3.198-3.038l5.139,5.41c.361.602.777,1.43,1.25,1.582.569.182,2.139-.48,2.341-1.093,1.542-4.695,5.551-9.38,7.182-6.844.392.609-.045,1.537-.664,2.322l-2.378,3.016c-2.979,3.778-1.079,5.69-4.241,8.791-2.083-.785-3.229-2.36-4.247-4.071l-1.369-1.73-3.254-3.648Z"/>
    <path class="cls-1" d="M655.502,212.787c.296-.314-.387-1.784-.635-1.566l-1.106.976-2.272,2.632c-.911,1.056-1.357,2.067-1.579,3.641l-.3,2.123c-.067.472-1.819.371-2.162-.094-.988-1.341.219-3.853,1.191-5.459l2.759-4.557,2.103-2.354,2.312-2.344,1.365-1.185c.516-.448,2.629,1.578,2.944,4.082.094.743-.901,1.99-1.559,2.678l-.6,3.723c-.105.651-.174,1.656.072,2.096.622,1.112,4.046.111,4.43,1.346.162.52.28,1.704.211,2.273-.079.646-1.801.8-2.459.835-2.83.151-3.799-1.087-5.063-3.06-1.195-1.864-1.179-4.169.345-5.786Z"/>
    <path class="cls-1" d="M353.018,183.371l-.606,2.222c-.12.441-2.106-.177-2.002-.623l1.119-4.81,4.82-5.968c1.778,1.558,2.721,3.485,3.791,5.364,1.453,2.551,5.081,1.038,6.795.174l5.109-2.574-.068-4.761,2.143.209c.486.047,1.813,5.076-.25,6.99-2.258,2.094-4.474,3.453-6.998,4.73-1.742.881-2.617.427-4.478-.2-4.749-1.6-5.92-6.717-6.697-5.705l-1.029,1.341c-.699.911-1.283,2.257-1.652,3.612Z"/>
    <path class="cls-1" d="M578.062,98.955c-2.593-.554-2.164-3.08-1.601-4.701l1.804-5.193c.516-1.486,1.448-2.269,2.713-3.196l1.175-.861c.267-.196,5.042,2.502,5.194,6.869.018.517,1.549,1.185,1.731.79l.841-1.824c.793-1.72,1.497-3.491,1.965-5.512l3.161-2.463c.454.82,1.018,2.096.993,2.709s-1.284,1.44-1.54,2.028l-1.977,4.547c.036.11.333.615.25.831l-.555,1.445c-.328.853-.977,2.329-1.791,2.914l-4.837-3.069c-.666-2.442-1.703-4.419-3.925-5.384l-2.053,3.156-1.547,6.914Z"/>
    <path class="cls-1" d="M107.655,230.048l5.059,1.077c-2.265,2.138-4.71,2.107-8.065,1.754-1.356,1.415-2.066,4.032-2.086,6.52-3.03-3.158-3.128-10.335-.279-13.571l.805-4.688c.188-1.097,3.056-.373,3.537.666l5.22.581c.508.057,1.38.653,1.489,1.091.635,2.544-4.857-.544-8.113,5.707l2.434.862Z"/>
    <path class="cls-1" d="M172.619,61.605c-2.359,3.228-7.013,2.882-11.457,1.586l.098-3.669c.009-.317,1.364-.531,1.554-.289l1.158,1.47c.793,1.006,3.266,1.041,4.127-.289l-5.946-5.966c-.616-.618-.554-2.733-.083-3.433l2.204-3.282c1.596-2.375,5.692-1.794,7.793-1.359l-3.234,1.989c-.878.54-2.057,1.308-2.505,1.961-.862,1.258.53,2.297.945,3.232.961,2.161,1.455,3.56,4.107,4.138l1.239,3.912Z"/>
    <path class="cls-1" d="M445.234,174.024l-4.62-.448c-1.228,1.256-.888,3.433.275,4.181l-2.197,2.276c-.475.492-1.168,1.817-1.152,2.472.021.837,2.74,4.18,5.1,4.102,1.422-.047,2.696-.685,3.896-1.677,2.203-1.822,1.14-3.668,2.948-5.846-.715-1.624-2.374-3.875-4.25-5.06ZM445.381,181.956c-.069.006-.138.009-.207.008-.079,0-.158.002-.237.003-.357.004-.714.004-1.071.004-.357,0-.714,0-1.071-.004-.104,0-.209-.002-.313-.005-.044,0-.087-.002-.13-.006-.522-.47-1.119-1.525-.296-2.01.069-.006.138-.009.207-.008.079-.001.158-.002.237-.003.357-.004.714-.004,1.071-.004.357,0,.714,0,1.071.004.104,0,.209.002.313.005.044,0,.087.002.13.006.469.42.532,1.066.591,1.655,0,.003-.4.01-.443.011-.052,0-.105,0-.157,0,.098.13.202.25.305.343Z"/>
    <path class="cls-1" d="M189.035,149.952l-2.954,3.184c-2.742,2.955-7.355,3.022-10.097-.235l.996-5.817,4.403-4.979c1.152-.21,3.802-.39,4.734.288l3.123,2.273c.343,1.075.652,4.363-.205,5.287ZM182.584,152.084l3.269-3.065c.411-.386.963-1.332,1.101-1.832s-1.37-1.375-1.87-1.251l-3.851.952c-.592,1.513-1.151,3.604-1.232,4.987-.041.704,2.082.678,2.583.208Z"/>
    <path class="cls-1" d="M680.491,46.723l1.426-3.507,1.589-2.033c.421-.538-.451-2.282-1.114-2.461-2.412-.651-5.025.006-6.962,1.255l-3.189,2.057c-.652.042-1.833-2.166-1.638-3.216,2.88-2.58,6.72-3.26,10.542-2.904l1.952-1.163,4.259,1.555c.99.361,1.287,3.064.706,4.005-1.78,1.159-2.946,2.858-2.783,5.179-1.677,1.615-2.096,3.07-2.374,6.05-.512.291-2.46-.323-2.946-1.051-.685-1.027-.029-2.388.531-3.765Z"/>
    <path class="cls-1" d="M665.788,185.74c-.633-.363-1.055-1.948-.606-2.503.613-.758,2.194-1.237,3.157-1.254l2.164-.039c.437-.008.978-1.397.679-1.707l-2.301-2.378-1.291-1.334c-.369-.381.234-1.844.682-2.293l4.411-4.42c.837-.839,3.437-1.848,4.61-2.033l3.701-.583c.423-.067,1.781.483,1.672.888s-.67,1.196-1.08,1.431l-4.736,2.712-3.927,1.824c-.555.357-1.1,1.965-1.015,2.822,2.241,1.443,3.522,5.362,1.542,6.957-2.335,1.881-4.907,2.778-7.661,1.91Z"/>
    <path class="cls-1" d="M456.784,226.834c-1.693,2.463-3.427,4.507-6.698,3.961l-3.28-3.246-.012-8.63,3.201-1.256,2.026-.98c.582-.281,1.829.84,2.436,1.1,1.757.753,2.6,1.417,3.224,3.22l1.042,3.01-1.939,2.82ZM451.57,226.656c1.081-.12,2.663-.929,3.364-1.802.567-.706.303-2.866-.287-3.677-.54-.743-2.711-1.037-3.522-.683l.445,6.163Z"/>
    <path class="cls-1" d="M765.451,92.354c-.581.586-1.934,1.32-2.521,1.059-.695-.309-1.897-1.058-1.983-1.234,1.522-1.404,2.168-3.693,1.44-4.851l-2.475-3.935-.624-1.005c-.131-.21.794-.787.857-1.025l1.059-3.972,3.075-2.505,3.172-2.068c1.991-1.298,5.367-.902,7.717-.373l.025,1.312-4.981,2.017-3.476,1.879c-2.067,1.117-4.436,3.525-3.286,6.105l2.5,2.676c1.618,1.732,1.376,4.034-.499,5.923Z"/>
    <path class="cls-1" d="M130.839,100.401c-.123,1.904-2.313,6.326-3.474,6.537-3.342.609-5.172-.39-7.369-2.982l.06-7.342c.006-.719.593-2.039,1.143-2.402s2.411-.276,3.059.141l4.385,2.819c1.064.684,2.26,2.24,2.196,3.229ZM124.557,102.815c.302.366,2.095.348,2.115-.122l.101-2.367c.027-.642-1.92-.261-2.202.29-.235.458-.343,1.8-.014,2.2Z"/>
    <path class="cls-1" d="M68.473,269.584c.664-.122,1.799,1.446,1.431,1.832l-1.655,1.737c-.576.604.474,2.411,1.28,2.681,1.089.364,2.289-.099,3.463-.75.797-.442,2.568-.723,2.855-1.452,1.13-2.873-.491-5.436-1.086-5.09l-1.955,1.138c-.425-.245-1.321-1.953-1.315-2.808.007-.949,1.573-3.153,2.47-2.821,2.671,1.15,4.914,4.214,5.676,6.873-.544,1.379-.961,3.095-1.222,4.754-2.628,3.434-8.894,4.607-12.461,1.653-2.509-2.078-.921-7.116,2.52-7.747Z"/>
    <path class="cls-1" d="M831.357,134.118l-.329,2.541c-.056.435-1.269.589-1.792.739-1.635,2.19-4.641,2.378-7.003.878-1.862-1.183-2.728-4.415-1.172-6.79l4.903-7.484c5.457,4.291,6.056,4.999,5.393,10.116ZM825.167,134.87l3.435-2.359c.626-.521-1.326-2.288-2.261-2.201-.766.071-1.694,1.142-2.465,1.889l-1.274,1.234c-.29.281-.131,1.132.187,1.38s1.969.338,2.378.058Z"/>
    <path class="cls-1" d="M487.757,230.953l-3.555-3.129c.315,1.037.328,3.266-.5,3.646-.807.371-3.365-2.416-3.128-3.562.354-1.707,3.059-6.854,4.782-8.545l2.236-2.194c.489-.48,2.012-.383,2.602-.024.689.419.908,2.654.462,3.405-1.339,2.251-2.526,4.294-2.058,7.215l4.159.804c.587.241.621,2.65-.25,3.125-1.311.715-3.599.276-4.752-.739Z"/>
    <path class="cls-1" d="M556.54,147.004l-1.743-2.363c4.146-2.212,6.66-.924,8.398-3.651.537-.843-.199-3.103-1.321-3.607-2.148-.964-3.865-2.041-4.82-4.54,1.241-2.074,5.245-4.207,7.51-4.551,1.133-.172,2.462,1.014,2.863,2.054l-5.119,3.226,4.142,4.397c1.728,1.834.322,4.509-1.169,5.51l-3.273,2.197c-1.358.912-3.895,1.887-5.467,1.327Z"/>
    <path class="cls-1" d="M600.038,143.781c-3.277.225-6.469-2.173-7.147-5.079-.537-2.303.564-6.289,2.483-7.032,1.938-.751,2.636-.537,4.049-2.553l4.756,4.19c1.234,1.087,2.276,4.495.826,5.846l-4.967,4.629ZM601.649,138.099c.177-.301,1.174-.831,1.01-1.089l-.796-1.249c-.614-.964-1.63-1.882-2.608-2.027-.736-.109-2.526.859-2.605,1.591l-.414,3.831c1.954,1.571,4.377.708,5.414-1.057Z"/>
    <path class="cls-1" d="M504.246,179.449l.586,3.864c1.399.657,2.789-.204,4.113-1.567-.322-.604-1.354-1.507-2.214-2.246l-2.038-1.749c-.703-.603-1.569-1.767-1.566-2.553.005-1.07.866-1.916,1.748-2.458l3.037-1.866c1.725-1.06,3.99-2.595,6.085-.311-1.005,1.372-2.847,2.529-4.455,3.306l-2.047,1.543,3.107,4.247c1.405,1.921.213,4.892-1.701,6.129-2.432,1.572-4.873.622-7.088-1.127-1.102-.87-1.81-2.652-1.173-4.123.424-.978,2.827-1.315,3.605-1.088Z"/>
    <path class="cls-1" d="M488.055,149.236c-3.342-2.135-1.747-6.381.61-8.176l.738-1.432c.203-.394,1.42.483,1.528.907.119.471.459,1.712.15,1.996l-1.684,1.55c-.388.357.45,1.802.986,1.849,2.634.232,4.649-.907,4.933-3.225.448-3.645-5.954-5.359-3.81-7.538,1.413-1.436,9.508,3.873,7.263,9.429-.411.682-1.515,2.064-2.065,2.661l-2.131,2.317c-1.414.481-4.998.631-6.517-.339Z"/>
    <path class="cls-1" d="M97.676,151.438c-1.221-2.939-2.423-5.135-3.87-7.165l-3.577-2.175c-1.286.922-3.638,2.788-4.188,4.238-.615,1.621-.253,3.674.604,4.847,1.076,1.472,5.839,3.14,8.288,3.366,1.004.093,3.169-2.085,2.742-3.112ZM93.421,150.626c-.012.031-.391.01-.443.011-.061,0-.122,0-.183,0,.113.073.231.135.361.166-.125-.029-.312.009-.443.011-.357.004-.714.004-1.071.004-.357,0-.714,0-1.071-.004-.116-.001-.318.019-.444-.011-.325-.077-.592-.318-.808-.562-.221-.25-.42-.54-.54-.854-.166-.436-.167-.997-.004-1.434.074-.199.213-.419.43-.481.047-.013.097-.008.147-.01-.003,0-.006-.002-.009-.003.007,0,.015.001.022.002.053-.002.106-.01.156-.011.503-.008,1.006-.008,1.509-.007.419,0,.84-.008,1.259.011.057.003.113.006.167.021.227.063.413.254.56.428.167.199.312.422.422.658.301.643.233,1.417-.018,2.064Z"/>
    <path class="cls-1" d="M649.877,132.013c-.239-.923-.644-2.568-1.153-3.289-.475-.674-2.594-1.086-3.044-.389-.682,2.02-2.018,3.77-3.894,4.641-3.04,1.411-3.857,4.919-3.05,7.658.15.509,1.63.851,1.95.554l.971-3.695c3.581-1.475,6.73-.035,7.867,3.782,2.925-1.557,3.044-6.124.352-9.262ZM647.815,134.421c-.079,0-.158.002-.237.003-.357.004-.714.004-1.071.004-.357,0-.714,0-1.071-.004-.138-.001-.303.009-.444-.011-.111-.016-.145-.131-.161-.23-.264,0-.528,0-.792-.003-.104,0-.209-.002-.313-.005-.044,0-.087-.002-.13-.006.529-.448.89-1.042,1.352-1.552.069-.006.138-.009.207-.008l.237-.003c.357-.004.714-.004,1.071-.004.357,0,.714,0,1.071.004-.067,0,.442-.002.444.011.018.13-.013.272-.031.4-.027.196-.058.392-.08.589-.019.179-.037.365-.014.544.013.104.046.245.169.262-.069.006-.138.009-.207.008Z"/>
    <path class="cls-1" d="M281.611,274.779c-2.962-5.258,3.156-8.844,1.979-14.564l-8.773.643c-.637-.953-.336-3.21.492-4.158l8.719-.008,3.523,2.097c1.039,2.339.32,5.254-1.721,6.866-.469,2.321-1.313,4.458-2.401,6.457l1.163,1.665c.252.361.024,1.641-.39,1.791-.518.187-2.296-.268-2.591-.79Z"/>
    <path class="cls-1" d="M264.185,104.52c.827.736-.784,3.215-2.051,3.47-5.74,1.156-10.179.173-12.713-5.015-.745-1.526.826-3.431,1.517-4.343l1.922-2.54,2.915-3.473c.431-.513,1.404-1.143,1.982-1.336.758-.253,2.2.897,2.143,1.71-.058.844-.797,1.956-1.636,2.231-1.611.528-2.011,1.7-3.078,2.87-1.411,1.546-3.188,3.356-1.771,5.7l3.408,1.479c1.906-1.058,4.981-2.734,7.362-.753Z"/>
    <path class="cls-1" d="M287.779,182.571c.755.71,1.645,1.784,1.587,2.485-.314,3.763-9.387.681-10.216-1.895-.298-.924.65-2.792.959-3.64l1.646-4.508c.919-.707,2.989-1.94,4.11-2.322,2.829-.962,5.885.501,6.026,3.187l-5.851.652c-.919.102-1.597,2.906-.932,3.531l2.67,2.509Z"/>
    <path class="cls-1" d="M242.111,105.857l-5.054,3.263c-3.094,1.998-6.859-2.629-6.751-4.277.122-1.86.135-4.476.682-5.675l1.778-3.899,2.242-3.441c.527-.809,2.001-1.376,2.914-1.112,1.054.305,1.565,2.35,1.29,3.611-5.652,1.125-3.86,5.577-6.421,10.147,4.703,3.149,7.25-3.486,10.435-.843.516.428-.583,1.882-1.114,2.225Z"/>
    <path class="cls-1" d="M683.811,89.404c-.237-.43-.612-.829-1.048-1.146-.164,0-.349-.004-.544-.011-.192.131-.373.274-.537.436.096.342.233.662.345,1.019-.003-.009-.034-.015-.079-.019l.138.136c.608.238.955.76.892,1.434-.066.711-.347,1.505-.812,2.054-.158.186-.358.349-.579.454-.112.053-.226.084-.35.094-.755.056-1.53.016-2.286.012-.261-.001-.54.02-.801-.016-.05-.007-.098-.018-.144-.041-.099-.049-.169-.137-.218-.234-.169-.333-.178-.766-.204-1.131-.029-.416-.083-.829-.11-1.245-.029-.437-.029-.876-.029-1.314,0-.003.051-.005.13-.007.062-.263.16-.509.246-.766.1-.302.137-.613.205-.923.129-.585.388-1.123.709-1.626.002-.003.004-.006.006-.01.019-.042.032-.085.054-.126.089-.165.199-.303.318-.429.224-.327.454-.651.695-.958.318-.404.704-.75,1.022-1.154.549-.699,1.038-1.93.514-2.772-.153-.246-.386-.393-.641-.498-.699.195-1.567.594-1.826.987l-2.285,3.475c-1.709,2.599-1.517,6.711-.548,9.687.44,1.303,3.531,2.958,4.758,2.486.617-.458,1.13-.873,1.572-1.268.205-.268.402-.542.575-.828.534-.883.922-1.907,1.127-2.919.189-.938.206-1.974-.267-2.834Z"/>
    <path class="cls-1" d="M556.915,187.927c-.643-.086-1.806-.885-1.731-1.426s.874-1.299,1.433-1.651l2.735-1.723c2.019-3.44-2.493-4.748-2.001-8.538.193-1.488,1.805-3.184,3.384-3.798l4.594-1.786c.511-.199,1.636-.37,2.062-.129.512.29,1.054,1.627.97,2.006-2.319,1.429-4.568,2.659-6.5,4.415-1.003,1.245.684,3.794,1.569,4.912,1.063,1.341-.26,3.105-.881,4.241-1.251,2.287-2.881,3.845-5.635,3.477Z"/>
    <path class="cls-1" d="M520.621,60.418l-2.986,4.719c-.92-.216-2.816-2.212-2.982-3.284l4.974-3.817-5.318-4.113c-.402-.311-1.232-1.121-1.374-1.606s.648-1.494.998-1.881l2.368-2.617c.922-1.019,2.243-1.461,3.777-2.035,1.987-.744,4.58-2.321,6.123.055l-4.643,2.351c-1.396.707-4.233,3.081-2.568,4.613l3.966,3.65-2.337,3.964Z"/>
    <path class="cls-1" d="M741.546,214.655c3.147,2.454,1.467,5.058.115,7.345l-3.348,5.66c-3.617.701-5.758-1.381-6.967-4.34-1.126-2.757-1.421-5.52-.828-8.843,1.16.195,2.864.887,3.517,1.51l.135,5.224c.642.579,2.9.85,3.669.714.753-2.778,1.75-4.723,3.706-7.269Z"/>
    <path class="cls-1" d="M120.743,186.908l-3.225,1.395c-3.038,1.314-6.716,1.001-10.134.836l-.209-2.958,5.781-.014c2.064-.985,4.041-1.431,6.51-1.47,1.338-1.515,2.885-2.211,5.267-1.261.728,3.129.014,7.368-1.619,10.099l-1.055,4.074c-.624-.388-1.964-1.423-1.919-2.065l.603-8.636Z"/>
    <path class="cls-1" d="M617.452,224.875c-1.288.191-8.044-6.48-5.53-12.657l1.687,2.148c.59,2.122,1.541,4.299,3.044,6.166l6.308-5.567,2.363-2.004c.994-.843,3.866-.898,5.007-.302.299.156.447,1.303.398,1.637s-1.039.257-1.654.169l-9.715,9.29c-.405.398-1.395,1.045-1.907,1.121Z"/>
    <path class="cls-1" d="M290.323,53.304c-.457-2.547.02-5.074,2.301-5.4l1.942,2.282c.401.472-.727,1.743-1.528,2.629.44.809,1.824,2.725,2.714,3.206l2.908,1.57,2.079-1.803,1.15-4.662,2.168-3.496c.187-.18,1.433-.28,1.519.028.115.41.325,1.498.244,1.989l-1.052,6.345-2.563,4.229c-2.625.814-4.907-.042-7.057-1.301-2.438-1.428-4.255-2.438-4.826-5.616Z"/>
    <path class="cls-1" d="M302.57,185.897c-2.774,2.863-7.054,1.877-7.232,1.245-.988-3.517,1.618-1.063,4.503-3.466,1.671-1.392-1.234-3.2-1.576-4.695-.317-1.385,2.373-3.688,5.401-4.757l4.879-1.723,1.491.028c.378.007.551,1.661.227,1.874l-3.136,2.055c-1.519.995-3.526,1.693-3.257,3.984.26,2.211.192,3.916-1.299,5.455Z"/>
    <path class="cls-1" d="M317.542,224.965c.766,1.365-3.856,7.276-5.336,6.519l-1.938-.99c-2.853-1.458-3.986-3.381-3.272-6.646l1.093-5c2.478-.876,4.22.287,5.752,1.962l2.276,2.488c.558.61,1.16,1.192,1.426,1.666ZM312.959,226.913c.616-.356.712-2.229.202-2.716s-2.35-1.012-3.02-.639c-.712.397-.789,2.487-.578,3.426.796.202,2.723.317,3.396-.072Z"/>
    <path class="cls-1" d="M270.884,98.479l2.027-4.302c3.88-.198.067,5.766,1.977,7.451,1.509,1.332,3.151-.323,4.125-1.265l5.338-5.161c.382-.37.868-2.007,1.279-1.736l1.737,1.146c.479.316-.513,1.636-.931,2.065l-3.069,3.145c-.846,3.156-4.445,6.578-6.047,6.738-1.849.184-4.317-1.823-4.845-3.381l-1.592-4.701Z"/>
    <path class="cls-1" d="M583.105,234.063c-.745,1.889-2.48,3.554-4.951,3.419-4.189-.228-6.753-1.788-8.131-5.442-.285-.757-.882-1.955-.919-2.601s.935-1.622,1.416-2.237l2.376-3.041c1.017-1.302,2.559-3.18,4.017-3.666.545-.182,2.228.301,2.323.824.114.629-.674,1.792-1.229,2.214l-3.669,2.79c-1.321,1.005-2.075,2.805-1.575,4.479.355,1.19,2.318,2.739,3.791,2.69l4.925-.165c.335-.011,1.745.43,1.624.736Z"/>
    <path class="cls-1" d="M190.696,274.944c-2.864.889-9.376-7.372-5.811-12.373l2.656,1.783c-.327.25-1.134,1.447-1.104,2.077.035.735.638,2.077,1.108,2.767l1.337,1.964,3.054-2.402,4.869-6.3,3.725-4.02.875,3.553-4.463,4.396-1.96,3.174-2.657,3.333c-.478.599-1.004,1.855-1.628,2.049Z"/>
    <path class="cls-1" d="M388.969,102.82l.233-6.342c-4.167-.266-7.699,3.496-8.756,1.588-.297-.536-.472-1.568-.43-2.269.037-.613,1.372-1.164,2.037-1.353l4.909-1.393,5.924-1.134c.567-.108,1.897.619,2.177,1.068.765,1.229-1.192,2.473-2.699,7.014l-1.446,4.356c-.13.391-1.033.672-1.301.382s-.667-1.399-.648-1.918Z"/>
    <path class="cls-1" d="M281.135,62.075c-2.358,2.732-4.765,1.928-7.229.535-1.174-.664-2.312-1.347-2.988-2.228-1.841-2.4-1.37-4.218-.067-6.492l2.319-4.044c.646-1.127,1.774-2.37,2.823-2.888.974-.481,3.437.186,4.198.77-4.046,3.821-6.65,6.108-7.194,11.651l7.867,1.133c.253.036,1.437.214,1.283.392l-1.013,1.173Z"/>
    <path class="cls-1" d="M278.375,150.652l-2.414-2.794c-.876-1.013-.23-3.956.22-5.594l2.599.323c1.364.17-.539,5.736,2.964,5.716l1.532-1.855c-1.872-2.249-2-5.712-1.438-8.476.554-.206,1.819-.207,2.234.118,1.653,1.294-1.498,4.562,1.994,6.658l.43,3.7c.173,1.485-1.469,3.255-3.204,2.981l-4.917-.776Z"/>
    <path class="cls-1" d="M78.768,152.038l-3.888,1.229-5.718-1.596-4.329-2.798,2.221-6.328c1.02-2.906,3.755-6.992,6.214-9.554,1.108-.923,2.491.695,2.528,1.984.042,1.485-.946,1.689-2.208,2.83-.734.939-1.436,3.216-2.701,4.041-2.462,1.606-3.294,5.267-1.263,7.332l3.792,2.067,5.353.792Z"/>
    <path class="cls-1" d="M398.532,146.338l-.562,1.403c-.155.387-1.582.106-1.763-.265-.722-1.479-1.019-5.076.325-6.288,1.393-1.256,1.86-3.545.854-4.489-2.862-.543-4.841-1.459-7.445-3.225,3.499-2.009,8.728-1.348,11.667,1.497,1.351,1.308.009,3.661-.587,5.151l-2.49,6.217Z"/>
    <path class="cls-1" d="M502.736,142.504l-1.496-3.598-1.037-2.993c5.211-2.322,1.89,4.78,6.237,6.243.793-.111,2.481-.962,3.025-1.416l2-4.351,1.261-1.342c.296-.315,1.69.208,1.98.466-.868,4.073-3.387,8.882-6.285,11.078l-1.453,1.101c-.425.322-1.727-.425-2.195-.822-1.385-1.175-1.242-2.452-2.037-4.364Z"/>
    <path class="cls-1" d="M582.777,50.044c2.988,1.855,6.414-.804,9.318,2.68l-3.702,1.612c-1.192.519-5.421-1.244-7.201-3.22-1.902-2.111-.698-4.216.425-6.245,1.524-2.754,2.911-6.139,6.452-6.737.898-.152,2.827.677,2.856,1.443.038,1.017-.946,2.413-2.149,2.559-2.382.289-3.815,2.835-4.996,5.011-.348.641-1.639,2.503-1.004,2.897Z"/>
    <path class="cls-1" d="M693.118,138.864c-1.188-.599-1.697-2.519-1.428-3.807.224-1.074,2.575-1.339,3.657-.694l3.066,1.829c.79-2.124-.964-3.548-2.478-5.045-.048-.621,1.575-1.62,2.103-1.327l2.49,1.379c2.379,1.318,2.819,5.841,1.667,7.678-1.343,2.141-5.19,1.946-9.076-.013Z"/>
    <path class="cls-1" d="M684.966,140.759c1.556,2.457-2.68,3.917-4.859,3.867-3.424-.078-5.56-1.561-6.074-4.621-.309-.377-1.172-1.384-.971-1.761l1.068-2.002,2.233-3.76c.448-.754,1.856-1.526,2.665-1.535.781-.009,2.533,1.876,1.91,2.374l-3.293,2.636c-1.945,1.499-.202,5.381,1.915,5.21,1.274-.103,3.97-2.368,5.407-.408Z"/>
    <path class="cls-1" d="M736.084,135.196c1.66.986-.3,3.31-1.745,3.722-2.688.767-6.314,1.04-8.719-.781-1.022-2.176-.485-6.17.809-7.931,2.308-3.143,1.159-5.81,3.551-6.104.93-.114,2.189,1.228,1.752,1.888l-2.5,3.775c-.617.932-1.445,3.114-1.385,4.302.038.766,1.772,2.001,2.495,2.317,1.436-.977,4.236-2.082,5.742-1.187Z"/>
    <path class="cls-1" d="M615.978,137.295l.335-3.366-5.644-.122c-.631-.014-1.608-1.421-1.542-1.99.076-.665,1.308-1.711,2.052-1.746l6.225-.292,3.299,2.706-1.669,8.478-.985,3.101c-2.175-2.286-2.849-4.024-2.069-6.77Z"/>
    <path class="cls-1" d="M219.2,111.472c-2.075-.22-3.084-1.458-3.413-2.747-.402-1.579.676-2.979,1.059-4.396.97-3.586.678-7.195.817-11.246l3.956-2.746c.386-.268,1.874-.294,2.165.077s.45,1.389.482,2.116c-1.273.389-3.602,1.606-3.904,2.798-.024,5.6-.23,10.31-1.163,16.143Z"/>
    <path class="cls-1" d="M722.727,223.687l-3.721,2.481c-.663.442-1.73.851-2.297.943s-1.627-.67-2.169-1.052l-1.822-1.286c-.794-.561-.598-4.363,1.593-6.648.269-2.293.597-3.563,2.942-5.253l1.693,1.589-3.906,6.16,2.018,1.884,4.439-1.462c.5-.165,1.879-.102,2.046.325.209.535-.32,1.989-.818,2.32Z"/>
    <path class="cls-1" d="M721.1,136.589c-3.178,3.037-8.876,2.547-10.804-1.183l-1.081-2.091c-.226-.437.914-1.462,1.006-1.952.419-2.243.695-5.3,1.911-7.249.651-1.044,3.009.116,2.988,1.027-.068,3.019-3.023,3.326-1.96,8.947,3.105.202,5.623.501,7.94,2.5Z"/>
    <path class="cls-1" d="M545.195,184.75c-2.597-.384-4.241-2.957-4.173-6.818.034-1.945.494-3.628,2.349-3.737l.872,3.523c.101.408,1.252,1.217,1.638,1.051.482-.207.873-1.077,1.378-1.598l4.349-4.484,1.614,2.246c.357.497-1.196,1.444-1.586,1.953l-4.551,5.936c-.568.74-1.232,2.025-1.89,1.928Z"/>
    <path class="cls-1" d="M149.665,59.153c.61,2.196,1.554,3.954.257,6.128-5.036-4.275-4.135-13.45-.44-18.877l2.232-1.735,2.134,2.544c-2.252,1.616-2.499,3.087-3.218,5.436-.56,1.83-1.653,4.027-.965,6.504Z"/>
    <path class="cls-1" d="M582.336,139.793c.626.009,1.61,1.052,1.687,1.589s-.286,2.002-.865,2.258c-1.661.733-5.411.747-7.248-.591-1.241-.904-.563-3.169-.571-4.399-.021-3.239,1.544-5.526,4.612-7.175.528.021,2.211,1.913,1.682,2.477l-2.733,2.909c-.783.834-.853,2.289-.208,3.194.871,1.224,2.233.955,3.644-.261Z"/>
    <path class="cls-1" d="M320.761,187.048l-3.286-1.668c-2.023-2.505-.614-6.756,1.417-8.853l.587-3.22c.726-.938,1.357-1.966,1.54-2.732l.388-1.628c.102-.426,1.557-.386,1.774-.003,1.277,2.257-.565,5.03-1.355,6.902-.725,1.719-1.141,2.88-2.567,4.638,2.072,1.744,2.958,4.881,1.503,6.563Z"/>
    <path class="cls-1" d="M663.741,93.792c.159.628-1.295,1.649-1.751,1.372s-1.218-1.042-1.487-1.551l-.831-1.569c-.178-.336.863-1.222.9-1.675.161-1.953.982-5.172,2.328-6.973l2.788-3.732c.36-.482,1.722-1.364,2.052-.916.596.808.734,2.739.204,3.258-2.958,2.9-5.288,7.492-4.204,11.787Z"/>
    <path class="cls-1" d="M265.961,147.564l1.268,4.679c-3.868-.075-4.291-3.244-4.313-5.933-.018-2.168.575-3.557,1.602-5.407,1.119-2.016,1.931-4.219,4.576-5.159,1.3,3.077-.193,5.177-2.012,7.23l-1.121,4.59Z"/>
    <path class="cls-1" d="M565.58,99.353c-.05.444-.717,1.429-1.087,1.484-.464.068-.987-.513-1.525-1.116-2.471-3.705.373-11.664,2.439-13.127.529-.375,1.43,1.61,1.353,2.301l-1.179,10.458Z"/>
    <path class="cls-1" d="M381.618,141.509c-.535.866,2.13,1.657,2.113,3.724-.004.51-.841,1.68-1.31,1.482-1.866-.787-3.298-2.22-3.545-4.356-.366-3.152.65-4.723,2.244-7.166.818-1.253,3.074-1.144,4.215.323l-2.517,4.052-1.199,1.94Z"/>
    <path class="cls-1" d="M631.116,138.035l2.225,4.698c-1.367.17-2.722-.085-3.127-.632-2.553-3.447-2.24-7.223-.145-10.523l1.153-1.817c.349-.549,3.737,1.013,3.304,1.642l-1.114,1.619-2.296,5.012Z"/>
    <path class="cls-1" d="M788.989,41.223c-.297.78-.667,1.528-1.096,1.705s-1.367-.609-1.572-1.027l-.815-1.661c-.209-.425,1.049-1.197,1.243-1.654l1.716-4.046,1.963-5.584c.141-.401,1.089-.886,1.49-.843.398.043,1.608.43,1.462.805l-.847,2.171-1.826,5.619-1.718,4.515Z"/>
    <path class="cls-1" d="M378.673,193.444l-2.636-1.721,6.061-5.419,3.214-2.479c.641-.494,2.127.817,2.086,1.922-.039,1.058-.979,1.643-1.943,2.44l-4.33,3.58-2.451,1.676Z"/>
    <path class="cls-1" d="M562.648,230.537c-.11.3-1.91-.908-1.893-1.62l.199-8.43,1.639-2.924c.33-.589,2.408.106,2.327.798l-.749,6.431c-.878,1.679-1.127,3.103-1.523,5.745Z"/>
    <path class="cls-1" d="M322.127,271.846l-2.826-3c-.077-.638,1.376-2.38,1.879-2.483,1.027.963,2.108,1.819,2.024,2.518-.102.847-.896,2.855-1.076,2.965Z"/>
    <path class="cls-1" d="M312.959,226.913c-.672.389-2.6.274-3.396.072-.211-.939-.134-3.029.578-3.426.67-.374,2.51.152,3.02.639s.413,2.36-.202,2.716Z"/>
  </g>
  <path class="cls-1" d="M709.523,44.698c-.054-.187-.149-.48-.275-.73-.201-.145-.43-.25-.668-.315-.041-.011-.083-.015-.124-.024-.041,0-.081.001-.122,0-.159-.003-.318-.009-.477-.017-.491.059-.974.142-1.433.362-.427.205-.758.501-1.085.838-.339.349-.719.656-1.054,1.004-.063.066-.352.04-.552.021-2.001.398-4.374.52-6.492-.189.343-1.426,1.566-2.324,2.462-2.542.376-.091.751-.108,1.121-.076.262,0,.521.013.74.012h.01c.292-.032.534-.016.799-.151.366-.186.587-.511.635-.917.192-1.611-1.922-1.831-3.025-2.183-.598-.191-1.66-.516-1.529-1.353.081-.518.802-.852,1.372-1.002,1.484-1.41,3-2.242,5.053-2.388l3.275-2.691c-2.475-1.302-4.411-.807-6.918-.48-.76.099-1.979.906-2.62,1.259-6.248,3.44-.563,6.883-4.729,9.551-.66.863-.512,3.464.019,4.445l2.086,2.053c2.302,1.011,5.623,1.579,7.945.36l3.522-1.849c1.19-.624,1.933-1.748,2.098-2.817-.011-.061-.015-.119-.033-.183Z"/>
  <path class="cls-1" d="M631.825,44.454c-.047-.162-.129-.416-.238-.631-.174-.126-.372-.216-.578-.272-.035-.01-.072-.013-.107-.021-.035,0-.07,0-.106,0-.138-.002-.275-.008-.413-.014-.424.051-.842.123-1.239.313-.37.177-.656.434-.938.725-.293.302-.622.568-.912.869-.055.057-.304.034-.478.018-1.731.344-3.784.45-5.616-.164.297-1.233,1.354-2.01,2.129-2.199.325-.079.65-.093.97-.066.226,0,.451.011.641.01h.008c.253-.028.462-.014.691-.131.317-.161.508-.442.55-.793.166-1.394-1.663-1.584-2.617-1.888-.518-.165-1.436-.447-1.323-1.171.07-.448.693-.737,1.187-.867,1.284-1.22,2.595-1.939,4.371-2.066l2.833-2.328c-2.141-1.127-3.816-.698-5.985-.415-.657.086-1.712.784-2.267,1.09-5.405,2.976-.487,5.954-4.091,8.262-.571.746-.443,2.997.016,3.845l1.805,1.776c1.991.874,4.864,1.366,6.873.312l3.047-1.599c1.029-.54,1.672-1.512,1.815-2.437-.009-.053-.013-.103-.029-.158Z"/>
  <path class="cls-1" d="M645.835,219.78c-.05-.172-.137-.442-.254-.672-.185-.134-.396-.23-.615-.29-.038-.01-.077-.014-.114-.022-.038,0-.075,0-.113,0-.147-.002-.293-.008-.44-.015-.452.054-.897.131-1.32.334-.394.189-.698.462-.999.772-.312.321-.662.605-.971.925-.058.06-.324.037-.509.019-1.843.367-4.03.479-5.981-.174.316-1.314,1.442-2.14,2.268-2.341.346-.084.692-.099,1.033-.07.241,0,.48.012.682.011h.009c.269-.03.492-.015.736-.139.338-.172.541-.47.585-.845.177-1.484-1.77-1.687-2.786-2.011-.551-.176-1.529-.475-1.409-1.247.074-.477.738-.785,1.264-.923,1.367-1.299,2.764-2.065,4.655-2.2l3.017-2.479c-2.28-1.2-4.063-.744-6.373-.442-.7.091-1.823.835-2.414,1.16-5.756,3.169-.519,6.341-4.357,8.798-.608.795-.472,3.191.017,4.095l1.922,1.891c2.12.931,5.18,1.455,7.319.332l3.245-1.703c1.096-.575,1.781-1.61,1.932-2.595-.01-.056-.013-.11-.03-.168Z"/>
  <path class="cls-1" d="M176.992,90.123l-2.754,1.094c-2.43.965-4.322,2.701-5.178,5.075l-1.456,4.038c-1.992-.882-4.119-.929-5.639,1.254-1.014,1.456-1.106,4.632-.064,5.931,3.143,3.92,10.037,2.563,10.839,1.79.158-.152.299-.313.429-.479-.062-.249-.137-.495-.242-.723-.014.006-.038.009-.042.019.009-.026.009-.047.016-.072-.194-.4-.462-.744-.833-.962-.404-.237-1.006-.267-1.419-.48-.533-.065-1.018-.11-1.271-.205-.011-.004-.015-.014-.026-.018-.101-.008-.202-.01-.303-.019-.19.003-.376.002-.566-.004-.383.024-.514.018-.404-.015-.029-.002-.06-.001-.089-.003-.527-.036-1.056-.261-1.542-.452-.65-.255-1.307-.499-1.81-1.006h.167c.032-.003.061-.006.073-.006.014,0,.027,0,.041,0-.155-.117-.288-.257-.357-.442-.1-.269-.069-.572.007-.842.16-.571.557-1.186,1.112-1.437.057-.026.175-.005.239-.006.008,0,.017,0,.025,0,.236-.176.483-.315.711-.393.23-.078.578-.008.817-.008.193,0,.385,0,.578.002-.014,0,.044.003.107.006h.133s-.006.007-.009.011c.352.001.703.014,1.046.039.078.006.155.016.233.023.1-.012.199-.023.298-.036.395-.053.927-.075,1.183-.431.195-.271.202-.65.16-1.01-.289-.454-.763-.795-1.194-1.275-.822-.915-.085-1.624.729-2.192,1.663-1.161,3.617-1.701,5.559-2.252.993-.554,2.535-1.37,2.918-2.338.276-.749-1.486-2.469-2.222-2.177Z"/>
  <path class="cls-1" d="M162.669,100.768c.044-.042,8.398-8.583,9.96-8.75s-5.221,8.856-5.221,8.856"/>
  <path class="cls-1" d="M365.718,39.978l-2.754,1.094c-2.43.965-4.322,2.701-5.178,5.075l-1.456,4.038c-1.992-.882-4.119-.929-5.639,1.254-1.014,1.456-1.106,4.632-.064,5.931,3.143,3.92,10.037,2.563,10.839,1.79.158-.152.299-.313.429-.479-.062-.249-.137-.495-.242-.723-.014.006-.038.009-.042.019.009-.026.009-.047.016-.072-.194-.4-.462-.744-.833-.962-.404-.237-1.006-.267-1.419-.48-.533-.065-1.018-.11-1.271-.205-.011-.004-.015-.014-.026-.018-.101-.008-.202-.01-.303-.019-.19.003-.376.002-.566-.004-.383.024-.514.018-.404-.015-.029-.002-.06-.001-.089-.003-.527-.036-1.056-.261-1.542-.452-.65-.255-1.307-.499-1.81-1.006h.167c.032-.003.061-.006.073-.006.014,0,.027,0,.041,0-.155-.117-.288-.257-.357-.442-.1-.269-.069-.572.007-.842.16-.571.557-1.186,1.112-1.437.057-.026.175-.005.239-.006.008,0,.017,0,.025,0,.236-.176.483-.315.711-.393.23-.078.578-.008.817-.008.193,0,.385,0,.578.002-.014,0,.044.003.107.006h.133s-.006.007-.009.011c.352.001.703.014,1.046.039.078.006.155.016.233.023.1-.012.199-.023.298-.036.395-.053.927-.075,1.183-.431.195-.271.202-.65.16-1.01-.289-.454-.763-.795-1.194-1.275-.822-.915-.085-1.624.729-2.192,1.663-1.161,3.617-1.701,5.559-2.252.993-.554,2.535-1.37,2.918-2.338.276-.749-1.486-2.469-2.222-2.177Z"/>
  <path class="cls-1" d="M351.394,50.623c.044-.042,8.398-8.583,9.96-8.75s-5.221,8.856-5.221,8.856"/>
  <path class="cls-1" d="M638.894,79.236l-2.754,1.094c-2.43.965-4.322,2.701-5.178,5.075l-1.456,4.038c-1.992-.882-4.119-.929-5.639,1.254-1.014,1.456-1.106,4.632-.064,5.931,3.143,3.92,10.037,2.563,10.839,1.79.158-.152.299-.313.429-.479-.062-.249-.137-.495-.242-.723-.014.006-.038.009-.042.019.009-.026.009-.047.016-.072-.194-.4-.462-.744-.833-.962-.404-.237-1.006-.267-1.419-.48-.533-.065-1.018-.11-1.271-.205-.011-.004-.015-.014-.026-.018-.101-.008-.202-.01-.303-.019-.19.003-.376.002-.566-.004-.383.024-.514.018-.404-.015-.029-.002-.06-.001-.089-.003-.527-.036-1.056-.261-1.542-.452-.65-.255-1.307-.499-1.81-1.006h.167c.032-.003.061-.006.073-.006.014,0,.027,0,.041,0-.155-.117-.288-.257-.357-.442-.1-.269-.069-.572.007-.842.16-.571.557-1.186,1.112-1.437.057-.026.175-.005.239-.006.008,0,.017,0,.025,0,.236-.176.483-.315.711-.393.23-.078.578-.008.817-.008.193,0,.385,0,.578.002-.014,0,.044.003.107.006h.133s-.006.007-.009.011c.352.001.703.014,1.046.039.078.006.155.016.233.023.1-.012.199-.023.298-.036.395-.053.927-.075,1.183-.431.195-.271.202-.65.16-1.01-.289-.454-.763-.795-1.194-1.275-.822-.915-.085-1.624.729-2.192,1.663-1.161,3.617-1.701,5.559-2.252.993-.554,2.535-1.37,2.918-2.338.276-.749-1.486-2.469-2.222-2.177Z"/>
  <path class="cls-1" d="M624.57,89.881c.044-.042,8.398-8.583,9.96-8.75s-5.221,8.856-5.221,8.856"/>
  <path class="cls-1" d="M651.399,94.537l-2.986,4.719c-.92-.216-2.816-2.212-2.982-3.284l4.974-3.817-5.318-4.113c-.402-.311-1.232-1.121-1.374-1.606s.648-1.494.998-1.881l2.368-2.617c.922-1.019,2.243-1.461,3.777-2.035,1.987-.744,4.58-2.321,6.123.055l-4.643,2.351c-1.396.707-4.233,3.081-2.568,4.613l3.966,3.65-2.337,3.964Z"/>
  <path class="cls-1" d="M150.507,140.765c-.509-.937-.789-1.565-1.268-1.894-.48-.33-2.414-.089-2.899.313l-5.022,4.162c-1.422,1.179-1.938,3.643-4.605,2.811-1.639,5.024-5.726,8.07-4.839,11.184.65.094,2.323.174,2.321.101l1.747-3.837c1.177-2.585,2.896-2.811,5.537-3.48,1.746-.442,3.944-1.102,5.139-.452-.064,3.661.033,5.946.548,9.011l2.369.944.368-13.587c1.583-1.482,1.501-3.557.604-5.277ZM146.785,145.097c-.041.047-.371.01-.444.011-.027,0-.054,0-.08,0-.167.128-.326.264-.496.388-.069.006-.138.009-.207.008-.079.001-.158.002-.237.003-.357.004-.714.004-1.071.004-.357,0-.714,0-1.071-.004.021,0-.41-.035-.443-.011,1.146-.839,2.217-1.773,3.325-2.66.069-.006.138-.009.207-.008.079-.001.158-.002.237-.003.357-.004.714-.004,1.071-.004.357,0,.714,0,1.071.004-.037,0,.13.007.27.011h.173c-.57.946-1.601,1.437-2.305,2.261Z"/>
  <path class="cls-1" d="M162.746,156.825s-4.81-.798-6.095-5.076-2.89-2.027-2.89-2.027c0,0,.526,10.347,4.8,10.332"/>
  <path class="cls-1" d="M195.288,146.427s-2.771,12.815-.2,10.155,2.505-5.387,2.505-5.387"/>
  <path class="cls-1" d="M281.837,137.972s-5.704,3.506-5.586,4.393,2.054,3.887,2.69,3.074,2.276-4.788,3.163-4.138"/>
  <path class="cls-1" d="M695.601,135.088s.148-.778,1.803-1.221,0-3.754,0-3.754l-5.32,4.759"/>
  <path class="cls-1" d="M755.559,136.558c-.047-.162-.129-.416-.238-.631-.174-.126-.372-.216-.578-.272-.035-.01-.072-.013-.107-.021-.035,0-.07,0-.106,0-.138-.002-.275-.008-.413-.014-.424.051-.842.123-1.239.313-.37.177-.656.434-.938.725-.293.302-.622.568-.912.869-.055.057-.304.034-.478.018-1.731.344-3.784.45-5.616-.164.297-1.233,1.354-2.01,2.129-2.199.325-.079.65-.093.97-.066.226,0,.451.011.641.01h.008c.253-.028.462-.014.691-.131.317-.161.508-.442.55-.793.166-1.394-1.663-1.584-2.617-1.888-.518-.165-1.436-.447-1.323-1.171.07-.448.693-.737,1.187-.867,1.284-1.22,2.595-1.939,4.371-2.066l2.833-2.328c-2.141-1.127-3.816-.698-5.985-.415-.657.086-1.712.784-2.267,1.09-5.405,2.976-.487,5.954-4.091,8.262-.571.746-.443,2.997.016,3.845l1.805,1.776c1.991.874,4.864,1.366,6.873.312l3.047-1.599c1.029-.54,1.672-1.512,1.815-2.437-.009-.053-.013-.103-.029-.158Z"/>
  <path class="cls-1" d="M794.692,134.146c-.047-.162-.129-.416-.238-.631-.174-.126-.372-.216-.578-.272-.035-.01-.072-.013-.107-.021-.035,0-.07,0-.106,0-.138-.002-.275-.008-.413-.014-.424.051-.842.123-1.239.313-.37.177-.656.434-.938.725-.293.302-.622.568-.912.869-.055.057-.304.034-.478.018-1.731.344-3.784.45-5.616-.164.297-1.233,1.354-2.01,2.129-2.199.325-.079.65-.093.97-.066.226,0,.451.011.641.01h.008c.253-.028.462-.014.691-.131.317-.161.508-.442.55-.793.166-1.394-1.663-1.584-2.617-1.888-.518-.165-1.436-.447-1.323-1.171.07-.448.693-.737,1.187-.867,1.284-1.22,2.595-1.939,4.371-2.066l2.833-2.328c-2.141-1.127-3.816-.698-5.985-.415-.657.086-1.712.784-2.267,1.09-5.405,2.976-.487,5.954-4.091,8.262-.571.746-.443,2.997.016,3.845l1.805,1.776c1.991.874,4.864,1.366,6.873.312l3.047-1.599c1.029-.54,1.672-1.512,1.815-2.437-.009-.053-.013-.103-.029-.158Z"/>
  <path class="cls-1" d="M85.712,181.438c-.509-.937-.789-1.565-1.268-1.894-.48-.33-2.414-.089-2.899.313l-5.022,4.162c-1.422,1.179-1.938,3.643-4.605,2.811-1.639,5.024-5.726,8.07-4.839,11.184.65.094,2.323.174,2.321.101l1.747-3.837c1.177-2.585,2.896-2.811,5.537-3.48,1.746-.442,3.944-1.102,5.139-.452-.064,3.661.033,5.946.548,9.011l2.369.944.368-13.587c1.583-1.482,1.501-3.557.604-5.277ZM81.991,185.769c-.041.047-.371.01-.444.011-.027,0-.054,0-.08,0-.167.128-.326.264-.496.388-.069.006-.138.009-.207.008-.079.001-.158.002-.237.003-.357.004-.714.004-1.071.004-.357,0-.714,0-1.071-.004.021,0-.41-.035-.443-.011,1.146-.839,2.217-1.773,3.325-2.66.069-.006.138-.009.207-.008.079-.001.158-.002.237-.003.357-.004.714-.004,1.071-.004.357,0,.714,0,1.071.004-.037,0,.13.007.27.011h.173c-.57.946-1.601,1.437-2.305,2.261Z"/>
  <path class="cls-1" d="M107.204,198.586c-4.892,2.49-12.195-.868-12.651-4.34-.256-1.951,2.211-2.652,4.748-5.617l1.441-1.684c.428-.5-.049-2.398-.421-2.935-5.536,3.36-8.6,8.372-9.804,14.504-.587.177-2.134-.85-2.22-1.529-.354-2.784.823-4.692,2.163-6.751l2.433-3.739c.817-1.255,3.128-3.312,4.419-4.131l3.342-2.121,3.36,1.987c-.122,2.393.054,5.347-1.407,7.182l-2.077,2.609-1.21,1.438c-.524.623,2.84,3.223,4.013,3.051.726-.106,1.811-.684,3.175-1.275.368.407.828,2.425.695,3.351"/>
  <path class="cls-1" d="M343.67,177.991c-.237-.43-.612-.829-1.048-1.146-.164,0-.349-.004-.544-.011-.192.131-.373.274-.537.436.096.342.233.662.345,1.019-.003-.009-.034-.015-.079-.019l.138.136c.608.238.955.76.892,1.434-.066.711-.347,1.505-.812,2.054-.158.186-.358.349-.579.454-.112.053-.226.084-.35.094-.755.056-1.53.016-2.286.012-.261-.001-.54.02-.801-.016-.05-.007-.098-.018-.144-.041-.099-.049-.169-.137-.218-.234-.169-.333-.178-.766-.204-1.131-.029-.416-.083-.829-.11-1.245-.029-.437-.029-.876-.029-1.314,0-.003.051-.005.13-.007.062-.263.16-.509.246-.766.1-.302.137-.613.205-.923.129-.585.388-1.123.709-1.626.002-.003.004-.006.006-.01.019-.042.032-.085.054-.126.089-.165.199-.303.318-.429.224-.327.454-.651.695-.958.318-.404.704-.75,1.022-1.154.549-.699,1.038-1.93.514-2.772-.153-.246-.386-.393-.641-.498-.699.195-1.567.594-1.826.987l-2.285,3.475c-1.709,2.599-1.517,6.711-.548,9.687.44,1.303,3.531,2.958,4.758,2.486.617-.458,1.13-.873,1.572-1.268.205-.268.402-.542.575-.828.534-.883.922-1.907,1.127-2.919.189-.938.206-1.974-.267-2.834Z"/>
  <path class="cls-1" d="M98.753,218.381l-2.754,1.094c-2.43.965-4.322,2.701-5.178,5.075l-1.456,4.038c-1.992-.882-4.119-.929-5.639,1.254-1.014,1.456-1.106,4.632-.064,5.931,3.143,3.92,10.037,2.563,10.839,1.79.158-.152.299-.313.429-.479-.062-.249-.137-.495-.242-.723-.014.006-.038.009-.042.019.009-.026.009-.047.016-.072-.194-.4-.462-.744-.833-.962-.404-.237-1.006-.267-1.419-.48-.533-.065-1.018-.11-1.271-.205-.011-.004-.015-.014-.026-.018-.101-.008-.202-.01-.303-.019-.19.003-.376.002-.566-.004-.383.024-.514.018-.404-.015-.029-.002-.06-.001-.089-.003-.527-.036-1.056-.261-1.542-.452-.65-.255-1.307-.499-1.81-1.006h.167c.032-.003.061-.006.073-.006.014,0,.027,0,.041,0-.155-.117-.288-.257-.357-.442-.1-.269-.069-.572.007-.842.16-.571.557-1.186,1.112-1.437.057-.026.175-.005.239-.006.008,0,.017,0,.025,0,.236-.176.483-.315.711-.393.23-.078.578-.008.817-.008.193,0,.385,0,.578.002-.014,0,.044.003.107.006h.133s-.006.007-.009.011c.352.001.703.014,1.046.039.078.006.155.016.233.023.1-.012.199-.023.298-.036.395-.053.927-.075,1.183-.431.195-.271.202-.65.16-1.01-.289-.454-.763-.795-1.194-1.275-.822-.915-.085-1.624.729-2.192,1.663-1.161,3.617-1.701,5.559-2.252.993-.554,2.535-1.37,2.918-2.338.276-.749-1.486-2.469-2.222-2.177Z"/>
  <path class="cls-1" d="M84.43,229.027c.044-.042,8.398-8.583,9.96-8.75s-5.221,8.856-5.221,8.856"/>
  <path class="cls-1" d="M175.583,216.952l-2.754,1.094c-2.43.965-4.322,2.701-5.178,5.075l-1.456,4.038c-1.992-.882-4.119-.929-5.639,1.254-1.014,1.456-1.106,4.632-.064,5.931,3.143,3.92,10.037,2.563,10.839,1.79.158-.152.299-.313.429-.479-.062-.249-.137-.495-.242-.723-.014.006-.038.009-.042.019.009-.026.009-.047.016-.072-.194-.4-.462-.744-.833-.962-.404-.237-1.006-.267-1.419-.48-.533-.065-1.018-.11-1.271-.205-.011-.004-.015-.014-.026-.018-.101-.008-.202-.01-.303-.019-.19.003-.376.002-.566-.004-.383.024-.514.018-.404-.015-.029-.002-.06-.001-.089-.003-.527-.036-1.056-.261-1.542-.452-.65-.255-1.307-.499-1.81-1.006h.167c.032-.003.061-.006.073-.006.014,0,.027,0,.041,0-.155-.117-.288-.257-.357-.442-.1-.269-.069-.572.007-.842.16-.571.557-1.186,1.112-1.437.057-.026.175-.005.239-.006.008,0,.017,0,.025,0,.236-.176.483-.315.711-.393.23-.078.578-.008.817-.008.193,0,.385,0,.578.002-.014,0,.044.003.107.006h.133s-.006.007-.009.011c.352.001.703.014,1.046.039.078.006.155.016.233.023.1-.012.199-.023.298-.036.395-.053.927-.075,1.183-.431.195-.271.202-.65.16-1.01-.289-.454-.763-.795-1.194-1.275-.822-.915-.085-1.624.729-2.192,1.663-1.161,3.617-1.701,5.559-2.252.993-.554,2.535-1.37,2.918-2.338.276-.749-1.486-2.469-2.222-2.177Z"/>
  <path class="cls-1" d="M161.26,227.597c.044-.042,8.398-8.583,9.96-8.75s-5.221,8.856-5.221,8.856"/>
  <path class="cls-1" d="M243.216,252.845l-2.754,1.094c-2.43.965-4.322,2.701-5.178,5.075l-1.456,4.038c-1.992-.882-4.119-.929-5.639,1.254-1.014,1.456-1.106,4.632-.064,5.931,3.143,3.92,10.037,2.563,10.839,1.79.158-.152.299-.313.429-.479-.062-.249-.137-.495-.242-.723-.014.006-.038.009-.042.019.009-.026.009-.047.016-.072-.194-.4-.462-.744-.833-.962-.404-.237-1.006-.267-1.419-.48-.533-.065-1.018-.11-1.271-.205-.011-.004-.015-.014-.026-.018-.101-.008-.202-.01-.303-.019-.19.003-.376.002-.566-.004-.383.024-.514.018-.404-.015-.029-.002-.06-.001-.089-.003-.527-.036-1.056-.261-1.542-.452-.65-.255-1.307-.499-1.81-1.006h.167c.032-.003.061-.006.073-.006.014,0,.027,0,.041,0-.155-.117-.288-.257-.357-.442-.1-.269-.069-.572.007-.842.16-.571.557-1.186,1.112-1.437.057-.026.175-.005.239-.006.008,0,.017,0,.025,0,.236-.176.483-.315.711-.393.23-.078.578-.008.817-.008.193,0,.385,0,.578.002-.014,0,.044.003.107.006h.133s-.006.007-.009.011c.352.001.703.014,1.046.039.078.006.155.016.233.023.1-.012.199-.023.298-.036.395-.053.927-.075,1.183-.431.195-.271.202-.65.16-1.01-.289-.454-.763-.795-1.194-1.275-.822-.915-.085-1.624.729-2.192,1.663-1.161,3.617-1.701,5.559-2.252.993-.554,2.535-1.37,2.918-2.338.276-.749-1.486-2.469-2.222-2.177Z"/>
  <path class="cls-1" d="M228.893,263.49c.044-.042,8.398-8.583,9.96-8.75s-5.221,8.856-5.221,8.856"/>
  <path class="cls-1" d="M233.957,230.996c-.054-.187-.149-.48-.275-.73-.201-.145-.43-.25-.668-.315-.041-.011-.083-.015-.124-.024-.041,0-.081.001-.122,0-.159-.003-.318-.009-.477-.017-.491.059-.974.142-1.433.362-.427.205-.758.501-1.085.838-.339.349-.719.656-1.054,1.004-.063.066-.352.04-.552.021-2.001.398-4.374.52-6.492-.189.343-1.426,1.566-2.324,2.462-2.542.376-.091.751-.108,1.121-.076.262,0,.521.013.74.012h.01c.292-.032.534-.016.799-.151.366-.186.587-.511.635-.917.192-1.611-1.922-1.831-3.025-2.183-.598-.191-1.66-.516-1.529-1.353.081-.518.802-.852,1.372-1.002,1.484-1.41,3-2.242,5.053-2.388l3.275-2.691c-2.475-1.302-4.411-.807-6.918-.48-.76.099-1.979.906-2.62,1.259-6.248,3.44-.563,6.883-4.729,9.551-.66.863-.512,3.464.019,4.445l2.086,2.053c2.302,1.011,5.623,1.579,7.945.36l3.522-1.849c1.19-.624,1.933-1.748,2.098-2.817-.011-.061-.015-.119-.033-.183Z"/>
  <path class="cls-1" d="M135.21,232.216c-.054-.187-.149-.48-.275-.73-.201-.145-.43-.25-.668-.315-.041-.011-.083-.015-.124-.024-.041,0-.081.001-.122,0-.159-.003-.318-.009-.477-.017-.491.059-.974.142-1.433.362-.427.205-.758.501-1.085.838-.339.349-.719.656-1.054,1.004-.063.066-.352.04-.552.021-2.001.398-4.374.52-6.492-.189.343-1.426,1.566-2.324,2.462-2.542.376-.091.751-.108,1.121-.076.262,0,.521.013.74.012h.01c.292-.032.534-.016.799-.151.366-.186.587-.511.635-.917.192-1.611-1.922-1.831-3.025-2.183-.598-.191-1.66-.516-1.529-1.353.081-.518.802-.852,1.372-1.002,1.484-1.41,3-2.242,5.053-2.388l3.275-2.691c-2.475-1.302-4.411-.807-6.918-.48-.76.099-1.979.906-2.62,1.259-6.248,3.44-.563,6.883-4.729,9.551-.66.863-.512,3.464.019,4.445l2.086,2.053c2.302,1.011,5.623,1.579,7.945.36l3.522-1.849c1.19-.624,1.933-1.748,2.098-2.817-.011-.061-.015-.119-.033-.183Z"/>
  <path class="cls-1" d="M474.234,227.472c.308-.804.222-1.782.041-2.609-.34-1.553-1.426-2.895-2.762-3.725-.185-.115-.378-.216-.576-.308-.354.2-.672.461-.94.794-.533.66-.589,1.399-.374,2.199.098.366.24.69.472.993.029.038.06.072.09.109.286-.268.856-.806,1.026-.628l1.045,1.096c.284.298-.295.849-.894,1.449-.951.952-3.055,1.521-3.991.045-.384-.606-.541-1.585-.567-2.514-.095-.199-.172-.406-.228-.628-.194-.773-.121-1.484.393-2.121.066-.082.14-.139.21-.21h-.721c.249-.827.642-1.62,1.329-2.17.58-.464,1.17-.604,1.818-.65-.024-.05-.051-.099-.054-.157l-.115-3.055c-.124-.252-1.931-.264-2.19.287l-.973,2.071c-1.405,2.99-2.302,5.932-1.915,9.46l3.368,3.604c.404.433,1.603,1.04,2.168.975.452-.052,1.358-.572,1.709-.928l1.977-2.003c.201-.463.47-.897.654-1.376Z"/>
  <path class="cls-1" d="M429.092,236.338c-1.188.417-2.94-.988-3.367-2.17-.566-1.567.008-3.224,1.124-4.595-1.147-2.301-2.356-5.946-.432-8.299,1.39.605,4.068,1.041,4.629-.195.83-1.827,1.375-2.896,2.695-3.925l2.869-2.238c.708-.552,3.346.301,3.529,1.196.295,1.449.397,4.608-.199,5.888l-5.357,7.821-4.668,2.076-.822,4.439ZM435.122,223.767c.488-.919.497-2.447-.139-2.522-1.924-.227-4.194,2.612-2.735,4.202.519.566,2.397-.782,2.873-1.68Z"/>
  <path class="cls-1" d="M514.792,218.034c-.509-.937-.789-1.565-1.268-1.894-.48-.33-2.414-.089-2.899.313l-5.022,4.162c-1.422,1.179-1.938,3.643-4.605,2.811-1.639,5.024-5.726,8.07-4.839,11.184.65.094,2.323.174,2.321.101l1.747-3.837c1.177-2.585,2.896-2.811,5.537-3.48,1.746-.442,3.944-1.102,5.139-.452-.064,3.661.033,5.946.548,9.011l2.369.944.368-13.587c1.583-1.482,1.501-3.557.604-5.277ZM511.071,222.366c-.041.047-.371.01-.444.011-.027,0-.054,0-.08,0-.167.128-.326.264-.496.388-.069.006-.138.009-.207.008-.079.001-.158.002-.237.003-.357.004-.714.004-1.071.004-.357,0-.714,0-1.071-.004.021,0-.41-.035-.443-.011,1.146-.839,2.217-1.773,3.325-2.66.069-.006.138-.009.207-.008.079-.001.158-.002.237-.003.357-.004.714-.004,1.071-.004.357,0,.714,0,1.071.004-.037,0,.13.007.27.011h.173c-.57.946-1.601,1.437-2.305,2.261Z"/>
  <path class="cls-1" d="M776.34,205.554l-3.17,1.749c-1.517.837-2.322,3.006-3.619,4.358l-4,4.168-4.091,5.037c2.874,1.804,6.048,1.131,7.699-1.705,1.126-1.934,4.521-3.441,6.407-1.194.794.946-.552,3.384-.827,4.386l-1.104,4.018c6.6.357,2.43-3.988,6.016-11.348,1.604-3.292-.063-7.736-3.311-9.47ZM775.724,213.554c-.002.01-.006.02-.007.03-.003.019-.398.01-.443.011-.357.004-.714.004-1.071.004-.357,0-.714,0-1.071-.004.07,0-.444-.008-.443-.011.081-.496.248-.979.443-1.441.193-.456.418-.906.709-1.308.069-.006.138-.009.207-.008.079,0,.158-.002.237-.003.357-.004.714-.004,1.071-.004.116,0,1.51-.025,1.514.015.091.901.219,1.799.266,2.704,0,.003-1.064.012-1.411.015Z"/>
  <path class="cls-1" d="M803.086,224.616c-4.892,2.49-12.195-.868-12.651-4.34-.256-1.951,2.211-2.652,4.748-5.617l1.441-1.684c.428-.5-.049-2.398-.421-2.935-5.536,3.36-8.6,8.372-9.804,14.504-.587.177-2.134-.85-2.22-1.529-.354-2.784.823-4.692,2.163-6.751l2.433-3.739c.817-1.255,3.128-3.312,4.419-4.131l3.342-2.121,3.36,1.987c-.122,2.393.054,5.347-1.407,7.182l-2.077,2.609-1.21,1.438c-.524.623,2.84,3.223,4.013,3.051.726-.106,1.811-.684,3.175-1.275.368.407.828,2.425.695,3.351Z"/>
  <path class="cls-1" d="M706.408,216.557c-1.544-.23-2.04-1.108-2.748-2.503-.797-1.572-2.755-3.995-4.566-3.789-2.342.266-3.087,3.412-4.268,4.662-1.336,1.414-1.517,2.079-2.224,3.955-.498,1.322-1.7,3.829-.391,4.965.475.412,2.49.319,2.661-.246l.648-2.132c.669-2.201,5.542-2.305,6.212-.061l.79,2.647c.113.378,1.427.424,1.452.335-.067-1.965.374-3.951,1.681-4.145,1.369-.203,2.429-.676,2.65-1.638.182-.794-.946-1.909-1.897-2.05ZM701.53,217.264c-.357.004-.714.004-1.071.004-.357,0-.714,0-1.071-.004.062,0-.439.006-.444-.011-.001-.005-.002-.011-.003-.016-.105,0-.21.001-.315.001-.357,0-.714,0-1.071-.004.068,0-.442-.014-.444-.011.225-.629.713-1.119,1.094-1.655.069-.006.138-.009.207-.008l.237-.003c.057,0,.113,0,.17,0,.022-.294.054-.588.096-.875.003-.018.398-.01.443-.011.357-.004.714-.004,1.071-.004.357,0,.714,0,1.071.004-.07,0,.444.007.444.011-.124.844-.21,1.739.03,2.571-.003-.009-.398.01-.443.011Z"/>
  <path class="cls-1" d="M759.23,220.996c-.004-.067-.019-.135-.026-.203-.156-.064-.308-.127-.45-.188l-4.601.822c-.54.096-1.921-.169-2.396-.404-.476-.236-.761-1.588-.575-2.151l1.469-4.44c.321-.971,2.109-2.859,1.706-3.768-.747-1.682-3.684-.653-4.103.74l-1.514,5.039c-.026.001-.061.003-.089.004-.394.851-.796,1.698-1.062,2.586-.032.207-.07.411-.105.618-.001.019,0,.034-.002.053-.142,2.118,1.232,2.958,2.839,3.896,2.301,1.342,4.405,1.972,6.645.21l1.765-.566c.418-.655.548-1.488.498-2.247Z"/>
</svg>