<?xml version="1.0" encoding="UTF-8"?>
<svg id="fortifiedpro" xmlns="http://www.w3.org/2000/svg" viewBox="0 0 460 160">
  <g>
    <path d="M59.851,89.461c3.009,3.125,11.561-1.215,11.944,4.176l-3.753,1.007-4.718.942c-3.121.623-7.971-1.299-7.147-5.29l1.125-5.449c-.249-2.553.445-4.66,2.225-6.303-.187-2.431,1.349-4.467,3.608-5.034,2.361-2.024,5.448-1.424,7.993-.119.713.366,2.524.425,2.791,1.095.282.707.424,2.356.354,2.798l-8.153-.338c-.779-.032-2.31.818-2.851,1.287.995,2.524,2.586,3.986,4.954,5.009l1.86,2.558c-1.229,1.537-3.325,2.877-5.141,2.043-.94-.432-2.149-.898-3.138-1.06-.835-.137-1.917,1.562-1.951,2.679Z"/>
    <path d="M442.168,62.008c3.747,2.142,7.422,5.632,7.353,9.549l-5.002,1.101c-4.414,1.733-9.796.448-12.509-3.741-2.05-3.165,2.199-6.006,2.652-6.948.159-.33-.867-.839-1.13-1.136-1.797-2.033-.679-5.24,1.872-6.606l3.72-1.992,6.381-2.011.387,3.345-4.44,2.175-3.102,1.525c-.393.193-1.019.706-1.153,1.047-.168.426.673,1.236,1.097,1.478l3.873,2.215ZM442.253,66.498c-.63-.233-1.65-1.001-2.136-1.454l-1.532-1.287c-.318-.267-1.135-.841-1.385-.595l-.945.93c-.541.533-1.113,2.066-.968,2.895.114.654,1.371,1.567,2.204,1.547l5.764-.136c.277-.007.796-1.235.536-1.331l-1.539-.569Z"/>
    <path d="M203.452,92.5c-2.61,1.342-7.039,3.412-9.556.381-1.771-2.133.17-6.102,1.49-8.05l3.305-4.879c.639-.954.506-3.337.546-4.902l-5.002.535c-.662,1.111-1.628,2.81-2.415,3.595-.479.478-2.389.01-2.888-.457-.57-.534-.981-2.203-.713-2.97,1.014-2.904,3.534-3.482,5.938-4.471,1.397-.575,2.575-1.325,4.106-.99,1.26.276,2.531,1.617,3.459,2.801,2.021,2.578,1.188,6.506-.463,9.519l-3.082,5.623-.748,1.125c-.2.301.946.593,1.315.454l5.087-1.924c2.024-.765,3.92-2.144,6.217-.947l-.341,2.447c-.081.582-1.58.708-2.102.976l-4.154,2.135Z"/>
    <path d="M46.79,94.23l-3.069-.096c-.719-.022-.911-1.951-1.226-2.617-1.243-2.629-1.967-4.735-2.1-7.805-.049-1.12-2.701-1.924-3.291-.934-.847,1.423.018,3.095,1.135,4.217.598.6-.302,2.559-1.073,2.981-.731.4-2.699-.355-3.14-1.367-1.29-2.957-1.142-7.309.333-10.311l1.553-3.161,2.061-3.811c.598-1.106,2.66-1.828,3.354-.972l-.644,5.771c4.352-.949,10.186-1.464,10.715.597.126.49-.693,1.736-1.199,1.815l-7.103,1.108.709,2.078c.267,2.545.312,5.596,1.319,7.897.749,1.711,1.136,2.674,1.665,4.609Z"/>
    <path d="M127.989,82.862c-1.018,4.271,2.472,6.438.411,8.241-.47.411-1.391.218-2.372-.632-.89-.772-.499-3.484-.945-4.686-1.106-2.979-.943-5.087-.218-8.039l1.055-4.299,1.545.043c.211.006,2.363,2.731.276,5.65.772.281,2.285.522,3.323.299l6.081-1.31c1.781-.384,2.63-1.292,3.08-3.132.61-2.494,2.196-5.008,3.097-4.852.525.091,1.705.47,1.966.608l-1.764,5.191c-.106.312-.028,1.322.211,1.442l1.403.702c.743,1.771-1.515,2.869-3.066,2.972-1.34,2.113.264,4.914,1.897,6.429.444.412.46,1.947-.003,2.263-1.927,1.319-5.783-2.898-5.432-7.328-3.011-.03-5.756.808-8.306,1.977-.621-.768-1.499-1.467-2.237-1.539Z"/>
    <path d="M385.387,68.771c-.354.4-.773,2.384-.56,3.701,2.475.269,2.375-2.396,4.417-1.958.606,3.092-1.863,7.207-4.138,7.19-3.248-.024-5.497-5.918-2.024-12.634.372-.718.694-1.889,1.114-2.334.481-.508,2.405-.467,2.718.039.228,1.044,1.473,3.3,2.377,3.019l3.588-1.117c.197-1.668.548-3.182,1.29-4.456l.848-1.455c.187-.321,1.215-.212,1.839-.14l-.564,6.036,3.12,1.879-.897,1.73-4.15,1.58c-.76,2.266-.231,4.996,2.307,5.818l-.177,3.342c-3.486,1.055-5.49-3.018-5.685-7.115l-.072-1.52c-.018-.38-1.055-.4-1.467-.516l-3.884-1.091Z"/>
    <path d="M364.893,88.253c-.853.25-2.276-.358-2.645-1.001-1.284-2.241,1.135-3.228-.011-5.099l.544-3.84.792-7.344c.068-.634,1.133-1.418,1.634-1.298.705.168,1.303.803,1.987,1.77l1.112-1.759c2.34-3.703,6.374-7.059,9.541-5.076l1.173,2.67c-1.549,2.951.016,5.101-4.037,8.59l-3.89,3.349c-1.198-.381-1.839-2.186-2.236-3.795l-1.553,5.125c-.803,2.648-.985,5.47-2.41,7.709ZM370.465,74.545l5.115-5.304-1.194-1.141c-.749-.717-1.891,2.244-2.955,3.232-.965.896-1.852,1.803-.966,3.214Z"/>
    <path d="M310.051,76.061l2.662-1.933c1.855.674,3.446,1.855,4.904,3.267,1.212,1.174,1,2.531.328,4.047l-1.336,3.011-3.447,1.803c-3.688,1.929-7.88.204-10.043-3.239-2.004-3.191-.892-6.972.689-10.131l3.249-6.489c1.553-3.103,4.863-5.83,7.196-4.172.517.368.947,1.774.76,2.368-2.679,1.223-4.666,2.83-5.882,5.255l-1.717,3.426c-1.076,2.147-2.5,5.052-1.353,7.416.568,1.17,2.481,2.323,3.554,2.38,1.429.075,3.214-.861,4.389-1.73l1-.739c.214-.158.178-.864.098-1.117-.347-1.098-2.923.859-5.001-.038-.523-.461-.664-2.94-.05-3.385Z"/>
    <path d="M11.35,97.81c-.202-1.223-.357-3.044-.351-3.812,3.825-.674,8.524-2.372,9.537-5.264-1.402-1.66-3.508-3.334-5.136-4.675l-3.715-3.058c-.652-.537.241-2.722,1.323-2.913,3.159-.557,6.171-.842,9.422-1.123,2.435-.92,4.685-1.176,7.543-1.13l.005,3.068-4.269.98c-1.986.456-3.471,1.154-5.637,1.309-.357.026-1.398.315-1.26.614s.528.872.799,1.128l2.846,2.694c2.164,2.049,1.742,4.894.174,7.191-1.967,2.883-7.278,5.608-11.283,4.991Z"/>
    <path d="M184.053,98.049c.503.452.479,2.656-.07,3.087l-3.189,1.314c-4.782-1.64-7.847-5.695-7.633-10.772.051-1.204-.492-2.683-.771-3.846-.565-2.354-.053-5.122.274-7.508l1.178-8.606,2.079-6.704,1.46-4.423c.081-.246.279-1.245.502-1.132l1.366.686c.862.433,1.738,1.508,1.902,2.386.137.73-1.362,1.893-1.605,2.614l-1.814,5.389c-1.085,3.225-.797,6.804-1.365,10.067-.647,3.715-.943,6.123.067,10.255.475,1.944.17,4.814,1.661,6.335,1.182,1.206,3.754.799,5.958.859Z"/>
    <path d="M238.848,89.234l-2.001-1.425c-.527-.375-.375-2.257.061-2.769l3.325-3.899c.788-.924,1.149-1.893,1.8-3.13.818-1.555,2.39-4.525.501-5.9-1.426-1.038-4.452-.081-4.702,1.422-.239,1.437-.866,2.26-1.968,2.275-1.459.019-2.265-.94-2.126-2.555.209-2.427,2.617-4.971,4.756-5.34,2.047-.353,3.981-.214,5.373.93,1.635,1.344,1.915,3.051,1.968,5.329.074,3.211-.353,5.822-2.511,8.674,2.915,1.132,4.284-2.972,7.75-1.376.455,3.42-2.495,4.337-4.761,5.324l-5.557,2.419c-.436.19-1.417.373-1.908.023Z"/>
    <path d="M331.121,67.681c-3.126,1.995-4.335,4.577-5.625,7.574-2.053,4.771.982,5.464.859,8.064-1.005.238-2.9.015-3.499-.48l-1.362-3.941,1.009-3.973c.36-1.417.844-2.712,1.485-3.941l1.934-3.707c1.508-2.889,4.147-4.87,6.309-3.549,4.175,2.551.481,9.775,1.145,13.837.137.838,4.017-3.671,7.284-1.82l-1.449,3.338-2.327,1.584c-1.697,1.155-4.861,1.357-6.268-.569-1.862-2.549-.769-5.786.736-8.379.421-.726.208-2.49-.232-4.038Z"/>
    <path d="M268.881,77.356c2.35,2.614-1.41,9.136-4.167,9.541-4.324.634-5.76-3.063-7.118-6.163-1.069-2.44-.715-4.037-.014-6.701l1.155-4.393,1.737-4.685c.592-.222,2.472.615,3.057,1.562.915,1.483-.206,3.057-1.657,3.541l-.776,3.358c-.591.87-.85,2.102-.295,2.924,3.008-1.853,5.646-1.688,8.078,1.016ZM265.514,81.345l.331-1.467c.055-.243-1.053-.239-1.26-.106l-2.447,1.561,1.925,1.236c.353.227,1.356-.802,1.451-1.225Z"/>
    <path d="M355.749,77.093l-7.142.702c-.372,1.351-.602,2.57-1.045,3.177s-2.397.697-3.116.503c-.012-1.769.042-4.125.8-5.346l1.662-2.677,2.924-4.313,2.134-3.044c.368-.525,1.638-1.224,2.265-1.265.717-.046,1.844.776,2.768,1.576l1.124,5.707,2.588.586c.622.141.511,2.063.259,2.483-1.324.33-2.934,1.988-2.526,3.202.392,1.167.541,2.202.282,3.015-.226.707-2.304,1.503-2.694.866-.756-1.234-.529-2.583-.281-5.173ZM355.288,71.873c.176-.464-.404-1.746-.818-2.003s-1.686.18-1.929.616c-.399.715-.657,2.068-.732,3.147,1.245.042,3.11-.787,3.479-1.76Z"/>
    <path d="M217.045,86.793l-2.845-2.665c1.102-2.182,2.686-4.039,5.001-5.181l.88-2.433c1.915-1.401,4.873-1.797,6.681-.169,1.611,1.451,3.243,4.146,1.657,6.349-3.065,4.256-7.751,7.494-11.375,4.099ZM224.066,82.007l1.237-1.522c.185-.227-.534-1.106-.894-1.147-1.153-.132-3.466,2.021-2.793,3.273.329.494,2.053-.116,2.449-.604Z"/>
    <path d="M87.744,90.209c-.622-.315.048-2.041.324-2.833.542-1.555.565-3.838,1.318-5.125,1.178-2.011,1.944-3.985,1.165-6.229-3.13,1.145-5.72,1.397-9.333,1.403l-.324-3.897c2.31-.135,3.203-.388,5.155-1.088,1.424-.511,3.733-.568,5.382-.559,4.141.024,3.515,5.687,2.012,10.655l-1.853,6.124c-.16.528-.73,1.511-1.098,1.899s-1.959.047-2.746-.351Z"/>
    <path d="M418.779,78.945c-1.47-5.839.06-9.828.828-13.678l1.205-6.044c-1.816.045-3.029.408-4.892.945-1.224.036-2.042-3.101-.925-4.328l4.519-.693c.971-.149,3.073.616,3.947.978,1.279,3.656-.087,6.729-1.008,10.036-2.284,8.2,1.659,15.405-3.674,12.784Z"/>
    <path d="M106.831,84.728c2.022,1.502,4.854-.581,6.668.341.595.302.714,1.87.576,2.691-.11.651-1.591.855-2.194,1.197-2.198,1.245-3.438.868-5.441-.156-1.373-.702-2.593-1.345-3.478-2.626-1.153-1.668-1.348-3.559-.065-5.163l1.884-2.358c.556-.695,1.67-1.362,2.587-1.39,1.183-.036,1.842.689,2.83,2.128l-1.238,1.622-1.978,1.162c-.487.286-.602,2.215-.15,2.552Z"/>
    <path d="M406.717,74.792c-3.664,2.415-6.008-4.98-4.403-11.26l1.784-3.158c1.209.007,2.887.419,3.14,1.181.382,1.152-.57,2.458-1.702,3.058-.561,1.949-.781,5.08.315,6.986.506.88,1.909,2.506.867,3.193Z"/>
  </g>
  <path d="M278.652,73.973c-.298-2.39-.515-5.196-1.666-7.326-.568-1.052-1.473-2.341-1.734-3.518-1.091-4.925-5.048-8.04-10.04-8.432-.011.035-.012.07-.026.105-.094.227-.216.44-.31.667-.201.486-.133.898.082,1.365.145.315.309.73.572.965.211.189.516.259.783.331.54.145,1.085.267,1.616.442.331.11.681.256.995.439.046.023.099.032.143.058,1.832,1.086,2.275,3.938,3.234,5.695,2.039,3.733,2.372,6.136,2.702,9.893.29,3.299,1.489,6.684,1.269,10.079l-.367,5.674c-.049.759-1.198,2.269-.879,2.939.385.806,1.508,1.62,2.452,1.817l1.496.312c.245.051.179-.965.194-1.223l.273-4.65.285-7.013-1.075-8.62Z"/>
</svg>