<?xml version="1.0" encoding="UTF-8"?>
<svg id="fortifiedpro" xmlns="http://www.w3.org/2000/svg" viewBox="0 0 460 160">
  <path d="M426.279,67.227c-2.654,4.106-3.015,8.028-2.953,12.469-.091.943-3.344.942-3.462-.022-.444-3.637.501-6.699,1.235-9.988.518-2.321,1.529-3.887,2.361-6.103l2.605-6.933c1.384-.35,3.428.797,3.77,2.059-1.359,2.029-2.467,4.541-2.313,6.653l4.331,2.231,5.943-7.945c.853-1.141,2.692-2.175,3.829-2.823l3.827-2.181c1.637-.933,3.469-2.933,5.843-1.475-.318,1.598-2.15,3.374-3.637,4.379l-3.825,2.587c-6.193,4.188-5.395,6.072-7.724,8.22-.699.644-1.573,2.04-1.068,2.521l3.944,3.038c1.161.895,2.625,3.11,1.893,4.132-1.789,1.268-3.293-.709-4.366-1.593l-3.185-2.623-5.143-4.738-1.906-1.865Z"/>
  <path d="M165.378,63.245c.569,4.76,3.701,3.021,6.55,5.556l-4.702,1.621.939,6.63c.1.705-1.827,1.101-2.594.882-2.553-.728-.306-5.638-3.947-7.627-2.596,1.897-3.338,5.466-7.348,9.249-1.018.96-3.362.063-4.112-.752-1.551-1.685-2.389-4.847-1.885-6.779,1.018-3.897,1.454-7.581,1.677-11.592l1.195-2.497c.448-.556,2.357-.127,2.925.399,2.593,2.4-.98,6.83-1.196,12.527l-1.15,2.909c-.107.27-.026,1.528.243,1.641l1.08.452c.361.151.717-.994.987-1.348l1.761-2.305c.433-.567-.259-2.239-.536-3.22-.355-1.255,1.891-3.124,2.999-2.697,1.238.477,2.305.809,3.237.937l-.307-5.796c.46-.44,2.025-.78,2.561-.494.626.334,1.531,1.53,1.623,2.302Z"/>
  <path d="M346.485,101.748c.063.652-.739,2.226-1.214,2.449-.553.259-1.192-.329-2.44-1.15-.252-2.43.627-4.806,1.409-7.287l2.119-6.717,2.107-6.226,1.975-5.394,2.016-6.269c.819-2.546.817-6.041.806-8.629-.015-3.57-1.968-5.586-5.373-5.93-1.162-.831-1.743-3.393-1.307-5.047,1.062-.366,3.1-.244,3.94.411,6.752,5.261,7.109,9.113,6.628,17.526l-1.085,3.036-2.293,9.079c-.48,1.902-1.675,3.406-2.252,5.13l-1.066,3.187-2.185,5.808c-.638,1.696-2.036,3.452-1.786,6.024Z"/>
  <path d="M21.497,76.661c-4.186.95-7.598,1.952-11.893,1.873-.254-1.219-.173-2.874.096-3.988,3.123-.352,5.271-.792,8.029-1.498l3.778-.966c1.324-1.455-1.339-2.014-2.038-2.714l-5.207-5.22c-.65-.652-1.268-2.488-1.811-3.158,2.145-1.969,4.787-3.689,7.787-4.839,3.875-1.486,12.873-2.002,13.76-.613.223.349.43,1.732.022,1.804l-1.941.345-9.266,2.39c-1.805.466-4.69,1.963-4.681,3.144.012,1.504,4.307,3.517,7.311,7.862,1.412.544,3.128,1.282,4.596,2.356l-1.948,1.726-6.594,1.496Z"/>
  <path d="M236.145,85.17c-.83-.445-1.948-1.516-1.989-2.344-.048-.971.749-2.515,1.522-2.999l3.384-2.119c1.912-1.197,3.843-3.482,5.547-5.122l.779-2.399c.809-.79,1.585-1.933,1.461-2.695-.161-.986-1.441-1.916-2.305-2.106-6.15-1.351-6.515,3.402-8.268,4.517-.469.299-1.998-.308-2.174-.833-.779-2.319.652-4.921,2.928-6.427,2.527-1.672,6.3-1.793,9.364-.779l2.565,2.225c1.686,3.834.428,7.952-2.305,11.085-1.163,1.333-2.183,2.641-2.36,4.626,3.127-1.18,5.443-2.475,8.515-1.197.325,1.806-1.326,3.215-3.257,3.482-1.298.18-2.775,1.328-4.019,1.685l-3.704,1.063c-1.924,1.009-3.573,1.468-5.682.337Z"/>
  <path d="M287.131,88.035c-.979-.643-2.064-2.208-2.181-3.085s.622-2.748,1.324-3.448l2.938-2.934,4.977-4.192c.38-.32,1.024-1.471.851-1.858-.429-.963-4.365-3.064-5.65-2.006-.618.509-.727,2.319-.714,3.604-2.701.59-5.742-3.082-5.657-4.03.136-1.516,2.669-2.619,3.878-3.141,2.604-1.125,4.057-1.35,6.534.083l3.626,2.098c1.127.652,2.115,2.126,2.389,3.143.405,1.505-.261,3.206-1.249,4.364-1.668,1.953-3.206,4.257-5.43,5.406-1.307.676-1.801.948-2.689,2.263,3.71.861,5.619-3.059,10.711-2.433.183,3.15-2.362,3.498-4.187,4.741-2.614,1.781-6.224,3.559-9.471,1.426Z"/>
  <path d="M318.733,85.785l-4.989,2.158c-.477.206-1.982.14-2.445-.01-.578-.187-.457-2.079-.261-2.732l3.486-2.943c2.375-.197,5.469-2.392,5.879-3.483.176-.468-.99-1.155-1.485-1.231l-3.603-.556c-.762.204-2.165.079-2.646-.451-.663-.73-1.027-1.915-1.423-2.877l-1.402-3.404,2.235-4.269,2.645-2.07,8.656-.282c1.121-.037,4.068,1.573,4.279,3.219.062.482-1.116.962-1.735,1.003l-8.013.533-3.686,1.501-.07,1.566,4.711,1.877c4.529,1.805,5.175,3.446,5.029,8.598l-5.162,3.853Z"/>
  <path d="M208.172,88.21l-1.926-5.169c-1.182-3.174-.96-10.748.65-14.348l2.087-4.666,1.896-3.853c1.323-2.689,3.232-4.33,5.833-5.74,1.212-.657,2.852-1.655,3.739-.659.808.907,1.504,1.608,1.671,2.204.194.696-.541,2.26-.907,2.901l-2.177-1.111c-4.59,3.332-6.971,7.79-8.402,13.15-1.966,7.364-1.987,17.221,4.739,20.347.5.346.801,1.868.5,2.365-1.375,2.27-7.011-3.56-7.705-5.421Z"/>
  <path d="M76.86,74.396c-3.135,1.672-7.61,2.197-9.283-1.5-.711-1.573.459-3.471,2.216-3.502l.948-4.016c.357-1.512,1.599-4.076,2.39-5.357l4.539-1.992c1.5-.658,4.718-.534,6.587-.456.422.663-.452,2.405-1.218,2.646l-6.214,1.957c-.733,3.392,2.08,6.82,5.636,7.547.044,1.034-.7,2.058-1.46,2.463l-4.141,2.209Z"/>
  <path d="M272.116,82.86c-3.445,2.491-7.916,2.472-10.739-1.231l-1.262-4.737c-.122-1.214,1.705-3.606,2.551-4.461l4.775-1.087,2.246-1.193c.469-.249,1.892.471,2.39.876l4.971,4.043c.676.55,1.162,2.25,1.032,3.107-.116.768-1.502,1.457-2.311,2.042l-3.651,2.64ZM274.039,76.725c-2.017-1.883-3.649-.078-4.916.762-.924-.591-1.942-1.245-2.574-1.262-1.088-.03-3.079,1.85-2.383,3.465.932,2.162,6.437-.218,9.873-2.964Z"/>
  <path d="M44.808,81.293c-1.693,2.195-4.2,1.061-5.742.237l-.75-2.45c-1.363-2.156-.778-4.113-.33-6.513l1.587-8.485c.383-2.048,1.209-3.666,1.486-5.811.267-2.07.791-3.859,1.283-5.819l1.359-5.41c.548-.277,2.019-.774,2.553-.562.623.247,1.336,1.115,2.237,2.066l-2.551,7.323-2.025,6.389c-.903,2.851-1.169,5.843-1.725,9.015-.292,1.665-1.515,4.32-.368,5.903l2.985,4.117Z"/>
  <path d="M111.263,74.084c-1.728.411-4.222.214-4.889-.93-1.707-2.927-.302-5.966,1.554-8.284l1.04-1.298c.891-1.113-4.989-2.996-9.16-1.566-2.047.702-4.681,1.883-6.563.794-.482-.264-.932-2.065-.507-2.45s1.346-.889,2.109-1.292c4.635-2.45,7.314-1.824,12.31-.461,3.031.827,5.867-.578,8.177.948,1.891,1.25-2.109,4.788-3.296,7.217l-1.549,3.171c.504,1.11.906,2.978.775,4.15Z"/>
  <path d="M400.394,78.065c-.144.688-2.066,1.805-2.615,1.27l-2.196-2.138c-1.568-4.405,1.544-10.618,5.547-13.151,3.954,2.123,5.762,5.926,7.454,6.058.779.061,2.045-1.113,2.387-1.796l2.279-4.548,1.168-2.267c.273-.53,1.876-.415,2.835-.369.657,1.62-.264,3.352-1.004,5.02l-3.417,7.707c-1.89.741-5.015.676-7.032-.019l-2.275-2.872c-.322-.407-.679-1.9-1.202-1.92s-1.676.485-2.101.879c-2.296,2.126-1.714,5.485.173,8.143Z"/>
  <path d="M56.261,75.206c.067.381-1.711.905-1.956.602l-1.284-1.59c-.793-1.05-1.615-2.273-2.166-3.493l-2.009-4.448-1.871-4.843c-.297-.77-.219-2.73.249-3.396.646-.917,12.116-5.092,12.627-2.108.372,2.175-3.927,1.232-7.549,4.783-.61.598-.698,2.992-.361,3.806l1.961,4.749c.739,1.789,1.949,3.609,2.358,5.937Z"/>
  <path d="M136.537,78.999c-.794,1.241-4.723,1.784-5.785.772l-4.759-4.537c-2.191-2.089-1.716-4.751-.381-7.151l2.078-3.734c.55-.989,1.259-2.252,2.063-2.398,1.06-.192,2.523.25,3.504.833s1.49,2.446.875,3.036c-2.344.374-3.723,1.828-4.887,3.837-.951,1.641-.478,3.44.59,5.099.875,1.359,2.693,1.902,4.747,1.843l1.764-.05c.452-.013.481,1.996.191,2.449Z"/>
  <path d="M387.083,77.635c-.549.836-3.398.637-3.932-.328-1.6-2.888-1.087-6.268.43-8.814l2.398-4.025.965-1.972c.271-.554,2.001-.646,2.814-.501.946,1.452.236,3.486-.673,5.002l-2.181,3.638c-1.312,2.189-1.278,4.086.178,7Z"/>
</svg>